G04 #@! TF.GenerationSoftware,KiCad,Pcbnew,(6.0.0)*
G04 #@! TF.CreationDate,2022-08-14T01:19:03-04:00*
G04 #@! TF.ProjectId,Panel v2,50616e65-6c20-4763-922e-6b696361645f,rev?*
G04 #@! TF.SameCoordinates,Original*
G04 #@! TF.FileFunction,Soldermask,Top*
G04 #@! TF.FilePolarity,Negative*
%FSLAX46Y46*%
G04 Gerber Fmt 4.6, Leading zero omitted, Abs format (unit mm)*
G04 Created by KiCad (PCBNEW (6.0.0)) date 2022-08-14 01:19:03*
%MOMM*%
%LPD*%
G01*
G04 APERTURE LIST*
G04 Aperture macros list*
%AMRoundRect*
0 Rectangle with rounded corners*
0 $1 Rounding radius*
0 $2 $3 $4 $5 $6 $7 $8 $9 X,Y pos of 4 corners*
0 Add a 4 corners polygon primitive as box body*
4,1,4,$2,$3,$4,$5,$6,$7,$8,$9,$2,$3,0*
0 Add four circle primitives for the rounded corners*
1,1,$1+$1,$2,$3*
1,1,$1+$1,$4,$5*
1,1,$1+$1,$6,$7*
1,1,$1+$1,$8,$9*
0 Add four rect primitives between the rounded corners*
20,1,$1+$1,$2,$3,$4,$5,0*
20,1,$1+$1,$4,$5,$6,$7,0*
20,1,$1+$1,$6,$7,$8,$9,0*
20,1,$1+$1,$8,$9,$2,$3,0*%
G04 Aperture macros list end*
%ADD10C,6.400000*%
%ADD11C,0.800000*%
%ADD12RoundRect,0.135000X-0.185000X0.135000X-0.185000X-0.135000X0.185000X-0.135000X0.185000X0.135000X0*%
%ADD13C,0.500000*%
%ADD14RoundRect,0.250000X-0.625000X0.375000X-0.625000X-0.375000X0.625000X-0.375000X0.625000X0.375000X0*%
%ADD15R,1.200000X0.900000*%
%ADD16C,0.650000*%
%ADD17R,0.600000X1.450000*%
%ADD18R,0.300000X1.450000*%
%ADD19O,1.000000X1.600000*%
%ADD20O,1.000000X2.100000*%
%ADD21R,0.600000X1.550000*%
%ADD22R,1.200000X2.000000*%
G04 APERTURE END LIST*
D10*
X76539997Y-117969019D03*
D11*
X74842941Y-119666075D03*
X76539997Y-120369019D03*
X78939997Y-117969019D03*
X74842941Y-116271963D03*
X78237053Y-116271963D03*
X74139997Y-117969019D03*
X76539997Y-115569019D03*
X78237053Y-119666075D03*
X125937056Y-189866093D03*
X124240000Y-190569037D03*
X124240000Y-185769037D03*
X125937056Y-186471981D03*
X122542944Y-189866093D03*
D10*
X124240000Y-188169037D03*
D11*
X121840000Y-188169037D03*
X122542944Y-186471981D03*
X126640000Y-188169037D03*
D12*
X53087619Y-130312147D03*
X53087619Y-131332147D03*
D13*
X68920709Y-37568997D03*
D14*
X103611872Y-46731501D03*
X103611872Y-49531501D03*
D13*
X69158380Y-36578400D03*
X164558386Y-35559593D03*
X164558387Y-48278401D03*
D15*
X58243119Y-73181507D03*
X58243119Y-69881507D03*
D13*
X24521608Y-140859606D03*
X24759283Y-128169009D03*
X69158382Y-130178411D03*
D12*
X149630625Y-165412156D03*
X149630625Y-166432156D03*
D13*
X68920708Y-25868995D03*
D14*
X103611872Y-58431504D03*
X103611872Y-61231504D03*
D13*
X120159284Y-49268998D03*
X69158381Y-106778409D03*
D11*
X125937056Y-46071945D03*
X124240000Y-50169001D03*
X125937056Y-49466057D03*
X122542944Y-46071945D03*
X122542944Y-49466057D03*
D10*
X124240000Y-47769001D03*
D11*
X124240000Y-45369001D03*
X121840000Y-47769001D03*
X126640000Y-47769001D03*
D14*
X151311875Y-46731501D03*
X151311875Y-49531501D03*
D13*
X69158381Y-48278401D03*
X164320722Y-189669016D03*
D12*
X100787622Y-83512135D03*
X100787622Y-84532135D03*
D15*
X153643125Y-143381525D03*
X153643125Y-140081525D03*
D13*
X120159281Y-107769006D03*
D16*
X43926994Y-141982025D03*
X49706994Y-141982025D03*
D17*
X50066994Y-143427025D03*
X49266994Y-143427025D03*
D18*
X48066994Y-143427025D03*
X47066994Y-143427025D03*
X46566994Y-143427025D03*
X45566994Y-143427025D03*
D17*
X44366994Y-143427025D03*
X43566994Y-143427025D03*
X43566994Y-143427025D03*
X44366994Y-143427025D03*
D18*
X45066994Y-143427025D03*
X46066994Y-143427025D03*
X47566994Y-143427025D03*
X48566994Y-143427025D03*
D17*
X49266994Y-143427025D03*
X50066994Y-143427025D03*
D19*
X51136994Y-138332025D03*
X42496994Y-138332025D03*
D20*
X51136994Y-142512025D03*
X42496994Y-142512025D03*
D13*
X68920703Y-151569012D03*
D11*
X67239994Y-188169037D03*
X64839994Y-190569037D03*
X63142938Y-189866093D03*
D10*
X64839994Y-188169037D03*
D11*
X64839994Y-185769037D03*
X66537050Y-189866093D03*
X63142938Y-186471981D03*
X62439994Y-188169037D03*
X66537050Y-186471981D03*
D13*
X72221610Y-58959596D03*
D21*
X35639994Y-68744007D03*
X36639994Y-68744007D03*
X37639994Y-68744007D03*
X38639994Y-68744007D03*
D22*
X39939994Y-72619007D03*
X34339994Y-72619007D03*
D13*
X164320711Y-93069004D03*
D12*
X101930622Y-188812162D03*
X101930622Y-189832162D03*
D13*
X164558385Y-129159604D03*
X24521605Y-176978417D03*
D11*
X124240000Y-21968995D03*
X121840000Y-24368995D03*
X126640000Y-24368995D03*
X124240000Y-26768995D03*
D10*
X124240000Y-24368995D03*
D11*
X125937056Y-26066051D03*
X122542944Y-22671939D03*
X122542944Y-26066051D03*
X125937056Y-22671939D03*
D13*
X69158382Y-176978417D03*
X24521608Y-129159604D03*
D11*
X122542944Y-37766054D03*
X125937056Y-37766054D03*
X125937056Y-34371942D03*
X124240000Y-33668998D03*
X124240000Y-38468998D03*
D10*
X124240000Y-36068998D03*
D11*
X122542944Y-34371942D03*
X126640000Y-36068998D03*
X121840000Y-36068998D03*
D12*
X101930622Y-83512135D03*
X101930622Y-84532135D03*
D13*
X24521605Y-153578414D03*
X72459286Y-128169009D03*
D14*
X151311875Y-81831510D03*
X151311875Y-84631510D03*
D13*
X116858385Y-130178411D03*
X120159277Y-189669016D03*
X24521607Y-58959596D03*
D14*
X103611872Y-23331495D03*
X103611872Y-26131495D03*
D13*
X164320714Y-25868995D03*
X24521608Y-94059600D03*
D12*
X149630625Y-153712153D03*
X149630625Y-154732153D03*
D14*
X55911869Y-23331495D03*
X55911869Y-26131495D03*
D21*
X83339997Y-150644028D03*
X84339997Y-150644028D03*
X85339997Y-150644028D03*
X86339997Y-150644028D03*
D22*
X82039997Y-154519028D03*
X87639997Y-154519028D03*
D12*
X53087619Y-25012120D03*
X53087619Y-26032120D03*
D13*
X72221611Y-129159604D03*
D12*
X53087619Y-60112129D03*
X53087619Y-61132129D03*
D10*
X112539997Y-82869010D03*
D11*
X110139997Y-82869010D03*
X114939997Y-82869010D03*
X110842941Y-81171954D03*
X114237053Y-84566066D03*
X110842941Y-84566066D03*
X112539997Y-85269010D03*
X112539997Y-80469010D03*
X114237053Y-81171954D03*
D12*
X53087619Y-153712153D03*
X53087619Y-154732153D03*
D13*
X24759273Y-154569012D03*
D16*
X97406997Y-95182013D03*
X91626997Y-95182013D03*
D17*
X97766997Y-96627013D03*
X96966997Y-96627013D03*
D18*
X95766997Y-96627013D03*
X94766997Y-96627013D03*
X94266997Y-96627013D03*
X93266997Y-96627013D03*
D17*
X92066997Y-96627013D03*
X91266997Y-96627013D03*
X91266997Y-96627013D03*
X92066997Y-96627013D03*
D18*
X92766997Y-96627013D03*
X93766997Y-96627013D03*
X95266997Y-96627013D03*
X96266997Y-96627013D03*
D17*
X96966997Y-96627013D03*
X97766997Y-96627013D03*
D20*
X90196997Y-95712013D03*
D19*
X90196997Y-91532013D03*
D20*
X98836997Y-95712013D03*
D19*
X98836997Y-91532013D03*
D13*
X164320716Y-72669001D03*
D14*
X55911869Y-81831510D03*
X55911869Y-84631510D03*
D13*
X72221609Y-106778409D03*
X116858382Y-117459603D03*
X24759285Y-163269013D03*
X116858382Y-105759601D03*
X24521608Y-105759601D03*
X164558385Y-140859606D03*
D16*
X49706994Y-60082004D03*
X43926994Y-60082004D03*
D17*
X50066994Y-61527004D03*
X49266994Y-61527004D03*
D18*
X48066994Y-61527004D03*
X47066994Y-61527004D03*
X46566994Y-61527004D03*
X45566994Y-61527004D03*
D17*
X44366994Y-61527004D03*
X43566994Y-61527004D03*
X43566994Y-61527004D03*
X44366994Y-61527004D03*
D18*
X45066994Y-61527004D03*
X46066994Y-61527004D03*
X47566994Y-61527004D03*
X48566994Y-61527004D03*
D17*
X49266994Y-61527004D03*
X50066994Y-61527004D03*
D19*
X42496994Y-56432004D03*
D20*
X51136994Y-60612004D03*
X42496994Y-60612004D03*
D19*
X51136994Y-56432004D03*
D12*
X149630625Y-25012120D03*
X149630625Y-26032120D03*
D13*
X24521608Y-117459603D03*
X164320711Y-104769006D03*
X72459282Y-46268998D03*
D16*
X97406997Y-24981995D03*
X91626997Y-24981995D03*
D17*
X97766997Y-26426995D03*
X96966997Y-26426995D03*
D18*
X95766997Y-26426995D03*
X94766997Y-26426995D03*
X94266997Y-26426995D03*
X93266997Y-26426995D03*
D17*
X92066997Y-26426995D03*
X91266997Y-26426995D03*
X91266997Y-26426995D03*
X92066997Y-26426995D03*
D18*
X92766997Y-26426995D03*
X93766997Y-26426995D03*
X95266997Y-26426995D03*
X96266997Y-26426995D03*
D17*
X96966997Y-26426995D03*
X97766997Y-26426995D03*
D20*
X90196997Y-25511995D03*
D19*
X90196997Y-21331995D03*
D20*
X98836997Y-25511995D03*
D19*
X98836997Y-21331995D03*
D12*
X149630625Y-188812162D03*
X149630625Y-189832162D03*
D13*
X72459279Y-84369003D03*
X24759286Y-186669016D03*
D12*
X148487625Y-71812132D03*
X148487625Y-72832132D03*
D11*
X121840000Y-153069028D03*
X125937056Y-154766084D03*
D10*
X124240000Y-153069028D03*
D11*
X122542944Y-154766084D03*
X125937056Y-151371972D03*
X122542944Y-151371972D03*
X124240000Y-150669028D03*
X126640000Y-153069028D03*
X124240000Y-155469028D03*
X122542944Y-143066081D03*
X125937056Y-139671969D03*
X122542944Y-139671969D03*
X124240000Y-138969025D03*
X125937056Y-143066081D03*
X124240000Y-143769025D03*
X126640000Y-141369025D03*
X121840000Y-141369025D03*
D10*
X124240000Y-141369025D03*
D13*
X116620715Y-107769006D03*
X116620713Y-60969000D03*
X72221608Y-165278416D03*
X72459286Y-116469007D03*
X69158382Y-153578414D03*
D15*
X58243119Y-178481534D03*
X58243119Y-175181534D03*
D13*
X164558385Y-94059600D03*
X116858385Y-188678418D03*
X119921613Y-58959596D03*
X116858383Y-70659597D03*
D12*
X53087619Y-106912141D03*
X53087619Y-107932141D03*
X101930622Y-71812132D03*
X101930622Y-72832132D03*
D16*
X91626997Y-60082004D03*
X97406997Y-60082004D03*
D17*
X97766997Y-61527004D03*
X96966997Y-61527004D03*
D18*
X95766997Y-61527004D03*
X94766997Y-61527004D03*
X94266997Y-61527004D03*
X93266997Y-61527004D03*
D17*
X92066997Y-61527004D03*
X91266997Y-61527004D03*
X91266997Y-61527004D03*
X92066997Y-61527004D03*
D18*
X92766997Y-61527004D03*
X93766997Y-61527004D03*
X95266997Y-61527004D03*
X96266997Y-61527004D03*
D17*
X96966997Y-61527004D03*
X97766997Y-61527004D03*
D20*
X90196997Y-60612004D03*
D19*
X98836997Y-56432004D03*
X90196997Y-56432004D03*
D20*
X98836997Y-60612004D03*
D13*
X119921612Y-95078407D03*
X116620709Y-81369003D03*
X164558388Y-141878413D03*
D12*
X54230619Y-106912141D03*
X54230619Y-107932141D03*
X54230619Y-60112129D03*
X54230619Y-61132129D03*
D14*
X55911869Y-35031498D03*
X55911869Y-37831498D03*
D13*
X72221610Y-70659597D03*
D15*
X105943122Y-119981519D03*
X105943122Y-116681519D03*
D13*
X164320719Y-131169009D03*
X164320713Y-57969000D03*
X164558388Y-165278416D03*
X116858383Y-58959596D03*
X72221610Y-23859591D03*
D12*
X149630625Y-177112159D03*
X149630625Y-178132159D03*
D13*
X68920709Y-22868995D03*
D12*
X54230619Y-36712123D03*
X54230619Y-37732123D03*
D13*
X72221609Y-83378406D03*
D16*
X145107000Y-177082034D03*
X139327000Y-177082034D03*
D17*
X145467000Y-178527034D03*
X144667000Y-178527034D03*
D18*
X143467000Y-178527034D03*
X142467000Y-178527034D03*
X141967000Y-178527034D03*
X140967000Y-178527034D03*
D17*
X139767000Y-178527034D03*
X138967000Y-178527034D03*
X138967000Y-178527034D03*
X139767000Y-178527034D03*
D18*
X140467000Y-178527034D03*
X141467000Y-178527034D03*
X142967000Y-178527034D03*
X143967000Y-178527034D03*
D17*
X144667000Y-178527034D03*
X145467000Y-178527034D03*
D19*
X146537000Y-173432034D03*
D20*
X146537000Y-177612034D03*
X137897000Y-177612034D03*
D19*
X137897000Y-173432034D03*
D13*
X69158381Y-95078407D03*
X24759284Y-151569012D03*
X24521609Y-175959610D03*
X72221608Y-188678418D03*
D15*
X58243119Y-131681522D03*
X58243119Y-128381522D03*
D13*
X72221611Y-94059600D03*
D12*
X148487625Y-60112129D03*
X148487625Y-61132129D03*
D11*
X67239994Y-141369025D03*
X64839994Y-143769025D03*
X63142938Y-143066081D03*
D10*
X64839994Y-141369025D03*
D11*
X66537050Y-143066081D03*
X62439994Y-141369025D03*
X63142938Y-139671969D03*
X66537050Y-139671969D03*
X64839994Y-138969025D03*
D12*
X53087619Y-118612144D03*
X53087619Y-119632144D03*
X53087619Y-83512135D03*
X53087619Y-84532135D03*
D15*
X105943122Y-61481504D03*
X105943122Y-58181504D03*
D13*
X119921612Y-106778409D03*
X116620705Y-174969015D03*
D16*
X49706994Y-118582019D03*
X43926994Y-118582019D03*
D17*
X50066994Y-120027019D03*
X49266994Y-120027019D03*
D18*
X48066994Y-120027019D03*
X47066994Y-120027019D03*
X46566994Y-120027019D03*
X45566994Y-120027019D03*
D17*
X44366994Y-120027019D03*
X43566994Y-120027019D03*
X43566994Y-120027019D03*
X44366994Y-120027019D03*
D18*
X45066994Y-120027019D03*
X46066994Y-120027019D03*
X47566994Y-120027019D03*
X48566994Y-120027019D03*
D17*
X49266994Y-120027019D03*
X50066994Y-120027019D03*
D20*
X51136994Y-119112019D03*
D19*
X42496994Y-114932019D03*
D20*
X42496994Y-119112019D03*
D19*
X51136994Y-114932019D03*
D13*
X119921611Y-130178411D03*
D15*
X153643125Y-61481504D03*
X153643125Y-58181504D03*
D13*
X72459281Y-37568997D03*
D14*
X55911869Y-163731531D03*
X55911869Y-166531531D03*
D13*
X164320709Y-139869010D03*
D16*
X145107000Y-153682028D03*
X139327000Y-153682028D03*
D17*
X145467000Y-155127028D03*
X144667000Y-155127028D03*
D18*
X143467000Y-155127028D03*
X142467000Y-155127028D03*
X141967000Y-155127028D03*
X140967000Y-155127028D03*
D17*
X139767000Y-155127028D03*
X138967000Y-155127028D03*
X138967000Y-155127028D03*
X139767000Y-155127028D03*
D18*
X140467000Y-155127028D03*
X141467000Y-155127028D03*
X142967000Y-155127028D03*
X143967000Y-155127028D03*
D17*
X144667000Y-155127028D03*
X145467000Y-155127028D03*
D19*
X137897000Y-150032028D03*
X146537000Y-150032028D03*
D20*
X137897000Y-154212028D03*
X146537000Y-154212028D03*
D14*
X55911869Y-128631522D03*
X55911869Y-131431522D03*
D13*
X72459277Y-131169009D03*
X24521608Y-152559607D03*
D14*
X103611872Y-35031498D03*
X103611872Y-37831498D03*
D11*
X112539997Y-132069022D03*
X114237053Y-131366078D03*
X114237053Y-127971966D03*
X112539997Y-127269022D03*
X110842941Y-127971966D03*
X114939997Y-129669022D03*
X110139997Y-129669022D03*
X110842941Y-131366078D03*
D10*
X112539997Y-129669022D03*
D16*
X97406997Y-130282022D03*
X91626997Y-130282022D03*
D17*
X97766997Y-131727022D03*
X96966997Y-131727022D03*
D18*
X95766997Y-131727022D03*
X94766997Y-131727022D03*
X94266997Y-131727022D03*
X93266997Y-131727022D03*
D17*
X92066997Y-131727022D03*
X91266997Y-131727022D03*
X91266997Y-131727022D03*
X92066997Y-131727022D03*
D18*
X92766997Y-131727022D03*
X93766997Y-131727022D03*
X95266997Y-131727022D03*
X96266997Y-131727022D03*
D17*
X96966997Y-131727022D03*
X97766997Y-131727022D03*
D20*
X90196997Y-130812022D03*
D19*
X98836997Y-126632022D03*
X90196997Y-126632022D03*
D20*
X98836997Y-130812022D03*
D11*
X63142938Y-131366078D03*
X67239994Y-129669022D03*
X64839994Y-127269022D03*
D10*
X64839994Y-129669022D03*
D11*
X64839994Y-132069022D03*
X63142938Y-127971966D03*
X66537050Y-131366078D03*
X62439994Y-129669022D03*
X66537050Y-127971966D03*
X114237053Y-92871957D03*
X112539997Y-96969013D03*
X110139997Y-94569013D03*
X110842941Y-92871957D03*
X114237053Y-96266069D03*
X112539997Y-92169013D03*
X114939997Y-94569013D03*
X110842941Y-96266069D03*
D10*
X112539997Y-94569013D03*
D13*
X164320710Y-128169009D03*
X24759273Y-142869010D03*
D12*
X101930622Y-177112159D03*
X101930622Y-178132159D03*
D13*
X68920706Y-69669001D03*
X69158380Y-24878399D03*
X72459276Y-142869010D03*
D11*
X28839994Y-120369019D03*
X30537050Y-119666075D03*
X31239994Y-117969019D03*
X30537050Y-116271963D03*
X26439994Y-117969019D03*
X27142938Y-119666075D03*
X28839994Y-115569019D03*
D10*
X28839994Y-117969019D03*
D11*
X27142938Y-116271963D03*
D12*
X54230619Y-165412156D03*
X54230619Y-166432156D03*
D13*
X119921611Y-176978417D03*
D12*
X149630625Y-71812132D03*
X149630625Y-72832132D03*
D13*
X24759278Y-37568997D03*
D11*
X124240000Y-108669016D03*
X121840000Y-106269016D03*
X124240000Y-103869016D03*
X125937056Y-107966072D03*
X122542944Y-104571960D03*
X125937056Y-104571960D03*
X126640000Y-106269016D03*
X122542944Y-107966072D03*
D10*
X124240000Y-106269016D03*
D21*
X83339997Y-115544019D03*
X84339997Y-115544019D03*
X85339997Y-115544019D03*
X86339997Y-115544019D03*
D22*
X87639997Y-119419019D03*
X82039997Y-119419019D03*
D11*
X27142938Y-81171954D03*
X26439994Y-82869010D03*
X31239994Y-82869010D03*
D10*
X28839994Y-82869010D03*
D11*
X28839994Y-85269010D03*
X30537050Y-84566066D03*
X27142938Y-84566066D03*
X28839994Y-80469010D03*
X30537050Y-81171954D03*
D15*
X153643125Y-38081498D03*
X153643125Y-34781498D03*
D13*
X69158379Y-129159604D03*
D11*
X30537050Y-107966072D03*
D10*
X28839994Y-106269016D03*
D11*
X27142938Y-107966072D03*
X31239994Y-106269016D03*
X26439994Y-106269016D03*
X27142938Y-104571960D03*
X30537050Y-104571960D03*
X28839994Y-108669016D03*
X28839994Y-103869016D03*
D13*
X120159287Y-69669001D03*
X116858381Y-187659611D03*
X69158378Y-164259608D03*
D15*
X105943122Y-166781531D03*
X105943122Y-163481531D03*
D11*
X110842941Y-61166060D03*
X114237053Y-57771948D03*
X112539997Y-61869004D03*
X110842941Y-57771948D03*
X110139997Y-59469004D03*
X114939997Y-59469004D03*
D10*
X112539997Y-59469004D03*
D11*
X114237053Y-61166060D03*
X112539997Y-57069004D03*
D15*
X153643125Y-190181537D03*
X153643125Y-186881537D03*
D13*
X68920712Y-96069004D03*
D12*
X54230619Y-153712153D03*
X54230619Y-154732153D03*
D15*
X58243119Y-61481504D03*
X58243119Y-58181504D03*
D13*
X116858383Y-36578400D03*
D21*
X131040000Y-185744037D03*
X132040000Y-185744037D03*
X133040000Y-185744037D03*
X134040000Y-185744037D03*
D22*
X135340000Y-189619037D03*
X129740000Y-189619037D03*
D13*
X164558387Y-59978403D03*
D11*
X162640000Y-188169037D03*
X161937056Y-189866093D03*
X161937056Y-186471981D03*
X158542944Y-186471981D03*
X160240000Y-190569037D03*
X157840000Y-188169037D03*
D10*
X160240000Y-188169037D03*
D11*
X160240000Y-185769037D03*
X158542944Y-189866093D03*
D13*
X164558387Y-118478410D03*
X120159280Y-119469007D03*
D15*
X58243119Y-38081498D03*
X58243119Y-34781498D03*
D13*
X24759278Y-22868995D03*
X24759279Y-25868995D03*
D11*
X157840000Y-164769031D03*
X158542944Y-163071975D03*
X160240000Y-167169031D03*
D10*
X160240000Y-164769031D03*
D11*
X162640000Y-164769031D03*
X161937056Y-166466087D03*
X158542944Y-166466087D03*
X161937056Y-163071975D03*
X160240000Y-162369031D03*
D13*
X72459283Y-57969000D03*
D16*
X97406997Y-36681998D03*
X91626997Y-36681998D03*
D17*
X97766997Y-38126998D03*
X96966997Y-38126998D03*
D18*
X95766997Y-38126998D03*
X94766997Y-38126998D03*
X94266997Y-38126998D03*
X93266997Y-38126998D03*
D17*
X92066997Y-38126998D03*
X91266997Y-38126998D03*
X91266997Y-38126998D03*
X92066997Y-38126998D03*
D18*
X92766997Y-38126998D03*
X93766997Y-38126998D03*
X95266997Y-38126998D03*
X96266997Y-38126998D03*
D17*
X96966997Y-38126998D03*
X97766997Y-38126998D03*
D19*
X98836997Y-33031998D03*
D20*
X98836997Y-37211998D03*
D19*
X90196997Y-33031998D03*
D20*
X90196997Y-37211998D03*
D13*
X24521605Y-130178411D03*
X116858384Y-118478410D03*
X164320714Y-46268998D03*
X24521605Y-188678418D03*
X119921612Y-83378406D03*
D11*
X161937056Y-37766054D03*
D10*
X160240000Y-36068998D03*
D11*
X161937056Y-34371942D03*
X162640000Y-36068998D03*
X160240000Y-33668998D03*
X160240000Y-38468998D03*
X158542944Y-37766054D03*
X157840000Y-36068998D03*
X158542944Y-34371942D03*
D15*
X105943122Y-143381525D03*
X105943122Y-140081525D03*
D13*
X164320708Y-163269013D03*
D11*
X110139997Y-24368995D03*
X114237053Y-22671939D03*
X110842941Y-22671939D03*
X110842941Y-26066051D03*
X114939997Y-24368995D03*
X112539997Y-26768995D03*
X114237053Y-26066051D03*
X112539997Y-21968995D03*
D10*
X112539997Y-24368995D03*
D13*
X119921614Y-129159604D03*
X24521606Y-59978403D03*
D12*
X100787622Y-106912141D03*
X100787622Y-107932141D03*
D16*
X139327000Y-83482010D03*
X145107000Y-83482010D03*
D17*
X145467000Y-84927010D03*
X144667000Y-84927010D03*
D18*
X143467000Y-84927010D03*
X142467000Y-84927010D03*
X141967000Y-84927010D03*
X140967000Y-84927010D03*
D17*
X139767000Y-84927010D03*
X138967000Y-84927010D03*
X138967000Y-84927010D03*
X139767000Y-84927010D03*
D18*
X140467000Y-84927010D03*
X141467000Y-84927010D03*
X142967000Y-84927010D03*
X143967000Y-84927010D03*
D17*
X144667000Y-84927010D03*
X145467000Y-84927010D03*
D19*
X137897000Y-79832010D03*
X146537000Y-79832010D03*
D20*
X146537000Y-84012010D03*
X137897000Y-84012010D03*
D12*
X148487625Y-177112159D03*
X148487625Y-178132159D03*
D11*
X74842941Y-178166090D03*
X76539997Y-178869034D03*
X74842941Y-174771978D03*
X78939997Y-176469034D03*
X78237053Y-174771978D03*
X78237053Y-178166090D03*
X74139997Y-176469034D03*
D10*
X76539997Y-176469034D03*
D11*
X76539997Y-174069034D03*
D12*
X148487625Y-188812162D03*
X148487625Y-189832162D03*
D16*
X145107000Y-106882016D03*
X139327000Y-106882016D03*
D17*
X145467000Y-108327016D03*
X144667000Y-108327016D03*
D18*
X143467000Y-108327016D03*
X142467000Y-108327016D03*
X141967000Y-108327016D03*
X140967000Y-108327016D03*
D17*
X139767000Y-108327016D03*
X138967000Y-108327016D03*
X138967000Y-108327016D03*
X139767000Y-108327016D03*
D18*
X140467000Y-108327016D03*
X141467000Y-108327016D03*
X142967000Y-108327016D03*
X143967000Y-108327016D03*
D17*
X144667000Y-108327016D03*
X145467000Y-108327016D03*
D19*
X137897000Y-103232016D03*
D20*
X146537000Y-107412016D03*
X137897000Y-107412016D03*
D19*
X146537000Y-103232016D03*
D13*
X119921614Y-152559607D03*
X72221608Y-176978417D03*
D16*
X91626997Y-188782037D03*
X97406997Y-188782037D03*
D17*
X97766997Y-190227037D03*
X96966997Y-190227037D03*
D18*
X95766997Y-190227037D03*
X94766997Y-190227037D03*
X94266997Y-190227037D03*
X93266997Y-190227037D03*
D17*
X92066997Y-190227037D03*
X91266997Y-190227037D03*
X91266997Y-190227037D03*
X92066997Y-190227037D03*
D18*
X92766997Y-190227037D03*
X93766997Y-190227037D03*
X95266997Y-190227037D03*
X96266997Y-190227037D03*
D17*
X96966997Y-190227037D03*
X97766997Y-190227037D03*
D20*
X90196997Y-189312037D03*
D19*
X90196997Y-185132037D03*
D20*
X98836997Y-189312037D03*
D19*
X98836997Y-185132037D03*
D13*
X116620712Y-49268998D03*
X120159288Y-104769006D03*
X120159290Y-139869010D03*
X116620711Y-25868995D03*
X119921612Y-48278401D03*
X120159280Y-131169009D03*
X119921613Y-47259594D03*
D16*
X91626997Y-106882016D03*
X97406997Y-106882016D03*
D17*
X97766997Y-108327016D03*
X96966997Y-108327016D03*
D18*
X95766997Y-108327016D03*
X94766997Y-108327016D03*
X94266997Y-108327016D03*
X93266997Y-108327016D03*
D17*
X92066997Y-108327016D03*
X91266997Y-108327016D03*
X91266997Y-108327016D03*
X92066997Y-108327016D03*
D18*
X92766997Y-108327016D03*
X93766997Y-108327016D03*
X95266997Y-108327016D03*
X96266997Y-108327016D03*
D17*
X96966997Y-108327016D03*
X97766997Y-108327016D03*
D19*
X90196997Y-103232016D03*
D20*
X90196997Y-107412016D03*
X98836997Y-107412016D03*
D19*
X98836997Y-103232016D03*
D13*
X68920702Y-174969015D03*
D12*
X53087619Y-36712123D03*
X53087619Y-37732123D03*
D15*
X58243119Y-108281516D03*
X58243119Y-104981516D03*
D12*
X101930622Y-153712153D03*
X101930622Y-154732153D03*
D15*
X153643125Y-178481534D03*
X153643125Y-175181534D03*
D21*
X131040000Y-45344001D03*
X132040000Y-45344001D03*
X133040000Y-45344001D03*
X134040000Y-45344001D03*
D22*
X135340000Y-49219001D03*
X129740000Y-49219001D03*
D13*
X72221611Y-117459603D03*
D21*
X35639994Y-92144013D03*
X36639994Y-92144013D03*
X37639994Y-92144013D03*
X38639994Y-92144013D03*
D22*
X39939994Y-96019013D03*
X34339994Y-96019013D03*
D12*
X148487625Y-36712123D03*
X148487625Y-37732123D03*
D14*
X55911869Y-187131537D03*
X55911869Y-189931537D03*
D11*
X162640000Y-82869010D03*
X157840000Y-82869010D03*
X158542944Y-81171954D03*
X161937056Y-81171954D03*
X160240000Y-80469010D03*
X158542944Y-84566066D03*
D10*
X160240000Y-82869010D03*
D11*
X161937056Y-84566066D03*
X160240000Y-85269010D03*
D13*
X69158378Y-187659611D03*
X116620712Y-22868995D03*
D15*
X58243119Y-155081528D03*
X58243119Y-151781528D03*
D11*
X76539997Y-45369001D03*
X74139997Y-47769001D03*
X74842941Y-49466057D03*
X78237053Y-46071945D03*
D10*
X76539997Y-47769001D03*
D11*
X74842941Y-46071945D03*
X78237053Y-49466057D03*
X76539997Y-50169001D03*
X78939997Y-47769001D03*
D13*
X24759271Y-189669016D03*
X24521606Y-118478410D03*
X119921615Y-187659611D03*
D14*
X55911869Y-58431504D03*
X55911869Y-61231504D03*
D11*
X26439994Y-47769001D03*
X30537050Y-49466057D03*
X28839994Y-50169001D03*
X27142938Y-46071945D03*
X30537050Y-46071945D03*
X31239994Y-47769001D03*
X27142938Y-49466057D03*
X28839994Y-45369001D03*
D10*
X28839994Y-47769001D03*
D16*
X43926994Y-83482010D03*
X49706994Y-83482010D03*
D17*
X50066994Y-84927010D03*
X49266994Y-84927010D03*
D18*
X48066994Y-84927010D03*
X47066994Y-84927010D03*
X46566994Y-84927010D03*
X45566994Y-84927010D03*
D17*
X44366994Y-84927010D03*
X43566994Y-84927010D03*
X43566994Y-84927010D03*
X44366994Y-84927010D03*
D18*
X45066994Y-84927010D03*
X46066994Y-84927010D03*
X47566994Y-84927010D03*
X48566994Y-84927010D03*
D17*
X49266994Y-84927010D03*
X50066994Y-84927010D03*
D19*
X51136994Y-79832010D03*
D20*
X42496994Y-84012010D03*
D19*
X42496994Y-79832010D03*
D20*
X51136994Y-84012010D03*
D13*
X116858384Y-95078407D03*
X72459281Y-49268998D03*
D12*
X54230619Y-25012120D03*
X54230619Y-26032120D03*
D13*
X72221608Y-130178411D03*
X24759280Y-57969000D03*
D16*
X43926994Y-106882016D03*
X49706994Y-106882016D03*
D17*
X50066994Y-108327016D03*
X49266994Y-108327016D03*
D18*
X48066994Y-108327016D03*
X47066994Y-108327016D03*
X46566994Y-108327016D03*
X45566994Y-108327016D03*
D17*
X44366994Y-108327016D03*
X43566994Y-108327016D03*
X43566994Y-108327016D03*
X44366994Y-108327016D03*
D18*
X45066994Y-108327016D03*
X46066994Y-108327016D03*
X47566994Y-108327016D03*
X48566994Y-108327016D03*
D17*
X49266994Y-108327016D03*
X50066994Y-108327016D03*
D20*
X42496994Y-107412016D03*
X51136994Y-107412016D03*
D19*
X42496994Y-103232016D03*
X51136994Y-103232016D03*
D11*
X112539997Y-167169031D03*
X112539997Y-162369031D03*
X110842941Y-163071975D03*
D10*
X112539997Y-164769031D03*
D11*
X110139997Y-164769031D03*
X114237053Y-166466087D03*
X110842941Y-166466087D03*
X114939997Y-164769031D03*
X114237053Y-163071975D03*
D13*
X120159291Y-163269013D03*
D15*
X153643125Y-26381495D03*
X153643125Y-23081495D03*
D11*
X114939997Y-176469034D03*
X110842941Y-178166090D03*
X110139997Y-176469034D03*
X114237053Y-174771978D03*
X112539997Y-174069034D03*
X114237053Y-178166090D03*
X112539997Y-178869034D03*
X110842941Y-174771978D03*
D10*
X112539997Y-176469034D03*
D16*
X139327000Y-188782037D03*
X145107000Y-188782037D03*
D17*
X145467000Y-190227037D03*
X144667000Y-190227037D03*
D18*
X143467000Y-190227037D03*
X142467000Y-190227037D03*
X141967000Y-190227037D03*
X140967000Y-190227037D03*
D17*
X139767000Y-190227037D03*
X138967000Y-190227037D03*
X138967000Y-190227037D03*
X139767000Y-190227037D03*
D18*
X140467000Y-190227037D03*
X141467000Y-190227037D03*
X142967000Y-190227037D03*
X143967000Y-190227037D03*
D17*
X144667000Y-190227037D03*
X145467000Y-190227037D03*
D19*
X146537000Y-185132037D03*
D20*
X137897000Y-189312037D03*
D19*
X137897000Y-185132037D03*
D20*
X146537000Y-189312037D03*
D13*
X164558384Y-175959610D03*
X164558386Y-24878399D03*
D10*
X124240000Y-164769031D03*
D11*
X124240000Y-167169031D03*
X124240000Y-162369031D03*
X125937056Y-166466087D03*
X121840000Y-164769031D03*
X122542944Y-166466087D03*
X125937056Y-163071975D03*
X126640000Y-164769031D03*
X122542944Y-163071975D03*
D13*
X119921611Y-141878413D03*
X69158380Y-82359598D03*
X119921613Y-35559593D03*
D15*
X105943122Y-178481534D03*
X105943122Y-175181534D03*
D21*
X131040000Y-174044034D03*
X132040000Y-174044034D03*
X133040000Y-174044034D03*
X134040000Y-174044034D03*
D22*
X129740000Y-177919034D03*
X135340000Y-177919034D03*
D13*
X116620713Y-72669001D03*
D21*
X131040000Y-162344031D03*
X132040000Y-162344031D03*
X133040000Y-162344031D03*
X134040000Y-162344031D03*
D22*
X135340000Y-166219031D03*
X129740000Y-166219031D03*
D15*
X153643125Y-73181507D03*
X153643125Y-69881507D03*
D13*
X69158379Y-105759601D03*
X120159278Y-166269013D03*
X24759282Y-93069004D03*
X68920705Y-93069004D03*
X68920715Y-177969015D03*
D11*
X74139997Y-59469004D03*
X74842941Y-57771948D03*
X76539997Y-61869004D03*
X78939997Y-59469004D03*
X74842941Y-61166060D03*
D10*
X76539997Y-59469004D03*
D11*
X78237053Y-61166060D03*
X76539997Y-57069004D03*
X78237053Y-57771948D03*
D21*
X83339997Y-162344031D03*
X84339997Y-162344031D03*
X85339997Y-162344031D03*
X86339997Y-162344031D03*
D22*
X82039997Y-166219031D03*
X87639997Y-166219031D03*
D10*
X64839994Y-153069028D03*
D11*
X64839994Y-155469028D03*
X66537050Y-154766084D03*
X66537050Y-151371972D03*
X63142938Y-154766084D03*
X64839994Y-150669028D03*
X63142938Y-151371972D03*
X62439994Y-153069028D03*
X67239994Y-153069028D03*
D13*
X164320710Y-116469007D03*
D11*
X74842941Y-151371972D03*
X78237053Y-154766084D03*
D10*
X76539997Y-153069028D03*
D11*
X76539997Y-155469028D03*
X78237053Y-151371972D03*
X76539997Y-150669028D03*
X74139997Y-153069028D03*
X74842941Y-154766084D03*
X78939997Y-153069028D03*
D13*
X116858385Y-153578414D03*
D16*
X139327000Y-24981995D03*
X145107000Y-24981995D03*
D17*
X145467000Y-26426995D03*
X144667000Y-26426995D03*
D18*
X143467000Y-26426995D03*
X142467000Y-26426995D03*
X141967000Y-26426995D03*
X140967000Y-26426995D03*
D17*
X139767000Y-26426995D03*
X138967000Y-26426995D03*
X138967000Y-26426995D03*
X139767000Y-26426995D03*
D18*
X140467000Y-26426995D03*
X141467000Y-26426995D03*
X142967000Y-26426995D03*
X143967000Y-26426995D03*
D17*
X144667000Y-26426995D03*
X145467000Y-26426995D03*
D20*
X146537000Y-25511995D03*
D19*
X137897000Y-21331995D03*
X146537000Y-21331995D03*
D20*
X137897000Y-25511995D03*
D16*
X145107000Y-36681998D03*
X139327000Y-36681998D03*
D17*
X145467000Y-38126998D03*
X144667000Y-38126998D03*
D18*
X143467000Y-38126998D03*
X142467000Y-38126998D03*
X141967000Y-38126998D03*
X140967000Y-38126998D03*
D17*
X139767000Y-38126998D03*
X138967000Y-38126998D03*
X138967000Y-38126998D03*
X139767000Y-38126998D03*
D18*
X140467000Y-38126998D03*
X141467000Y-38126998D03*
X142967000Y-38126998D03*
X143967000Y-38126998D03*
D17*
X144667000Y-38126998D03*
X145467000Y-38126998D03*
D20*
X137897000Y-37211998D03*
X146537000Y-37211998D03*
D19*
X137897000Y-33031998D03*
X146537000Y-33031998D03*
D13*
X164320714Y-34568997D03*
D10*
X160240000Y-176469034D03*
D11*
X160240000Y-178869034D03*
X158542944Y-174771978D03*
X161937056Y-174771978D03*
X161937056Y-178166090D03*
X158542944Y-178166090D03*
X157840000Y-176469034D03*
X162640000Y-176469034D03*
X160240000Y-174069034D03*
D16*
X43926994Y-36681998D03*
X49706994Y-36681998D03*
D17*
X50066994Y-38126998D03*
X49266994Y-38126998D03*
D18*
X48066994Y-38126998D03*
X47066994Y-38126998D03*
X46566994Y-38126998D03*
X45566994Y-38126998D03*
D17*
X44366994Y-38126998D03*
X43566994Y-38126998D03*
X43566994Y-38126998D03*
X44366994Y-38126998D03*
D18*
X45066994Y-38126998D03*
X46066994Y-38126998D03*
X47566994Y-38126998D03*
X48566994Y-38126998D03*
D17*
X49266994Y-38126998D03*
X50066994Y-38126998D03*
D19*
X42496994Y-33031998D03*
D20*
X51136994Y-37211998D03*
X42496994Y-37211998D03*
D19*
X51136994Y-33031998D03*
D14*
X55911869Y-116931519D03*
X55911869Y-119731519D03*
D11*
X63142938Y-49466057D03*
X63142938Y-46071945D03*
D10*
X64839994Y-47769001D03*
D11*
X66537050Y-49466057D03*
X64839994Y-50169001D03*
X67239994Y-47769001D03*
X66537050Y-46071945D03*
X64839994Y-45369001D03*
X62439994Y-47769001D03*
D14*
X103611872Y-187131537D03*
X103611872Y-189931537D03*
D13*
X72459282Y-34568997D03*
D11*
X158542944Y-72866063D03*
X161937056Y-69471951D03*
X157840000Y-71169007D03*
X161937056Y-72866063D03*
X158542944Y-69471951D03*
X160240000Y-73569007D03*
X160240000Y-68769007D03*
X162640000Y-71169007D03*
D10*
X160240000Y-71169007D03*
D16*
X49706994Y-71782007D03*
X43926994Y-71782007D03*
D17*
X50066994Y-73227007D03*
X49266994Y-73227007D03*
D18*
X48066994Y-73227007D03*
X47066994Y-73227007D03*
X46566994Y-73227007D03*
X45566994Y-73227007D03*
D17*
X44366994Y-73227007D03*
X43566994Y-73227007D03*
X43566994Y-73227007D03*
X44366994Y-73227007D03*
D18*
X45066994Y-73227007D03*
X46066994Y-73227007D03*
X47566994Y-73227007D03*
X48566994Y-73227007D03*
D17*
X49266994Y-73227007D03*
X50066994Y-73227007D03*
D19*
X42496994Y-68132007D03*
X51136994Y-68132007D03*
D20*
X51136994Y-72312007D03*
X42496994Y-72312007D03*
D11*
X28839994Y-73569007D03*
X30537050Y-72866063D03*
X30537050Y-69471951D03*
X27142938Y-72866063D03*
D10*
X28839994Y-71169007D03*
D11*
X31239994Y-71169007D03*
X26439994Y-71169007D03*
X27142938Y-69471951D03*
X28839994Y-68769007D03*
D21*
X35639994Y-150644028D03*
X36639994Y-150644028D03*
X37639994Y-150644028D03*
X38639994Y-150644028D03*
D22*
X34339994Y-154519028D03*
X39939994Y-154519028D03*
D12*
X100787622Y-36712123D03*
X100787622Y-37732123D03*
X148487625Y-95212138D03*
X148487625Y-96232138D03*
D13*
X24759282Y-104769006D03*
D21*
X35639994Y-115544019D03*
X36639994Y-115544019D03*
X37639994Y-115544019D03*
X38639994Y-115544019D03*
D22*
X39939994Y-119419019D03*
X34339994Y-119419019D03*
D16*
X145107000Y-48382001D03*
X139327000Y-48382001D03*
D17*
X145467000Y-49827001D03*
X144667000Y-49827001D03*
D18*
X143467000Y-49827001D03*
X142467000Y-49827001D03*
X141967000Y-49827001D03*
X140967000Y-49827001D03*
D17*
X139767000Y-49827001D03*
X138967000Y-49827001D03*
X138967000Y-49827001D03*
X139767000Y-49827001D03*
D18*
X140467000Y-49827001D03*
X141467000Y-49827001D03*
X142967000Y-49827001D03*
X143967000Y-49827001D03*
D17*
X144667000Y-49827001D03*
X145467000Y-49827001D03*
D20*
X146537000Y-48912001D03*
D19*
X137897000Y-44732001D03*
D20*
X137897000Y-48912001D03*
D19*
X146537000Y-44732001D03*
D12*
X148487625Y-142012150D03*
X148487625Y-143032150D03*
X53087619Y-165412156D03*
X53087619Y-166432156D03*
D21*
X131040000Y-68744007D03*
X132040000Y-68744007D03*
X133040000Y-68744007D03*
X134040000Y-68744007D03*
D22*
X135340000Y-72619007D03*
X129740000Y-72619007D03*
D13*
X72459280Y-60969000D03*
X116620704Y-186669016D03*
X69158379Y-117459603D03*
X116620716Y-119469007D03*
D12*
X148487625Y-48412126D03*
X148487625Y-49432126D03*
D13*
X164320715Y-49268998D03*
X120159281Y-96069004D03*
X69158382Y-165278416D03*
X116858384Y-71678404D03*
D21*
X131040000Y-57044004D03*
X132040000Y-57044004D03*
X133040000Y-57044004D03*
X134040000Y-57044004D03*
D22*
X135340000Y-60919004D03*
X129740000Y-60919004D03*
D13*
X116620710Y-57969000D03*
X69158381Y-83378406D03*
X24759274Y-119469007D03*
D21*
X131040000Y-92144013D03*
X132040000Y-92144013D03*
X133040000Y-92144013D03*
X134040000Y-92144013D03*
D22*
X135340000Y-96019013D03*
X129740000Y-96019013D03*
D21*
X83339997Y-80444010D03*
X84339997Y-80444010D03*
X85339997Y-80444010D03*
X86339997Y-80444010D03*
D22*
X87639997Y-84319010D03*
X82039997Y-84319010D03*
D15*
X58243119Y-49781501D03*
X58243119Y-46481501D03*
D10*
X112539997Y-141369025D03*
D11*
X112539997Y-138969025D03*
X114237053Y-139671969D03*
X112539997Y-143769025D03*
X110842941Y-143066081D03*
X114237053Y-143066081D03*
X114939997Y-141369025D03*
X110842941Y-139671969D03*
X110139997Y-141369025D03*
D21*
X83339997Y-127244022D03*
X84339997Y-127244022D03*
X85339997Y-127244022D03*
X86339997Y-127244022D03*
D22*
X87639997Y-131119022D03*
X82039997Y-131119022D03*
D12*
X100787622Y-48412126D03*
X100787622Y-49432126D03*
D13*
X164320712Y-81369003D03*
X120159285Y-25868995D03*
X116858384Y-59978403D03*
X164558385Y-117459603D03*
D12*
X101930622Y-118612144D03*
X101930622Y-119632144D03*
D14*
X151311875Y-58431504D03*
X151311875Y-61231504D03*
D11*
X62439994Y-164769031D03*
X64839994Y-162369031D03*
D10*
X64839994Y-164769031D03*
D11*
X66537050Y-166466087D03*
X63142938Y-166466087D03*
X66537050Y-163071975D03*
X64839994Y-167169031D03*
X63142938Y-163071975D03*
X67239994Y-164769031D03*
D15*
X105943122Y-155081528D03*
X105943122Y-151781528D03*
D14*
X55911869Y-46731501D03*
X55911869Y-49531501D03*
D16*
X145107000Y-95182013D03*
X139327000Y-95182013D03*
D17*
X145467000Y-96627013D03*
X144667000Y-96627013D03*
D18*
X143467000Y-96627013D03*
X142467000Y-96627013D03*
X141967000Y-96627013D03*
X140967000Y-96627013D03*
D17*
X139767000Y-96627013D03*
X138967000Y-96627013D03*
X138967000Y-96627013D03*
X139767000Y-96627013D03*
D18*
X140467000Y-96627013D03*
X141467000Y-96627013D03*
X142967000Y-96627013D03*
X143967000Y-96627013D03*
D17*
X144667000Y-96627013D03*
X145467000Y-96627013D03*
D19*
X146537000Y-91532013D03*
D20*
X137897000Y-95712013D03*
X146537000Y-95712013D03*
D19*
X137897000Y-91532013D03*
D21*
X83339997Y-33643998D03*
X84339997Y-33643998D03*
X85339997Y-33643998D03*
X86339997Y-33643998D03*
D22*
X87639997Y-37518998D03*
X82039997Y-37518998D03*
D13*
X164558386Y-23859591D03*
X116620705Y-163269013D03*
D11*
X78939997Y-71169007D03*
X74139997Y-71169007D03*
X74842941Y-72866063D03*
X78237053Y-69471951D03*
X74842941Y-69471951D03*
X76539997Y-73569007D03*
X78237053Y-72866063D03*
X76539997Y-68769007D03*
D10*
X76539997Y-71169007D03*
D12*
X53087619Y-48412126D03*
X53087619Y-49432126D03*
D13*
X72459278Y-107769006D03*
X72221610Y-24878399D03*
D12*
X54230619Y-118612144D03*
X54230619Y-119632144D03*
D14*
X103611872Y-175431534D03*
X103611872Y-178231534D03*
D13*
X119921611Y-165278416D03*
D15*
X58243119Y-96581513D03*
X58243119Y-93281513D03*
D11*
X66537050Y-72866063D03*
X63142938Y-72866063D03*
X64839994Y-68769007D03*
D10*
X64839994Y-71169007D03*
D11*
X63142938Y-69471951D03*
X66537050Y-69471951D03*
X64839994Y-73569007D03*
X62439994Y-71169007D03*
X67239994Y-71169007D03*
X62439994Y-36068998D03*
X63142938Y-34371942D03*
D10*
X64839994Y-36068998D03*
D11*
X64839994Y-38468998D03*
X64839994Y-33668998D03*
X63142938Y-37766054D03*
X66537050Y-34371942D03*
X67239994Y-36068998D03*
X66537050Y-37766054D03*
D15*
X153643125Y-131681522D03*
X153643125Y-128381522D03*
D13*
X164558384Y-187659611D03*
D15*
X153643125Y-49781501D03*
X153643125Y-46481501D03*
D13*
X116620717Y-154569012D03*
D11*
X31239994Y-129669022D03*
X27142938Y-127971966D03*
X30537050Y-127971966D03*
X27142938Y-131366078D03*
X30537050Y-131366078D03*
X26439994Y-129669022D03*
D10*
X28839994Y-129669022D03*
D11*
X28839994Y-132069022D03*
X28839994Y-127269022D03*
D13*
X72459277Y-119469007D03*
D12*
X53087619Y-142012150D03*
X53087619Y-143032150D03*
D13*
X116858381Y-175959610D03*
X164558386Y-36578400D03*
X116858385Y-176978417D03*
X164320715Y-22868995D03*
D12*
X100787622Y-188812162D03*
X100787622Y-189832162D03*
D14*
X151311875Y-140331525D03*
X151311875Y-143131525D03*
D13*
X116858383Y-35559593D03*
D14*
X55911869Y-140331525D03*
X55911869Y-143131525D03*
X55911869Y-93531513D03*
X55911869Y-96331513D03*
D12*
X148487625Y-118612144D03*
X148487625Y-119632144D03*
D13*
X69158380Y-23859591D03*
D14*
X103611872Y-105231516D03*
X103611872Y-108031516D03*
D12*
X53087619Y-188812162D03*
X53087619Y-189832162D03*
D11*
X157840000Y-94569013D03*
X161937056Y-96266069D03*
X161937056Y-92871957D03*
D10*
X160240000Y-94569013D03*
D11*
X160240000Y-92169013D03*
X162640000Y-94569013D03*
X158542944Y-96266069D03*
X160240000Y-96969013D03*
X158542944Y-92871957D03*
D14*
X151311875Y-105231516D03*
X151311875Y-108031516D03*
D13*
X120159279Y-142869010D03*
X68920709Y-49268998D03*
X164558388Y-153578414D03*
D12*
X101930622Y-130312147D03*
X101930622Y-131332147D03*
D21*
X35639994Y-162344031D03*
X36639994Y-162344031D03*
X37639994Y-162344031D03*
X38639994Y-162344031D03*
D22*
X34339994Y-166219031D03*
X39939994Y-166219031D03*
D13*
X120159284Y-22868995D03*
X116620719Y-189669016D03*
X72221608Y-141878413D03*
X164320717Y-84369003D03*
X24759272Y-166269013D03*
D10*
X28839994Y-153069028D03*
D11*
X27142938Y-154766084D03*
X27142938Y-151371972D03*
X28839994Y-155469028D03*
X26439994Y-153069028D03*
X28839994Y-150669028D03*
X31239994Y-153069028D03*
X30537050Y-151371972D03*
X30537050Y-154766084D03*
D13*
X72221611Y-140859606D03*
D12*
X149630625Y-83512135D03*
X149630625Y-84532135D03*
D14*
X151311875Y-163731531D03*
X151311875Y-166531531D03*
D11*
X160240000Y-103869016D03*
X158542944Y-107966072D03*
D10*
X160240000Y-106269016D03*
D11*
X158542944Y-104571960D03*
X160240000Y-108669016D03*
X161937056Y-104571960D03*
X161937056Y-107966072D03*
X162640000Y-106269016D03*
X157840000Y-106269016D03*
D12*
X54230619Y-142012150D03*
X54230619Y-143032150D03*
D13*
X24759285Y-174969015D03*
D12*
X149630625Y-130312147D03*
X149630625Y-131332147D03*
D11*
X28839994Y-61869004D03*
X30537050Y-57771948D03*
X31239994Y-59469004D03*
X30537050Y-61166060D03*
X28839994Y-57069004D03*
X26439994Y-59469004D03*
D10*
X28839994Y-59469004D03*
D11*
X27142938Y-61166060D03*
X27142938Y-57771948D03*
D12*
X149630625Y-106912141D03*
X149630625Y-107932141D03*
D13*
X164558388Y-130178411D03*
D11*
X114939997Y-36068998D03*
X110842941Y-34371942D03*
X110139997Y-36068998D03*
X112539997Y-38468998D03*
X110842941Y-37766054D03*
X112539997Y-33668998D03*
X114237053Y-37766054D03*
D10*
X112539997Y-36068998D03*
D11*
X114237053Y-34371942D03*
D13*
X116620707Y-128169009D03*
D11*
X66537050Y-107966072D03*
X66537050Y-104571960D03*
X67239994Y-106269016D03*
X64839994Y-108669016D03*
X64839994Y-103869016D03*
X63142938Y-104571960D03*
D10*
X64839994Y-106269016D03*
D11*
X63142938Y-107966072D03*
X62439994Y-106269016D03*
D13*
X72459274Y-189669016D03*
X116620711Y-34568997D03*
D16*
X139327000Y-165382031D03*
X145107000Y-165382031D03*
D17*
X145467000Y-166827031D03*
X144667000Y-166827031D03*
D18*
X143467000Y-166827031D03*
X142467000Y-166827031D03*
X141967000Y-166827031D03*
X140967000Y-166827031D03*
D17*
X139767000Y-166827031D03*
X138967000Y-166827031D03*
X138967000Y-166827031D03*
X139767000Y-166827031D03*
D18*
X140467000Y-166827031D03*
X141467000Y-166827031D03*
X142967000Y-166827031D03*
X143967000Y-166827031D03*
D17*
X144667000Y-166827031D03*
X145467000Y-166827031D03*
D19*
X137897000Y-161732031D03*
D20*
X137897000Y-165912031D03*
D19*
X146537000Y-161732031D03*
D20*
X146537000Y-165912031D03*
D13*
X164320707Y-186669016D03*
X116858382Y-140859606D03*
X120159292Y-186669016D03*
X72221611Y-152559607D03*
X69158380Y-35559593D03*
D11*
X161937056Y-116271963D03*
X160240000Y-115569019D03*
X157840000Y-117969019D03*
X161937056Y-119666075D03*
X162640000Y-117969019D03*
D10*
X160240000Y-117969019D03*
D11*
X160240000Y-120369019D03*
X158542944Y-116271963D03*
X158542944Y-119666075D03*
D13*
X120159278Y-177969015D03*
X164558386Y-82359598D03*
D12*
X100787622Y-118612144D03*
X100787622Y-119632144D03*
X100787622Y-95212138D03*
X100787622Y-96232138D03*
D13*
X120159284Y-37568997D03*
D12*
X100787622Y-71812132D03*
X100787622Y-72832132D03*
D13*
X72221608Y-153578414D03*
X116620711Y-46268998D03*
D16*
X91626997Y-141982025D03*
X97406997Y-141982025D03*
D17*
X97766997Y-143427025D03*
X96966997Y-143427025D03*
D18*
X95766997Y-143427025D03*
X94766997Y-143427025D03*
X94266997Y-143427025D03*
X93266997Y-143427025D03*
D17*
X92066997Y-143427025D03*
X91266997Y-143427025D03*
X91266997Y-143427025D03*
X92066997Y-143427025D03*
D18*
X92766997Y-143427025D03*
X93766997Y-143427025D03*
X95266997Y-143427025D03*
X96266997Y-143427025D03*
D17*
X96966997Y-143427025D03*
X97766997Y-143427025D03*
D20*
X90196997Y-142512025D03*
D19*
X90196997Y-138332025D03*
X98836997Y-138332025D03*
D20*
X98836997Y-142512025D03*
D13*
X120159283Y-60969000D03*
D11*
X67239994Y-82869010D03*
X64839994Y-85269010D03*
X66537050Y-81171954D03*
X64839994Y-80469010D03*
X63142938Y-81171954D03*
D10*
X64839994Y-82869010D03*
D11*
X63142938Y-84566066D03*
X66537050Y-84566066D03*
X62439994Y-82869010D03*
D13*
X116620714Y-84369003D03*
D21*
X83339997Y-57044004D03*
X84339997Y-57044004D03*
X85339997Y-57044004D03*
X86339997Y-57044004D03*
D22*
X82039997Y-60919004D03*
X87639997Y-60919004D03*
D13*
X119921611Y-188678418D03*
X72459288Y-174969015D03*
D11*
X74139997Y-188169037D03*
X78939997Y-188169037D03*
X74842941Y-189866093D03*
X78237053Y-189866093D03*
D10*
X76539997Y-188169037D03*
D11*
X76539997Y-190569037D03*
X74842941Y-186471981D03*
X76539997Y-185769037D03*
X78237053Y-186471981D03*
D21*
X35639994Y-80444010D03*
X36639994Y-80444010D03*
X37639994Y-80444010D03*
X38639994Y-80444010D03*
D22*
X39939994Y-84319010D03*
X34339994Y-84319010D03*
D13*
X119921611Y-153578414D03*
X68920715Y-166269013D03*
D11*
X110842941Y-72866063D03*
D10*
X112539997Y-71169007D03*
D11*
X114237053Y-69471951D03*
X114939997Y-71169007D03*
X110842941Y-69471951D03*
X110139997Y-71169007D03*
X114237053Y-72866063D03*
X112539997Y-68769007D03*
X112539997Y-73569007D03*
D13*
X72459275Y-166269013D03*
D12*
X100787622Y-153712153D03*
X100787622Y-154732153D03*
D13*
X164558388Y-188678418D03*
D21*
X83339997Y-174044034D03*
X84339997Y-174044034D03*
X85339997Y-174044034D03*
X86339997Y-174044034D03*
D22*
X87639997Y-177919034D03*
X82039997Y-177919034D03*
D13*
X72459284Y-81369003D03*
D11*
X125937056Y-92871957D03*
X121840000Y-94569013D03*
X122542944Y-96266069D03*
X126640000Y-94569013D03*
X124240000Y-96969013D03*
X124240000Y-92169013D03*
X122542944Y-92871957D03*
X125937056Y-96266069D03*
D10*
X124240000Y-94569013D03*
D21*
X35639994Y-57044004D03*
X36639994Y-57044004D03*
X37639994Y-57044004D03*
X38639994Y-57044004D03*
D22*
X39939994Y-60919004D03*
X34339994Y-60919004D03*
D13*
X24759278Y-49268998D03*
X119921613Y-36578400D03*
X24759281Y-81369003D03*
X69158381Y-71678404D03*
X72221609Y-71678404D03*
X72221611Y-105759601D03*
D11*
X124240000Y-73569007D03*
X124240000Y-68769007D03*
X122542944Y-69471951D03*
X126640000Y-71169007D03*
X121840000Y-71169007D03*
D10*
X124240000Y-71169007D03*
D11*
X125937056Y-72866063D03*
X122542944Y-72866063D03*
X125937056Y-69471951D03*
D14*
X103611872Y-70131507D03*
X103611872Y-72931507D03*
X103611872Y-163731531D03*
X103611872Y-166531531D03*
D13*
X116858381Y-164259608D03*
X69158380Y-70659597D03*
D11*
X125937056Y-81171954D03*
X121840000Y-82869010D03*
D10*
X124240000Y-82869010D03*
D11*
X124240000Y-85269010D03*
X125937056Y-84566066D03*
X122542944Y-81171954D03*
X122542944Y-84566066D03*
X126640000Y-82869010D03*
X124240000Y-80469010D03*
D21*
X83339997Y-92144013D03*
X84339997Y-92144013D03*
X85339997Y-92144013D03*
X86339997Y-92144013D03*
D22*
X87639997Y-96019013D03*
X82039997Y-96019013D03*
D11*
X162640000Y-153069028D03*
D10*
X160240000Y-153069028D03*
D11*
X160240000Y-150669028D03*
X161937056Y-151371972D03*
X160240000Y-155469028D03*
X158542944Y-151371972D03*
X157840000Y-153069028D03*
X161937056Y-154766084D03*
X158542944Y-154766084D03*
X160240000Y-138969025D03*
X161937056Y-143066081D03*
D10*
X160240000Y-141369025D03*
D11*
X158542944Y-143066081D03*
X158542944Y-139671969D03*
X160240000Y-143769025D03*
X162640000Y-141369025D03*
X157840000Y-141369025D03*
X161937056Y-139671969D03*
D13*
X68920716Y-189669016D03*
X72221609Y-118478410D03*
X68920708Y-46268998D03*
D11*
X27142938Y-96266069D03*
X28839994Y-92169013D03*
D10*
X28839994Y-94569013D03*
D11*
X28839994Y-96969013D03*
X30537050Y-96266069D03*
X27142938Y-92871957D03*
X30537050Y-92871957D03*
X26439994Y-94569013D03*
X31239994Y-94569013D03*
D16*
X49706994Y-130282022D03*
X43926994Y-130282022D03*
D17*
X50066994Y-131727022D03*
X49266994Y-131727022D03*
D18*
X48066994Y-131727022D03*
X47066994Y-131727022D03*
X46566994Y-131727022D03*
X45566994Y-131727022D03*
D17*
X44366994Y-131727022D03*
X43566994Y-131727022D03*
X43566994Y-131727022D03*
X44366994Y-131727022D03*
D18*
X45066994Y-131727022D03*
X46066994Y-131727022D03*
X47566994Y-131727022D03*
X48566994Y-131727022D03*
D17*
X49266994Y-131727022D03*
X50066994Y-131727022D03*
D20*
X51136994Y-130812022D03*
X42496994Y-130812022D03*
D19*
X51136994Y-126632022D03*
X42496994Y-126632022D03*
D14*
X151311875Y-187131537D03*
X151311875Y-189931537D03*
D15*
X105943122Y-190181537D03*
X105943122Y-186881537D03*
X153643125Y-84881510D03*
X153643125Y-81581510D03*
D13*
X120159286Y-57969000D03*
D15*
X105943122Y-96581513D03*
X105943122Y-93281513D03*
X105943122Y-131681522D03*
X105943122Y-128381522D03*
D11*
X30537050Y-22671939D03*
X30537050Y-26066051D03*
X27142938Y-22671939D03*
X28839994Y-21968995D03*
X31239994Y-24368995D03*
D10*
X28839994Y-24368995D03*
D11*
X26439994Y-24368995D03*
X27142938Y-26066051D03*
X28839994Y-26768995D03*
D14*
X151311875Y-35031498D03*
X151311875Y-37831498D03*
D13*
X68920708Y-34568997D03*
D12*
X149630625Y-95212138D03*
X149630625Y-96232138D03*
D13*
X119921613Y-23859591D03*
X24521607Y-24878399D03*
X119921613Y-82359598D03*
D14*
X151311875Y-116931519D03*
X151311875Y-119731519D03*
D13*
X120159289Y-116469007D03*
D14*
X55911869Y-70131507D03*
X55911869Y-72931507D03*
D13*
X69158382Y-188678418D03*
X24521606Y-106778409D03*
X120159290Y-151569012D03*
D11*
X63142938Y-26066051D03*
X66537050Y-26066051D03*
X64839994Y-26768995D03*
X66537050Y-22671939D03*
X63142938Y-22671939D03*
X67239994Y-24368995D03*
X64839994Y-21968995D03*
D10*
X64839994Y-24368995D03*
D11*
X62439994Y-24368995D03*
D14*
X55911869Y-152031528D03*
X55911869Y-154831528D03*
D21*
X131040000Y-150644028D03*
X132040000Y-150644028D03*
X133040000Y-150644028D03*
X134040000Y-150644028D03*
D22*
X135340000Y-154519028D03*
X129740000Y-154519028D03*
D14*
X151311875Y-128631522D03*
X151311875Y-131431522D03*
D13*
X116620707Y-116469007D03*
D11*
X114237053Y-119666075D03*
D10*
X112539997Y-117969019D03*
D11*
X112539997Y-120369019D03*
X114237053Y-116271963D03*
X112539997Y-115569019D03*
X114939997Y-117969019D03*
X110139997Y-117969019D03*
X110842941Y-119666075D03*
X110842941Y-116271963D03*
D21*
X35639994Y-174044034D03*
X36639994Y-174044034D03*
X37639994Y-174044034D03*
X38639994Y-174044034D03*
D22*
X34339994Y-177919034D03*
X39939994Y-177919034D03*
D13*
X164320721Y-177969015D03*
D21*
X131040000Y-33643998D03*
X132040000Y-33643998D03*
X133040000Y-33643998D03*
X134040000Y-33643998D03*
D22*
X135340000Y-37518998D03*
X129740000Y-37518998D03*
D13*
X68920710Y-72669001D03*
D21*
X131040000Y-127244022D03*
X132040000Y-127244022D03*
X133040000Y-127244022D03*
X134040000Y-127244022D03*
D22*
X135340000Y-131119022D03*
X129740000Y-131119022D03*
D13*
X69158379Y-152559607D03*
X116620717Y-142869010D03*
D21*
X83339997Y-103844016D03*
X84339997Y-103844016D03*
X85339997Y-103844016D03*
X86339997Y-103844016D03*
D22*
X82039997Y-107719016D03*
X87639997Y-107719016D03*
D16*
X139327000Y-141982025D03*
X145107000Y-141982025D03*
D17*
X145467000Y-143427025D03*
X144667000Y-143427025D03*
D18*
X143467000Y-143427025D03*
X142467000Y-143427025D03*
X141967000Y-143427025D03*
X140967000Y-143427025D03*
D17*
X139767000Y-143427025D03*
X138967000Y-143427025D03*
X138967000Y-143427025D03*
X139767000Y-143427025D03*
D18*
X140467000Y-143427025D03*
X141467000Y-143427025D03*
X142967000Y-143427025D03*
X143967000Y-143427025D03*
D17*
X144667000Y-143427025D03*
X145467000Y-143427025D03*
D20*
X137897000Y-142512025D03*
D19*
X146537000Y-138332025D03*
X137897000Y-138332025D03*
D20*
X146537000Y-142512025D03*
D12*
X100787622Y-25012120D03*
X100787622Y-26032120D03*
D13*
X69158381Y-59978403D03*
D12*
X149630625Y-48412126D03*
X149630625Y-49432126D03*
D13*
X68920713Y-131169009D03*
D12*
X100787622Y-60112129D03*
X100787622Y-61132129D03*
D13*
X24759283Y-116469007D03*
D12*
X101930622Y-60112129D03*
X101930622Y-61132129D03*
D11*
X124240000Y-132069022D03*
X126640000Y-129669022D03*
X121840000Y-129669022D03*
X124240000Y-127269022D03*
X122542944Y-127971966D03*
X125937056Y-131366078D03*
X125937056Y-127971966D03*
X122542944Y-131366078D03*
D10*
X124240000Y-129669022D03*
D13*
X164558385Y-152559607D03*
D21*
X83339997Y-45344001D03*
X84339997Y-45344001D03*
X85339997Y-45344001D03*
X86339997Y-45344001D03*
D22*
X87639997Y-49219001D03*
X82039997Y-49219001D03*
D13*
X119921615Y-164259608D03*
D15*
X105943122Y-49781501D03*
X105943122Y-46481501D03*
D13*
X116858382Y-94059600D03*
D12*
X148487625Y-165412156D03*
X148487625Y-166432156D03*
D13*
X69158382Y-141878413D03*
D12*
X149630625Y-142012150D03*
X149630625Y-143032150D03*
X148487625Y-153712153D03*
X148487625Y-154732153D03*
D13*
X119921612Y-71678404D03*
X68920705Y-104769006D03*
D12*
X53087619Y-177112159D03*
X53087619Y-178132159D03*
D14*
X55911869Y-175431534D03*
X55911869Y-178231534D03*
D13*
X164558387Y-83378406D03*
X72221612Y-164259608D03*
X164320720Y-142869010D03*
X68920711Y-84369003D03*
D21*
X35639994Y-45344001D03*
X36639994Y-45344001D03*
X37639994Y-45344001D03*
X38639994Y-45344001D03*
D22*
X39939994Y-49219001D03*
X34339994Y-49219001D03*
D14*
X103611872Y-140331525D03*
X103611872Y-143131525D03*
D13*
X24521607Y-82359598D03*
X120159282Y-84369003D03*
D14*
X151311875Y-23331495D03*
X151311875Y-26131495D03*
D13*
X116620715Y-96069004D03*
D11*
X74842941Y-166466087D03*
X74842941Y-163071975D03*
X78237053Y-163071975D03*
D10*
X76539997Y-164769031D03*
D11*
X76539997Y-167169031D03*
X78237053Y-166466087D03*
X78939997Y-164769031D03*
X76539997Y-162369031D03*
X74139997Y-164769031D03*
D13*
X24521607Y-70659597D03*
X120159291Y-174969015D03*
X116620708Y-104769006D03*
X24759279Y-46268998D03*
D16*
X91626997Y-118582019D03*
X97406997Y-118582019D03*
D17*
X97766997Y-120027019D03*
X96966997Y-120027019D03*
D18*
X95766997Y-120027019D03*
X94766997Y-120027019D03*
X94266997Y-120027019D03*
X93266997Y-120027019D03*
D17*
X92066997Y-120027019D03*
X91266997Y-120027019D03*
X91266997Y-120027019D03*
X92066997Y-120027019D03*
D18*
X92766997Y-120027019D03*
X93766997Y-120027019D03*
X95266997Y-120027019D03*
X96266997Y-120027019D03*
D17*
X96966997Y-120027019D03*
X97766997Y-120027019D03*
D20*
X98836997Y-119112019D03*
X90196997Y-119112019D03*
D19*
X90196997Y-114932019D03*
X98836997Y-114932019D03*
D13*
X119921613Y-24878399D03*
D15*
X105943122Y-38081498D03*
X105943122Y-34781498D03*
D13*
X68920703Y-139869010D03*
X119921614Y-140859606D03*
X116620718Y-166269013D03*
D15*
X153643125Y-119981519D03*
X153643125Y-116681519D03*
D13*
X116858382Y-129159604D03*
X24759274Y-131169009D03*
X116858382Y-152559607D03*
D14*
X103611872Y-116931519D03*
X103611872Y-119731519D03*
D13*
X68920713Y-119469007D03*
X120159285Y-46268998D03*
X72459285Y-104769006D03*
D16*
X43926994Y-177082034D03*
X49706994Y-177082034D03*
D17*
X50066994Y-178527034D03*
X49266994Y-178527034D03*
D18*
X48066994Y-178527034D03*
X47066994Y-178527034D03*
X46566994Y-178527034D03*
X45566994Y-178527034D03*
D17*
X44366994Y-178527034D03*
X43566994Y-178527034D03*
X43566994Y-178527034D03*
X44366994Y-178527034D03*
D18*
X45066994Y-178527034D03*
X46066994Y-178527034D03*
X47566994Y-178527034D03*
X48566994Y-178527034D03*
D17*
X49266994Y-178527034D03*
X50066994Y-178527034D03*
D19*
X42496994Y-173432034D03*
D20*
X42496994Y-177612034D03*
X51136994Y-177612034D03*
D19*
X51136994Y-173432034D03*
D14*
X55911869Y-105231516D03*
X55911869Y-108031516D03*
D13*
X119921614Y-94059600D03*
X116858383Y-24878399D03*
D12*
X101930622Y-25012120D03*
X101930622Y-26032120D03*
X54230619Y-188812162D03*
X54230619Y-189832162D03*
D13*
X164558387Y-95078407D03*
X24759281Y-69669001D03*
D12*
X149630625Y-118612144D03*
X149630625Y-119632144D03*
D21*
X35639994Y-127244022D03*
X36639994Y-127244022D03*
X37639994Y-127244022D03*
X38639994Y-127244022D03*
D22*
X39939994Y-131119022D03*
X34339994Y-131119022D03*
D13*
X72459280Y-72669001D03*
D12*
X100787622Y-165412156D03*
X100787622Y-166432156D03*
D15*
X58243119Y-119981519D03*
X58243119Y-116681519D03*
D13*
X120159288Y-93069004D03*
D15*
X58243119Y-26381495D03*
X58243119Y-23081495D03*
D13*
X164320715Y-37568997D03*
D12*
X149630625Y-36712123D03*
X149630625Y-37732123D03*
D13*
X120159279Y-154569012D03*
X164558384Y-164259608D03*
X72459288Y-163269013D03*
D11*
X74139997Y-82869010D03*
X74842941Y-84566066D03*
X76539997Y-85269010D03*
X78939997Y-82869010D03*
X78237053Y-81171954D03*
D10*
X76539997Y-82869010D03*
D11*
X76539997Y-80469010D03*
X78237053Y-84566066D03*
X74842941Y-81171954D03*
X161937056Y-49466057D03*
X158542944Y-46071945D03*
D10*
X160240000Y-47769001D03*
D11*
X157840000Y-47769001D03*
X161937056Y-46071945D03*
X160240000Y-50169001D03*
X158542944Y-49466057D03*
X162640000Y-47769001D03*
X160240000Y-45369001D03*
D13*
X72459278Y-96069004D03*
D16*
X145107000Y-118582019D03*
X139327000Y-118582019D03*
D17*
X145467000Y-120027019D03*
X144667000Y-120027019D03*
D18*
X143467000Y-120027019D03*
X142467000Y-120027019D03*
X141967000Y-120027019D03*
X140967000Y-120027019D03*
D17*
X139767000Y-120027019D03*
X138967000Y-120027019D03*
X138967000Y-120027019D03*
X139767000Y-120027019D03*
D18*
X140467000Y-120027019D03*
X141467000Y-120027019D03*
X142967000Y-120027019D03*
X143967000Y-120027019D03*
D17*
X144667000Y-120027019D03*
X145467000Y-120027019D03*
D19*
X137897000Y-114932019D03*
D20*
X146537000Y-119112019D03*
X137897000Y-119112019D03*
D19*
X146537000Y-114932019D03*
D15*
X153643125Y-96581513D03*
X153643125Y-93281513D03*
D14*
X103611872Y-128631522D03*
X103611872Y-131431522D03*
X151311875Y-152031528D03*
X151311875Y-154831528D03*
D13*
X72221610Y-47259594D03*
D11*
X63142938Y-92871957D03*
X64839994Y-92169013D03*
X63142938Y-96266069D03*
X66537050Y-92871957D03*
X62439994Y-94569013D03*
D10*
X64839994Y-94569013D03*
D11*
X64839994Y-96969013D03*
X67239994Y-94569013D03*
X66537050Y-96266069D03*
D12*
X54230619Y-83512135D03*
X54230619Y-84532135D03*
D15*
X153643125Y-155081528D03*
X153643125Y-151781528D03*
D12*
X101930622Y-36712123D03*
X101930622Y-37732123D03*
D11*
X74842941Y-37766054D03*
X78237053Y-34371942D03*
X76539997Y-33668998D03*
X78939997Y-36068998D03*
D10*
X76539997Y-36068998D03*
D11*
X78237053Y-37766054D03*
X74139997Y-36068998D03*
X76539997Y-38468998D03*
X74842941Y-34371942D03*
D16*
X43926994Y-24981995D03*
X49706994Y-24981995D03*
D17*
X50066994Y-26426995D03*
X49266994Y-26426995D03*
D18*
X48066994Y-26426995D03*
X47066994Y-26426995D03*
X46566994Y-26426995D03*
X45566994Y-26426995D03*
D17*
X44366994Y-26426995D03*
X43566994Y-26426995D03*
X43566994Y-26426995D03*
X44366994Y-26426995D03*
D18*
X45066994Y-26426995D03*
X46066994Y-26426995D03*
X47566994Y-26426995D03*
X48566994Y-26426995D03*
D17*
X49266994Y-26426995D03*
X50066994Y-26426995D03*
D19*
X42496994Y-21331995D03*
X51136994Y-21331995D03*
D20*
X51136994Y-25511995D03*
X42496994Y-25511995D03*
D14*
X151311875Y-175431534D03*
X151311875Y-178231534D03*
D21*
X131040000Y-103844016D03*
X132040000Y-103844016D03*
X133040000Y-103844016D03*
X134040000Y-103844016D03*
D22*
X135340000Y-107719016D03*
X129740000Y-107719016D03*
D13*
X164558386Y-47259594D03*
X24759272Y-177969015D03*
D16*
X139327000Y-71782007D03*
X145107000Y-71782007D03*
D17*
X145467000Y-73227007D03*
X144667000Y-73227007D03*
D18*
X143467000Y-73227007D03*
X142467000Y-73227007D03*
X141967000Y-73227007D03*
X140967000Y-73227007D03*
D17*
X139767000Y-73227007D03*
X138967000Y-73227007D03*
X138967000Y-73227007D03*
X139767000Y-73227007D03*
D18*
X140467000Y-73227007D03*
X141467000Y-73227007D03*
X142967000Y-73227007D03*
X143967000Y-73227007D03*
D17*
X144667000Y-73227007D03*
X145467000Y-73227007D03*
D19*
X137897000Y-68132007D03*
X146537000Y-68132007D03*
D20*
X146537000Y-72312007D03*
X137897000Y-72312007D03*
D13*
X68920707Y-57969000D03*
X116620708Y-93069004D03*
X24521607Y-35559593D03*
X116620718Y-177969015D03*
D12*
X54230619Y-48412126D03*
X54230619Y-49432126D03*
D14*
X151311875Y-70131507D03*
X151311875Y-72931507D03*
D13*
X24759284Y-139869010D03*
D11*
X30537050Y-139671969D03*
X27142938Y-143066081D03*
X30537050Y-143066081D03*
X28839994Y-138969025D03*
X31239994Y-141369025D03*
D10*
X28839994Y-141369025D03*
D11*
X26439994Y-141369025D03*
X28839994Y-143769025D03*
X27142938Y-139671969D03*
D16*
X91626997Y-83482010D03*
X97406997Y-83482010D03*
D17*
X97766997Y-84927010D03*
X96966997Y-84927010D03*
D18*
X95766997Y-84927010D03*
X94766997Y-84927010D03*
X94266997Y-84927010D03*
X93266997Y-84927010D03*
D17*
X92066997Y-84927010D03*
X91266997Y-84927010D03*
X91266997Y-84927010D03*
X92066997Y-84927010D03*
D18*
X92766997Y-84927010D03*
X93766997Y-84927010D03*
X95266997Y-84927010D03*
X96266997Y-84927010D03*
D17*
X96966997Y-84927010D03*
X97766997Y-84927010D03*
D20*
X90196997Y-84012010D03*
D19*
X98836997Y-79832010D03*
D20*
X98836997Y-84012010D03*
D19*
X90196997Y-79832010D03*
D21*
X131040000Y-21943995D03*
X132040000Y-21943995D03*
X133040000Y-21943995D03*
X134040000Y-21943995D03*
D22*
X129740000Y-25818995D03*
X135340000Y-25818995D03*
D13*
X116620716Y-131169009D03*
X119921612Y-118478410D03*
D16*
X97406997Y-165382031D03*
X91626997Y-165382031D03*
D17*
X97766997Y-166827031D03*
X96966997Y-166827031D03*
D18*
X95766997Y-166827031D03*
X94766997Y-166827031D03*
X94266997Y-166827031D03*
X93266997Y-166827031D03*
D17*
X92066997Y-166827031D03*
X91266997Y-166827031D03*
X91266997Y-166827031D03*
X92066997Y-166827031D03*
D18*
X92766997Y-166827031D03*
X93766997Y-166827031D03*
X95266997Y-166827031D03*
X96266997Y-166827031D03*
D17*
X96966997Y-166827031D03*
X97766997Y-166827031D03*
D19*
X90196997Y-161732031D03*
D20*
X90196997Y-165912031D03*
X98836997Y-165912031D03*
D19*
X98836997Y-161732031D03*
D11*
X26439994Y-36068998D03*
X30537050Y-37766054D03*
X27142938Y-34371942D03*
X27142938Y-37766054D03*
X30537050Y-34371942D03*
X31239994Y-36068998D03*
X28839994Y-33668998D03*
X28839994Y-38468998D03*
D10*
X28839994Y-36068998D03*
D13*
X120159285Y-34568997D03*
X119921615Y-175959610D03*
D12*
X54230619Y-95212138D03*
X54230619Y-96232138D03*
D13*
X164320709Y-151569012D03*
D16*
X49706994Y-165382031D03*
X43926994Y-165382031D03*
D17*
X50066994Y-166827031D03*
X49266994Y-166827031D03*
D18*
X48066994Y-166827031D03*
X47066994Y-166827031D03*
X46566994Y-166827031D03*
X45566994Y-166827031D03*
D17*
X44366994Y-166827031D03*
X43566994Y-166827031D03*
X43566994Y-166827031D03*
X44366994Y-166827031D03*
D18*
X45066994Y-166827031D03*
X46066994Y-166827031D03*
X47566994Y-166827031D03*
X48566994Y-166827031D03*
D17*
X49266994Y-166827031D03*
X50066994Y-166827031D03*
D20*
X51136994Y-165912031D03*
D19*
X51136994Y-161732031D03*
X42496994Y-161732031D03*
D20*
X42496994Y-165912031D03*
D21*
X35639994Y-185744037D03*
X36639994Y-185744037D03*
X37639994Y-185744037D03*
X38639994Y-185744037D03*
D22*
X34339994Y-189619037D03*
X39939994Y-189619037D03*
D13*
X164558387Y-71678404D03*
X164558385Y-105759601D03*
X72459282Y-25868995D03*
X69158381Y-118478410D03*
D21*
X131040000Y-138944025D03*
X132040000Y-138944025D03*
X133040000Y-138944025D03*
X134040000Y-138944025D03*
D22*
X129740000Y-142819025D03*
X135340000Y-142819025D03*
D13*
X24759277Y-72669001D03*
X24521607Y-47259594D03*
D16*
X97406997Y-48382001D03*
X91626997Y-48382001D03*
D17*
X97766997Y-49827001D03*
X96966997Y-49827001D03*
D18*
X95766997Y-49827001D03*
X94766997Y-49827001D03*
X94266997Y-49827001D03*
X93266997Y-49827001D03*
D17*
X92066997Y-49827001D03*
X91266997Y-49827001D03*
X91266997Y-49827001D03*
X92066997Y-49827001D03*
D18*
X92766997Y-49827001D03*
X93766997Y-49827001D03*
X95266997Y-49827001D03*
X96266997Y-49827001D03*
D17*
X96966997Y-49827001D03*
X97766997Y-49827001D03*
D20*
X90196997Y-48912001D03*
D19*
X98836997Y-44732001D03*
D20*
X98836997Y-48912001D03*
D19*
X90196997Y-44732001D03*
D13*
X116858383Y-23859591D03*
X24521606Y-83378406D03*
X72221612Y-187659611D03*
X164558387Y-106778409D03*
D11*
X110842941Y-154766084D03*
X114237053Y-154766084D03*
X112539997Y-150669028D03*
X110842941Y-151371972D03*
X114237053Y-151371972D03*
X110139997Y-153069028D03*
D10*
X112539997Y-153069028D03*
D11*
X114939997Y-153069028D03*
X112539997Y-155469028D03*
D12*
X148487625Y-106912141D03*
X148487625Y-107932141D03*
D10*
X64839994Y-117969019D03*
D11*
X64839994Y-120369019D03*
X63142938Y-116271963D03*
X63142938Y-119666075D03*
X64839994Y-115569019D03*
X66537050Y-119666075D03*
X62439994Y-117969019D03*
X66537050Y-116271963D03*
X67239994Y-117969019D03*
D14*
X103611872Y-152031528D03*
X103611872Y-154831528D03*
D13*
X68920702Y-163269013D03*
D11*
X30537050Y-166466087D03*
X27142938Y-163071975D03*
X31239994Y-164769031D03*
X27142938Y-166466087D03*
X28839994Y-167169031D03*
X30537050Y-163071975D03*
X28839994Y-162369031D03*
X26439994Y-164769031D03*
D10*
X28839994Y-164769031D03*
D13*
X24521606Y-95078407D03*
X24521609Y-164259608D03*
X164558386Y-70659597D03*
X24521607Y-36578400D03*
X116858383Y-82359598D03*
X116858384Y-83378406D03*
D12*
X54230619Y-71812132D03*
X54230619Y-72832132D03*
D13*
X69158379Y-140859606D03*
X119921612Y-59978403D03*
X116858385Y-141878413D03*
D15*
X58243119Y-190181537D03*
X58243119Y-186881537D03*
D11*
X64839994Y-178869034D03*
X63142938Y-174771978D03*
X64839994Y-174069034D03*
X63142938Y-178166090D03*
X66537050Y-178166090D03*
D10*
X64839994Y-176469034D03*
D11*
X67239994Y-176469034D03*
X66537050Y-174771978D03*
X62439994Y-176469034D03*
D15*
X58243119Y-143381525D03*
X58243119Y-140081525D03*
X105943122Y-26381495D03*
X105943122Y-23081495D03*
D13*
X24759275Y-96069004D03*
X164320712Y-69669001D03*
X24521606Y-48278401D03*
X120159283Y-72669001D03*
D11*
X161937056Y-131366078D03*
X161937056Y-127971966D03*
D10*
X160240000Y-129669022D03*
D11*
X157840000Y-129669022D03*
X160240000Y-127269022D03*
X158542944Y-127971966D03*
X158542944Y-131366078D03*
X162640000Y-129669022D03*
X160240000Y-132069022D03*
D16*
X49706994Y-48382001D03*
X43926994Y-48382001D03*
D17*
X50066994Y-49827001D03*
X49266994Y-49827001D03*
D18*
X48066994Y-49827001D03*
X47066994Y-49827001D03*
X46566994Y-49827001D03*
X45566994Y-49827001D03*
D17*
X44366994Y-49827001D03*
X43566994Y-49827001D03*
X43566994Y-49827001D03*
X44366994Y-49827001D03*
D18*
X45066994Y-49827001D03*
X46066994Y-49827001D03*
X47566994Y-49827001D03*
X48566994Y-49827001D03*
D17*
X49266994Y-49827001D03*
X50066994Y-49827001D03*
D20*
X42496994Y-48912001D03*
X51136994Y-48912001D03*
D19*
X51136994Y-44732001D03*
X42496994Y-44732001D03*
D13*
X164320708Y-174969015D03*
D16*
X43926994Y-188782037D03*
X49706994Y-188782037D03*
D17*
X50066994Y-190227037D03*
X49266994Y-190227037D03*
D18*
X48066994Y-190227037D03*
X47066994Y-190227037D03*
X46566994Y-190227037D03*
X45566994Y-190227037D03*
D17*
X44366994Y-190227037D03*
X43566994Y-190227037D03*
X43566994Y-190227037D03*
X44366994Y-190227037D03*
D18*
X45066994Y-190227037D03*
X46066994Y-190227037D03*
X47566994Y-190227037D03*
X48566994Y-190227037D03*
D17*
X49266994Y-190227037D03*
X50066994Y-190227037D03*
D19*
X42496994Y-185132037D03*
D20*
X42496994Y-189312037D03*
D19*
X51136994Y-185132037D03*
D20*
X51136994Y-189312037D03*
D12*
X101930622Y-48412126D03*
X101930622Y-49432126D03*
D13*
X72221610Y-36578400D03*
D11*
X161937056Y-61166060D03*
X160240000Y-57069004D03*
X158542944Y-61166060D03*
X158542944Y-57771948D03*
X161937056Y-57771948D03*
X160240000Y-61869004D03*
D10*
X160240000Y-59469004D03*
D11*
X162640000Y-59469004D03*
X157840000Y-59469004D03*
D13*
X116620706Y-151569012D03*
D12*
X148487625Y-83512135D03*
X148487625Y-84532135D03*
D16*
X145107000Y-60082004D03*
X139327000Y-60082004D03*
D17*
X145467000Y-61527004D03*
X144667000Y-61527004D03*
D18*
X143467000Y-61527004D03*
X142467000Y-61527004D03*
X141967000Y-61527004D03*
X140967000Y-61527004D03*
D17*
X139767000Y-61527004D03*
X138967000Y-61527004D03*
X138967000Y-61527004D03*
X139767000Y-61527004D03*
D18*
X140467000Y-61527004D03*
X141467000Y-61527004D03*
X142967000Y-61527004D03*
X143967000Y-61527004D03*
D17*
X144667000Y-61527004D03*
X145467000Y-61527004D03*
D19*
X137897000Y-56432004D03*
D20*
X137897000Y-60612004D03*
X146537000Y-60612004D03*
D19*
X146537000Y-56432004D03*
D13*
X116858385Y-165278416D03*
D21*
X35639994Y-33643998D03*
X36639994Y-33643998D03*
X37639994Y-33643998D03*
X38639994Y-33643998D03*
D22*
X34339994Y-37518998D03*
X39939994Y-37518998D03*
D21*
X131040000Y-80444010D03*
X132040000Y-80444010D03*
X133040000Y-80444010D03*
X134040000Y-80444010D03*
D22*
X135340000Y-84319010D03*
X129740000Y-84319010D03*
D13*
X164320719Y-119469007D03*
X72459287Y-151569012D03*
X116858384Y-106778409D03*
D11*
X112539997Y-190569037D03*
X114237053Y-189866093D03*
D10*
X112539997Y-188169037D03*
D11*
X110139997Y-188169037D03*
X110842941Y-189866093D03*
X114939997Y-188169037D03*
X114237053Y-186471981D03*
X112539997Y-185769037D03*
X110842941Y-186471981D03*
D15*
X105943122Y-108281516D03*
X105943122Y-104981516D03*
D13*
X164558386Y-58959596D03*
X116620712Y-37568997D03*
D12*
X101930622Y-95212138D03*
X101930622Y-96232138D03*
D13*
X72221609Y-59978403D03*
D11*
X28839994Y-185769037D03*
D10*
X28839994Y-188169037D03*
D11*
X27142938Y-189866093D03*
X26439994Y-188169037D03*
X30537050Y-189866093D03*
X31239994Y-188169037D03*
X27142938Y-186471981D03*
X28839994Y-190569037D03*
X30537050Y-186471981D03*
D13*
X68920706Y-81369003D03*
X164558388Y-176978417D03*
X24521609Y-187659611D03*
D14*
X103611872Y-93531513D03*
X103611872Y-96331513D03*
D13*
X68920714Y-142869010D03*
X72459285Y-93069004D03*
D15*
X105943122Y-84881510D03*
X105943122Y-81581510D03*
D14*
X151311875Y-93531513D03*
X151311875Y-96331513D03*
D16*
X97406997Y-71782007D03*
X91626997Y-71782007D03*
D17*
X97766997Y-73227007D03*
X96966997Y-73227007D03*
D18*
X95766997Y-73227007D03*
X94766997Y-73227007D03*
X94266997Y-73227007D03*
X93266997Y-73227007D03*
D17*
X92066997Y-73227007D03*
X91266997Y-73227007D03*
X91266997Y-73227007D03*
X92066997Y-73227007D03*
D18*
X92766997Y-73227007D03*
X93766997Y-73227007D03*
X95266997Y-73227007D03*
X96266997Y-73227007D03*
D17*
X96966997Y-73227007D03*
X97766997Y-73227007D03*
D19*
X90196997Y-68132007D03*
D20*
X90196997Y-72312007D03*
D19*
X98836997Y-68132007D03*
D20*
X98836997Y-72312007D03*
D11*
X125937056Y-61166060D03*
X125937056Y-57771948D03*
X124240000Y-57069004D03*
D10*
X124240000Y-59469004D03*
D11*
X122542944Y-57771948D03*
X122542944Y-61166060D03*
X121840000Y-59469004D03*
X124240000Y-61869004D03*
X126640000Y-59469004D03*
X30537050Y-174771978D03*
X27142938Y-178166090D03*
X26439994Y-176469034D03*
X28839994Y-174069034D03*
X31239994Y-176469034D03*
X30537050Y-178166090D03*
D10*
X28839994Y-176469034D03*
D11*
X28839994Y-178869034D03*
X27142938Y-174771978D03*
D12*
X53087619Y-71812132D03*
X53087619Y-72832132D03*
D13*
X68920704Y-116469007D03*
D16*
X139327000Y-130282022D03*
X145107000Y-130282022D03*
D17*
X145467000Y-131727022D03*
X144667000Y-131727022D03*
D18*
X143467000Y-131727022D03*
X142467000Y-131727022D03*
X141967000Y-131727022D03*
X140967000Y-131727022D03*
D17*
X139767000Y-131727022D03*
X138967000Y-131727022D03*
X138967000Y-131727022D03*
X139767000Y-131727022D03*
D18*
X140467000Y-131727022D03*
X141467000Y-131727022D03*
X142967000Y-131727022D03*
X143967000Y-131727022D03*
D17*
X144667000Y-131727022D03*
X145467000Y-131727022D03*
D20*
X146537000Y-130812022D03*
X137897000Y-130812022D03*
D19*
X146537000Y-126632022D03*
X137897000Y-126632022D03*
D11*
X78237053Y-96266069D03*
X76539997Y-96969013D03*
D10*
X76539997Y-94569013D03*
D11*
X78939997Y-94569013D03*
X78237053Y-92871957D03*
X76539997Y-92169013D03*
X74139997Y-94569013D03*
X74842941Y-96266069D03*
X74842941Y-92871957D03*
D16*
X91626997Y-153682028D03*
X97406997Y-153682028D03*
D17*
X97766997Y-155127028D03*
X96966997Y-155127028D03*
D18*
X95766997Y-155127028D03*
X94766997Y-155127028D03*
X94266997Y-155127028D03*
X93266997Y-155127028D03*
D17*
X92066997Y-155127028D03*
X91266997Y-155127028D03*
X91266997Y-155127028D03*
X92066997Y-155127028D03*
D18*
X92766997Y-155127028D03*
X93766997Y-155127028D03*
X95266997Y-155127028D03*
X96266997Y-155127028D03*
D17*
X96966997Y-155127028D03*
X97766997Y-155127028D03*
D19*
X90196997Y-150032028D03*
D20*
X90196997Y-154212028D03*
X98836997Y-154212028D03*
D19*
X98836997Y-150032028D03*
D13*
X119921613Y-70659597D03*
X68920701Y-186669016D03*
D15*
X58243119Y-84881510D03*
X58243119Y-81581510D03*
D12*
X101930622Y-106912141D03*
X101930622Y-107932141D03*
X101930622Y-142012150D03*
X101930622Y-143032150D03*
X101930622Y-165412156D03*
X101930622Y-166432156D03*
D13*
X72221610Y-82359598D03*
D11*
X112539997Y-45369001D03*
X114939997Y-47769001D03*
X110139997Y-47769001D03*
X110842941Y-46071945D03*
D10*
X112539997Y-47769001D03*
D11*
X114237053Y-46071945D03*
X110842941Y-49466057D03*
X114237053Y-49466057D03*
X112539997Y-50169001D03*
D13*
X120159289Y-128169009D03*
D21*
X35639994Y-138944025D03*
X36639994Y-138944025D03*
X37639994Y-138944025D03*
X38639994Y-138944025D03*
D22*
X34339994Y-142819025D03*
X39939994Y-142819025D03*
D13*
X119921614Y-117459603D03*
X120159287Y-81369003D03*
X164320718Y-107769006D03*
D15*
X153643125Y-108281516D03*
X153643125Y-104981516D03*
D11*
X62439994Y-59469004D03*
X63142938Y-57771948D03*
X63142938Y-61166060D03*
X64839994Y-61869004D03*
X66537050Y-57771948D03*
X67239994Y-59469004D03*
X64839994Y-57069004D03*
D10*
X64839994Y-59469004D03*
D11*
X66537050Y-61166060D03*
D12*
X149630625Y-60112129D03*
X149630625Y-61132129D03*
D13*
X116620706Y-139869010D03*
X68920712Y-107769006D03*
D11*
X122542944Y-116271963D03*
X124240000Y-115569019D03*
X126640000Y-117969019D03*
X122542944Y-119666075D03*
X121840000Y-117969019D03*
X124240000Y-120369019D03*
X125937056Y-119666075D03*
X125937056Y-116271963D03*
D10*
X124240000Y-117969019D03*
D13*
X69158380Y-47259594D03*
D11*
X76539997Y-127269022D03*
X76539997Y-132069022D03*
X78237053Y-127971966D03*
X78237053Y-131366078D03*
X74842941Y-131366078D03*
X78939997Y-129669022D03*
X74842941Y-127971966D03*
X74139997Y-129669022D03*
D10*
X76539997Y-129669022D03*
D12*
X100787622Y-142012150D03*
X100787622Y-143032150D03*
D13*
X72459289Y-186669016D03*
X24759276Y-84369003D03*
X24521605Y-141878413D03*
D15*
X105943122Y-73181507D03*
X105943122Y-69881507D03*
D13*
X69158378Y-175959610D03*
D12*
X54230619Y-130312147D03*
X54230619Y-131332147D03*
X54230619Y-177112159D03*
X54230619Y-178132159D03*
D13*
X72459287Y-139869010D03*
X72221609Y-48278401D03*
D11*
X114939997Y-106269016D03*
X112539997Y-108669016D03*
X114237053Y-104571960D03*
X110842941Y-107966072D03*
X112539997Y-103869016D03*
D10*
X112539997Y-106269016D03*
D11*
X114237053Y-107966072D03*
X110139997Y-106269016D03*
X110842941Y-104571960D03*
D13*
X164320718Y-96069004D03*
D11*
X76539997Y-143769025D03*
D10*
X76539997Y-141369025D03*
D11*
X78237053Y-143066081D03*
X74842941Y-139671969D03*
X74842941Y-143066081D03*
X74139997Y-141369025D03*
X76539997Y-138969025D03*
X78939997Y-141369025D03*
X78237053Y-139671969D03*
X76539997Y-103869016D03*
X78939997Y-106269016D03*
X76539997Y-108669016D03*
X74842941Y-104571960D03*
X78237053Y-104571960D03*
X74842941Y-107966072D03*
X78237053Y-107966072D03*
X74139997Y-106269016D03*
D10*
X76539997Y-106269016D03*
D12*
X148487625Y-25012120D03*
X148487625Y-26032120D03*
D13*
X24759275Y-107769006D03*
X68920714Y-154569012D03*
D21*
X83339997Y-185744037D03*
X84339997Y-185744037D03*
X85339997Y-185744037D03*
X86339997Y-185744037D03*
D22*
X82039997Y-189619037D03*
X87639997Y-189619037D03*
D16*
X43926994Y-95182013D03*
X49706994Y-95182013D03*
D17*
X50066994Y-96627013D03*
X49266994Y-96627013D03*
D18*
X48066994Y-96627013D03*
X47066994Y-96627013D03*
X46566994Y-96627013D03*
X45566994Y-96627013D03*
D17*
X44366994Y-96627013D03*
X43566994Y-96627013D03*
X43566994Y-96627013D03*
X44366994Y-96627013D03*
D18*
X45066994Y-96627013D03*
X46066994Y-96627013D03*
X47566994Y-96627013D03*
X48566994Y-96627013D03*
D17*
X49266994Y-96627013D03*
X50066994Y-96627013D03*
D20*
X51136994Y-95712013D03*
X42496994Y-95712013D03*
D19*
X51136994Y-91532013D03*
X42496994Y-91532013D03*
D16*
X97406997Y-177082034D03*
X91626997Y-177082034D03*
D17*
X97766997Y-178527034D03*
X96966997Y-178527034D03*
D18*
X95766997Y-178527034D03*
X94766997Y-178527034D03*
X94266997Y-178527034D03*
X93266997Y-178527034D03*
D17*
X92066997Y-178527034D03*
X91266997Y-178527034D03*
X91266997Y-178527034D03*
X92066997Y-178527034D03*
D18*
X92766997Y-178527034D03*
X93766997Y-178527034D03*
X95266997Y-178527034D03*
X96266997Y-178527034D03*
D17*
X96966997Y-178527034D03*
X97766997Y-178527034D03*
D20*
X98836997Y-177612034D03*
X90196997Y-177612034D03*
D19*
X90196997Y-173432034D03*
X98836997Y-173432034D03*
D13*
X24759279Y-34568997D03*
X72221610Y-35559593D03*
X24521606Y-71678404D03*
D12*
X100787622Y-177112159D03*
X100787622Y-178132159D03*
X148487625Y-130312147D03*
X148487625Y-131332147D03*
D13*
X119921614Y-105759601D03*
X72221609Y-95078407D03*
X24759277Y-60969000D03*
D21*
X131040000Y-115544019D03*
X132040000Y-115544019D03*
X133040000Y-115544019D03*
X134040000Y-115544019D03*
D22*
X135340000Y-119419019D03*
X129740000Y-119419019D03*
D21*
X83339997Y-68744007D03*
X84339997Y-68744007D03*
X85339997Y-68744007D03*
X86339997Y-68744007D03*
D22*
X82039997Y-72619007D03*
X87639997Y-72619007D03*
D13*
X68920704Y-128169009D03*
D11*
X76539997Y-21968995D03*
X78237053Y-26066051D03*
X78237053Y-22671939D03*
X76539997Y-26768995D03*
D10*
X76539997Y-24368995D03*
D11*
X78939997Y-24368995D03*
X74842941Y-22671939D03*
X74842941Y-26066051D03*
X74139997Y-24368995D03*
D13*
X116858384Y-48278401D03*
X68920710Y-60969000D03*
D15*
X58243119Y-166781531D03*
X58243119Y-163481531D03*
D13*
X69158380Y-58959596D03*
X72221612Y-175959610D03*
D11*
X126640000Y-176469034D03*
X125937056Y-174771978D03*
X125937056Y-178166090D03*
X121840000Y-176469034D03*
X124240000Y-178869034D03*
D10*
X124240000Y-176469034D03*
D11*
X124240000Y-174069034D03*
X122542944Y-178166090D03*
X122542944Y-174771978D03*
X161937056Y-22671939D03*
X157840000Y-24368995D03*
X160240000Y-21968995D03*
D10*
X160240000Y-24368995D03*
D11*
X158542944Y-26066051D03*
X160240000Y-26768995D03*
X161937056Y-26066051D03*
X162640000Y-24368995D03*
X158542944Y-22671939D03*
D15*
X153643125Y-166781531D03*
X153643125Y-163481531D03*
D13*
X164320716Y-60969000D03*
X164320721Y-166269013D03*
D21*
X35639994Y-21943995D03*
X36639994Y-21943995D03*
X37639994Y-21943995D03*
X38639994Y-21943995D03*
D22*
X39939994Y-25818995D03*
X34339994Y-25818995D03*
D21*
X35639994Y-103844016D03*
X36639994Y-103844016D03*
X37639994Y-103844016D03*
X38639994Y-103844016D03*
D22*
X39939994Y-107719016D03*
X34339994Y-107719016D03*
D12*
X100787622Y-130312147D03*
X100787622Y-131332147D03*
D21*
X83339997Y-138944025D03*
X84339997Y-138944025D03*
X85339997Y-138944025D03*
X86339997Y-138944025D03*
D22*
X82039997Y-142819025D03*
X87639997Y-142819025D03*
D13*
X72459284Y-69669001D03*
D21*
X83339997Y-21943995D03*
X84339997Y-21943995D03*
X85339997Y-21943995D03*
X86339997Y-21943995D03*
D22*
X87639997Y-25818995D03*
X82039997Y-25818995D03*
D13*
X24521605Y-165278416D03*
X24521607Y-23859591D03*
D16*
X49706994Y-153682028D03*
X43926994Y-153682028D03*
D17*
X50066994Y-155127028D03*
X49266994Y-155127028D03*
D18*
X48066994Y-155127028D03*
X47066994Y-155127028D03*
X46566994Y-155127028D03*
X45566994Y-155127028D03*
D17*
X44366994Y-155127028D03*
X43566994Y-155127028D03*
X43566994Y-155127028D03*
X44366994Y-155127028D03*
D18*
X45066994Y-155127028D03*
X46066994Y-155127028D03*
X47566994Y-155127028D03*
X48566994Y-155127028D03*
D17*
X49266994Y-155127028D03*
X50066994Y-155127028D03*
D19*
X42496994Y-150032028D03*
X51136994Y-150032028D03*
D20*
X42496994Y-154212028D03*
X51136994Y-154212028D03*
D13*
X116620709Y-69669001D03*
X164320720Y-154569012D03*
X72459276Y-154569012D03*
X116858383Y-47259594D03*
D12*
X53087619Y-95212138D03*
X53087619Y-96232138D03*
D13*
X72459281Y-22868995D03*
X72459275Y-177969015D03*
D14*
X103611872Y-81831510D03*
X103611872Y-84631510D03*
D13*
X69158379Y-94059600D03*
M02*
