%TF.GenerationSoftware,KiCad,Pcbnew,(6.0.0)*%
%TF.CreationDate,2022-08-14T01:13:06-04:00*%
%TF.ProjectId,Panel v2,50616e65-6c20-4763-922e-6b696361645f,rev?*%
%TF.SameCoordinates,Original*%
%TF.FileFunction,Soldermask,Bot*%
%TF.FilePolarity,Negative*%
%FSLAX46Y46*%
G04 Gerber Fmt 4.6, Leading zero omitted, Abs format (unit mm)*
G04 Created by KiCad (PCBNEW (6.0.0)) date 2022-08-14 01:13:06*
%MOMM*%
%LPD*%
G01*
G04 APERTURE LIST*
%ADD10C,6.400000*%
%ADD11C,0.800000*%
%ADD12C,0.500000*%
%ADD13C,0.650000*%
%ADD14O,1.000000X1.600000*%
%ADD15O,1.000000X2.100000*%
G04 APERTURE END LIST*
D10*
%TO.C,MH54*%
X76539997Y-117969019D03*
D11*
X74842941Y-119666075D03*
X76539997Y-120369019D03*
X78939997Y-117969019D03*
X74842941Y-116271963D03*
X78237053Y-116271963D03*
X74139997Y-117969019D03*
X76539997Y-115569019D03*
X78237053Y-119666075D03*
%TD*%
%TO.C,MH87*%
X125937056Y-189866093D03*
X124240000Y-190569037D03*
X124240000Y-185769037D03*
X125937056Y-186471981D03*
X122542944Y-189866093D03*
D10*
X124240000Y-188169037D03*
D11*
X121840000Y-188169037D03*
X122542944Y-186471981D03*
X126640000Y-188169037D03*
%TD*%
D12*
%TO.C,REF\u002A\u002A*%
X68920709Y-37568997D03*
%TD*%
%TO.C,REF\u002A\u002A*%
X69158380Y-36578400D03*
%TD*%
%TO.C,REF\u002A\u002A*%
X164558386Y-35559593D03*
%TD*%
%TO.C,REF\u002A\u002A*%
X164558387Y-48278401D03*
%TD*%
%TO.C,REF\u002A\u002A*%
X24521608Y-140859606D03*
%TD*%
%TO.C,REF\u002A\u002A*%
X24759283Y-128169009D03*
%TD*%
%TO.C,REF\u002A\u002A*%
X69158382Y-130178411D03*
%TD*%
%TO.C,REF\u002A\u002A*%
X68920708Y-25868995D03*
%TD*%
%TO.C,REF\u002A\u002A*%
X120159284Y-49268998D03*
%TD*%
%TO.C,REF\u002A\u002A*%
X69158381Y-106778409D03*
%TD*%
D11*
%TO.C,MH21*%
X125937056Y-46071945D03*
X124240000Y-50169001D03*
X125937056Y-49466057D03*
X122542944Y-46071945D03*
X122542944Y-49466057D03*
D10*
X124240000Y-47769001D03*
D11*
X124240000Y-45369001D03*
X121840000Y-47769001D03*
X126640000Y-47769001D03*
%TD*%
D12*
%TO.C,REF\u002A\u002A*%
X69158381Y-48278401D03*
%TD*%
%TO.C,REF\u002A\u002A*%
X164320722Y-189669016D03*
%TD*%
%TO.C,REF\u002A\u002A*%
X120159281Y-107769006D03*
%TD*%
D13*
%TO.C,J53*%
X43926994Y-141982025D03*
X49706994Y-141982025D03*
D14*
X51136994Y-138332025D03*
X42496994Y-138332025D03*
D15*
X51136994Y-142512025D03*
X42496994Y-142512025D03*
%TD*%
D12*
%TO.C,REF\u002A\u002A*%
X68920703Y-151569012D03*
%TD*%
D11*
%TO.C,MH81*%
X67239994Y-188169037D03*
X64839994Y-190569037D03*
X63142938Y-189866093D03*
D10*
X64839994Y-188169037D03*
D11*
X64839994Y-185769037D03*
X66537050Y-189866093D03*
X63142938Y-186471981D03*
X62439994Y-188169037D03*
X66537050Y-186471981D03*
%TD*%
D12*
%TO.C,REF\u002A\u002A*%
X72221610Y-58959596D03*
%TD*%
%TO.C,REF\u002A\u002A*%
X164320711Y-93069004D03*
%TD*%
%TO.C,REF\u002A\u002A*%
X164558385Y-129159604D03*
%TD*%
%TO.C,REF\u002A\u002A*%
X24521605Y-176978417D03*
%TD*%
D11*
%TO.C,MH9*%
X124240000Y-21968995D03*
X121840000Y-24368995D03*
X126640000Y-24368995D03*
X124240000Y-26768995D03*
D10*
X124240000Y-24368995D03*
D11*
X125937056Y-26066051D03*
X122542944Y-22671939D03*
X122542944Y-26066051D03*
X125937056Y-22671939D03*
%TD*%
D12*
%TO.C,REF\u002A\u002A*%
X69158382Y-176978417D03*
%TD*%
%TO.C,REF\u002A\u002A*%
X24521608Y-129159604D03*
%TD*%
D11*
%TO.C,MH10*%
X122542944Y-37766054D03*
X125937056Y-37766054D03*
X125937056Y-34371942D03*
X124240000Y-33668998D03*
X124240000Y-38468998D03*
D10*
X124240000Y-36068998D03*
D11*
X122542944Y-34371942D03*
X126640000Y-36068998D03*
X121840000Y-36068998D03*
%TD*%
D12*
%TO.C,REF\u002A\u002A*%
X24521605Y-153578414D03*
%TD*%
%TO.C,REF\u002A\u002A*%
X72459286Y-128169009D03*
%TD*%
%TO.C,REF\u002A\u002A*%
X116858385Y-130178411D03*
%TD*%
%TO.C,REF\u002A\u002A*%
X120159277Y-189669016D03*
%TD*%
%TO.C,REF\u002A\u002A*%
X24521607Y-58959596D03*
%TD*%
%TO.C,REF\u002A\u002A*%
X164320714Y-25868995D03*
%TD*%
%TO.C,REF\u002A\u002A*%
X24521608Y-94059600D03*
%TD*%
%TO.C,REF\u002A\u002A*%
X72221611Y-129159604D03*
%TD*%
D10*
%TO.C,MH32*%
X112539997Y-82869010D03*
D11*
X110139997Y-82869010D03*
X114939997Y-82869010D03*
X110842941Y-81171954D03*
X114237053Y-84566066D03*
X110842941Y-84566066D03*
X112539997Y-85269010D03*
X112539997Y-80469010D03*
X114237053Y-81171954D03*
%TD*%
D12*
%TO.C,REF\u002A\u002A*%
X24759273Y-154569012D03*
%TD*%
D13*
%TO.C,J44*%
X97406997Y-95182013D03*
X91626997Y-95182013D03*
D15*
X90196997Y-95712013D03*
D14*
X90196997Y-91532013D03*
D15*
X98836997Y-95712013D03*
D14*
X98836997Y-91532013D03*
%TD*%
D12*
%TO.C,REF\u002A\u002A*%
X164320716Y-72669001D03*
%TD*%
%TO.C,REF\u002A\u002A*%
X72221609Y-106778409D03*
%TD*%
%TO.C,REF\u002A\u002A*%
X116858382Y-117459603D03*
%TD*%
%TO.C,REF\u002A\u002A*%
X24759285Y-163269013D03*
%TD*%
%TO.C,REF\u002A\u002A*%
X116858382Y-105759601D03*
%TD*%
%TO.C,REF\u002A\u002A*%
X24521608Y-105759601D03*
%TD*%
%TO.C,REF\u002A\u002A*%
X164558385Y-140859606D03*
%TD*%
D13*
%TO.C,J13*%
X49706994Y-60082004D03*
X43926994Y-60082004D03*
D14*
X42496994Y-56432004D03*
D15*
X51136994Y-60612004D03*
X42496994Y-60612004D03*
D14*
X51136994Y-56432004D03*
%TD*%
D12*
%TO.C,REF\u002A\u002A*%
X24521608Y-117459603D03*
%TD*%
%TO.C,REF\u002A\u002A*%
X164320711Y-104769006D03*
%TD*%
%TO.C,REF\u002A\u002A*%
X72459282Y-46268998D03*
%TD*%
D13*
%TO.C,J5*%
X97406997Y-24981995D03*
X91626997Y-24981995D03*
D15*
X90196997Y-25511995D03*
D14*
X90196997Y-21331995D03*
D15*
X98836997Y-25511995D03*
D14*
X98836997Y-21331995D03*
%TD*%
D12*
%TO.C,REF\u002A\u002A*%
X72459279Y-84369003D03*
%TD*%
%TO.C,REF\u002A\u002A*%
X24759286Y-186669016D03*
%TD*%
D11*
%TO.C,MH74*%
X121840000Y-153069028D03*
X125937056Y-154766084D03*
D10*
X124240000Y-153069028D03*
D11*
X122542944Y-154766084D03*
X125937056Y-151371972D03*
X122542944Y-151371972D03*
X124240000Y-150669028D03*
X126640000Y-153069028D03*
X124240000Y-155469028D03*
%TD*%
%TO.C,MH75*%
X122542944Y-143066081D03*
X125937056Y-139671969D03*
X122542944Y-139671969D03*
X124240000Y-138969025D03*
X125937056Y-143066081D03*
X124240000Y-143769025D03*
X126640000Y-141369025D03*
X121840000Y-141369025D03*
D10*
X124240000Y-141369025D03*
%TD*%
D12*
%TO.C,REF\u002A\u002A*%
X116620715Y-107769006D03*
%TD*%
%TO.C,REF\u002A\u002A*%
X116620713Y-60969000D03*
%TD*%
%TO.C,REF\u002A\u002A*%
X72221608Y-165278416D03*
%TD*%
%TO.C,REF\u002A\u002A*%
X72459286Y-116469007D03*
%TD*%
%TO.C,REF\u002A\u002A*%
X69158382Y-153578414D03*
%TD*%
%TO.C,REF\u002A\u002A*%
X164558385Y-94059600D03*
%TD*%
%TO.C,REF\u002A\u002A*%
X116858385Y-188678418D03*
%TD*%
%TO.C,REF\u002A\u002A*%
X119921613Y-58959596D03*
%TD*%
%TO.C,REF\u002A\u002A*%
X116858383Y-70659597D03*
%TD*%
D13*
%TO.C,J19*%
X91626997Y-60082004D03*
X97406997Y-60082004D03*
D15*
X90196997Y-60612004D03*
D14*
X98836997Y-56432004D03*
X90196997Y-56432004D03*
D15*
X98836997Y-60612004D03*
%TD*%
D12*
%TO.C,REF\u002A\u002A*%
X119921612Y-95078407D03*
%TD*%
%TO.C,REF\u002A\u002A*%
X116620709Y-81369003D03*
%TD*%
%TO.C,REF\u002A\u002A*%
X164558388Y-141878413D03*
%TD*%
%TO.C,REF\u002A\u002A*%
X72221610Y-70659597D03*
%TD*%
%TO.C,REF\u002A\u002A*%
X164320719Y-131169009D03*
%TD*%
%TO.C,REF\u002A\u002A*%
X164320713Y-57969000D03*
%TD*%
%TO.C,REF\u002A\u002A*%
X164558388Y-165278416D03*
%TD*%
%TO.C,REF\u002A\u002A*%
X116858383Y-58959596D03*
%TD*%
%TO.C,REF\u002A\u002A*%
X72221610Y-23859591D03*
%TD*%
%TO.C,REF\u002A\u002A*%
X68920709Y-22868995D03*
%TD*%
%TO.C,REF\u002A\u002A*%
X72221609Y-83378406D03*
%TD*%
D13*
%TO.C,J86*%
X145107000Y-177082034D03*
X139327000Y-177082034D03*
D14*
X146537000Y-173432034D03*
D15*
X146537000Y-177612034D03*
X137897000Y-177612034D03*
D14*
X137897000Y-173432034D03*
%TD*%
D12*
%TO.C,REF\u002A\u002A*%
X69158381Y-95078407D03*
%TD*%
%TO.C,REF\u002A\u002A*%
X24759284Y-151569012D03*
%TD*%
%TO.C,REF\u002A\u002A*%
X24521609Y-175959610D03*
%TD*%
%TO.C,REF\u002A\u002A*%
X72221608Y-188678418D03*
%TD*%
%TO.C,REF\u002A\u002A*%
X72221611Y-94059600D03*
%TD*%
D11*
%TO.C,MH68*%
X67239994Y-141369025D03*
X64839994Y-143769025D03*
X63142938Y-143066081D03*
D10*
X64839994Y-141369025D03*
D11*
X66537050Y-143066081D03*
X62439994Y-141369025D03*
X63142938Y-139671969D03*
X66537050Y-139671969D03*
X64839994Y-138969025D03*
%TD*%
D12*
%TO.C,REF\u002A\u002A*%
X119921612Y-106778409D03*
%TD*%
%TO.C,REF\u002A\u002A*%
X116620705Y-174969015D03*
%TD*%
D13*
%TO.C,J51*%
X49706994Y-118582019D03*
X43926994Y-118582019D03*
D15*
X51136994Y-119112019D03*
D14*
X42496994Y-114932019D03*
D15*
X42496994Y-119112019D03*
D14*
X51136994Y-114932019D03*
%TD*%
D12*
%TO.C,REF\u002A\u002A*%
X119921611Y-130178411D03*
%TD*%
%TO.C,REF\u002A\u002A*%
X72459281Y-37568997D03*
%TD*%
%TO.C,REF\u002A\u002A*%
X164320709Y-139869010D03*
%TD*%
D13*
%TO.C,J74*%
X145107000Y-153682028D03*
X139327000Y-153682028D03*
D14*
X137897000Y-150032028D03*
X146537000Y-150032028D03*
D15*
X137897000Y-154212028D03*
X146537000Y-154212028D03*
%TD*%
D12*
%TO.C,REF\u002A\u002A*%
X72459277Y-131169009D03*
%TD*%
%TO.C,REF\u002A\u002A*%
X24521608Y-152559607D03*
%TD*%
D11*
%TO.C,MH55*%
X112539997Y-132069022D03*
X114237053Y-131366078D03*
X114237053Y-127971966D03*
X112539997Y-127269022D03*
X110842941Y-127971966D03*
X114939997Y-129669022D03*
X110139997Y-129669022D03*
X110842941Y-131366078D03*
D10*
X112539997Y-129669022D03*
%TD*%
D13*
%TO.C,J57*%
X97406997Y-130282022D03*
X91626997Y-130282022D03*
D15*
X90196997Y-130812022D03*
D14*
X98836997Y-126632022D03*
X90196997Y-126632022D03*
D15*
X98836997Y-130812022D03*
%TD*%
D11*
%TO.C,MH53*%
X63142938Y-131366078D03*
X67239994Y-129669022D03*
X64839994Y-127269022D03*
D10*
X64839994Y-129669022D03*
D11*
X64839994Y-132069022D03*
X63142938Y-127971966D03*
X66537050Y-131366078D03*
X62439994Y-129669022D03*
X66537050Y-127971966D03*
%TD*%
%TO.C,MH44*%
X114237053Y-92871957D03*
X112539997Y-96969013D03*
X110139997Y-94569013D03*
X110842941Y-92871957D03*
X114237053Y-96266069D03*
X112539997Y-92169013D03*
X114939997Y-94569013D03*
X110842941Y-96266069D03*
D10*
X112539997Y-94569013D03*
%TD*%
D12*
%TO.C,REF\u002A\u002A*%
X164320710Y-128169009D03*
%TD*%
%TO.C,REF\u002A\u002A*%
X24759273Y-142869010D03*
%TD*%
%TO.C,REF\u002A\u002A*%
X68920706Y-69669001D03*
%TD*%
%TO.C,REF\u002A\u002A*%
X69158380Y-24878399D03*
%TD*%
%TO.C,REF\u002A\u002A*%
X72459276Y-142869010D03*
%TD*%
D11*
%TO.C,MH50*%
X28839994Y-120369019D03*
X30537050Y-119666075D03*
X31239994Y-117969019D03*
X30537050Y-116271963D03*
X26439994Y-117969019D03*
X27142938Y-119666075D03*
X28839994Y-115569019D03*
D10*
X28839994Y-117969019D03*
D11*
X27142938Y-116271963D03*
%TD*%
D12*
%TO.C,REF\u002A\u002A*%
X119921611Y-176978417D03*
%TD*%
%TO.C,REF\u002A\u002A*%
X24759278Y-37568997D03*
%TD*%
D11*
%TO.C,MH46*%
X124240000Y-108669016D03*
X121840000Y-106269016D03*
X124240000Y-103869016D03*
X125937056Y-107966072D03*
X122542944Y-104571960D03*
X125937056Y-104571960D03*
X126640000Y-106269016D03*
X122542944Y-107966072D03*
D10*
X124240000Y-106269016D03*
%TD*%
D11*
%TO.C,MH25*%
X27142938Y-81171954D03*
X26439994Y-82869010D03*
X31239994Y-82869010D03*
D10*
X28839994Y-82869010D03*
D11*
X28839994Y-85269010D03*
X30537050Y-84566066D03*
X27142938Y-84566066D03*
X28839994Y-80469010D03*
X30537050Y-81171954D03*
%TD*%
D12*
%TO.C,REF\u002A\u002A*%
X69158379Y-129159604D03*
%TD*%
D11*
%TO.C,MH38*%
X30537050Y-107966072D03*
D10*
X28839994Y-106269016D03*
D11*
X27142938Y-107966072D03*
X31239994Y-106269016D03*
X26439994Y-106269016D03*
X27142938Y-104571960D03*
X30537050Y-104571960D03*
X28839994Y-108669016D03*
X28839994Y-103869016D03*
%TD*%
D12*
%TO.C,REF\u002A\u002A*%
X120159287Y-69669001D03*
%TD*%
%TO.C,REF\u002A\u002A*%
X116858381Y-187659611D03*
%TD*%
%TO.C,REF\u002A\u002A*%
X69158378Y-164259608D03*
%TD*%
D11*
%TO.C,MH20*%
X110842941Y-61166060D03*
X114237053Y-57771948D03*
X112539997Y-61869004D03*
X110842941Y-57771948D03*
X110139997Y-59469004D03*
X114939997Y-59469004D03*
D10*
X112539997Y-59469004D03*
D11*
X114237053Y-61166060D03*
X112539997Y-57069004D03*
%TD*%
D12*
%TO.C,REF\u002A\u002A*%
X68920712Y-96069004D03*
%TD*%
%TO.C,REF\u002A\u002A*%
X116858383Y-36578400D03*
%TD*%
%TO.C,REF\u002A\u002A*%
X164558387Y-59978403D03*
%TD*%
D11*
%TO.C,MH89*%
X162640000Y-188169037D03*
X161937056Y-189866093D03*
X161937056Y-186471981D03*
X158542944Y-186471981D03*
X160240000Y-190569037D03*
X157840000Y-188169037D03*
D10*
X160240000Y-188169037D03*
D11*
X160240000Y-185769037D03*
X158542944Y-189866093D03*
%TD*%
D12*
%TO.C,REF\u002A\u002A*%
X164558387Y-118478410D03*
%TD*%
%TO.C,REF\u002A\u002A*%
X120159280Y-119469007D03*
%TD*%
%TO.C,REF\u002A\u002A*%
X24759278Y-22868995D03*
%TD*%
%TO.C,REF\u002A\u002A*%
X24759279Y-25868995D03*
%TD*%
D11*
%TO.C,MH78*%
X157840000Y-164769031D03*
X158542944Y-163071975D03*
X160240000Y-167169031D03*
D10*
X160240000Y-164769031D03*
D11*
X162640000Y-164769031D03*
X161937056Y-166466087D03*
X158542944Y-166466087D03*
X161937056Y-163071975D03*
X160240000Y-162369031D03*
%TD*%
D12*
%TO.C,REF\u002A\u002A*%
X72459283Y-57969000D03*
%TD*%
D13*
%TO.C,J6*%
X97406997Y-36681998D03*
X91626997Y-36681998D03*
D14*
X98836997Y-33031998D03*
D15*
X98836997Y-37211998D03*
D14*
X90196997Y-33031998D03*
D15*
X90196997Y-37211998D03*
%TD*%
D12*
%TO.C,REF\u002A\u002A*%
X24521605Y-130178411D03*
%TD*%
%TO.C,REF\u002A\u002A*%
X116858384Y-118478410D03*
%TD*%
%TO.C,REF\u002A\u002A*%
X164320714Y-46268998D03*
%TD*%
%TO.C,REF\u002A\u002A*%
X24521605Y-188678418D03*
%TD*%
%TO.C,REF\u002A\u002A*%
X119921612Y-83378406D03*
%TD*%
D11*
%TO.C,MH12*%
X161937056Y-37766054D03*
D10*
X160240000Y-36068998D03*
D11*
X161937056Y-34371942D03*
X162640000Y-36068998D03*
X160240000Y-33668998D03*
X160240000Y-38468998D03*
X158542944Y-37766054D03*
X157840000Y-36068998D03*
X158542944Y-34371942D03*
%TD*%
D12*
%TO.C,REF\u002A\u002A*%
X164320708Y-163269013D03*
%TD*%
D11*
%TO.C,MH7*%
X110139997Y-24368995D03*
X114237053Y-22671939D03*
X110842941Y-22671939D03*
X110842941Y-26066051D03*
X114939997Y-24368995D03*
X112539997Y-26768995D03*
X114237053Y-26066051D03*
X112539997Y-21968995D03*
D10*
X112539997Y-24368995D03*
%TD*%
D12*
%TO.C,REF\u002A\u002A*%
X119921614Y-129159604D03*
%TD*%
%TO.C,REF\u002A\u002A*%
X24521606Y-59978403D03*
%TD*%
D13*
%TO.C,J36*%
X139327000Y-83482010D03*
X145107000Y-83482010D03*
D14*
X137897000Y-79832010D03*
X146537000Y-79832010D03*
D15*
X146537000Y-84012010D03*
X137897000Y-84012010D03*
%TD*%
D11*
%TO.C,MH83*%
X74842941Y-178166090D03*
X76539997Y-178869034D03*
X74842941Y-174771978D03*
X78939997Y-176469034D03*
X78237053Y-174771978D03*
X78237053Y-178166090D03*
X74139997Y-176469034D03*
D10*
X76539997Y-176469034D03*
D11*
X76539997Y-174069034D03*
%TD*%
D13*
%TO.C,J47*%
X145107000Y-106882016D03*
X139327000Y-106882016D03*
D14*
X137897000Y-103232016D03*
D15*
X146537000Y-107412016D03*
X137897000Y-107412016D03*
D14*
X146537000Y-103232016D03*
%TD*%
D12*
%TO.C,REF\u002A\u002A*%
X119921614Y-152559607D03*
%TD*%
%TO.C,REF\u002A\u002A*%
X72221608Y-176978417D03*
%TD*%
D13*
%TO.C,J82*%
X91626997Y-188782037D03*
X97406997Y-188782037D03*
D15*
X90196997Y-189312037D03*
D14*
X90196997Y-185132037D03*
D15*
X98836997Y-189312037D03*
D14*
X98836997Y-185132037D03*
%TD*%
D12*
%TO.C,REF\u002A\u002A*%
X116620712Y-49268998D03*
%TD*%
%TO.C,REF\u002A\u002A*%
X120159288Y-104769006D03*
%TD*%
%TO.C,REF\u002A\u002A*%
X120159290Y-139869010D03*
%TD*%
%TO.C,REF\u002A\u002A*%
X116620711Y-25868995D03*
%TD*%
%TO.C,REF\u002A\u002A*%
X119921612Y-48278401D03*
%TD*%
%TO.C,REF\u002A\u002A*%
X120159280Y-131169009D03*
%TD*%
%TO.C,REF\u002A\u002A*%
X119921613Y-47259594D03*
%TD*%
D13*
%TO.C,J43*%
X91626997Y-106882016D03*
X97406997Y-106882016D03*
D14*
X90196997Y-103232016D03*
D15*
X90196997Y-107412016D03*
X98836997Y-107412016D03*
D14*
X98836997Y-103232016D03*
%TD*%
D12*
%TO.C,REF\u002A\u002A*%
X68920702Y-174969015D03*
%TD*%
%TO.C,REF\u002A\u002A*%
X72221611Y-117459603D03*
%TD*%
D11*
%TO.C,MH36*%
X162640000Y-82869010D03*
X157840000Y-82869010D03*
X158542944Y-81171954D03*
X161937056Y-81171954D03*
X160240000Y-80469010D03*
X158542944Y-84566066D03*
D10*
X160240000Y-82869010D03*
D11*
X161937056Y-84566066D03*
X160240000Y-85269010D03*
%TD*%
D12*
%TO.C,REF\u002A\u002A*%
X69158378Y-187659611D03*
%TD*%
%TO.C,REF\u002A\u002A*%
X116620712Y-22868995D03*
%TD*%
D11*
%TO.C,MH17*%
X76539997Y-45369001D03*
X74139997Y-47769001D03*
X74842941Y-49466057D03*
X78237053Y-46071945D03*
D10*
X76539997Y-47769001D03*
D11*
X74842941Y-46071945D03*
X78237053Y-49466057D03*
X76539997Y-50169001D03*
X78939997Y-47769001D03*
%TD*%
D12*
%TO.C,REF\u002A\u002A*%
X24759271Y-189669016D03*
%TD*%
%TO.C,REF\u002A\u002A*%
X24521606Y-118478410D03*
%TD*%
%TO.C,REF\u002A\u002A*%
X119921615Y-187659611D03*
%TD*%
D11*
%TO.C,MH14*%
X26439994Y-47769001D03*
X30537050Y-49466057D03*
X28839994Y-50169001D03*
X27142938Y-46071945D03*
X30537050Y-46071945D03*
X31239994Y-47769001D03*
X27142938Y-49466057D03*
X28839994Y-45369001D03*
D10*
X28839994Y-47769001D03*
%TD*%
D13*
%TO.C,J27*%
X43926994Y-83482010D03*
X49706994Y-83482010D03*
D14*
X51136994Y-79832010D03*
D15*
X42496994Y-84012010D03*
D14*
X42496994Y-79832010D03*
D15*
X51136994Y-84012010D03*
%TD*%
D12*
%TO.C,REF\u002A\u002A*%
X116858384Y-95078407D03*
%TD*%
%TO.C,REF\u002A\u002A*%
X72459281Y-49268998D03*
%TD*%
%TO.C,REF\u002A\u002A*%
X72221608Y-130178411D03*
%TD*%
%TO.C,REF\u002A\u002A*%
X24759280Y-57969000D03*
%TD*%
D13*
%TO.C,J39*%
X43926994Y-106882016D03*
X49706994Y-106882016D03*
D15*
X42496994Y-107412016D03*
X51136994Y-107412016D03*
D14*
X42496994Y-103232016D03*
X51136994Y-103232016D03*
%TD*%
D11*
%TO.C,MH72*%
X112539997Y-167169031D03*
X112539997Y-162369031D03*
X110842941Y-163071975D03*
D10*
X112539997Y-164769031D03*
D11*
X110139997Y-164769031D03*
X114237053Y-166466087D03*
X110842941Y-166466087D03*
X114939997Y-164769031D03*
X114237053Y-163071975D03*
%TD*%
D12*
%TO.C,REF\u002A\u002A*%
X120159291Y-163269013D03*
%TD*%
D11*
%TO.C,MH85*%
X114939997Y-176469034D03*
X110842941Y-178166090D03*
X110139997Y-176469034D03*
X114237053Y-174771978D03*
X112539997Y-174069034D03*
X114237053Y-178166090D03*
X112539997Y-178869034D03*
X110842941Y-174771978D03*
D10*
X112539997Y-176469034D03*
%TD*%
D13*
%TO.C,J87*%
X139327000Y-188782037D03*
X145107000Y-188782037D03*
D14*
X146537000Y-185132037D03*
D15*
X137897000Y-189312037D03*
D14*
X137897000Y-185132037D03*
D15*
X146537000Y-189312037D03*
%TD*%
D12*
%TO.C,REF\u002A\u002A*%
X164558384Y-175959610D03*
%TD*%
%TO.C,REF\u002A\u002A*%
X164558386Y-24878399D03*
%TD*%
D10*
%TO.C,MH73*%
X124240000Y-164769031D03*
D11*
X124240000Y-167169031D03*
X124240000Y-162369031D03*
X125937056Y-166466087D03*
X121840000Y-164769031D03*
X122542944Y-166466087D03*
X125937056Y-163071975D03*
X126640000Y-164769031D03*
X122542944Y-163071975D03*
%TD*%
D12*
%TO.C,REF\u002A\u002A*%
X119921611Y-141878413D03*
%TD*%
%TO.C,REF\u002A\u002A*%
X69158380Y-82359598D03*
%TD*%
%TO.C,REF\u002A\u002A*%
X119921613Y-35559593D03*
%TD*%
%TO.C,REF\u002A\u002A*%
X116620713Y-72669001D03*
%TD*%
%TO.C,REF\u002A\u002A*%
X69158379Y-105759601D03*
%TD*%
%TO.C,REF\u002A\u002A*%
X120159278Y-166269013D03*
%TD*%
%TO.C,REF\u002A\u002A*%
X24759282Y-93069004D03*
%TD*%
%TO.C,REF\u002A\u002A*%
X68920705Y-93069004D03*
%TD*%
%TO.C,REF\u002A\u002A*%
X68920715Y-177969015D03*
%TD*%
D11*
%TO.C,MH15*%
X74139997Y-59469004D03*
X74842941Y-57771948D03*
X76539997Y-61869004D03*
X78939997Y-59469004D03*
X74842941Y-61166060D03*
D10*
X76539997Y-59469004D03*
D11*
X78237053Y-61166060D03*
X76539997Y-57069004D03*
X78237053Y-57771948D03*
%TD*%
D10*
%TO.C,MH66*%
X64839994Y-153069028D03*
D11*
X64839994Y-155469028D03*
X66537050Y-154766084D03*
X66537050Y-151371972D03*
X63142938Y-154766084D03*
X64839994Y-150669028D03*
X63142938Y-151371972D03*
X62439994Y-153069028D03*
X67239994Y-153069028D03*
%TD*%
D12*
%TO.C,REF\u002A\u002A*%
X164320710Y-116469007D03*
%TD*%
D11*
%TO.C,MH65*%
X74842941Y-151371972D03*
X78237053Y-154766084D03*
D10*
X76539997Y-153069028D03*
D11*
X76539997Y-155469028D03*
X78237053Y-151371972D03*
X76539997Y-150669028D03*
X74139997Y-153069028D03*
X74842941Y-154766084D03*
X78939997Y-153069028D03*
%TD*%
D12*
%TO.C,REF\u002A\u002A*%
X116858385Y-153578414D03*
%TD*%
D13*
%TO.C,J8*%
X139327000Y-24981995D03*
X145107000Y-24981995D03*
D15*
X146537000Y-25511995D03*
D14*
X137897000Y-21331995D03*
X146537000Y-21331995D03*
D15*
X137897000Y-25511995D03*
%TD*%
D13*
%TO.C,J9*%
X145107000Y-36681998D03*
X139327000Y-36681998D03*
D15*
X137897000Y-37211998D03*
X146537000Y-37211998D03*
D14*
X137897000Y-33031998D03*
X146537000Y-33031998D03*
%TD*%
D12*
%TO.C,REF\u002A\u002A*%
X164320714Y-34568997D03*
%TD*%
D10*
%TO.C,MH90*%
X160240000Y-176469034D03*
D11*
X160240000Y-178869034D03*
X158542944Y-174771978D03*
X161937056Y-174771978D03*
X161937056Y-178166090D03*
X158542944Y-178166090D03*
X157840000Y-176469034D03*
X162640000Y-176469034D03*
X160240000Y-174069034D03*
%TD*%
D13*
%TO.C,J2*%
X43926994Y-36681998D03*
X49706994Y-36681998D03*
D14*
X42496994Y-33031998D03*
D15*
X51136994Y-37211998D03*
X42496994Y-37211998D03*
D14*
X51136994Y-33031998D03*
%TD*%
D11*
%TO.C,MH16*%
X63142938Y-49466057D03*
X63142938Y-46071945D03*
D10*
X64839994Y-47769001D03*
D11*
X66537050Y-49466057D03*
X64839994Y-50169001D03*
X67239994Y-47769001D03*
X66537050Y-46071945D03*
X64839994Y-45369001D03*
X62439994Y-47769001D03*
%TD*%
D12*
%TO.C,REF\u002A\u002A*%
X72459282Y-34568997D03*
%TD*%
D11*
%TO.C,MH35*%
X158542944Y-72866063D03*
X161937056Y-69471951D03*
X157840000Y-71169007D03*
X161937056Y-72866063D03*
X158542944Y-69471951D03*
X160240000Y-73569007D03*
X160240000Y-68769007D03*
X162640000Y-71169007D03*
D10*
X160240000Y-71169007D03*
%TD*%
D13*
%TO.C,J28*%
X49706994Y-71782007D03*
X43926994Y-71782007D03*
D14*
X42496994Y-68132007D03*
X51136994Y-68132007D03*
D15*
X51136994Y-72312007D03*
X42496994Y-72312007D03*
%TD*%
D11*
%TO.C,MH26*%
X28839994Y-73569007D03*
X30537050Y-72866063D03*
X30537050Y-69471951D03*
X27142938Y-72866063D03*
D10*
X28839994Y-71169007D03*
D11*
X31239994Y-71169007D03*
X26439994Y-71169007D03*
X27142938Y-69471951D03*
X28839994Y-68769007D03*
%TD*%
D12*
%TO.C,REF\u002A\u002A*%
X24759282Y-104769006D03*
%TD*%
D13*
%TO.C,J24*%
X145107000Y-48382001D03*
X139327000Y-48382001D03*
D15*
X146537000Y-48912001D03*
D14*
X137897000Y-44732001D03*
D15*
X137897000Y-48912001D03*
D14*
X146537000Y-44732001D03*
%TD*%
D12*
%TO.C,REF\u002A\u002A*%
X72459280Y-60969000D03*
%TD*%
%TO.C,REF\u002A\u002A*%
X116620704Y-186669016D03*
%TD*%
%TO.C,REF\u002A\u002A*%
X69158379Y-117459603D03*
%TD*%
%TO.C,REF\u002A\u002A*%
X116620716Y-119469007D03*
%TD*%
%TO.C,REF\u002A\u002A*%
X164320715Y-49268998D03*
%TD*%
%TO.C,REF\u002A\u002A*%
X120159281Y-96069004D03*
%TD*%
%TO.C,REF\u002A\u002A*%
X69158382Y-165278416D03*
%TD*%
%TO.C,REF\u002A\u002A*%
X116858384Y-71678404D03*
%TD*%
%TO.C,REF\u002A\u002A*%
X116620710Y-57969000D03*
%TD*%
%TO.C,REF\u002A\u002A*%
X69158381Y-83378406D03*
%TD*%
%TO.C,REF\u002A\u002A*%
X24759274Y-119469007D03*
%TD*%
D10*
%TO.C,MH71*%
X112539997Y-141369025D03*
D11*
X112539997Y-138969025D03*
X114237053Y-139671969D03*
X112539997Y-143769025D03*
X110842941Y-143066081D03*
X114237053Y-143066081D03*
X114939997Y-141369025D03*
X110842941Y-139671969D03*
X110139997Y-141369025D03*
%TD*%
D12*
%TO.C,REF\u002A\u002A*%
X164320712Y-81369003D03*
%TD*%
%TO.C,REF\u002A\u002A*%
X120159285Y-25868995D03*
%TD*%
%TO.C,REF\u002A\u002A*%
X116858384Y-59978403D03*
%TD*%
%TO.C,REF\u002A\u002A*%
X164558385Y-117459603D03*
%TD*%
D11*
%TO.C,MH64*%
X62439994Y-164769031D03*
X64839994Y-162369031D03*
D10*
X64839994Y-164769031D03*
D11*
X66537050Y-166466087D03*
X63142938Y-166466087D03*
X66537050Y-163071975D03*
X64839994Y-167169031D03*
X63142938Y-163071975D03*
X67239994Y-164769031D03*
%TD*%
D13*
%TO.C,J48*%
X145107000Y-95182013D03*
X139327000Y-95182013D03*
D14*
X146537000Y-91532013D03*
D15*
X137897000Y-95712013D03*
X146537000Y-95712013D03*
D14*
X137897000Y-91532013D03*
%TD*%
D12*
%TO.C,REF\u002A\u002A*%
X164558386Y-23859591D03*
%TD*%
%TO.C,REF\u002A\u002A*%
X116620705Y-163269013D03*
%TD*%
D11*
%TO.C,MH27*%
X78939997Y-71169007D03*
X74139997Y-71169007D03*
X74842941Y-72866063D03*
X78237053Y-69471951D03*
X74842941Y-69471951D03*
X76539997Y-73569007D03*
X78237053Y-72866063D03*
X76539997Y-68769007D03*
D10*
X76539997Y-71169007D03*
%TD*%
D12*
%TO.C,REF\u002A\u002A*%
X72459278Y-107769006D03*
%TD*%
%TO.C,REF\u002A\u002A*%
X72221610Y-24878399D03*
%TD*%
%TO.C,REF\u002A\u002A*%
X119921611Y-165278416D03*
%TD*%
D11*
%TO.C,MH30*%
X66537050Y-72866063D03*
X63142938Y-72866063D03*
X64839994Y-68769007D03*
D10*
X64839994Y-71169007D03*
D11*
X63142938Y-69471951D03*
X66537050Y-69471951D03*
X64839994Y-73569007D03*
X62439994Y-71169007D03*
X67239994Y-71169007D03*
%TD*%
%TO.C,MH5*%
X62439994Y-36068998D03*
X63142938Y-34371942D03*
D10*
X64839994Y-36068998D03*
D11*
X64839994Y-38468998D03*
X64839994Y-33668998D03*
X63142938Y-37766054D03*
X66537050Y-34371942D03*
X67239994Y-36068998D03*
X66537050Y-37766054D03*
%TD*%
D12*
%TO.C,REF\u002A\u002A*%
X164558384Y-187659611D03*
%TD*%
%TO.C,REF\u002A\u002A*%
X116620717Y-154569012D03*
%TD*%
D11*
%TO.C,MH49*%
X31239994Y-129669022D03*
X27142938Y-127971966D03*
X30537050Y-127971966D03*
X27142938Y-131366078D03*
X30537050Y-131366078D03*
X26439994Y-129669022D03*
D10*
X28839994Y-129669022D03*
D11*
X28839994Y-132069022D03*
X28839994Y-127269022D03*
%TD*%
D12*
%TO.C,REF\u002A\u002A*%
X72459277Y-119469007D03*
%TD*%
%TO.C,REF\u002A\u002A*%
X116858381Y-175959610D03*
%TD*%
%TO.C,REF\u002A\u002A*%
X164558386Y-36578400D03*
%TD*%
%TO.C,REF\u002A\u002A*%
X116858385Y-176978417D03*
%TD*%
%TO.C,REF\u002A\u002A*%
X164320715Y-22868995D03*
%TD*%
%TO.C,REF\u002A\u002A*%
X116858383Y-35559593D03*
%TD*%
%TO.C,REF\u002A\u002A*%
X69158380Y-23859591D03*
%TD*%
D11*
%TO.C,MH47*%
X157840000Y-94569013D03*
X161937056Y-96266069D03*
X161937056Y-92871957D03*
D10*
X160240000Y-94569013D03*
D11*
X160240000Y-92169013D03*
X162640000Y-94569013D03*
X158542944Y-96266069D03*
X160240000Y-96969013D03*
X158542944Y-92871957D03*
%TD*%
D12*
%TO.C,REF\u002A\u002A*%
X120159279Y-142869010D03*
%TD*%
%TO.C,REF\u002A\u002A*%
X68920709Y-49268998D03*
%TD*%
%TO.C,REF\u002A\u002A*%
X164558388Y-153578414D03*
%TD*%
%TO.C,REF\u002A\u002A*%
X120159284Y-22868995D03*
%TD*%
%TO.C,REF\u002A\u002A*%
X116620719Y-189669016D03*
%TD*%
%TO.C,REF\u002A\u002A*%
X72221608Y-141878413D03*
%TD*%
%TO.C,REF\u002A\u002A*%
X164320717Y-84369003D03*
%TD*%
%TO.C,REF\u002A\u002A*%
X24759272Y-166269013D03*
%TD*%
D10*
%TO.C,MH63*%
X28839994Y-153069028D03*
D11*
X27142938Y-154766084D03*
X27142938Y-151371972D03*
X28839994Y-155469028D03*
X26439994Y-153069028D03*
X28839994Y-150669028D03*
X31239994Y-153069028D03*
X30537050Y-151371972D03*
X30537050Y-154766084D03*
%TD*%
D12*
%TO.C,REF\u002A\u002A*%
X72221611Y-140859606D03*
%TD*%
D11*
%TO.C,MH48*%
X160240000Y-103869016D03*
X158542944Y-107966072D03*
D10*
X160240000Y-106269016D03*
D11*
X158542944Y-104571960D03*
X160240000Y-108669016D03*
X161937056Y-104571960D03*
X161937056Y-107966072D03*
X162640000Y-106269016D03*
X157840000Y-106269016D03*
%TD*%
D12*
%TO.C,REF\u002A\u002A*%
X24759285Y-174969015D03*
%TD*%
D11*
%TO.C,MH13*%
X28839994Y-61869004D03*
X30537050Y-57771948D03*
X31239994Y-59469004D03*
X30537050Y-61166060D03*
X28839994Y-57069004D03*
X26439994Y-59469004D03*
D10*
X28839994Y-59469004D03*
D11*
X27142938Y-61166060D03*
X27142938Y-57771948D03*
%TD*%
D12*
%TO.C,REF\u002A\u002A*%
X164558388Y-130178411D03*
%TD*%
D11*
%TO.C,MH8*%
X114939997Y-36068998D03*
X110842941Y-34371942D03*
X110139997Y-36068998D03*
X112539997Y-38468998D03*
X110842941Y-37766054D03*
X112539997Y-33668998D03*
X114237053Y-37766054D03*
D10*
X112539997Y-36068998D03*
D11*
X114237053Y-34371942D03*
%TD*%
D12*
%TO.C,REF\u002A\u002A*%
X116620707Y-128169009D03*
%TD*%
D11*
%TO.C,MH41*%
X66537050Y-107966072D03*
X66537050Y-104571960D03*
X67239994Y-106269016D03*
X64839994Y-108669016D03*
X64839994Y-103869016D03*
X63142938Y-104571960D03*
D10*
X64839994Y-106269016D03*
D11*
X63142938Y-107966072D03*
X62439994Y-106269016D03*
%TD*%
D12*
%TO.C,REF\u002A\u002A*%
X72459274Y-189669016D03*
%TD*%
%TO.C,REF\u002A\u002A*%
X116620711Y-34568997D03*
%TD*%
D13*
%TO.C,J75*%
X139327000Y-165382031D03*
X145107000Y-165382031D03*
D14*
X137897000Y-161732031D03*
D15*
X137897000Y-165912031D03*
D14*
X146537000Y-161732031D03*
D15*
X146537000Y-165912031D03*
%TD*%
D12*
%TO.C,REF\u002A\u002A*%
X164320707Y-186669016D03*
%TD*%
%TO.C,REF\u002A\u002A*%
X116858382Y-140859606D03*
%TD*%
%TO.C,REF\u002A\u002A*%
X120159292Y-186669016D03*
%TD*%
%TO.C,REF\u002A\u002A*%
X72221611Y-152559607D03*
%TD*%
%TO.C,REF\u002A\u002A*%
X69158380Y-35559593D03*
%TD*%
D11*
%TO.C,MH60*%
X161937056Y-116271963D03*
X160240000Y-115569019D03*
X157840000Y-117969019D03*
X161937056Y-119666075D03*
X162640000Y-117969019D03*
D10*
X160240000Y-117969019D03*
D11*
X160240000Y-120369019D03*
X158542944Y-116271963D03*
X158542944Y-119666075D03*
%TD*%
D12*
%TO.C,REF\u002A\u002A*%
X120159278Y-177969015D03*
%TD*%
%TO.C,REF\u002A\u002A*%
X164558386Y-82359598D03*
%TD*%
%TO.C,REF\u002A\u002A*%
X120159284Y-37568997D03*
%TD*%
%TO.C,REF\u002A\u002A*%
X72221608Y-153578414D03*
%TD*%
%TO.C,REF\u002A\u002A*%
X116620711Y-46268998D03*
%TD*%
D13*
%TO.C,J58*%
X91626997Y-141982025D03*
X97406997Y-141982025D03*
D15*
X90196997Y-142512025D03*
D14*
X90196997Y-138332025D03*
X98836997Y-138332025D03*
D15*
X98836997Y-142512025D03*
%TD*%
D12*
%TO.C,REF\u002A\u002A*%
X120159283Y-60969000D03*
%TD*%
D11*
%TO.C,MH28*%
X67239994Y-82869010D03*
X64839994Y-85269010D03*
X66537050Y-81171954D03*
X64839994Y-80469010D03*
X63142938Y-81171954D03*
D10*
X64839994Y-82869010D03*
D11*
X63142938Y-84566066D03*
X66537050Y-84566066D03*
X62439994Y-82869010D03*
%TD*%
D12*
%TO.C,REF\u002A\u002A*%
X116620714Y-84369003D03*
%TD*%
%TO.C,REF\u002A\u002A*%
X119921611Y-188678418D03*
%TD*%
%TO.C,REF\u002A\u002A*%
X72459288Y-174969015D03*
%TD*%
D11*
%TO.C,MH82*%
X74139997Y-188169037D03*
X78939997Y-188169037D03*
X74842941Y-189866093D03*
X78237053Y-189866093D03*
D10*
X76539997Y-188169037D03*
D11*
X76539997Y-190569037D03*
X74842941Y-186471981D03*
X76539997Y-185769037D03*
X78237053Y-186471981D03*
%TD*%
D12*
%TO.C,REF\u002A\u002A*%
X119921611Y-153578414D03*
%TD*%
%TO.C,REF\u002A\u002A*%
X68920715Y-166269013D03*
%TD*%
D11*
%TO.C,MH31*%
X110842941Y-72866063D03*
D10*
X112539997Y-71169007D03*
D11*
X114237053Y-69471951D03*
X114939997Y-71169007D03*
X110842941Y-69471951D03*
X110139997Y-71169007D03*
X114237053Y-72866063D03*
X112539997Y-68769007D03*
X112539997Y-73569007D03*
%TD*%
D12*
%TO.C,REF\u002A\u002A*%
X72459275Y-166269013D03*
%TD*%
%TO.C,REF\u002A\u002A*%
X164558388Y-188678418D03*
%TD*%
%TO.C,REF\u002A\u002A*%
X72459284Y-81369003D03*
%TD*%
D11*
%TO.C,MH45*%
X125937056Y-92871957D03*
X121840000Y-94569013D03*
X122542944Y-96266069D03*
X126640000Y-94569013D03*
X124240000Y-96969013D03*
X124240000Y-92169013D03*
X122542944Y-92871957D03*
X125937056Y-96266069D03*
D10*
X124240000Y-94569013D03*
%TD*%
D12*
%TO.C,REF\u002A\u002A*%
X24759278Y-49268998D03*
%TD*%
%TO.C,REF\u002A\u002A*%
X119921613Y-36578400D03*
%TD*%
%TO.C,REF\u002A\u002A*%
X24759281Y-81369003D03*
%TD*%
%TO.C,REF\u002A\u002A*%
X69158381Y-71678404D03*
%TD*%
%TO.C,REF\u002A\u002A*%
X72221609Y-71678404D03*
%TD*%
%TO.C,REF\u002A\u002A*%
X72221611Y-105759601D03*
%TD*%
D11*
%TO.C,MH34*%
X124240000Y-73569007D03*
X124240000Y-68769007D03*
X122542944Y-69471951D03*
X126640000Y-71169007D03*
X121840000Y-71169007D03*
D10*
X124240000Y-71169007D03*
D11*
X125937056Y-72866063D03*
X122542944Y-72866063D03*
X125937056Y-69471951D03*
%TD*%
D12*
%TO.C,REF\u002A\u002A*%
X116858381Y-164259608D03*
%TD*%
%TO.C,REF\u002A\u002A*%
X69158380Y-70659597D03*
%TD*%
D11*
%TO.C,MH33*%
X125937056Y-81171954D03*
X121840000Y-82869010D03*
D10*
X124240000Y-82869010D03*
D11*
X124240000Y-85269010D03*
X125937056Y-84566066D03*
X122542944Y-81171954D03*
X122542944Y-84566066D03*
X126640000Y-82869010D03*
X124240000Y-80469010D03*
%TD*%
%TO.C,MH77*%
X162640000Y-153069028D03*
D10*
X160240000Y-153069028D03*
D11*
X160240000Y-150669028D03*
X161937056Y-151371972D03*
X160240000Y-155469028D03*
X158542944Y-151371972D03*
X157840000Y-153069028D03*
X161937056Y-154766084D03*
X158542944Y-154766084D03*
%TD*%
%TO.C,MH76*%
X160240000Y-138969025D03*
X161937056Y-143066081D03*
D10*
X160240000Y-141369025D03*
D11*
X158542944Y-143066081D03*
X158542944Y-139671969D03*
X160240000Y-143769025D03*
X162640000Y-141369025D03*
X157840000Y-141369025D03*
X161937056Y-139671969D03*
%TD*%
D12*
%TO.C,REF\u002A\u002A*%
X68920716Y-189669016D03*
%TD*%
%TO.C,REF\u002A\u002A*%
X72221609Y-118478410D03*
%TD*%
%TO.C,REF\u002A\u002A*%
X68920708Y-46268998D03*
%TD*%
D11*
%TO.C,MH37*%
X27142938Y-96266069D03*
X28839994Y-92169013D03*
D10*
X28839994Y-94569013D03*
D11*
X28839994Y-96969013D03*
X30537050Y-96266069D03*
X27142938Y-92871957D03*
X30537050Y-92871957D03*
X26439994Y-94569013D03*
X31239994Y-94569013D03*
%TD*%
D13*
%TO.C,J52*%
X49706994Y-130282022D03*
X43926994Y-130282022D03*
D15*
X51136994Y-130812022D03*
X42496994Y-130812022D03*
D14*
X51136994Y-126632022D03*
X42496994Y-126632022D03*
%TD*%
D12*
%TO.C,REF\u002A\u002A*%
X120159286Y-57969000D03*
%TD*%
D11*
%TO.C,MH1*%
X30537050Y-22671939D03*
X30537050Y-26066051D03*
X27142938Y-22671939D03*
X28839994Y-21968995D03*
X31239994Y-24368995D03*
D10*
X28839994Y-24368995D03*
D11*
X26439994Y-24368995D03*
X27142938Y-26066051D03*
X28839994Y-26768995D03*
%TD*%
D12*
%TO.C,REF\u002A\u002A*%
X68920708Y-34568997D03*
%TD*%
%TO.C,REF\u002A\u002A*%
X119921613Y-23859591D03*
%TD*%
%TO.C,REF\u002A\u002A*%
X24521607Y-24878399D03*
%TD*%
%TO.C,REF\u002A\u002A*%
X119921613Y-82359598D03*
%TD*%
%TO.C,REF\u002A\u002A*%
X120159289Y-116469007D03*
%TD*%
%TO.C,REF\u002A\u002A*%
X69158382Y-188678418D03*
%TD*%
%TO.C,REF\u002A\u002A*%
X24521606Y-106778409D03*
%TD*%
%TO.C,REF\u002A\u002A*%
X120159290Y-151569012D03*
%TD*%
D11*
%TO.C,MH4*%
X63142938Y-26066051D03*
X66537050Y-26066051D03*
X64839994Y-26768995D03*
X66537050Y-22671939D03*
X63142938Y-22671939D03*
X67239994Y-24368995D03*
X64839994Y-21968995D03*
D10*
X64839994Y-24368995D03*
D11*
X62439994Y-24368995D03*
%TD*%
D12*
%TO.C,REF\u002A\u002A*%
X116620707Y-116469007D03*
%TD*%
D11*
%TO.C,MH56*%
X114237053Y-119666075D03*
D10*
X112539997Y-117969019D03*
D11*
X112539997Y-120369019D03*
X114237053Y-116271963D03*
X112539997Y-115569019D03*
X114939997Y-117969019D03*
X110139997Y-117969019D03*
X110842941Y-119666075D03*
X110842941Y-116271963D03*
%TD*%
D12*
%TO.C,REF\u002A\u002A*%
X164320721Y-177969015D03*
%TD*%
%TO.C,REF\u002A\u002A*%
X68920710Y-72669001D03*
%TD*%
%TO.C,REF\u002A\u002A*%
X69158379Y-152559607D03*
%TD*%
%TO.C,REF\u002A\u002A*%
X116620717Y-142869010D03*
%TD*%
D13*
%TO.C,J63*%
X139327000Y-141982025D03*
X145107000Y-141982025D03*
D15*
X137897000Y-142512025D03*
D14*
X146537000Y-138332025D03*
X137897000Y-138332025D03*
D15*
X146537000Y-142512025D03*
%TD*%
D12*
%TO.C,REF\u002A\u002A*%
X69158381Y-59978403D03*
%TD*%
%TO.C,REF\u002A\u002A*%
X68920713Y-131169009D03*
%TD*%
%TO.C,REF\u002A\u002A*%
X24759283Y-116469007D03*
%TD*%
D11*
%TO.C,MH57*%
X124240000Y-132069022D03*
X126640000Y-129669022D03*
X121840000Y-129669022D03*
X124240000Y-127269022D03*
X122542944Y-127971966D03*
X125937056Y-131366078D03*
X125937056Y-127971966D03*
X122542944Y-131366078D03*
D10*
X124240000Y-129669022D03*
%TD*%
D12*
%TO.C,REF\u002A\u002A*%
X164558385Y-152559607D03*
%TD*%
%TO.C,REF\u002A\u002A*%
X119921615Y-164259608D03*
%TD*%
%TO.C,REF\u002A\u002A*%
X116858382Y-94059600D03*
%TD*%
%TO.C,REF\u002A\u002A*%
X69158382Y-141878413D03*
%TD*%
%TO.C,REF\u002A\u002A*%
X119921612Y-71678404D03*
%TD*%
%TO.C,REF\u002A\u002A*%
X68920705Y-104769006D03*
%TD*%
%TO.C,REF\u002A\u002A*%
X164558387Y-83378406D03*
%TD*%
%TO.C,REF\u002A\u002A*%
X72221612Y-164259608D03*
%TD*%
%TO.C,REF\u002A\u002A*%
X164320720Y-142869010D03*
%TD*%
%TO.C,REF\u002A\u002A*%
X68920711Y-84369003D03*
%TD*%
%TO.C,REF\u002A\u002A*%
X24521607Y-82359598D03*
%TD*%
%TO.C,REF\u002A\u002A*%
X120159282Y-84369003D03*
%TD*%
%TO.C,REF\u002A\u002A*%
X116620715Y-96069004D03*
%TD*%
D11*
%TO.C,MH67*%
X74842941Y-166466087D03*
X74842941Y-163071975D03*
X78237053Y-163071975D03*
D10*
X76539997Y-164769031D03*
D11*
X76539997Y-167169031D03*
X78237053Y-166466087D03*
X78939997Y-164769031D03*
X76539997Y-162369031D03*
X74139997Y-164769031D03*
%TD*%
D12*
%TO.C,REF\u002A\u002A*%
X24521607Y-70659597D03*
%TD*%
%TO.C,REF\u002A\u002A*%
X120159291Y-174969015D03*
%TD*%
%TO.C,REF\u002A\u002A*%
X116620708Y-104769006D03*
%TD*%
%TO.C,REF\u002A\u002A*%
X24759279Y-46268998D03*
%TD*%
D13*
%TO.C,J56*%
X91626997Y-118582019D03*
X97406997Y-118582019D03*
D15*
X98836997Y-119112019D03*
X90196997Y-119112019D03*
D14*
X90196997Y-114932019D03*
X98836997Y-114932019D03*
%TD*%
D12*
%TO.C,REF\u002A\u002A*%
X119921613Y-24878399D03*
%TD*%
%TO.C,REF\u002A\u002A*%
X68920703Y-139869010D03*
%TD*%
%TO.C,REF\u002A\u002A*%
X119921614Y-140859606D03*
%TD*%
%TO.C,REF\u002A\u002A*%
X116620718Y-166269013D03*
%TD*%
%TO.C,REF\u002A\u002A*%
X116858382Y-129159604D03*
%TD*%
%TO.C,REF\u002A\u002A*%
X24759274Y-131169009D03*
%TD*%
%TO.C,REF\u002A\u002A*%
X116858382Y-152559607D03*
%TD*%
%TO.C,REF\u002A\u002A*%
X68920713Y-119469007D03*
%TD*%
%TO.C,REF\u002A\u002A*%
X120159285Y-46268998D03*
%TD*%
%TO.C,REF\u002A\u002A*%
X72459285Y-104769006D03*
%TD*%
D13*
%TO.C,J78*%
X43926994Y-177082034D03*
X49706994Y-177082034D03*
D14*
X42496994Y-173432034D03*
D15*
X42496994Y-177612034D03*
X51136994Y-177612034D03*
D14*
X51136994Y-173432034D03*
%TD*%
D12*
%TO.C,REF\u002A\u002A*%
X119921614Y-94059600D03*
%TD*%
%TO.C,REF\u002A\u002A*%
X116858383Y-24878399D03*
%TD*%
%TO.C,REF\u002A\u002A*%
X164558387Y-95078407D03*
%TD*%
%TO.C,REF\u002A\u002A*%
X24759281Y-69669001D03*
%TD*%
%TO.C,REF\u002A\u002A*%
X72459280Y-72669001D03*
%TD*%
%TO.C,REF\u002A\u002A*%
X120159288Y-93069004D03*
%TD*%
%TO.C,REF\u002A\u002A*%
X164320715Y-37568997D03*
%TD*%
%TO.C,REF\u002A\u002A*%
X120159279Y-154569012D03*
%TD*%
%TO.C,REF\u002A\u002A*%
X164558384Y-164259608D03*
%TD*%
%TO.C,REF\u002A\u002A*%
X72459288Y-163269013D03*
%TD*%
D11*
%TO.C,MH29*%
X74139997Y-82869010D03*
X74842941Y-84566066D03*
X76539997Y-85269010D03*
X78939997Y-82869010D03*
X78237053Y-81171954D03*
D10*
X76539997Y-82869010D03*
D11*
X76539997Y-80469010D03*
X78237053Y-84566066D03*
X74842941Y-81171954D03*
%TD*%
%TO.C,MH24*%
X161937056Y-49466057D03*
X158542944Y-46071945D03*
D10*
X160240000Y-47769001D03*
D11*
X157840000Y-47769001D03*
X161937056Y-46071945D03*
X160240000Y-50169001D03*
X158542944Y-49466057D03*
X162640000Y-47769001D03*
X160240000Y-45369001D03*
%TD*%
D12*
%TO.C,REF\u002A\u002A*%
X72459278Y-96069004D03*
%TD*%
D13*
%TO.C,J62*%
X145107000Y-118582019D03*
X139327000Y-118582019D03*
D14*
X137897000Y-114932019D03*
D15*
X146537000Y-119112019D03*
X137897000Y-119112019D03*
D14*
X146537000Y-114932019D03*
%TD*%
D12*
%TO.C,REF\u002A\u002A*%
X72221610Y-47259594D03*
%TD*%
D11*
%TO.C,MH39*%
X63142938Y-92871957D03*
X64839994Y-92169013D03*
X63142938Y-96266069D03*
X66537050Y-92871957D03*
X62439994Y-94569013D03*
D10*
X64839994Y-94569013D03*
D11*
X64839994Y-96969013D03*
X67239994Y-94569013D03*
X66537050Y-96266069D03*
%TD*%
%TO.C,MH3*%
X74842941Y-37766054D03*
X78237053Y-34371942D03*
X76539997Y-33668998D03*
X78939997Y-36068998D03*
D10*
X76539997Y-36068998D03*
D11*
X78237053Y-37766054D03*
X74139997Y-36068998D03*
X76539997Y-38468998D03*
X74842941Y-34371942D03*
%TD*%
D13*
%TO.C,J3*%
X43926994Y-24981995D03*
X49706994Y-24981995D03*
D14*
X42496994Y-21331995D03*
X51136994Y-21331995D03*
D15*
X51136994Y-25511995D03*
X42496994Y-25511995D03*
%TD*%
D12*
%TO.C,REF\u002A\u002A*%
X164558386Y-47259594D03*
%TD*%
%TO.C,REF\u002A\u002A*%
X24759272Y-177969015D03*
%TD*%
D13*
%TO.C,J35*%
X139327000Y-71782007D03*
X145107000Y-71782007D03*
D14*
X137897000Y-68132007D03*
X146537000Y-68132007D03*
D15*
X146537000Y-72312007D03*
X137897000Y-72312007D03*
%TD*%
D12*
%TO.C,REF\u002A\u002A*%
X68920707Y-57969000D03*
%TD*%
%TO.C,REF\u002A\u002A*%
X116620708Y-93069004D03*
%TD*%
%TO.C,REF\u002A\u002A*%
X24521607Y-35559593D03*
%TD*%
%TO.C,REF\u002A\u002A*%
X116620718Y-177969015D03*
%TD*%
%TO.C,REF\u002A\u002A*%
X24759284Y-139869010D03*
%TD*%
D11*
%TO.C,MH62*%
X30537050Y-139671969D03*
X27142938Y-143066081D03*
X30537050Y-143066081D03*
X28839994Y-138969025D03*
X31239994Y-141369025D03*
D10*
X28839994Y-141369025D03*
D11*
X26439994Y-141369025D03*
X28839994Y-143769025D03*
X27142938Y-139671969D03*
%TD*%
D13*
%TO.C,J31*%
X91626997Y-83482010D03*
X97406997Y-83482010D03*
D15*
X90196997Y-84012010D03*
D14*
X98836997Y-79832010D03*
D15*
X98836997Y-84012010D03*
D14*
X90196997Y-79832010D03*
%TD*%
D12*
%TO.C,REF\u002A\u002A*%
X116620716Y-131169009D03*
%TD*%
%TO.C,REF\u002A\u002A*%
X119921612Y-118478410D03*
%TD*%
D13*
%TO.C,J71*%
X97406997Y-165382031D03*
X91626997Y-165382031D03*
D14*
X90196997Y-161732031D03*
D15*
X90196997Y-165912031D03*
X98836997Y-165912031D03*
D14*
X98836997Y-161732031D03*
%TD*%
D11*
%TO.C,MH2*%
X26439994Y-36068998D03*
X30537050Y-37766054D03*
X27142938Y-34371942D03*
X27142938Y-37766054D03*
X30537050Y-34371942D03*
X31239994Y-36068998D03*
X28839994Y-33668998D03*
X28839994Y-38468998D03*
D10*
X28839994Y-36068998D03*
%TD*%
D12*
%TO.C,REF\u002A\u002A*%
X120159285Y-34568997D03*
%TD*%
%TO.C,REF\u002A\u002A*%
X119921615Y-175959610D03*
%TD*%
%TO.C,REF\u002A\u002A*%
X164320709Y-151569012D03*
%TD*%
D13*
%TO.C,J67*%
X49706994Y-165382031D03*
X43926994Y-165382031D03*
D15*
X51136994Y-165912031D03*
D14*
X51136994Y-161732031D03*
X42496994Y-161732031D03*
D15*
X42496994Y-165912031D03*
%TD*%
D12*
%TO.C,REF\u002A\u002A*%
X164558387Y-71678404D03*
%TD*%
%TO.C,REF\u002A\u002A*%
X164558385Y-105759601D03*
%TD*%
%TO.C,REF\u002A\u002A*%
X72459282Y-25868995D03*
%TD*%
%TO.C,REF\u002A\u002A*%
X69158381Y-118478410D03*
%TD*%
%TO.C,REF\u002A\u002A*%
X24759277Y-72669001D03*
%TD*%
%TO.C,REF\u002A\u002A*%
X24521607Y-47259594D03*
%TD*%
D13*
%TO.C,J18*%
X97406997Y-48382001D03*
X91626997Y-48382001D03*
D15*
X90196997Y-48912001D03*
D14*
X98836997Y-44732001D03*
D15*
X98836997Y-48912001D03*
D14*
X90196997Y-44732001D03*
%TD*%
D12*
%TO.C,REF\u002A\u002A*%
X116858383Y-23859591D03*
%TD*%
%TO.C,REF\u002A\u002A*%
X24521606Y-83378406D03*
%TD*%
%TO.C,REF\u002A\u002A*%
X72221612Y-187659611D03*
%TD*%
%TO.C,REF\u002A\u002A*%
X164558387Y-106778409D03*
%TD*%
D11*
%TO.C,MH70*%
X110842941Y-154766084D03*
X114237053Y-154766084D03*
X112539997Y-150669028D03*
X110842941Y-151371972D03*
X114237053Y-151371972D03*
X110139997Y-153069028D03*
D10*
X112539997Y-153069028D03*
D11*
X114939997Y-153069028D03*
X112539997Y-155469028D03*
%TD*%
D10*
%TO.C,MH52*%
X64839994Y-117969019D03*
D11*
X64839994Y-120369019D03*
X63142938Y-116271963D03*
X63142938Y-119666075D03*
X64839994Y-115569019D03*
X66537050Y-119666075D03*
X62439994Y-117969019D03*
X66537050Y-116271963D03*
X67239994Y-117969019D03*
%TD*%
D12*
%TO.C,REF\u002A\u002A*%
X68920702Y-163269013D03*
%TD*%
D11*
%TO.C,MH61*%
X30537050Y-166466087D03*
X27142938Y-163071975D03*
X31239994Y-164769031D03*
X27142938Y-166466087D03*
X28839994Y-167169031D03*
X30537050Y-163071975D03*
X28839994Y-162369031D03*
X26439994Y-164769031D03*
D10*
X28839994Y-164769031D03*
%TD*%
D12*
%TO.C,REF\u002A\u002A*%
X24521606Y-95078407D03*
%TD*%
%TO.C,REF\u002A\u002A*%
X24521609Y-164259608D03*
%TD*%
%TO.C,REF\u002A\u002A*%
X164558386Y-70659597D03*
%TD*%
%TO.C,REF\u002A\u002A*%
X24521607Y-36578400D03*
%TD*%
%TO.C,REF\u002A\u002A*%
X116858383Y-82359598D03*
%TD*%
%TO.C,REF\u002A\u002A*%
X116858384Y-83378406D03*
%TD*%
%TO.C,REF\u002A\u002A*%
X69158379Y-140859606D03*
%TD*%
%TO.C,REF\u002A\u002A*%
X119921612Y-59978403D03*
%TD*%
%TO.C,REF\u002A\u002A*%
X116858385Y-141878413D03*
%TD*%
D11*
%TO.C,MH84*%
X64839994Y-178869034D03*
X63142938Y-174771978D03*
X64839994Y-174069034D03*
X63142938Y-178166090D03*
X66537050Y-178166090D03*
D10*
X64839994Y-176469034D03*
D11*
X67239994Y-176469034D03*
X66537050Y-174771978D03*
X62439994Y-176469034D03*
%TD*%
D12*
%TO.C,REF\u002A\u002A*%
X24759275Y-96069004D03*
%TD*%
%TO.C,REF\u002A\u002A*%
X164320712Y-69669001D03*
%TD*%
%TO.C,REF\u002A\u002A*%
X24521606Y-48278401D03*
%TD*%
%TO.C,REF\u002A\u002A*%
X120159283Y-72669001D03*
%TD*%
D11*
%TO.C,MH59*%
X161937056Y-131366078D03*
X161937056Y-127971966D03*
D10*
X160240000Y-129669022D03*
D11*
X157840000Y-129669022D03*
X160240000Y-127269022D03*
X158542944Y-127971966D03*
X158542944Y-131366078D03*
X162640000Y-129669022D03*
X160240000Y-132069022D03*
%TD*%
D13*
%TO.C,J14*%
X49706994Y-48382001D03*
X43926994Y-48382001D03*
D15*
X42496994Y-48912001D03*
X51136994Y-48912001D03*
D14*
X51136994Y-44732001D03*
X42496994Y-44732001D03*
%TD*%
D12*
%TO.C,REF\u002A\u002A*%
X164320708Y-174969015D03*
%TD*%
D13*
%TO.C,J79*%
X43926994Y-188782037D03*
X49706994Y-188782037D03*
D14*
X42496994Y-185132037D03*
D15*
X42496994Y-189312037D03*
D14*
X51136994Y-185132037D03*
D15*
X51136994Y-189312037D03*
%TD*%
D12*
%TO.C,REF\u002A\u002A*%
X72221610Y-36578400D03*
%TD*%
D11*
%TO.C,MH23*%
X161937056Y-61166060D03*
X160240000Y-57069004D03*
X158542944Y-61166060D03*
X158542944Y-57771948D03*
X161937056Y-57771948D03*
X160240000Y-61869004D03*
D10*
X160240000Y-59469004D03*
D11*
X162640000Y-59469004D03*
X157840000Y-59469004D03*
%TD*%
D12*
%TO.C,REF\u002A\u002A*%
X116620706Y-151569012D03*
%TD*%
D13*
%TO.C,J23*%
X145107000Y-60082004D03*
X139327000Y-60082004D03*
D14*
X137897000Y-56432004D03*
D15*
X137897000Y-60612004D03*
X146537000Y-60612004D03*
D14*
X146537000Y-56432004D03*
%TD*%
D12*
%TO.C,REF\u002A\u002A*%
X116858385Y-165278416D03*
%TD*%
%TO.C,REF\u002A\u002A*%
X164320719Y-119469007D03*
%TD*%
%TO.C,REF\u002A\u002A*%
X72459287Y-151569012D03*
%TD*%
%TO.C,REF\u002A\u002A*%
X116858384Y-106778409D03*
%TD*%
D11*
%TO.C,MH86*%
X112539997Y-190569037D03*
X114237053Y-189866093D03*
D10*
X112539997Y-188169037D03*
D11*
X110139997Y-188169037D03*
X110842941Y-189866093D03*
X114939997Y-188169037D03*
X114237053Y-186471981D03*
X112539997Y-185769037D03*
X110842941Y-186471981D03*
%TD*%
D12*
%TO.C,REF\u002A\u002A*%
X164558386Y-58959596D03*
%TD*%
%TO.C,REF\u002A\u002A*%
X116620712Y-37568997D03*
%TD*%
%TO.C,REF\u002A\u002A*%
X72221609Y-59978403D03*
%TD*%
D11*
%TO.C,MH80*%
X28839994Y-185769037D03*
D10*
X28839994Y-188169037D03*
D11*
X27142938Y-189866093D03*
X26439994Y-188169037D03*
X30537050Y-189866093D03*
X31239994Y-188169037D03*
X27142938Y-186471981D03*
X28839994Y-190569037D03*
X30537050Y-186471981D03*
%TD*%
D12*
%TO.C,REF\u002A\u002A*%
X68920706Y-81369003D03*
%TD*%
%TO.C,REF\u002A\u002A*%
X164558388Y-176978417D03*
%TD*%
%TO.C,REF\u002A\u002A*%
X24521609Y-187659611D03*
%TD*%
%TO.C,REF\u002A\u002A*%
X68920714Y-142869010D03*
%TD*%
%TO.C,REF\u002A\u002A*%
X72459285Y-93069004D03*
%TD*%
D13*
%TO.C,J32*%
X97406997Y-71782007D03*
X91626997Y-71782007D03*
D14*
X90196997Y-68132007D03*
D15*
X90196997Y-72312007D03*
D14*
X98836997Y-68132007D03*
D15*
X98836997Y-72312007D03*
%TD*%
D11*
%TO.C,MH22*%
X125937056Y-61166060D03*
X125937056Y-57771948D03*
X124240000Y-57069004D03*
D10*
X124240000Y-59469004D03*
D11*
X122542944Y-57771948D03*
X122542944Y-61166060D03*
X121840000Y-59469004D03*
X124240000Y-61869004D03*
X126640000Y-59469004D03*
%TD*%
%TO.C,MH79*%
X30537050Y-174771978D03*
X27142938Y-178166090D03*
X26439994Y-176469034D03*
X28839994Y-174069034D03*
X31239994Y-176469034D03*
X30537050Y-178166090D03*
D10*
X28839994Y-176469034D03*
D11*
X28839994Y-178869034D03*
X27142938Y-174771978D03*
%TD*%
D12*
%TO.C,REF\u002A\u002A*%
X68920704Y-116469007D03*
%TD*%
D13*
%TO.C,J61*%
X139327000Y-130282022D03*
X145107000Y-130282022D03*
D15*
X146537000Y-130812022D03*
X137897000Y-130812022D03*
D14*
X146537000Y-126632022D03*
X137897000Y-126632022D03*
%TD*%
D11*
%TO.C,MH42*%
X78237053Y-96266069D03*
X76539997Y-96969013D03*
D10*
X76539997Y-94569013D03*
D11*
X78939997Y-94569013D03*
X78237053Y-92871957D03*
X76539997Y-92169013D03*
X74139997Y-94569013D03*
X74842941Y-96266069D03*
X74842941Y-92871957D03*
%TD*%
D13*
%TO.C,J70*%
X91626997Y-153682028D03*
X97406997Y-153682028D03*
D14*
X90196997Y-150032028D03*
D15*
X90196997Y-154212028D03*
X98836997Y-154212028D03*
D14*
X98836997Y-150032028D03*
%TD*%
D12*
%TO.C,REF\u002A\u002A*%
X119921613Y-70659597D03*
%TD*%
%TO.C,REF\u002A\u002A*%
X68920701Y-186669016D03*
%TD*%
%TO.C,REF\u002A\u002A*%
X72221610Y-82359598D03*
%TD*%
D11*
%TO.C,MH19*%
X112539997Y-45369001D03*
X114939997Y-47769001D03*
X110139997Y-47769001D03*
X110842941Y-46071945D03*
D10*
X112539997Y-47769001D03*
D11*
X114237053Y-46071945D03*
X110842941Y-49466057D03*
X114237053Y-49466057D03*
X112539997Y-50169001D03*
%TD*%
D12*
%TO.C,REF\u002A\u002A*%
X120159289Y-128169009D03*
%TD*%
%TO.C,REF\u002A\u002A*%
X119921614Y-117459603D03*
%TD*%
%TO.C,REF\u002A\u002A*%
X120159287Y-81369003D03*
%TD*%
%TO.C,REF\u002A\u002A*%
X164320718Y-107769006D03*
%TD*%
D11*
%TO.C,MH18*%
X62439994Y-59469004D03*
X63142938Y-57771948D03*
X63142938Y-61166060D03*
X64839994Y-61869004D03*
X66537050Y-57771948D03*
X67239994Y-59469004D03*
X64839994Y-57069004D03*
D10*
X64839994Y-59469004D03*
D11*
X66537050Y-61166060D03*
%TD*%
D12*
%TO.C,REF\u002A\u002A*%
X116620706Y-139869010D03*
%TD*%
%TO.C,REF\u002A\u002A*%
X68920712Y-107769006D03*
%TD*%
D11*
%TO.C,MH58*%
X122542944Y-116271963D03*
X124240000Y-115569019D03*
X126640000Y-117969019D03*
X122542944Y-119666075D03*
X121840000Y-117969019D03*
X124240000Y-120369019D03*
X125937056Y-119666075D03*
X125937056Y-116271963D03*
D10*
X124240000Y-117969019D03*
%TD*%
D12*
%TO.C,REF\u002A\u002A*%
X69158380Y-47259594D03*
%TD*%
D11*
%TO.C,MH51*%
X76539997Y-127269022D03*
X76539997Y-132069022D03*
X78237053Y-127971966D03*
X78237053Y-131366078D03*
X74842941Y-131366078D03*
X78939997Y-129669022D03*
X74842941Y-127971966D03*
X74139997Y-129669022D03*
D10*
X76539997Y-129669022D03*
%TD*%
D12*
%TO.C,REF\u002A\u002A*%
X72459289Y-186669016D03*
%TD*%
%TO.C,REF\u002A\u002A*%
X24759276Y-84369003D03*
%TD*%
%TO.C,REF\u002A\u002A*%
X24521605Y-141878413D03*
%TD*%
%TO.C,REF\u002A\u002A*%
X69158378Y-175959610D03*
%TD*%
%TO.C,REF\u002A\u002A*%
X72459287Y-139869010D03*
%TD*%
%TO.C,REF\u002A\u002A*%
X72221609Y-48278401D03*
%TD*%
D11*
%TO.C,MH43*%
X114939997Y-106269016D03*
X112539997Y-108669016D03*
X114237053Y-104571960D03*
X110842941Y-107966072D03*
X112539997Y-103869016D03*
D10*
X112539997Y-106269016D03*
D11*
X114237053Y-107966072D03*
X110139997Y-106269016D03*
X110842941Y-104571960D03*
%TD*%
D12*
%TO.C,REF\u002A\u002A*%
X164320718Y-96069004D03*
%TD*%
D11*
%TO.C,MH69*%
X76539997Y-143769025D03*
D10*
X76539997Y-141369025D03*
D11*
X78237053Y-143066081D03*
X74842941Y-139671969D03*
X74842941Y-143066081D03*
X74139997Y-141369025D03*
X76539997Y-138969025D03*
X78939997Y-141369025D03*
X78237053Y-139671969D03*
%TD*%
%TO.C,MH40*%
X76539997Y-103869016D03*
X78939997Y-106269016D03*
X76539997Y-108669016D03*
X74842941Y-104571960D03*
X78237053Y-104571960D03*
X74842941Y-107966072D03*
X78237053Y-107966072D03*
X74139997Y-106269016D03*
D10*
X76539997Y-106269016D03*
%TD*%
D12*
%TO.C,REF\u002A\u002A*%
X24759275Y-107769006D03*
%TD*%
%TO.C,REF\u002A\u002A*%
X68920714Y-154569012D03*
%TD*%
D13*
%TO.C,J40*%
X43926994Y-95182013D03*
X49706994Y-95182013D03*
D15*
X51136994Y-95712013D03*
X42496994Y-95712013D03*
D14*
X51136994Y-91532013D03*
X42496994Y-91532013D03*
%TD*%
D13*
%TO.C,J83*%
X97406997Y-177082034D03*
X91626997Y-177082034D03*
D15*
X98836997Y-177612034D03*
X90196997Y-177612034D03*
D14*
X90196997Y-173432034D03*
X98836997Y-173432034D03*
%TD*%
D12*
%TO.C,REF\u002A\u002A*%
X24759279Y-34568997D03*
%TD*%
%TO.C,REF\u002A\u002A*%
X72221610Y-35559593D03*
%TD*%
%TO.C,REF\u002A\u002A*%
X24521606Y-71678404D03*
%TD*%
%TO.C,REF\u002A\u002A*%
X119921614Y-105759601D03*
%TD*%
%TO.C,REF\u002A\u002A*%
X72221609Y-95078407D03*
%TD*%
%TO.C,REF\u002A\u002A*%
X24759277Y-60969000D03*
%TD*%
%TO.C,REF\u002A\u002A*%
X68920704Y-128169009D03*
%TD*%
D11*
%TO.C,MH6*%
X76539997Y-21968995D03*
X78237053Y-26066051D03*
X78237053Y-22671939D03*
X76539997Y-26768995D03*
D10*
X76539997Y-24368995D03*
D11*
X78939997Y-24368995D03*
X74842941Y-22671939D03*
X74842941Y-26066051D03*
X74139997Y-24368995D03*
%TD*%
D12*
%TO.C,REF\u002A\u002A*%
X116858384Y-48278401D03*
%TD*%
%TO.C,REF\u002A\u002A*%
X68920710Y-60969000D03*
%TD*%
%TO.C,REF\u002A\u002A*%
X69158380Y-58959596D03*
%TD*%
%TO.C,REF\u002A\u002A*%
X72221612Y-175959610D03*
%TD*%
D11*
%TO.C,MH88*%
X126640000Y-176469034D03*
X125937056Y-174771978D03*
X125937056Y-178166090D03*
X121840000Y-176469034D03*
X124240000Y-178869034D03*
D10*
X124240000Y-176469034D03*
D11*
X124240000Y-174069034D03*
X122542944Y-178166090D03*
X122542944Y-174771978D03*
%TD*%
%TO.C,MH11*%
X161937056Y-22671939D03*
X157840000Y-24368995D03*
X160240000Y-21968995D03*
D10*
X160240000Y-24368995D03*
D11*
X158542944Y-26066051D03*
X160240000Y-26768995D03*
X161937056Y-26066051D03*
X162640000Y-24368995D03*
X158542944Y-22671939D03*
%TD*%
D12*
%TO.C,REF\u002A\u002A*%
X164320716Y-60969000D03*
%TD*%
%TO.C,REF\u002A\u002A*%
X164320721Y-166269013D03*
%TD*%
%TO.C,REF\u002A\u002A*%
X72459284Y-69669001D03*
%TD*%
%TO.C,REF\u002A\u002A*%
X24521605Y-165278416D03*
%TD*%
%TO.C,REF\u002A\u002A*%
X24521607Y-23859591D03*
%TD*%
D13*
%TO.C,J66*%
X49706994Y-153682028D03*
X43926994Y-153682028D03*
D14*
X42496994Y-150032028D03*
X51136994Y-150032028D03*
D15*
X42496994Y-154212028D03*
X51136994Y-154212028D03*
%TD*%
D12*
%TO.C,REF\u002A\u002A*%
X116620709Y-69669001D03*
%TD*%
%TO.C,REF\u002A\u002A*%
X164320720Y-154569012D03*
%TD*%
%TO.C,REF\u002A\u002A*%
X72459276Y-154569012D03*
%TD*%
%TO.C,REF\u002A\u002A*%
X116858383Y-47259594D03*
%TD*%
%TO.C,REF\u002A\u002A*%
X72459281Y-22868995D03*
%TD*%
%TO.C,REF\u002A\u002A*%
X72459275Y-177969015D03*
%TD*%
%TO.C,REF\u002A\u002A*%
X69158379Y-94059600D03*
%TD*%
M02*
