%TF.GenerationSoftware,KiCad,Pcbnew,(6.0.0)*%
%TF.CreationDate,2022-08-14T01:13:06-04:00*%
%TF.ProjectId,Panel v2,50616e65-6c20-4763-922e-6b696361645f,rev?*%
%TF.SameCoordinates,Original*%
%TF.FileFunction,Paste,Top*%
%TF.FilePolarity,Positive*%
%FSLAX46Y46*%
G04 Gerber Fmt 4.6, Leading zero omitted, Abs format (unit mm)*
G04 Created by KiCad (PCBNEW (6.0.0)) date 2022-08-14 01:13:06*
%MOMM*%
%LPD*%
G01*
G04 APERTURE LIST*
G04 Aperture macros list*
%AMRoundRect*
0 Rectangle with rounded corners*
0 $1 Rounding radius*
0 $2 $3 $4 $5 $6 $7 $8 $9 X,Y pos of 4 corners*
0 Add a 4 corners polygon primitive as box body*
4,1,4,$2,$3,$4,$5,$6,$7,$8,$9,$2,$3,0*
0 Add four circle primitives for the rounded corners*
1,1,$1+$1,$2,$3*
1,1,$1+$1,$4,$5*
1,1,$1+$1,$6,$7*
1,1,$1+$1,$8,$9*
0 Add four rect primitives between the rounded corners*
20,1,$1+$1,$2,$3,$4,$5,0*
20,1,$1+$1,$4,$5,$6,$7,0*
20,1,$1+$1,$6,$7,$8,$9,0*
20,1,$1+$1,$8,$9,$2,$3,0*%
G04 Aperture macros list end*
%ADD10RoundRect,0.135000X-0.185000X0.135000X-0.185000X-0.135000X0.185000X-0.135000X0.185000X0.135000X0*%
%ADD11RoundRect,0.250000X-0.625000X0.375000X-0.625000X-0.375000X0.625000X-0.375000X0.625000X0.375000X0*%
%ADD12R,1.200000X0.900000*%
%ADD13R,0.600000X1.450000*%
%ADD14R,0.300000X1.450000*%
%ADD15R,0.600000X1.550000*%
%ADD16R,1.200000X2.000000*%
G04 APERTURE END LIST*
D10*
%TO.C,R52*%
X53087619Y-130312147D03*
X53087619Y-131332147D03*
%TD*%
D11*
%TO.C,F10*%
X103611872Y-46731501D03*
X103611872Y-49531501D03*
%TD*%
D12*
%TO.C,D14*%
X58243119Y-73181507D03*
X58243119Y-69881507D03*
%TD*%
D10*
%TO.C,R88*%
X149630625Y-165412156D03*
X149630625Y-166432156D03*
%TD*%
D11*
%TO.C,F9*%
X103611872Y-58431504D03*
X103611872Y-61231504D03*
%TD*%
%TO.C,F12*%
X151311875Y-46731501D03*
X151311875Y-49531501D03*
%TD*%
D10*
%TO.C,R31*%
X100787622Y-83512135D03*
X100787622Y-84532135D03*
%TD*%
D12*
%TO.C,D36*%
X153643125Y-143381525D03*
X153643125Y-140081525D03*
%TD*%
D13*
%TO.C,J53*%
X50066994Y-143427025D03*
X49266994Y-143427025D03*
D14*
X48066994Y-143427025D03*
X47066994Y-143427025D03*
X46566994Y-143427025D03*
X45566994Y-143427025D03*
D13*
X44366994Y-143427025D03*
X43566994Y-143427025D03*
X43566994Y-143427025D03*
X44366994Y-143427025D03*
D14*
X45066994Y-143427025D03*
X46066994Y-143427025D03*
X47566994Y-143427025D03*
X48566994Y-143427025D03*
D13*
X49266994Y-143427025D03*
X50066994Y-143427025D03*
%TD*%
D15*
%TO.C,J25*%
X35639994Y-68744007D03*
X36639994Y-68744007D03*
X37639994Y-68744007D03*
X38639994Y-68744007D03*
D16*
X39939994Y-72619007D03*
X34339994Y-72619007D03*
%TD*%
D10*
%TO.C,R83*%
X101930622Y-188812162D03*
X101930622Y-189832162D03*
%TD*%
%TO.C,R29*%
X101930622Y-83512135D03*
X101930622Y-84532135D03*
%TD*%
D11*
%TO.C,F18*%
X151311875Y-81831510D03*
X151311875Y-84631510D03*
%TD*%
%TO.C,F3*%
X103611872Y-23331495D03*
X103611872Y-26131495D03*
%TD*%
D10*
%TO.C,R70*%
X149630625Y-153712153D03*
X149630625Y-154732153D03*
%TD*%
D11*
%TO.C,F2*%
X55911869Y-23331495D03*
X55911869Y-26131495D03*
%TD*%
D15*
%TO.C,J69*%
X83339997Y-150644028D03*
X84339997Y-150644028D03*
X85339997Y-150644028D03*
X86339997Y-150644028D03*
D16*
X82039997Y-154519028D03*
X87639997Y-154519028D03*
%TD*%
D10*
%TO.C,R4*%
X53087619Y-25012120D03*
X53087619Y-26032120D03*
%TD*%
%TO.C,R16*%
X53087619Y-60112129D03*
X53087619Y-61132129D03*
%TD*%
%TO.C,R61*%
X53087619Y-153712153D03*
X53087619Y-154732153D03*
%TD*%
D13*
%TO.C,J44*%
X97766997Y-96627013D03*
X96966997Y-96627013D03*
D14*
X95766997Y-96627013D03*
X94766997Y-96627013D03*
X94266997Y-96627013D03*
X93266997Y-96627013D03*
D13*
X92066997Y-96627013D03*
X91266997Y-96627013D03*
X91266997Y-96627013D03*
X92066997Y-96627013D03*
D14*
X92766997Y-96627013D03*
X93766997Y-96627013D03*
X95266997Y-96627013D03*
X96266997Y-96627013D03*
D13*
X96966997Y-96627013D03*
X97766997Y-96627013D03*
%TD*%
D11*
%TO.C,F13*%
X55911869Y-81831510D03*
X55911869Y-84631510D03*
%TD*%
D13*
%TO.C,J13*%
X50066994Y-61527004D03*
X49266994Y-61527004D03*
D14*
X48066994Y-61527004D03*
X47066994Y-61527004D03*
X46566994Y-61527004D03*
X45566994Y-61527004D03*
D13*
X44366994Y-61527004D03*
X43566994Y-61527004D03*
X43566994Y-61527004D03*
X44366994Y-61527004D03*
D14*
X45066994Y-61527004D03*
X46066994Y-61527004D03*
X47566994Y-61527004D03*
X48566994Y-61527004D03*
D13*
X49266994Y-61527004D03*
X50066994Y-61527004D03*
%TD*%
D10*
%TO.C,R12*%
X149630625Y-25012120D03*
X149630625Y-26032120D03*
%TD*%
D13*
%TO.C,J5*%
X97766997Y-26426995D03*
X96966997Y-26426995D03*
D14*
X95766997Y-26426995D03*
X94766997Y-26426995D03*
X94266997Y-26426995D03*
X93266997Y-26426995D03*
D13*
X92066997Y-26426995D03*
X91266997Y-26426995D03*
X91266997Y-26426995D03*
X92066997Y-26426995D03*
D14*
X92766997Y-26426995D03*
X93766997Y-26426995D03*
X95266997Y-26426995D03*
X96266997Y-26426995D03*
D13*
X96966997Y-26426995D03*
X97766997Y-26426995D03*
%TD*%
D10*
%TO.C,R90*%
X149630625Y-188812162D03*
X149630625Y-189832162D03*
%TD*%
%TO.C,R36*%
X148487625Y-71812132D03*
X148487625Y-72832132D03*
%TD*%
D12*
%TO.C,D37*%
X58243119Y-178481534D03*
X58243119Y-175181534D03*
%TD*%
D10*
%TO.C,R37*%
X53087619Y-106912141D03*
X53087619Y-107932141D03*
%TD*%
%TO.C,R32*%
X101930622Y-71812132D03*
X101930622Y-72832132D03*
%TD*%
D13*
%TO.C,J19*%
X97766997Y-61527004D03*
X96966997Y-61527004D03*
D14*
X95766997Y-61527004D03*
X94766997Y-61527004D03*
X94266997Y-61527004D03*
X93266997Y-61527004D03*
D13*
X92066997Y-61527004D03*
X91266997Y-61527004D03*
X91266997Y-61527004D03*
X92066997Y-61527004D03*
D14*
X92766997Y-61527004D03*
X93766997Y-61527004D03*
X95266997Y-61527004D03*
X96266997Y-61527004D03*
D13*
X96966997Y-61527004D03*
X97766997Y-61527004D03*
%TD*%
D10*
%TO.C,R40*%
X54230619Y-106912141D03*
X54230619Y-107932141D03*
%TD*%
%TO.C,R15*%
X54230619Y-60112129D03*
X54230619Y-61132129D03*
%TD*%
D11*
%TO.C,F1*%
X55911869Y-35031498D03*
X55911869Y-37831498D03*
%TD*%
D12*
%TO.C,D28*%
X105943122Y-119981519D03*
X105943122Y-116681519D03*
%TD*%
D10*
%TO.C,R89*%
X149630625Y-177112159D03*
X149630625Y-178132159D03*
%TD*%
%TO.C,R2*%
X54230619Y-36712123D03*
X54230619Y-37732123D03*
%TD*%
D13*
%TO.C,J86*%
X145467000Y-178527034D03*
X144667000Y-178527034D03*
D14*
X143467000Y-178527034D03*
X142467000Y-178527034D03*
X141967000Y-178527034D03*
X140967000Y-178527034D03*
D13*
X139767000Y-178527034D03*
X138967000Y-178527034D03*
X138967000Y-178527034D03*
X139767000Y-178527034D03*
D14*
X140467000Y-178527034D03*
X141467000Y-178527034D03*
X142967000Y-178527034D03*
X143967000Y-178527034D03*
D13*
X144667000Y-178527034D03*
X145467000Y-178527034D03*
%TD*%
D12*
%TO.C,D25*%
X58243119Y-131681522D03*
X58243119Y-128381522D03*
%TD*%
D10*
%TO.C,R22*%
X148487625Y-60112129D03*
X148487625Y-61132129D03*
%TD*%
%TO.C,R51*%
X53087619Y-118612144D03*
X53087619Y-119632144D03*
%TD*%
%TO.C,R27*%
X53087619Y-83512135D03*
X53087619Y-84532135D03*
%TD*%
D12*
%TO.C,D10*%
X105943122Y-61481504D03*
X105943122Y-58181504D03*
%TD*%
D13*
%TO.C,J51*%
X50066994Y-120027019D03*
X49266994Y-120027019D03*
D14*
X48066994Y-120027019D03*
X47066994Y-120027019D03*
X46566994Y-120027019D03*
X45566994Y-120027019D03*
D13*
X44366994Y-120027019D03*
X43566994Y-120027019D03*
X43566994Y-120027019D03*
X44366994Y-120027019D03*
D14*
X45066994Y-120027019D03*
X46066994Y-120027019D03*
X47566994Y-120027019D03*
X48566994Y-120027019D03*
D13*
X49266994Y-120027019D03*
X50066994Y-120027019D03*
%TD*%
D12*
%TO.C,D11*%
X153643125Y-61481504D03*
X153643125Y-58181504D03*
%TD*%
D11*
%TO.C,F39*%
X55911869Y-163731531D03*
X55911869Y-166531531D03*
%TD*%
D13*
%TO.C,J74*%
X145467000Y-155127028D03*
X144667000Y-155127028D03*
D14*
X143467000Y-155127028D03*
X142467000Y-155127028D03*
X141967000Y-155127028D03*
X140967000Y-155127028D03*
D13*
X139767000Y-155127028D03*
X138967000Y-155127028D03*
X138967000Y-155127028D03*
X139767000Y-155127028D03*
D14*
X140467000Y-155127028D03*
X141467000Y-155127028D03*
X142967000Y-155127028D03*
X143967000Y-155127028D03*
D13*
X144667000Y-155127028D03*
X145467000Y-155127028D03*
%TD*%
D11*
%TO.C,F25*%
X55911869Y-128631522D03*
X55911869Y-131431522D03*
%TD*%
%TO.C,F4*%
X103611872Y-35031498D03*
X103611872Y-37831498D03*
%TD*%
D13*
%TO.C,J57*%
X97766997Y-131727022D03*
X96966997Y-131727022D03*
D14*
X95766997Y-131727022D03*
X94766997Y-131727022D03*
X94266997Y-131727022D03*
X93266997Y-131727022D03*
D13*
X92066997Y-131727022D03*
X91266997Y-131727022D03*
X91266997Y-131727022D03*
X92066997Y-131727022D03*
D14*
X92766997Y-131727022D03*
X93766997Y-131727022D03*
X95266997Y-131727022D03*
X96266997Y-131727022D03*
D13*
X96966997Y-131727022D03*
X97766997Y-131727022D03*
%TD*%
D10*
%TO.C,R80*%
X101930622Y-177112159D03*
X101930622Y-178132159D03*
%TD*%
%TO.C,R75*%
X54230619Y-165412156D03*
X54230619Y-166432156D03*
%TD*%
%TO.C,R35*%
X149630625Y-71812132D03*
X149630625Y-72832132D03*
%TD*%
D15*
%TO.C,J54*%
X83339997Y-115544019D03*
X84339997Y-115544019D03*
X85339997Y-115544019D03*
X86339997Y-115544019D03*
D16*
X87639997Y-119419019D03*
X82039997Y-119419019D03*
%TD*%
D12*
%TO.C,D6*%
X153643125Y-38081498D03*
X153643125Y-34781498D03*
%TD*%
%TO.C,D40*%
X105943122Y-166781531D03*
X105943122Y-163481531D03*
%TD*%
%TO.C,D45*%
X153643125Y-190181537D03*
X153643125Y-186881537D03*
%TD*%
D10*
%TO.C,R64*%
X54230619Y-153712153D03*
X54230619Y-154732153D03*
%TD*%
D12*
%TO.C,D8*%
X58243119Y-61481504D03*
X58243119Y-58181504D03*
%TD*%
D15*
%TO.C,J90*%
X131040000Y-185744037D03*
X132040000Y-185744037D03*
X133040000Y-185744037D03*
X134040000Y-185744037D03*
D16*
X135340000Y-189619037D03*
X129740000Y-189619037D03*
%TD*%
D12*
%TO.C,D1*%
X58243119Y-38081498D03*
X58243119Y-34781498D03*
%TD*%
D13*
%TO.C,J6*%
X97766997Y-38126998D03*
X96966997Y-38126998D03*
D14*
X95766997Y-38126998D03*
X94766997Y-38126998D03*
X94266997Y-38126998D03*
X93266997Y-38126998D03*
D13*
X92066997Y-38126998D03*
X91266997Y-38126998D03*
X91266997Y-38126998D03*
X92066997Y-38126998D03*
D14*
X92766997Y-38126998D03*
X93766997Y-38126998D03*
X95266997Y-38126998D03*
X96266997Y-38126998D03*
D13*
X96966997Y-38126998D03*
X97766997Y-38126998D03*
%TD*%
D12*
%TO.C,D33*%
X105943122Y-143381525D03*
X105943122Y-140081525D03*
%TD*%
D10*
%TO.C,R43*%
X100787622Y-106912141D03*
X100787622Y-107932141D03*
%TD*%
D13*
%TO.C,J36*%
X145467000Y-84927010D03*
X144667000Y-84927010D03*
D14*
X143467000Y-84927010D03*
X142467000Y-84927010D03*
X141967000Y-84927010D03*
X140967000Y-84927010D03*
D13*
X139767000Y-84927010D03*
X138967000Y-84927010D03*
X138967000Y-84927010D03*
X139767000Y-84927010D03*
D14*
X140467000Y-84927010D03*
X141467000Y-84927010D03*
X142967000Y-84927010D03*
X143967000Y-84927010D03*
D13*
X144667000Y-84927010D03*
X145467000Y-84927010D03*
%TD*%
D10*
%TO.C,R86*%
X148487625Y-177112159D03*
X148487625Y-178132159D03*
%TD*%
%TO.C,R85*%
X148487625Y-188812162D03*
X148487625Y-189832162D03*
%TD*%
D13*
%TO.C,J47*%
X145467000Y-108327016D03*
X144667000Y-108327016D03*
D14*
X143467000Y-108327016D03*
X142467000Y-108327016D03*
X141967000Y-108327016D03*
X140967000Y-108327016D03*
D13*
X139767000Y-108327016D03*
X138967000Y-108327016D03*
X138967000Y-108327016D03*
X139767000Y-108327016D03*
D14*
X140467000Y-108327016D03*
X141467000Y-108327016D03*
X142967000Y-108327016D03*
X143967000Y-108327016D03*
D13*
X144667000Y-108327016D03*
X145467000Y-108327016D03*
%TD*%
%TO.C,J82*%
X97766997Y-190227037D03*
X96966997Y-190227037D03*
D14*
X95766997Y-190227037D03*
X94766997Y-190227037D03*
X94266997Y-190227037D03*
X93266997Y-190227037D03*
D13*
X92066997Y-190227037D03*
X91266997Y-190227037D03*
X91266997Y-190227037D03*
X92066997Y-190227037D03*
D14*
X92766997Y-190227037D03*
X93766997Y-190227037D03*
X95266997Y-190227037D03*
X96266997Y-190227037D03*
D13*
X96966997Y-190227037D03*
X97766997Y-190227037D03*
%TD*%
%TO.C,J43*%
X97766997Y-108327016D03*
X96966997Y-108327016D03*
D14*
X95766997Y-108327016D03*
X94766997Y-108327016D03*
X94266997Y-108327016D03*
X93266997Y-108327016D03*
D13*
X92066997Y-108327016D03*
X91266997Y-108327016D03*
X91266997Y-108327016D03*
X92066997Y-108327016D03*
D14*
X92766997Y-108327016D03*
X93766997Y-108327016D03*
X95266997Y-108327016D03*
X96266997Y-108327016D03*
D13*
X96966997Y-108327016D03*
X97766997Y-108327016D03*
%TD*%
D10*
%TO.C,R3*%
X53087619Y-36712123D03*
X53087619Y-37732123D03*
%TD*%
D12*
%TO.C,D19*%
X58243119Y-108281516D03*
X58243119Y-104981516D03*
%TD*%
D10*
%TO.C,R66*%
X101930622Y-153712153D03*
X101930622Y-154732153D03*
%TD*%
D12*
%TO.C,D44*%
X153643125Y-178481534D03*
X153643125Y-175181534D03*
%TD*%
D15*
%TO.C,J22*%
X131040000Y-45344001D03*
X132040000Y-45344001D03*
X133040000Y-45344001D03*
X134040000Y-45344001D03*
D16*
X135340000Y-49219001D03*
X129740000Y-49219001D03*
%TD*%
D15*
%TO.C,J37*%
X35639994Y-92144013D03*
X36639994Y-92144013D03*
X37639994Y-92144013D03*
X38639994Y-92144013D03*
D16*
X39939994Y-96019013D03*
X34339994Y-96019013D03*
%TD*%
D10*
%TO.C,R9*%
X148487625Y-36712123D03*
X148487625Y-37732123D03*
%TD*%
D11*
%TO.C,F37*%
X55911869Y-187131537D03*
X55911869Y-189931537D03*
%TD*%
D12*
%TO.C,D31*%
X58243119Y-155081528D03*
X58243119Y-151781528D03*
%TD*%
D11*
%TO.C,F8*%
X55911869Y-58431504D03*
X55911869Y-61231504D03*
%TD*%
D13*
%TO.C,J27*%
X50066994Y-84927010D03*
X49266994Y-84927010D03*
D14*
X48066994Y-84927010D03*
X47066994Y-84927010D03*
X46566994Y-84927010D03*
X45566994Y-84927010D03*
D13*
X44366994Y-84927010D03*
X43566994Y-84927010D03*
X43566994Y-84927010D03*
X44366994Y-84927010D03*
D14*
X45066994Y-84927010D03*
X46066994Y-84927010D03*
X47566994Y-84927010D03*
X48566994Y-84927010D03*
D13*
X49266994Y-84927010D03*
X50066994Y-84927010D03*
%TD*%
D10*
%TO.C,R1*%
X54230619Y-25012120D03*
X54230619Y-26032120D03*
%TD*%
D13*
%TO.C,J39*%
X50066994Y-108327016D03*
X49266994Y-108327016D03*
D14*
X48066994Y-108327016D03*
X47066994Y-108327016D03*
X46566994Y-108327016D03*
X45566994Y-108327016D03*
D13*
X44366994Y-108327016D03*
X43566994Y-108327016D03*
X43566994Y-108327016D03*
X44366994Y-108327016D03*
D14*
X45066994Y-108327016D03*
X46066994Y-108327016D03*
X47566994Y-108327016D03*
X48566994Y-108327016D03*
D13*
X49266994Y-108327016D03*
X50066994Y-108327016D03*
%TD*%
D12*
%TO.C,D5*%
X153643125Y-26381495D03*
X153643125Y-23081495D03*
%TD*%
D13*
%TO.C,J87*%
X145467000Y-190227037D03*
X144667000Y-190227037D03*
D14*
X143467000Y-190227037D03*
X142467000Y-190227037D03*
X141967000Y-190227037D03*
X140967000Y-190227037D03*
D13*
X139767000Y-190227037D03*
X138967000Y-190227037D03*
X138967000Y-190227037D03*
X139767000Y-190227037D03*
D14*
X140467000Y-190227037D03*
X141467000Y-190227037D03*
X142967000Y-190227037D03*
X143967000Y-190227037D03*
D13*
X144667000Y-190227037D03*
X145467000Y-190227037D03*
%TD*%
D12*
%TO.C,D41*%
X105943122Y-178481534D03*
X105943122Y-175181534D03*
%TD*%
D15*
%TO.C,J84*%
X131040000Y-174044034D03*
X132040000Y-174044034D03*
X133040000Y-174044034D03*
X134040000Y-174044034D03*
D16*
X129740000Y-177919034D03*
X135340000Y-177919034D03*
%TD*%
D15*
%TO.C,J85*%
X131040000Y-162344031D03*
X132040000Y-162344031D03*
X133040000Y-162344031D03*
X134040000Y-162344031D03*
D16*
X135340000Y-166219031D03*
X129740000Y-166219031D03*
%TD*%
D12*
%TO.C,D18*%
X153643125Y-73181507D03*
X153643125Y-69881507D03*
%TD*%
D15*
%TO.C,J80*%
X83339997Y-162344031D03*
X84339997Y-162344031D03*
X85339997Y-162344031D03*
X86339997Y-162344031D03*
D16*
X82039997Y-166219031D03*
X87639997Y-166219031D03*
%TD*%
D13*
%TO.C,J8*%
X145467000Y-26426995D03*
X144667000Y-26426995D03*
D14*
X143467000Y-26426995D03*
X142467000Y-26426995D03*
X141967000Y-26426995D03*
X140967000Y-26426995D03*
D13*
X139767000Y-26426995D03*
X138967000Y-26426995D03*
X138967000Y-26426995D03*
X139767000Y-26426995D03*
D14*
X140467000Y-26426995D03*
X141467000Y-26426995D03*
X142967000Y-26426995D03*
X143967000Y-26426995D03*
D13*
X144667000Y-26426995D03*
X145467000Y-26426995D03*
%TD*%
%TO.C,J9*%
X145467000Y-38126998D03*
X144667000Y-38126998D03*
D14*
X143467000Y-38126998D03*
X142467000Y-38126998D03*
X141967000Y-38126998D03*
X140967000Y-38126998D03*
D13*
X139767000Y-38126998D03*
X138967000Y-38126998D03*
X138967000Y-38126998D03*
X139767000Y-38126998D03*
D14*
X140467000Y-38126998D03*
X141467000Y-38126998D03*
X142967000Y-38126998D03*
X143967000Y-38126998D03*
D13*
X144667000Y-38126998D03*
X145467000Y-38126998D03*
%TD*%
%TO.C,J2*%
X50066994Y-38126998D03*
X49266994Y-38126998D03*
D14*
X48066994Y-38126998D03*
X47066994Y-38126998D03*
X46566994Y-38126998D03*
X45566994Y-38126998D03*
D13*
X44366994Y-38126998D03*
X43566994Y-38126998D03*
X43566994Y-38126998D03*
X44366994Y-38126998D03*
D14*
X45066994Y-38126998D03*
X46066994Y-38126998D03*
X47566994Y-38126998D03*
X48566994Y-38126998D03*
D13*
X49266994Y-38126998D03*
X50066994Y-38126998D03*
%TD*%
D11*
%TO.C,F26*%
X55911869Y-116931519D03*
X55911869Y-119731519D03*
%TD*%
%TO.C,F42*%
X103611872Y-187131537D03*
X103611872Y-189931537D03*
%TD*%
D13*
%TO.C,J28*%
X50066994Y-73227007D03*
X49266994Y-73227007D03*
D14*
X48066994Y-73227007D03*
X47066994Y-73227007D03*
X46566994Y-73227007D03*
X45566994Y-73227007D03*
D13*
X44366994Y-73227007D03*
X43566994Y-73227007D03*
X43566994Y-73227007D03*
X44366994Y-73227007D03*
D14*
X45066994Y-73227007D03*
X46066994Y-73227007D03*
X47566994Y-73227007D03*
X48566994Y-73227007D03*
D13*
X49266994Y-73227007D03*
X50066994Y-73227007D03*
%TD*%
D15*
%TO.C,J65*%
X35639994Y-150644028D03*
X36639994Y-150644028D03*
X37639994Y-150644028D03*
X38639994Y-150644028D03*
D16*
X34339994Y-154519028D03*
X39939994Y-154519028D03*
%TD*%
D10*
%TO.C,R7*%
X100787622Y-36712123D03*
X100787622Y-37732123D03*
%TD*%
%TO.C,R46*%
X148487625Y-95212138D03*
X148487625Y-96232138D03*
%TD*%
D15*
%TO.C,J50*%
X35639994Y-115544019D03*
X36639994Y-115544019D03*
X37639994Y-115544019D03*
X38639994Y-115544019D03*
D16*
X39939994Y-119419019D03*
X34339994Y-119419019D03*
%TD*%
D13*
%TO.C,J24*%
X145467000Y-49827001D03*
X144667000Y-49827001D03*
D14*
X143467000Y-49827001D03*
X142467000Y-49827001D03*
X141967000Y-49827001D03*
X140967000Y-49827001D03*
D13*
X139767000Y-49827001D03*
X138967000Y-49827001D03*
X138967000Y-49827001D03*
X139767000Y-49827001D03*
D14*
X140467000Y-49827001D03*
X141467000Y-49827001D03*
X142967000Y-49827001D03*
X143967000Y-49827001D03*
D13*
X144667000Y-49827001D03*
X145467000Y-49827001D03*
%TD*%
D10*
%TO.C,R72*%
X148487625Y-142012150D03*
X148487625Y-143032150D03*
%TD*%
%TO.C,R77*%
X53087619Y-165412156D03*
X53087619Y-166432156D03*
%TD*%
D15*
%TO.C,J33*%
X131040000Y-68744007D03*
X132040000Y-68744007D03*
X133040000Y-68744007D03*
X134040000Y-68744007D03*
D16*
X135340000Y-72619007D03*
X129740000Y-72619007D03*
%TD*%
D10*
%TO.C,R24*%
X148487625Y-48412126D03*
X148487625Y-49432126D03*
%TD*%
D15*
%TO.C,J20*%
X131040000Y-57044004D03*
X132040000Y-57044004D03*
X133040000Y-57044004D03*
X134040000Y-57044004D03*
D16*
X135340000Y-60919004D03*
X129740000Y-60919004D03*
%TD*%
D15*
%TO.C,J46*%
X131040000Y-92144013D03*
X132040000Y-92144013D03*
X133040000Y-92144013D03*
X134040000Y-92144013D03*
D16*
X135340000Y-96019013D03*
X129740000Y-96019013D03*
%TD*%
D15*
%TO.C,J29*%
X83339997Y-80444010D03*
X84339997Y-80444010D03*
X85339997Y-80444010D03*
X86339997Y-80444010D03*
D16*
X87639997Y-84319010D03*
X82039997Y-84319010D03*
%TD*%
D12*
%TO.C,D7*%
X58243119Y-49781501D03*
X58243119Y-46481501D03*
%TD*%
D15*
%TO.C,J55*%
X83339997Y-127244022D03*
X84339997Y-127244022D03*
X85339997Y-127244022D03*
X86339997Y-127244022D03*
D16*
X87639997Y-131119022D03*
X82039997Y-131119022D03*
%TD*%
D10*
%TO.C,R17*%
X100787622Y-48412126D03*
X100787622Y-49432126D03*
%TD*%
%TO.C,R54*%
X101930622Y-118612144D03*
X101930622Y-119632144D03*
%TD*%
D11*
%TO.C,F11*%
X151311875Y-58431504D03*
X151311875Y-61231504D03*
%TD*%
D12*
%TO.C,D34*%
X105943122Y-155081528D03*
X105943122Y-151781528D03*
%TD*%
D11*
%TO.C,F7*%
X55911869Y-46731501D03*
X55911869Y-49531501D03*
%TD*%
D13*
%TO.C,J48*%
X145467000Y-96627013D03*
X144667000Y-96627013D03*
D14*
X143467000Y-96627013D03*
X142467000Y-96627013D03*
X141967000Y-96627013D03*
X140967000Y-96627013D03*
D13*
X139767000Y-96627013D03*
X138967000Y-96627013D03*
X138967000Y-96627013D03*
X139767000Y-96627013D03*
D14*
X140467000Y-96627013D03*
X141467000Y-96627013D03*
X142967000Y-96627013D03*
X143967000Y-96627013D03*
D13*
X144667000Y-96627013D03*
X145467000Y-96627013D03*
%TD*%
D15*
%TO.C,J16*%
X83339997Y-33643998D03*
X84339997Y-33643998D03*
X85339997Y-33643998D03*
X86339997Y-33643998D03*
D16*
X87639997Y-37518998D03*
X82039997Y-37518998D03*
%TD*%
D10*
%TO.C,R13*%
X53087619Y-48412126D03*
X53087619Y-49432126D03*
%TD*%
%TO.C,R50*%
X54230619Y-118612144D03*
X54230619Y-119632144D03*
%TD*%
D11*
%TO.C,F40*%
X103611872Y-175431534D03*
X103611872Y-178231534D03*
%TD*%
D12*
%TO.C,D20*%
X58243119Y-96581513D03*
X58243119Y-93281513D03*
%TD*%
%TO.C,D29*%
X153643125Y-131681522D03*
X153643125Y-128381522D03*
%TD*%
%TO.C,D12*%
X153643125Y-49781501D03*
X153643125Y-46481501D03*
%TD*%
D10*
%TO.C,R62*%
X53087619Y-142012150D03*
X53087619Y-143032150D03*
%TD*%
%TO.C,R84*%
X100787622Y-188812162D03*
X100787622Y-189832162D03*
%TD*%
D11*
%TO.C,F36*%
X151311875Y-140331525D03*
X151311875Y-143131525D03*
%TD*%
%TO.C,F31*%
X55911869Y-140331525D03*
X55911869Y-143131525D03*
%TD*%
%TO.C,F19*%
X55911869Y-93531513D03*
X55911869Y-96331513D03*
%TD*%
D10*
%TO.C,R59*%
X148487625Y-118612144D03*
X148487625Y-119632144D03*
%TD*%
D11*
%TO.C,F21*%
X103611872Y-105231516D03*
X103611872Y-108031516D03*
%TD*%
D10*
%TO.C,R76*%
X53087619Y-188812162D03*
X53087619Y-189832162D03*
%TD*%
D11*
%TO.C,F24*%
X151311875Y-105231516D03*
X151311875Y-108031516D03*
%TD*%
D10*
%TO.C,R53*%
X101930622Y-130312147D03*
X101930622Y-131332147D03*
%TD*%
D15*
%TO.C,J77*%
X35639994Y-162344031D03*
X36639994Y-162344031D03*
X37639994Y-162344031D03*
X38639994Y-162344031D03*
D16*
X34339994Y-166219031D03*
X39939994Y-166219031D03*
%TD*%
D10*
%TO.C,R34*%
X149630625Y-83512135D03*
X149630625Y-84532135D03*
%TD*%
D11*
%TO.C,F43*%
X151311875Y-163731531D03*
X151311875Y-166531531D03*
%TD*%
D10*
%TO.C,R63*%
X54230619Y-142012150D03*
X54230619Y-143032150D03*
%TD*%
%TO.C,R57*%
X149630625Y-130312147D03*
X149630625Y-131332147D03*
%TD*%
%TO.C,R47*%
X149630625Y-106912141D03*
X149630625Y-107932141D03*
%TD*%
D13*
%TO.C,J75*%
X145467000Y-166827031D03*
X144667000Y-166827031D03*
D14*
X143467000Y-166827031D03*
X142467000Y-166827031D03*
X141967000Y-166827031D03*
X140967000Y-166827031D03*
D13*
X139767000Y-166827031D03*
X138967000Y-166827031D03*
X138967000Y-166827031D03*
X139767000Y-166827031D03*
D14*
X140467000Y-166827031D03*
X141467000Y-166827031D03*
X142967000Y-166827031D03*
X143967000Y-166827031D03*
D13*
X144667000Y-166827031D03*
X145467000Y-166827031D03*
%TD*%
D10*
%TO.C,R55*%
X100787622Y-118612144D03*
X100787622Y-119632144D03*
%TD*%
%TO.C,R44*%
X100787622Y-95212138D03*
X100787622Y-96232138D03*
%TD*%
%TO.C,R30*%
X100787622Y-71812132D03*
X100787622Y-72832132D03*
%TD*%
D13*
%TO.C,J58*%
X97766997Y-143427025D03*
X96966997Y-143427025D03*
D14*
X95766997Y-143427025D03*
X94766997Y-143427025D03*
X94266997Y-143427025D03*
X93266997Y-143427025D03*
D13*
X92066997Y-143427025D03*
X91266997Y-143427025D03*
X91266997Y-143427025D03*
X92066997Y-143427025D03*
D14*
X92766997Y-143427025D03*
X93766997Y-143427025D03*
X95266997Y-143427025D03*
X96266997Y-143427025D03*
D13*
X96966997Y-143427025D03*
X97766997Y-143427025D03*
%TD*%
D15*
%TO.C,J17*%
X83339997Y-57044004D03*
X84339997Y-57044004D03*
X85339997Y-57044004D03*
X86339997Y-57044004D03*
D16*
X82039997Y-60919004D03*
X87639997Y-60919004D03*
%TD*%
D15*
%TO.C,J26*%
X35639994Y-80444010D03*
X36639994Y-80444010D03*
X37639994Y-80444010D03*
X38639994Y-80444010D03*
D16*
X39939994Y-84319010D03*
X34339994Y-84319010D03*
%TD*%
D10*
%TO.C,R65*%
X100787622Y-153712153D03*
X100787622Y-154732153D03*
%TD*%
D15*
%TO.C,J81*%
X83339997Y-174044034D03*
X84339997Y-174044034D03*
X85339997Y-174044034D03*
X86339997Y-174044034D03*
D16*
X87639997Y-177919034D03*
X82039997Y-177919034D03*
%TD*%
D15*
%TO.C,J10*%
X35639994Y-57044004D03*
X36639994Y-57044004D03*
X37639994Y-57044004D03*
X38639994Y-57044004D03*
D16*
X39939994Y-60919004D03*
X34339994Y-60919004D03*
%TD*%
D11*
%TO.C,F15*%
X103611872Y-70131507D03*
X103611872Y-72931507D03*
%TD*%
%TO.C,F41*%
X103611872Y-163731531D03*
X103611872Y-166531531D03*
%TD*%
D15*
%TO.C,J41*%
X83339997Y-92144013D03*
X84339997Y-92144013D03*
X85339997Y-92144013D03*
X86339997Y-92144013D03*
D16*
X87639997Y-96019013D03*
X82039997Y-96019013D03*
%TD*%
D13*
%TO.C,J52*%
X50066994Y-131727022D03*
X49266994Y-131727022D03*
D14*
X48066994Y-131727022D03*
X47066994Y-131727022D03*
X46566994Y-131727022D03*
X45566994Y-131727022D03*
D13*
X44366994Y-131727022D03*
X43566994Y-131727022D03*
X43566994Y-131727022D03*
X44366994Y-131727022D03*
D14*
X45066994Y-131727022D03*
X46066994Y-131727022D03*
X47566994Y-131727022D03*
X48566994Y-131727022D03*
D13*
X49266994Y-131727022D03*
X50066994Y-131727022D03*
%TD*%
D11*
%TO.C,F44*%
X151311875Y-187131537D03*
X151311875Y-189931537D03*
%TD*%
D12*
%TO.C,D42*%
X105943122Y-190181537D03*
X105943122Y-186881537D03*
%TD*%
%TO.C,D17*%
X153643125Y-84881510D03*
X153643125Y-81581510D03*
%TD*%
%TO.C,D22*%
X105943122Y-96581513D03*
X105943122Y-93281513D03*
%TD*%
%TO.C,D27*%
X105943122Y-131681522D03*
X105943122Y-128381522D03*
%TD*%
D11*
%TO.C,F5*%
X151311875Y-35031498D03*
X151311875Y-37831498D03*
%TD*%
D10*
%TO.C,R48*%
X149630625Y-95212138D03*
X149630625Y-96232138D03*
%TD*%
D11*
%TO.C,F30*%
X151311875Y-116931519D03*
X151311875Y-119731519D03*
%TD*%
%TO.C,F14*%
X55911869Y-70131507D03*
X55911869Y-72931507D03*
%TD*%
%TO.C,F32*%
X55911869Y-152031528D03*
X55911869Y-154831528D03*
%TD*%
D15*
%TO.C,J72*%
X131040000Y-150644028D03*
X132040000Y-150644028D03*
X133040000Y-150644028D03*
X134040000Y-150644028D03*
D16*
X135340000Y-154519028D03*
X129740000Y-154519028D03*
%TD*%
D11*
%TO.C,F29*%
X151311875Y-128631522D03*
X151311875Y-131431522D03*
%TD*%
D15*
%TO.C,J76*%
X35639994Y-174044034D03*
X36639994Y-174044034D03*
X37639994Y-174044034D03*
X38639994Y-174044034D03*
D16*
X34339994Y-177919034D03*
X39939994Y-177919034D03*
%TD*%
D15*
%TO.C,J21*%
X131040000Y-33643998D03*
X132040000Y-33643998D03*
X133040000Y-33643998D03*
X134040000Y-33643998D03*
D16*
X135340000Y-37518998D03*
X129740000Y-37518998D03*
%TD*%
D15*
%TO.C,J59*%
X131040000Y-127244022D03*
X132040000Y-127244022D03*
X133040000Y-127244022D03*
X134040000Y-127244022D03*
D16*
X135340000Y-131119022D03*
X129740000Y-131119022D03*
%TD*%
D15*
%TO.C,J42*%
X83339997Y-103844016D03*
X84339997Y-103844016D03*
X85339997Y-103844016D03*
X86339997Y-103844016D03*
D16*
X82039997Y-107719016D03*
X87639997Y-107719016D03*
%TD*%
D13*
%TO.C,J63*%
X145467000Y-143427025D03*
X144667000Y-143427025D03*
D14*
X143467000Y-143427025D03*
X142467000Y-143427025D03*
X141967000Y-143427025D03*
X140967000Y-143427025D03*
D13*
X139767000Y-143427025D03*
X138967000Y-143427025D03*
X138967000Y-143427025D03*
X139767000Y-143427025D03*
D14*
X140467000Y-143427025D03*
X141467000Y-143427025D03*
X142967000Y-143427025D03*
X143967000Y-143427025D03*
D13*
X144667000Y-143427025D03*
X145467000Y-143427025D03*
%TD*%
D10*
%TO.C,R6*%
X100787622Y-25012120D03*
X100787622Y-26032120D03*
%TD*%
%TO.C,R23*%
X149630625Y-48412126D03*
X149630625Y-49432126D03*
%TD*%
%TO.C,R19*%
X100787622Y-60112129D03*
X100787622Y-61132129D03*
%TD*%
%TO.C,R20*%
X101930622Y-60112129D03*
X101930622Y-61132129D03*
%TD*%
D15*
%TO.C,J15*%
X83339997Y-45344001D03*
X84339997Y-45344001D03*
X85339997Y-45344001D03*
X86339997Y-45344001D03*
D16*
X87639997Y-49219001D03*
X82039997Y-49219001D03*
%TD*%
D12*
%TO.C,D9*%
X105943122Y-49781501D03*
X105943122Y-46481501D03*
%TD*%
D10*
%TO.C,R87*%
X148487625Y-165412156D03*
X148487625Y-166432156D03*
%TD*%
%TO.C,R71*%
X149630625Y-142012150D03*
X149630625Y-143032150D03*
%TD*%
%TO.C,R69*%
X148487625Y-153712153D03*
X148487625Y-154732153D03*
%TD*%
%TO.C,R73*%
X53087619Y-177112159D03*
X53087619Y-178132159D03*
%TD*%
D11*
%TO.C,F38*%
X55911869Y-175431534D03*
X55911869Y-178231534D03*
%TD*%
D15*
%TO.C,J12*%
X35639994Y-45344001D03*
X36639994Y-45344001D03*
X37639994Y-45344001D03*
X38639994Y-45344001D03*
D16*
X39939994Y-49219001D03*
X34339994Y-49219001D03*
%TD*%
D11*
%TO.C,F33*%
X103611872Y-140331525D03*
X103611872Y-143131525D03*
%TD*%
%TO.C,F6*%
X151311875Y-23331495D03*
X151311875Y-26131495D03*
%TD*%
D13*
%TO.C,J56*%
X97766997Y-120027019D03*
X96966997Y-120027019D03*
D14*
X95766997Y-120027019D03*
X94766997Y-120027019D03*
X94266997Y-120027019D03*
X93266997Y-120027019D03*
D13*
X92066997Y-120027019D03*
X91266997Y-120027019D03*
X91266997Y-120027019D03*
X92066997Y-120027019D03*
D14*
X92766997Y-120027019D03*
X93766997Y-120027019D03*
X95266997Y-120027019D03*
X96266997Y-120027019D03*
D13*
X96966997Y-120027019D03*
X97766997Y-120027019D03*
%TD*%
D12*
%TO.C,D4*%
X105943122Y-38081498D03*
X105943122Y-34781498D03*
%TD*%
%TO.C,D30*%
X153643125Y-119981519D03*
X153643125Y-116681519D03*
%TD*%
D11*
%TO.C,F28*%
X103611872Y-116931519D03*
X103611872Y-119731519D03*
%TD*%
D13*
%TO.C,J78*%
X50066994Y-178527034D03*
X49266994Y-178527034D03*
D14*
X48066994Y-178527034D03*
X47066994Y-178527034D03*
X46566994Y-178527034D03*
X45566994Y-178527034D03*
D13*
X44366994Y-178527034D03*
X43566994Y-178527034D03*
X43566994Y-178527034D03*
X44366994Y-178527034D03*
D14*
X45066994Y-178527034D03*
X46066994Y-178527034D03*
X47566994Y-178527034D03*
X48566994Y-178527034D03*
D13*
X49266994Y-178527034D03*
X50066994Y-178527034D03*
%TD*%
D11*
%TO.C,F20*%
X55911869Y-105231516D03*
X55911869Y-108031516D03*
%TD*%
D10*
%TO.C,R8*%
X101930622Y-25012120D03*
X101930622Y-26032120D03*
%TD*%
%TO.C,R78*%
X54230619Y-188812162D03*
X54230619Y-189832162D03*
%TD*%
%TO.C,R60*%
X149630625Y-118612144D03*
X149630625Y-119632144D03*
%TD*%
D15*
%TO.C,J49*%
X35639994Y-127244022D03*
X36639994Y-127244022D03*
X37639994Y-127244022D03*
X38639994Y-127244022D03*
D16*
X39939994Y-131119022D03*
X34339994Y-131119022D03*
%TD*%
D10*
%TO.C,R81*%
X100787622Y-165412156D03*
X100787622Y-166432156D03*
%TD*%
D12*
%TO.C,D26*%
X58243119Y-119981519D03*
X58243119Y-116681519D03*
%TD*%
%TO.C,D2*%
X58243119Y-26381495D03*
X58243119Y-23081495D03*
%TD*%
D10*
%TO.C,R10*%
X149630625Y-36712123D03*
X149630625Y-37732123D03*
%TD*%
D13*
%TO.C,J62*%
X145467000Y-120027019D03*
X144667000Y-120027019D03*
D14*
X143467000Y-120027019D03*
X142467000Y-120027019D03*
X141967000Y-120027019D03*
X140967000Y-120027019D03*
D13*
X139767000Y-120027019D03*
X138967000Y-120027019D03*
X138967000Y-120027019D03*
X139767000Y-120027019D03*
D14*
X140467000Y-120027019D03*
X141467000Y-120027019D03*
X142967000Y-120027019D03*
X143967000Y-120027019D03*
D13*
X144667000Y-120027019D03*
X145467000Y-120027019D03*
%TD*%
D12*
%TO.C,D24*%
X153643125Y-96581513D03*
X153643125Y-93281513D03*
%TD*%
D11*
%TO.C,F27*%
X103611872Y-128631522D03*
X103611872Y-131431522D03*
%TD*%
%TO.C,F35*%
X151311875Y-152031528D03*
X151311875Y-154831528D03*
%TD*%
D10*
%TO.C,R25*%
X54230619Y-83512135D03*
X54230619Y-84532135D03*
%TD*%
D12*
%TO.C,D35*%
X153643125Y-155081528D03*
X153643125Y-151781528D03*
%TD*%
D10*
%TO.C,R5*%
X101930622Y-36712123D03*
X101930622Y-37732123D03*
%TD*%
D13*
%TO.C,J3*%
X50066994Y-26426995D03*
X49266994Y-26426995D03*
D14*
X48066994Y-26426995D03*
X47066994Y-26426995D03*
X46566994Y-26426995D03*
X45566994Y-26426995D03*
D13*
X44366994Y-26426995D03*
X43566994Y-26426995D03*
X43566994Y-26426995D03*
X44366994Y-26426995D03*
D14*
X45066994Y-26426995D03*
X46066994Y-26426995D03*
X47566994Y-26426995D03*
X48566994Y-26426995D03*
D13*
X49266994Y-26426995D03*
X50066994Y-26426995D03*
%TD*%
D11*
%TO.C,F45*%
X151311875Y-175431534D03*
X151311875Y-178231534D03*
%TD*%
D15*
%TO.C,J45*%
X131040000Y-103844016D03*
X132040000Y-103844016D03*
X133040000Y-103844016D03*
X134040000Y-103844016D03*
D16*
X135340000Y-107719016D03*
X129740000Y-107719016D03*
%TD*%
D13*
%TO.C,J35*%
X145467000Y-73227007D03*
X144667000Y-73227007D03*
D14*
X143467000Y-73227007D03*
X142467000Y-73227007D03*
X141967000Y-73227007D03*
X140967000Y-73227007D03*
D13*
X139767000Y-73227007D03*
X138967000Y-73227007D03*
X138967000Y-73227007D03*
X139767000Y-73227007D03*
D14*
X140467000Y-73227007D03*
X141467000Y-73227007D03*
X142967000Y-73227007D03*
X143967000Y-73227007D03*
D13*
X144667000Y-73227007D03*
X145467000Y-73227007D03*
%TD*%
D10*
%TO.C,R14*%
X54230619Y-48412126D03*
X54230619Y-49432126D03*
%TD*%
D11*
%TO.C,F17*%
X151311875Y-70131507D03*
X151311875Y-72931507D03*
%TD*%
D13*
%TO.C,J31*%
X97766997Y-84927010D03*
X96966997Y-84927010D03*
D14*
X95766997Y-84927010D03*
X94766997Y-84927010D03*
X94266997Y-84927010D03*
X93266997Y-84927010D03*
D13*
X92066997Y-84927010D03*
X91266997Y-84927010D03*
X91266997Y-84927010D03*
X92066997Y-84927010D03*
D14*
X92766997Y-84927010D03*
X93766997Y-84927010D03*
X95266997Y-84927010D03*
X96266997Y-84927010D03*
D13*
X96966997Y-84927010D03*
X97766997Y-84927010D03*
%TD*%
D15*
%TO.C,J7*%
X131040000Y-21943995D03*
X132040000Y-21943995D03*
X133040000Y-21943995D03*
X134040000Y-21943995D03*
D16*
X129740000Y-25818995D03*
X135340000Y-25818995D03*
%TD*%
D13*
%TO.C,J71*%
X97766997Y-166827031D03*
X96966997Y-166827031D03*
D14*
X95766997Y-166827031D03*
X94766997Y-166827031D03*
X94266997Y-166827031D03*
X93266997Y-166827031D03*
D13*
X92066997Y-166827031D03*
X91266997Y-166827031D03*
X91266997Y-166827031D03*
X92066997Y-166827031D03*
D14*
X92766997Y-166827031D03*
X93766997Y-166827031D03*
X95266997Y-166827031D03*
X96266997Y-166827031D03*
D13*
X96966997Y-166827031D03*
X97766997Y-166827031D03*
%TD*%
D10*
%TO.C,R39*%
X54230619Y-95212138D03*
X54230619Y-96232138D03*
%TD*%
D13*
%TO.C,J67*%
X50066994Y-166827031D03*
X49266994Y-166827031D03*
D14*
X48066994Y-166827031D03*
X47066994Y-166827031D03*
X46566994Y-166827031D03*
X45566994Y-166827031D03*
D13*
X44366994Y-166827031D03*
X43566994Y-166827031D03*
X43566994Y-166827031D03*
X44366994Y-166827031D03*
D14*
X45066994Y-166827031D03*
X46066994Y-166827031D03*
X47566994Y-166827031D03*
X48566994Y-166827031D03*
D13*
X49266994Y-166827031D03*
X50066994Y-166827031D03*
%TD*%
D15*
%TO.C,J88*%
X35639994Y-185744037D03*
X36639994Y-185744037D03*
X37639994Y-185744037D03*
X38639994Y-185744037D03*
D16*
X34339994Y-189619037D03*
X39939994Y-189619037D03*
%TD*%
D15*
%TO.C,J73*%
X131040000Y-138944025D03*
X132040000Y-138944025D03*
X133040000Y-138944025D03*
X134040000Y-138944025D03*
D16*
X129740000Y-142819025D03*
X135340000Y-142819025D03*
%TD*%
D13*
%TO.C,J18*%
X97766997Y-49827001D03*
X96966997Y-49827001D03*
D14*
X95766997Y-49827001D03*
X94766997Y-49827001D03*
X94266997Y-49827001D03*
X93266997Y-49827001D03*
D13*
X92066997Y-49827001D03*
X91266997Y-49827001D03*
X91266997Y-49827001D03*
X92066997Y-49827001D03*
D14*
X92766997Y-49827001D03*
X93766997Y-49827001D03*
X95266997Y-49827001D03*
X96266997Y-49827001D03*
D13*
X96966997Y-49827001D03*
X97766997Y-49827001D03*
%TD*%
D10*
%TO.C,R45*%
X148487625Y-106912141D03*
X148487625Y-107932141D03*
%TD*%
D11*
%TO.C,F34*%
X103611872Y-152031528D03*
X103611872Y-154831528D03*
%TD*%
D10*
%TO.C,R26*%
X54230619Y-71812132D03*
X54230619Y-72832132D03*
%TD*%
D12*
%TO.C,D39*%
X58243119Y-190181537D03*
X58243119Y-186881537D03*
%TD*%
%TO.C,D32*%
X58243119Y-143381525D03*
X58243119Y-140081525D03*
%TD*%
%TO.C,D3*%
X105943122Y-26381495D03*
X105943122Y-23081495D03*
%TD*%
D13*
%TO.C,J14*%
X50066994Y-49827001D03*
X49266994Y-49827001D03*
D14*
X48066994Y-49827001D03*
X47066994Y-49827001D03*
X46566994Y-49827001D03*
X45566994Y-49827001D03*
D13*
X44366994Y-49827001D03*
X43566994Y-49827001D03*
X43566994Y-49827001D03*
X44366994Y-49827001D03*
D14*
X45066994Y-49827001D03*
X46066994Y-49827001D03*
X47566994Y-49827001D03*
X48566994Y-49827001D03*
D13*
X49266994Y-49827001D03*
X50066994Y-49827001D03*
%TD*%
%TO.C,J79*%
X50066994Y-190227037D03*
X49266994Y-190227037D03*
D14*
X48066994Y-190227037D03*
X47066994Y-190227037D03*
X46566994Y-190227037D03*
X45566994Y-190227037D03*
D13*
X44366994Y-190227037D03*
X43566994Y-190227037D03*
X43566994Y-190227037D03*
X44366994Y-190227037D03*
D14*
X45066994Y-190227037D03*
X46066994Y-190227037D03*
X47566994Y-190227037D03*
X48566994Y-190227037D03*
D13*
X49266994Y-190227037D03*
X50066994Y-190227037D03*
%TD*%
D10*
%TO.C,R18*%
X101930622Y-48412126D03*
X101930622Y-49432126D03*
%TD*%
%TO.C,R33*%
X148487625Y-83512135D03*
X148487625Y-84532135D03*
%TD*%
D13*
%TO.C,J23*%
X145467000Y-61527004D03*
X144667000Y-61527004D03*
D14*
X143467000Y-61527004D03*
X142467000Y-61527004D03*
X141967000Y-61527004D03*
X140967000Y-61527004D03*
D13*
X139767000Y-61527004D03*
X138967000Y-61527004D03*
X138967000Y-61527004D03*
X139767000Y-61527004D03*
D14*
X140467000Y-61527004D03*
X141467000Y-61527004D03*
X142967000Y-61527004D03*
X143967000Y-61527004D03*
D13*
X144667000Y-61527004D03*
X145467000Y-61527004D03*
%TD*%
D15*
%TO.C,J11*%
X35639994Y-33643998D03*
X36639994Y-33643998D03*
X37639994Y-33643998D03*
X38639994Y-33643998D03*
D16*
X34339994Y-37518998D03*
X39939994Y-37518998D03*
%TD*%
D15*
%TO.C,J34*%
X131040000Y-80444010D03*
X132040000Y-80444010D03*
X133040000Y-80444010D03*
X134040000Y-80444010D03*
D16*
X135340000Y-84319010D03*
X129740000Y-84319010D03*
%TD*%
D12*
%TO.C,D21*%
X105943122Y-108281516D03*
X105943122Y-104981516D03*
%TD*%
D10*
%TO.C,R41*%
X101930622Y-95212138D03*
X101930622Y-96232138D03*
%TD*%
D11*
%TO.C,F22*%
X103611872Y-93531513D03*
X103611872Y-96331513D03*
%TD*%
D12*
%TO.C,D16*%
X105943122Y-84881510D03*
X105943122Y-81581510D03*
%TD*%
D11*
%TO.C,F23*%
X151311875Y-93531513D03*
X151311875Y-96331513D03*
%TD*%
D13*
%TO.C,J32*%
X97766997Y-73227007D03*
X96966997Y-73227007D03*
D14*
X95766997Y-73227007D03*
X94766997Y-73227007D03*
X94266997Y-73227007D03*
X93266997Y-73227007D03*
D13*
X92066997Y-73227007D03*
X91266997Y-73227007D03*
X91266997Y-73227007D03*
X92066997Y-73227007D03*
D14*
X92766997Y-73227007D03*
X93766997Y-73227007D03*
X95266997Y-73227007D03*
X96266997Y-73227007D03*
D13*
X96966997Y-73227007D03*
X97766997Y-73227007D03*
%TD*%
D10*
%TO.C,R28*%
X53087619Y-71812132D03*
X53087619Y-72832132D03*
%TD*%
D13*
%TO.C,J61*%
X145467000Y-131727022D03*
X144667000Y-131727022D03*
D14*
X143467000Y-131727022D03*
X142467000Y-131727022D03*
X141967000Y-131727022D03*
X140967000Y-131727022D03*
D13*
X139767000Y-131727022D03*
X138967000Y-131727022D03*
X138967000Y-131727022D03*
X139767000Y-131727022D03*
D14*
X140467000Y-131727022D03*
X141467000Y-131727022D03*
X142967000Y-131727022D03*
X143967000Y-131727022D03*
D13*
X144667000Y-131727022D03*
X145467000Y-131727022D03*
%TD*%
%TO.C,J70*%
X97766997Y-155127028D03*
X96966997Y-155127028D03*
D14*
X95766997Y-155127028D03*
X94766997Y-155127028D03*
X94266997Y-155127028D03*
X93266997Y-155127028D03*
D13*
X92066997Y-155127028D03*
X91266997Y-155127028D03*
X91266997Y-155127028D03*
X92066997Y-155127028D03*
D14*
X92766997Y-155127028D03*
X93766997Y-155127028D03*
X95266997Y-155127028D03*
X96266997Y-155127028D03*
D13*
X96966997Y-155127028D03*
X97766997Y-155127028D03*
%TD*%
D12*
%TO.C,D13*%
X58243119Y-84881510D03*
X58243119Y-81581510D03*
%TD*%
D10*
%TO.C,R42*%
X101930622Y-106912141D03*
X101930622Y-107932141D03*
%TD*%
%TO.C,R68*%
X101930622Y-142012150D03*
X101930622Y-143032150D03*
%TD*%
%TO.C,R79*%
X101930622Y-165412156D03*
X101930622Y-166432156D03*
%TD*%
D15*
%TO.C,J64*%
X35639994Y-138944025D03*
X36639994Y-138944025D03*
X37639994Y-138944025D03*
X38639994Y-138944025D03*
D16*
X34339994Y-142819025D03*
X39939994Y-142819025D03*
%TD*%
D12*
%TO.C,D23*%
X153643125Y-108281516D03*
X153643125Y-104981516D03*
%TD*%
D10*
%TO.C,R21*%
X149630625Y-60112129D03*
X149630625Y-61132129D03*
%TD*%
%TO.C,R67*%
X100787622Y-142012150D03*
X100787622Y-143032150D03*
%TD*%
D12*
%TO.C,D15*%
X105943122Y-73181507D03*
X105943122Y-69881507D03*
%TD*%
D10*
%TO.C,R49*%
X54230619Y-130312147D03*
X54230619Y-131332147D03*
%TD*%
%TO.C,R74*%
X54230619Y-177112159D03*
X54230619Y-178132159D03*
%TD*%
%TO.C,R11*%
X148487625Y-25012120D03*
X148487625Y-26032120D03*
%TD*%
D15*
%TO.C,J89*%
X83339997Y-185744037D03*
X84339997Y-185744037D03*
X85339997Y-185744037D03*
X86339997Y-185744037D03*
D16*
X82039997Y-189619037D03*
X87639997Y-189619037D03*
%TD*%
D13*
%TO.C,J40*%
X50066994Y-96627013D03*
X49266994Y-96627013D03*
D14*
X48066994Y-96627013D03*
X47066994Y-96627013D03*
X46566994Y-96627013D03*
X45566994Y-96627013D03*
D13*
X44366994Y-96627013D03*
X43566994Y-96627013D03*
X43566994Y-96627013D03*
X44366994Y-96627013D03*
D14*
X45066994Y-96627013D03*
X46066994Y-96627013D03*
X47566994Y-96627013D03*
X48566994Y-96627013D03*
D13*
X49266994Y-96627013D03*
X50066994Y-96627013D03*
%TD*%
%TO.C,J83*%
X97766997Y-178527034D03*
X96966997Y-178527034D03*
D14*
X95766997Y-178527034D03*
X94766997Y-178527034D03*
X94266997Y-178527034D03*
X93266997Y-178527034D03*
D13*
X92066997Y-178527034D03*
X91266997Y-178527034D03*
X91266997Y-178527034D03*
X92066997Y-178527034D03*
D14*
X92766997Y-178527034D03*
X93766997Y-178527034D03*
X95266997Y-178527034D03*
X96266997Y-178527034D03*
D13*
X96966997Y-178527034D03*
X97766997Y-178527034D03*
%TD*%
D10*
%TO.C,R82*%
X100787622Y-177112159D03*
X100787622Y-178132159D03*
%TD*%
%TO.C,R58*%
X148487625Y-130312147D03*
X148487625Y-131332147D03*
%TD*%
D15*
%TO.C,J60*%
X131040000Y-115544019D03*
X132040000Y-115544019D03*
X133040000Y-115544019D03*
X134040000Y-115544019D03*
D16*
X135340000Y-119419019D03*
X129740000Y-119419019D03*
%TD*%
D15*
%TO.C,J30*%
X83339997Y-68744007D03*
X84339997Y-68744007D03*
X85339997Y-68744007D03*
X86339997Y-68744007D03*
D16*
X82039997Y-72619007D03*
X87639997Y-72619007D03*
%TD*%
D12*
%TO.C,D38*%
X58243119Y-166781531D03*
X58243119Y-163481531D03*
%TD*%
%TO.C,D43*%
X153643125Y-166781531D03*
X153643125Y-163481531D03*
%TD*%
D15*
%TO.C,J1*%
X35639994Y-21943995D03*
X36639994Y-21943995D03*
X37639994Y-21943995D03*
X38639994Y-21943995D03*
D16*
X39939994Y-25818995D03*
X34339994Y-25818995D03*
%TD*%
D15*
%TO.C,J38*%
X35639994Y-103844016D03*
X36639994Y-103844016D03*
X37639994Y-103844016D03*
X38639994Y-103844016D03*
D16*
X39939994Y-107719016D03*
X34339994Y-107719016D03*
%TD*%
D10*
%TO.C,R56*%
X100787622Y-130312147D03*
X100787622Y-131332147D03*
%TD*%
D15*
%TO.C,J68*%
X83339997Y-138944025D03*
X84339997Y-138944025D03*
X85339997Y-138944025D03*
X86339997Y-138944025D03*
D16*
X82039997Y-142819025D03*
X87639997Y-142819025D03*
%TD*%
D15*
%TO.C,J4*%
X83339997Y-21943995D03*
X84339997Y-21943995D03*
X85339997Y-21943995D03*
X86339997Y-21943995D03*
D16*
X87639997Y-25818995D03*
X82039997Y-25818995D03*
%TD*%
D13*
%TO.C,J66*%
X50066994Y-155127028D03*
X49266994Y-155127028D03*
D14*
X48066994Y-155127028D03*
X47066994Y-155127028D03*
X46566994Y-155127028D03*
X45566994Y-155127028D03*
D13*
X44366994Y-155127028D03*
X43566994Y-155127028D03*
X43566994Y-155127028D03*
X44366994Y-155127028D03*
D14*
X45066994Y-155127028D03*
X46066994Y-155127028D03*
X47566994Y-155127028D03*
X48566994Y-155127028D03*
D13*
X49266994Y-155127028D03*
X50066994Y-155127028D03*
%TD*%
D10*
%TO.C,R38*%
X53087619Y-95212138D03*
X53087619Y-96232138D03*
%TD*%
D11*
%TO.C,F16*%
X103611872Y-81831510D03*
X103611872Y-84631510D03*
%TD*%
M02*
