M48
; DRILL file {KiCad (6.0.0)} date Fri Feb  4 14:46:28 2022
; FORMAT={-:-/ absolute / inch / decimal}
; #@! TF.CreationDate,2022-02-04T14:46:28-05:00
; #@! TF.GenerationSoftware,Kicad,Pcbnew,(6.0.0)
; #@! TF.FileFunction,NonPlated,1,2,NPTH
FMAT,2
INCH
; #@! TA.AperFunction,NonPlated,NPTH,ComponentDrill
T1C0.0197
; #@! TA.AperFunction,NonPlated,NPTH,ComponentDrill
T2C0.0256
%
G90
G05
T1
X0.8131Y-1.7973
X0.8131Y-4.9035
X0.8412Y-1.7973
X0.8412Y-4.9035
X0.8693Y-1.7973
X0.8693Y-4.9035
X0.8975Y-1.7973
X0.8975Y-4.9035
X0.9256Y-1.7973
X0.9256Y-4.9035
X0.9537Y-1.7973
X0.9537Y-4.9035
X0.9818Y-1.7973
X0.9818Y-4.9035
X1.01Y-1.7973
X1.01Y-4.9035
X1.0887Y-1.9685
X1.0887Y-2.4291
X1.0887Y-2.8898
X1.0887Y-3.3504
X1.0887Y-3.811
X1.0887Y-4.2717
X1.0887Y-4.7323
X1.0913Y-4.7623
X1.0913Y-3.3804
X1.0913Y-3.841
X1.0913Y-4.3017
X1.0913Y-1.9385
X1.0913Y-1.9985
X1.0913Y-2.3991
X1.0913Y-2.4591
X1.0913Y-2.9198
X1.0913Y-2.8598
X1.0913Y-3.3204
X1.0913Y-3.781
X1.0913Y-4.2417
X1.0913Y-4.7023
X1.0992Y-4.7913
X1.0992Y-4.3307
X1.0992Y-3.4094
X1.0992Y-3.8701
X1.0992Y-1.9094
X1.0992Y-2.4882
X1.0992Y-2.9488
X1.0992Y-2.0276
X1.0992Y-2.3701
X1.0992Y-2.8307
X1.0992Y-3.2913
X1.0992Y-3.752
X1.0992Y-4.2126
X1.0992Y-4.6732
X1.6162Y-1.7973
X1.6162Y-2.1397
X1.6162Y-2.2579
X1.6162Y-2.6004
X1.6162Y-2.7185
X1.6162Y-3.061
X1.6162Y-3.1792
X1.6162Y-3.5216
X1.6162Y-3.6398
X1.6162Y-3.9822
X1.6162Y-4.1004
X1.6162Y-4.4429
X1.6162Y-4.5611
X1.6162Y-4.9035
X1.6457Y-1.7973
X1.6457Y-2.1397
X1.6457Y-2.2579
X1.6457Y-2.6004
X1.6457Y-2.7185
X1.6457Y-3.061
X1.6457Y-3.1792
X1.6457Y-3.5216
X1.6457Y-3.6398
X1.6457Y-3.9822
X1.6457Y-4.1004
X1.6457Y-4.4429
X1.6457Y-4.5611
X1.6457Y-4.9035
X1.6752Y-1.7973
X1.6752Y-2.1397
X1.6752Y-2.2579
X1.6752Y-2.6004
X1.6752Y-2.7185
X1.6752Y-3.061
X1.6752Y-3.1792
X1.6752Y-3.5216
X1.6752Y-3.6398
X1.6752Y-3.9822
X1.6752Y-4.1004
X1.6752Y-4.4429
X1.6752Y-4.5611
X1.6752Y-4.9035
X1.7048Y-1.7973
X1.7048Y-2.1397
X1.7048Y-2.2579
X1.7048Y-2.6004
X1.7048Y-2.7185
X1.7048Y-3.061
X1.7048Y-3.1792
X1.7048Y-3.5216
X1.7048Y-3.6398
X1.7048Y-3.9822
X1.7048Y-4.1004
X1.7048Y-4.4429
X1.7048Y-4.5611
X1.7048Y-4.9035
X1.7343Y-1.7973
X1.7343Y-2.1397
X1.7343Y-2.2579
X1.7343Y-2.6004
X1.7343Y-2.7185
X1.7343Y-3.061
X1.7343Y-3.1792
X1.7343Y-3.5216
X1.7343Y-3.6398
X1.7343Y-3.9822
X1.7343Y-4.1004
X1.7343Y-4.4429
X1.7343Y-4.5611
X1.7343Y-4.9035
X2.2027Y-1.7973
X2.2027Y-2.1397
X2.2027Y-2.2579
X2.2027Y-2.6004
X2.2027Y-2.7185
X2.2027Y-3.061
X2.2027Y-3.1792
X2.2027Y-3.5216
X2.2027Y-3.6398
X2.2027Y-3.9822
X2.2027Y-4.1004
X2.2027Y-4.4429
X2.2027Y-4.5611
X2.2027Y-4.9035
X2.2323Y-1.7973
X2.2323Y-2.1397
X2.2323Y-2.2579
X2.2323Y-2.6004
X2.2323Y-2.7185
X2.2323Y-3.061
X2.2323Y-3.1792
X2.2323Y-3.5216
X2.2323Y-3.6398
X2.2323Y-3.9822
X2.2323Y-4.1004
X2.2323Y-4.4429
X2.2323Y-4.5611
X2.2323Y-4.9035
X2.2618Y-1.7973
X2.2618Y-2.1397
X2.2618Y-2.2579
X2.2618Y-2.6004
X2.2618Y-2.7185
X2.2618Y-3.061
X2.2618Y-3.1792
X2.2618Y-3.5216
X2.2618Y-3.6398
X2.2618Y-3.9822
X2.2618Y-4.1004
X2.2618Y-4.4429
X2.2618Y-4.5611
X2.2618Y-4.9035
X2.2913Y-1.7973
X2.2913Y-2.1397
X2.2913Y-2.2579
X2.2913Y-2.6004
X2.2913Y-2.7185
X2.2913Y-3.061
X2.2913Y-3.1792
X2.2913Y-3.5216
X2.2913Y-3.6398
X2.2913Y-3.9822
X2.2913Y-4.1004
X2.2913Y-4.4429
X2.2913Y-4.5611
X2.2913Y-4.9035
X2.3208Y-1.7973
X2.3208Y-2.1397
X2.3208Y-2.2579
X2.3208Y-2.6004
X2.3208Y-2.7185
X2.3208Y-3.061
X2.3208Y-3.1792
X2.3208Y-3.5216
X2.3208Y-3.6398
X2.3208Y-3.9822
X2.3208Y-4.1004
X2.3208Y-4.4429
X2.3208Y-4.5611
X2.3208Y-4.9035
X2.8378Y-4.6732
X2.8378Y-3.752
X2.8378Y-4.2126
X2.8378Y-3.2913
X2.8378Y-2.0276
X2.8378Y-2.3701
X2.8378Y-2.8307
X2.8378Y-1.9094
X2.8378Y-2.4882
X2.8378Y-2.9488
X2.8378Y-3.4094
X2.8378Y-3.8701
X2.8378Y-4.3307
X2.8378Y-4.7913
X2.8457Y-4.2417
X2.8457Y-4.7023
X2.8457Y-2.8598
X2.8457Y-3.3204
X2.8457Y-3.781
X2.8457Y-1.9385
X2.8457Y-1.9985
X2.8457Y-2.3991
X2.8457Y-2.4591
X2.8457Y-2.9198
X2.8457Y-3.3804
X2.8457Y-3.841
X2.8457Y-4.3017
X2.8457Y-4.7623
X2.8483Y-1.9685
X2.8483Y-2.4291
X2.8483Y-2.8898
X2.8483Y-3.3504
X2.8483Y-3.811
X2.8483Y-4.2717
X2.8483Y-4.7323
X2.9666Y-1.9685
X2.9666Y-2.4291
X2.9666Y-2.8898
X2.9666Y-3.3504
X2.9666Y-3.811
X2.9666Y-4.2717
X2.9666Y-4.7323
X2.9692Y-4.7623
X2.9692Y-3.3804
X2.9692Y-3.841
X2.9692Y-4.3017
X2.9692Y-1.9385
X2.9692Y-1.9985
X2.9692Y-2.3991
X2.9692Y-2.4591
X2.9692Y-2.9198
X2.9692Y-2.8598
X2.9692Y-3.3204
X2.9692Y-3.781
X2.9692Y-4.2417
X2.9692Y-4.7023
X2.9771Y-4.7913
X2.9771Y-4.3307
X2.9771Y-3.4094
X2.9771Y-3.8701
X2.9771Y-1.9094
X2.9771Y-2.4882
X2.9771Y-2.9488
X2.9771Y-2.0276
X2.9771Y-2.3701
X2.9771Y-2.8307
X2.9771Y-3.2913
X2.9771Y-3.752
X2.9771Y-4.2126
X2.9771Y-4.6732
X3.4941Y-1.7973
X3.4941Y-2.1397
X3.4941Y-2.2579
X3.4941Y-2.6004
X3.4941Y-2.7185
X3.4941Y-3.061
X3.4941Y-3.1792
X3.4941Y-3.5216
X3.4941Y-3.6398
X3.4941Y-3.9822
X3.4941Y-4.1004
X3.4941Y-4.4429
X3.4941Y-4.5611
X3.4941Y-4.9035
X3.5237Y-1.7973
X3.5237Y-2.1397
X3.5237Y-2.2579
X3.5237Y-2.6004
X3.5237Y-2.7185
X3.5237Y-3.061
X3.5237Y-3.1792
X3.5237Y-3.5216
X3.5237Y-3.6398
X3.5237Y-3.9822
X3.5237Y-4.1004
X3.5237Y-4.4429
X3.5237Y-4.5611
X3.5237Y-4.9035
X3.5532Y-1.7973
X3.5532Y-2.1397
X3.5532Y-2.2579
X3.5532Y-2.6004
X3.5532Y-2.7185
X3.5532Y-3.061
X3.5532Y-3.1792
X3.5532Y-3.5216
X3.5532Y-3.6398
X3.5532Y-3.9822
X3.5532Y-4.1004
X3.5532Y-4.4429
X3.5532Y-4.5611
X3.5532Y-4.9035
X3.5827Y-1.7973
X3.5827Y-2.1397
X3.5827Y-2.2579
X3.5827Y-2.6004
X3.5827Y-2.7185
X3.5827Y-3.061
X3.5827Y-3.1792
X3.5827Y-3.5216
X3.5827Y-3.6398
X3.5827Y-3.9822
X3.5827Y-4.1004
X3.5827Y-4.4429
X3.5827Y-4.5611
X3.5827Y-4.9035
X3.6122Y-1.7973
X3.6122Y-2.1397
X3.6122Y-2.2579
X3.6122Y-2.6004
X3.6122Y-2.7185
X3.6122Y-3.061
X3.6122Y-3.1792
X3.6122Y-3.5216
X3.6122Y-3.6398
X3.6122Y-3.9822
X3.6122Y-4.1004
X3.6122Y-4.4429
X3.6122Y-4.5611
X3.6122Y-4.9035
X4.0807Y-1.7973
X4.0807Y-2.1397
X4.0807Y-2.2579
X4.0807Y-2.6004
X4.0807Y-2.7185
X4.0807Y-3.061
X4.0807Y-3.1792
X4.0807Y-3.5216
X4.0807Y-3.6398
X4.0807Y-3.9822
X4.0807Y-4.1004
X4.0807Y-4.4429
X4.0807Y-4.5611
X4.0807Y-4.9035
X4.1102Y-1.7973
X4.1102Y-2.1397
X4.1102Y-2.2579
X4.1102Y-2.6004
X4.1102Y-2.7185
X4.1102Y-3.061
X4.1102Y-3.1792
X4.1102Y-3.5216
X4.1102Y-3.6398
X4.1102Y-3.9822
X4.1102Y-4.1004
X4.1102Y-4.4429
X4.1102Y-4.5611
X4.1102Y-4.9035
X4.1397Y-1.7973
X4.1397Y-2.1397
X4.1397Y-2.2579
X4.1397Y-2.6004
X4.1397Y-2.7185
X4.1397Y-3.061
X4.1397Y-3.1792
X4.1397Y-3.5216
X4.1397Y-3.6398
X4.1397Y-3.9822
X4.1397Y-4.1004
X4.1397Y-4.4429
X4.1397Y-4.5611
X4.1397Y-4.9035
X4.1693Y-1.7973
X4.1693Y-2.1397
X4.1693Y-2.2579
X4.1693Y-2.6004
X4.1693Y-2.7185
X4.1693Y-3.061
X4.1693Y-3.1792
X4.1693Y-3.5216
X4.1693Y-3.6398
X4.1693Y-3.9822
X4.1693Y-4.1004
X4.1693Y-4.4429
X4.1693Y-4.5611
X4.1693Y-4.9035
X4.1988Y-1.7973
X4.1988Y-2.1397
X4.1988Y-2.2579
X4.1988Y-2.6004
X4.1988Y-2.7185
X4.1988Y-3.061
X4.1988Y-3.1792
X4.1988Y-3.5216
X4.1988Y-3.6398
X4.1988Y-3.9822
X4.1988Y-4.1004
X4.1988Y-4.4429
X4.1988Y-4.5611
X4.1988Y-4.9035
X4.7158Y-4.6732
X4.7158Y-3.752
X4.7158Y-4.2126
X4.7158Y-3.2913
X4.7158Y-2.0276
X4.7158Y-2.3701
X4.7158Y-2.8307
X4.7158Y-1.9094
X4.7158Y-2.4882
X4.7158Y-2.9488
X4.7158Y-3.4094
X4.7158Y-3.8701
X4.7158Y-4.3307
X4.7158Y-4.7913
X4.7237Y-4.2417
X4.7237Y-4.7023
X4.7237Y-2.8598
X4.7237Y-3.3204
X4.7237Y-3.781
X4.7237Y-1.9385
X4.7237Y-1.9985
X4.7237Y-2.3991
X4.7237Y-2.4591
X4.7237Y-2.9198
X4.7237Y-3.3804
X4.7237Y-3.841
X4.7237Y-4.3017
X4.7237Y-4.7623
X4.7263Y-1.9685
X4.7263Y-2.4291
X4.7263Y-2.8898
X4.7263Y-3.3504
X4.7263Y-3.811
X4.7263Y-4.2717
X4.7263Y-4.7323
X4.805Y-1.7973
X4.805Y-4.9035
X4.8331Y-1.7973
X4.8331Y-4.9035
X4.8612Y-1.7973
X4.8612Y-4.9035
X4.8894Y-1.7973
X4.8894Y-4.9035
X4.9175Y-1.7973
X4.9175Y-4.9035
X4.9456Y-1.7973
X4.9456Y-4.9035
X4.9737Y-1.7973
X4.9737Y-4.9035
X5.0019Y-1.7973
X5.0019Y-4.9035
T2
X1.8547Y-1.9921
X1.8547Y-2.4528
X1.8547Y-2.9134
X1.8547Y-3.374
X1.8547Y-3.8346
X1.8547Y-4.2953
X1.8547Y-4.7559
X2.0823Y-1.9921
X2.0823Y-2.4528
X2.0823Y-2.9134
X2.0823Y-3.374
X2.0823Y-3.8346
X2.0823Y-4.2953
X2.0823Y-4.7559
X3.7327Y-1.9921
X3.7327Y-2.4528
X3.7327Y-2.9134
X3.7327Y-3.374
X3.7327Y-3.8346
X3.7327Y-4.2953
X3.7327Y-4.7559
X3.9602Y-1.9921
X3.9602Y-2.4528
X3.9602Y-2.9134
X3.9602Y-3.374
X3.9602Y-3.8346
X3.9602Y-4.2953
X3.9602Y-4.7559
T0
M30
