M48
; DRILL file {KiCad (6.0.0)} date Sun Aug 14 01:13:06 2022
; FORMAT={-:-/ absolute / inch / decimal}
; #@! TF.CreationDate,2022-08-14T01:13:06-04:00
; #@! TF.GenerationSoftware,Kicad,Pcbnew,(6.0.0)
; #@! TF.FileFunction,Plated,1,2,PTH
FMAT,2
INCH
; #@! TA.AperFunction,Plated,PTH,ViaDrill
T1C0.0157
; #@! TA.AperFunction,Plated,PTH,ComponentDrill
T2C0.0197
; #@! TA.AperFunction,Plated,PTH,ComponentDrill
T3C0.0236
; #@! TA.AperFunction,Plated,PTH,ComponentDrill
T4C0.1260
%
G90
G05
T1
X1.5082Y-1.0162
X1.5082Y-1.4768
X1.5082Y-1.9374
X1.5082Y-2.3981
X1.5082Y-2.8587
X1.5082Y-3.3193
X1.5082Y-3.78
X1.5082Y-4.2406
X1.5082Y-4.7012
X1.5082Y-5.1619
X1.5082Y-5.6225
X1.5082Y-6.0831
X1.5082Y-6.5437
X1.5082Y-7.0044
X1.5082Y-7.465
X1.5632Y-0.8662
X1.5632Y-1.3268
X1.5632Y-1.7874
X1.5632Y-2.2481
X1.5632Y-2.7087
X1.5632Y-3.1693
X1.5632Y-3.63
X1.5632Y-4.0906
X1.5632Y-4.5512
X1.5632Y-5.0119
X1.5632Y-5.4725
X1.5632Y-5.9331
X1.5632Y-6.3937
X1.5632Y-6.8544
X1.5632Y-7.315
X1.6182Y-0.8912
X1.6182Y-1.3518
X1.6182Y-1.8124
X1.6182Y-2.2731
X1.6182Y-2.7337
X1.6182Y-3.1943
X1.6182Y-3.655
X1.6182Y-4.1156
X1.6182Y-4.5762
X1.6182Y-5.0369
X1.6182Y-5.4975
X1.6182Y-5.9581
X1.6182Y-6.4187
X1.6182Y-6.8794
X1.6182Y-7.34
X1.7474Y-1.0746
X1.7474Y-1.5352
X1.7474Y-1.9958
X1.7474Y-2.4565
X1.7474Y-2.9171
X1.7474Y-3.3777
X1.7474Y-3.8383
X1.7474Y-4.299
X1.7474Y-4.7596
X1.7474Y-5.2202
X1.7474Y-5.6809
X1.7474Y-6.1415
X1.7474Y-6.6021
X1.7474Y-7.0628
X1.7474Y-7.5234
X1.7733Y-0.9934
X1.7733Y-1.4541
X1.7733Y-1.9147
X1.7733Y-2.3753
X1.7733Y-2.836
X1.7733Y-3.2966
X1.7733Y-3.7572
X1.7733Y-4.2179
X1.7733Y-4.6785
X1.7733Y-5.1391
X1.7733Y-5.5998
X1.7733Y-6.0604
X1.7733Y-6.521
X1.7733Y-6.9816
X1.7733Y-7.4423
X1.8925Y-0.9927
X1.8925Y-1.4533
X1.8925Y-1.9139
X1.8925Y-2.3746
X1.8925Y-2.8352
X1.8925Y-3.2958
X1.8925Y-3.7565
X1.8925Y-4.2171
X1.8925Y-4.6777
X1.8925Y-5.1383
X1.8925Y-5.599
X1.8925Y-6.0596
X1.8925Y-6.5202
X1.8925Y-6.9809
X1.8925Y-7.4415
X1.9405Y-1.0835
X1.9405Y-1.5441
X1.9405Y-2.0047
X1.9405Y-2.4654
X1.9405Y-2.926
X1.9405Y-3.3866
X1.9405Y-3.8473
X1.9405Y-4.3079
X1.9405Y-4.7685
X1.9405Y-5.2292
X1.9405Y-5.6898
X1.9405Y-6.1504
X1.9405Y-6.611
X1.9405Y-7.0717
X1.9405Y-7.5323
X2.0888Y-0.9474
X2.0888Y-1.408
X2.0888Y-1.8687
X2.0888Y-2.3293
X2.0888Y-2.7899
X2.0888Y-3.2506
X2.0888Y-3.7112
X2.0888Y-4.1718
X2.0888Y-4.6324
X2.0888Y-5.0931
X2.0888Y-5.5537
X2.0888Y-6.0143
X2.0888Y-6.475
X2.0888Y-6.9356
X2.0888Y-7.3962
X2.1333Y-0.9462
X2.1333Y-1.4069
X2.1333Y-1.8675
X2.1333Y-2.3281
X2.1333Y-2.7887
X2.1333Y-3.2494
X2.1333Y-3.71
X2.1333Y-4.1706
X2.1333Y-4.6313
X2.1333Y-5.0919
X2.1333Y-5.5525
X2.1333Y-6.0132
X2.1333Y-6.4738
X2.1333Y-6.9344
X2.1333Y-7.395
X2.2793Y-0.8628
X2.2793Y-1.3234
X2.2793Y-1.784
X2.2793Y-2.2446
X2.2793Y-2.7053
X2.2793Y-3.1659
X2.2793Y-3.6265
X2.2793Y-4.0872
X2.2793Y-4.5478
X2.2793Y-5.0084
X2.2793Y-5.4691
X2.2793Y-5.9297
X2.2793Y-6.3903
X2.2793Y-6.8509
X2.2793Y-7.3116
X3.3861Y-1.0162
X3.3861Y-1.4768
X3.3861Y-1.9374
X3.3861Y-2.3981
X3.3861Y-2.8587
X3.3861Y-3.3193
X3.3861Y-3.78
X3.3861Y-4.2406
X3.3861Y-4.7012
X3.3861Y-5.1619
X3.3861Y-5.6225
X3.3861Y-6.0831
X3.3861Y-6.5437
X3.3861Y-7.0044
X3.3861Y-7.465
X3.4411Y-0.8662
X3.4411Y-1.3268
X3.4411Y-1.7874
X3.4411Y-2.2481
X3.4411Y-2.7087
X3.4411Y-3.1693
X3.4411Y-3.63
X3.4411Y-4.0906
X3.4411Y-4.5512
X3.4411Y-5.0119
X3.4411Y-5.4725
X3.4411Y-5.9331
X3.4411Y-6.3937
X3.4411Y-6.8544
X3.4411Y-7.315
X3.4961Y-0.8912
X3.4961Y-1.3518
X3.4961Y-1.8124
X3.4961Y-2.2731
X3.4961Y-2.7337
X3.4961Y-3.1943
X3.4961Y-3.655
X3.4961Y-4.1156
X3.4961Y-4.5762
X3.4961Y-5.0369
X3.4961Y-5.4975
X3.4961Y-5.9581
X3.4961Y-6.4187
X3.4961Y-6.8794
X3.4961Y-7.34
X3.6254Y-1.0746
X3.6254Y-1.5352
X3.6254Y-1.9958
X3.6254Y-2.4565
X3.6254Y-2.9171
X3.6254Y-3.3777
X3.6254Y-3.8383
X3.6254Y-4.299
X3.6254Y-4.7596
X3.6254Y-5.2202
X3.6254Y-5.6809
X3.6254Y-6.1415
X3.6254Y-6.6021
X3.6254Y-7.0628
X3.6254Y-7.5234
X3.6513Y-0.9934
X3.6513Y-1.4541
X3.6513Y-1.9147
X3.6513Y-2.3753
X3.6513Y-2.836
X3.6513Y-3.2966
X3.6513Y-3.7572
X3.6513Y-4.2179
X3.6513Y-4.6785
X3.6513Y-5.1391
X3.6513Y-5.5998
X3.6513Y-6.0604
X3.6513Y-6.521
X3.6513Y-6.9816
X3.6513Y-7.4423
X3.7704Y-0.9927
X3.7704Y-1.4533
X3.7704Y-1.9139
X3.7704Y-2.3746
X3.7704Y-2.8352
X3.7704Y-3.2958
X3.7704Y-3.7565
X3.7704Y-4.2171
X3.7704Y-4.6777
X3.7704Y-5.1383
X3.7704Y-5.599
X3.7704Y-6.0596
X3.7704Y-6.5202
X3.7704Y-6.9809
X3.7704Y-7.4415
X3.8184Y-1.0835
X3.8184Y-1.5441
X3.8184Y-2.0047
X3.8184Y-2.4654
X3.8184Y-2.926
X3.8184Y-3.3866
X3.8184Y-3.8473
X3.8184Y-4.3079
X3.8184Y-4.7685
X3.8184Y-5.2292
X3.8184Y-5.6898
X3.8184Y-6.1504
X3.8184Y-6.611
X3.8184Y-7.0717
X3.8184Y-7.5323
X3.9667Y-0.9474
X3.9667Y-1.408
X3.9667Y-1.8687
X3.9667Y-2.3293
X3.9667Y-2.7899
X3.9667Y-3.2506
X3.9667Y-3.7112
X3.9667Y-4.1718
X3.9667Y-4.6324
X3.9667Y-5.0931
X3.9667Y-5.5537
X3.9667Y-6.0143
X3.9667Y-6.475
X3.9667Y-6.9356
X3.9667Y-7.3962
X4.0112Y-0.9462
X4.0112Y-1.4069
X4.0112Y-1.8675
X4.0112Y-2.3281
X4.0112Y-2.7887
X4.0112Y-3.2494
X4.0112Y-3.71
X4.0112Y-4.1706
X4.0112Y-4.6313
X4.0112Y-5.0919
X4.0112Y-5.5525
X4.0112Y-6.0132
X4.0112Y-6.4738
X4.0112Y-6.9344
X4.0112Y-7.395
X4.1573Y-0.8628
X4.1573Y-1.3234
X4.1573Y-1.784
X4.1573Y-2.2446
X4.1573Y-2.7053
X4.1573Y-3.1659
X4.1573Y-3.6265
X4.1573Y-4.0872
X4.1573Y-4.5478
X4.1573Y-5.0084
X4.1573Y-5.4691
X4.1573Y-5.9297
X4.1573Y-6.3903
X4.1573Y-6.8509
X4.1573Y-7.3116
X5.2641Y-1.0162
X5.2641Y-1.4768
X5.2641Y-1.9374
X5.2641Y-2.3981
X5.2641Y-2.8587
X5.2641Y-3.3193
X5.2641Y-3.78
X5.2641Y-4.2406
X5.2641Y-4.7012
X5.2641Y-5.1619
X5.2641Y-5.6225
X5.2641Y-6.0831
X5.2641Y-6.5437
X5.2641Y-7.0044
X5.2641Y-7.465
X5.3191Y-0.8662
X5.3191Y-1.3268
X5.3191Y-1.7874
X5.3191Y-2.2481
X5.3191Y-2.7087
X5.3191Y-3.1693
X5.3191Y-3.63
X5.3191Y-4.0906
X5.3191Y-4.5512
X5.3191Y-5.0119
X5.3191Y-5.4725
X5.3191Y-5.9331
X5.3191Y-6.3937
X5.3191Y-6.8544
X5.3191Y-7.315
X5.3741Y-0.8912
X5.3741Y-1.3518
X5.3741Y-1.8124
X5.3741Y-2.2731
X5.3741Y-2.7337
X5.3741Y-3.1943
X5.3741Y-3.655
X5.3741Y-4.1156
X5.3741Y-4.5762
X5.3741Y-5.0369
X5.3741Y-5.4975
X5.3741Y-5.9581
X5.3741Y-6.4187
X5.3741Y-6.8794
X5.3741Y-7.34
X5.5033Y-1.0746
X5.5033Y-1.5352
X5.5033Y-1.9958
X5.5033Y-2.4565
X5.5033Y-2.9171
X5.5033Y-3.3777
X5.5033Y-3.8383
X5.5033Y-4.299
X5.5033Y-4.7596
X5.5033Y-5.2202
X5.5033Y-5.6809
X5.5033Y-6.1415
X5.5033Y-6.6021
X5.5033Y-7.0628
X5.5033Y-7.5234
X5.5292Y-0.9934
X5.5292Y-1.4541
X5.5292Y-1.9147
X5.5292Y-2.3753
X5.5292Y-2.836
X5.5292Y-3.2966
X5.5292Y-3.7572
X5.5292Y-4.2179
X5.5292Y-4.6785
X5.5292Y-5.1391
X5.5292Y-5.5998
X5.5292Y-6.0604
X5.5292Y-6.521
X5.5292Y-6.9816
X5.5292Y-7.4423
X5.6484Y-0.9927
X5.6484Y-1.4533
X5.6484Y-1.9139
X5.6484Y-2.3746
X5.6484Y-2.8352
X5.6484Y-3.2958
X5.6484Y-3.7565
X5.6484Y-4.2171
X5.6484Y-4.6777
X5.6484Y-5.1383
X5.6484Y-5.599
X5.6484Y-6.0596
X5.6484Y-6.5202
X5.6484Y-6.9809
X5.6484Y-7.4415
X5.6964Y-1.0835
X5.6964Y-1.5441
X5.6964Y-2.0047
X5.6964Y-2.4654
X5.6964Y-2.926
X5.6964Y-3.3866
X5.6964Y-3.8473
X5.6964Y-4.3079
X5.6964Y-4.7685
X5.6964Y-5.2292
X5.6964Y-5.6898
X5.6964Y-6.1504
X5.6964Y-6.611
X5.6964Y-7.0717
X5.6964Y-7.5323
X5.8447Y-0.9474
X5.8447Y-1.408
X5.8447Y-1.8687
X5.8447Y-2.3293
X5.8447Y-2.7899
X5.8447Y-3.2506
X5.8447Y-3.7112
X5.8447Y-4.1718
X5.8447Y-4.6324
X5.8447Y-5.0931
X5.8447Y-5.5537
X5.8447Y-6.0143
X5.8447Y-6.475
X5.8447Y-6.9356
X5.8447Y-7.3962
X5.8892Y-0.9462
X5.8892Y-1.4069
X5.8892Y-1.8675
X5.8892Y-2.3281
X5.8892Y-2.7887
X5.8892Y-3.2494
X5.8892Y-3.71
X5.8892Y-4.1706
X5.8892Y-4.6313
X5.8892Y-5.0919
X5.8892Y-5.5525
X5.8892Y-6.0132
X5.8892Y-6.4738
X5.8892Y-6.9344
X5.8892Y-7.395
X6.0352Y-0.8628
X6.0352Y-1.3234
X6.0352Y-1.784
X6.0352Y-2.2446
X6.0352Y-2.7053
X6.0352Y-3.1659
X6.0352Y-3.6265
X6.0352Y-4.0872
X6.0352Y-4.5478
X6.0352Y-5.0084
X6.0352Y-5.4691
X6.0352Y-5.9297
X6.0352Y-6.3903
X6.0352Y-6.8509
X6.0352Y-7.3116
T2
X1.0409Y-0.9594
X1.0409Y-1.42
X1.0409Y-1.8807
X1.0409Y-2.3413
X1.0409Y-2.8019
X1.0409Y-3.2626
X1.0409Y-3.7232
X1.0409Y-4.1838
X1.0409Y-4.6444
X1.0409Y-5.1051
X1.0409Y-5.5657
X1.0409Y-6.0263
X1.0409Y-6.487
X1.0409Y-6.9476
X1.0409Y-7.4082
X1.0686Y-0.8926
X1.0686Y-1.0262
X1.0686Y-1.3532
X1.0686Y-1.4869
X1.0686Y-1.8139
X1.0686Y-1.9475
X1.0686Y-2.2745
X1.0686Y-2.4081
X1.0686Y-2.7351
X1.0686Y-2.8687
X1.0686Y-3.1957
X1.0686Y-3.3294
X1.0686Y-3.6564
X1.0686Y-3.79
X1.0686Y-4.117
X1.0686Y-4.2506
X1.0686Y-4.5776
X1.0686Y-4.7113
X1.0686Y-5.0383
X1.0686Y-5.1719
X1.0686Y-5.4989
X1.0686Y-5.6325
X1.0686Y-5.9595
X1.0686Y-6.0932
X1.0686Y-6.4202
X1.0686Y-6.5538
X1.0686Y-6.8808
X1.0686Y-7.0144
X1.0686Y-7.3414
X1.0686Y-7.475
X1.1354Y-0.8649
X1.1354Y-1.0539
X1.1354Y-1.3256
X1.1354Y-1.5145
X1.1354Y-1.7862
X1.1354Y-1.9752
X1.1354Y-2.2468
X1.1354Y-2.4358
X1.1354Y-2.7074
X1.1354Y-2.8964
X1.1354Y-3.1681
X1.1354Y-3.357
X1.1354Y-3.6287
X1.1354Y-3.8177
X1.1354Y-4.0893
X1.1354Y-4.2783
X1.1354Y-4.55
X1.1354Y-4.7389
X1.1354Y-5.0106
X1.1354Y-5.1996
X1.1354Y-5.4712
X1.1354Y-5.6602
X1.1354Y-5.9319
X1.1354Y-6.1208
X1.1354Y-6.3925
X1.1354Y-6.5815
X1.1354Y-6.8531
X1.1354Y-7.0421
X1.1354Y-7.3137
X1.1354Y-7.5027
X1.2022Y-0.8926
X1.2022Y-1.0262
X1.2022Y-1.3532
X1.2022Y-1.4869
X1.2022Y-1.8139
X1.2022Y-1.9475
X1.2022Y-2.2745
X1.2022Y-2.4081
X1.2022Y-2.7351
X1.2022Y-2.8687
X1.2022Y-3.1957
X1.2022Y-3.3294
X1.2022Y-3.6564
X1.2022Y-3.79
X1.2022Y-4.117
X1.2022Y-4.2506
X1.2022Y-4.5776
X1.2022Y-4.7113
X1.2022Y-5.0383
X1.2022Y-5.1719
X1.2022Y-5.4989
X1.2022Y-5.6325
X1.2022Y-5.9595
X1.2022Y-6.0932
X1.2022Y-6.4202
X1.2022Y-6.5538
X1.2022Y-6.8808
X1.2022Y-7.0144
X1.2022Y-7.3414
X1.2022Y-7.475
X1.2299Y-0.9594
X1.2299Y-1.42
X1.2299Y-1.8807
X1.2299Y-2.3413
X1.2299Y-2.8019
X1.2299Y-3.2626
X1.2299Y-3.7232
X1.2299Y-4.1838
X1.2299Y-4.6444
X1.2299Y-5.1051
X1.2299Y-5.5657
X1.2299Y-6.0263
X1.2299Y-6.487
X1.2299Y-6.9476
X1.2299Y-7.4082
X2.4583Y-0.9594
X2.4583Y-1.42
X2.4583Y-1.8807
X2.4583Y-2.3413
X2.4583Y-2.8019
X2.4583Y-3.2626
X2.4583Y-3.7232
X2.4583Y-4.1838
X2.4583Y-4.6444
X2.4583Y-5.1051
X2.4583Y-5.5657
X2.4583Y-6.0263
X2.4583Y-6.487
X2.4583Y-6.9476
X2.4583Y-7.4082
X2.4859Y-0.8926
X2.4859Y-1.0262
X2.4859Y-1.3532
X2.4859Y-1.4869
X2.4859Y-1.8139
X2.4859Y-1.9475
X2.4859Y-2.2745
X2.4859Y-2.4081
X2.4859Y-2.7351
X2.4859Y-2.8687
X2.4859Y-3.1957
X2.4859Y-3.3294
X2.4859Y-3.6564
X2.4859Y-3.79
X2.4859Y-4.117
X2.4859Y-4.2506
X2.4859Y-4.5776
X2.4859Y-4.7113
X2.4859Y-5.0383
X2.4859Y-5.1719
X2.4859Y-5.4989
X2.4859Y-5.6325
X2.4859Y-5.9595
X2.4859Y-6.0932
X2.4859Y-6.4202
X2.4859Y-6.5538
X2.4859Y-6.8808
X2.4859Y-7.0144
X2.4859Y-7.3414
X2.4859Y-7.475
X2.5528Y-0.8649
X2.5528Y-1.0539
X2.5528Y-1.3256
X2.5528Y-1.5145
X2.5528Y-1.7862
X2.5528Y-1.9752
X2.5528Y-2.2468
X2.5528Y-2.4358
X2.5528Y-2.7074
X2.5528Y-2.8964
X2.5528Y-3.1681
X2.5528Y-3.357
X2.5528Y-3.6287
X2.5528Y-3.8177
X2.5528Y-4.0893
X2.5528Y-4.2783
X2.5528Y-4.55
X2.5528Y-4.7389
X2.5528Y-5.0106
X2.5528Y-5.1996
X2.5528Y-5.4712
X2.5528Y-5.6602
X2.5528Y-5.9319
X2.5528Y-6.1208
X2.5528Y-6.3925
X2.5528Y-6.5815
X2.5528Y-6.8531
X2.5528Y-7.0421
X2.5528Y-7.3137
X2.5528Y-7.5027
X2.6196Y-0.8926
X2.6196Y-1.0262
X2.6196Y-1.3532
X2.6196Y-1.4869
X2.6196Y-1.8139
X2.6196Y-1.9475
X2.6196Y-2.2745
X2.6196Y-2.4081
X2.6196Y-2.7351
X2.6196Y-2.8687
X2.6196Y-3.1957
X2.6196Y-3.3294
X2.6196Y-3.6564
X2.6196Y-3.79
X2.6196Y-4.117
X2.6196Y-4.2506
X2.6196Y-4.5776
X2.6196Y-4.7113
X2.6196Y-5.0383
X2.6196Y-5.1719
X2.6196Y-5.4989
X2.6196Y-5.6325
X2.6196Y-5.9595
X2.6196Y-6.0932
X2.6196Y-6.4202
X2.6196Y-6.5538
X2.6196Y-6.8808
X2.6196Y-7.0144
X2.6196Y-7.3414
X2.6196Y-7.475
X2.6472Y-0.9594
X2.6472Y-1.42
X2.6472Y-1.8807
X2.6472Y-2.3413
X2.6472Y-2.8019
X2.6472Y-3.2626
X2.6472Y-3.7232
X2.6472Y-4.1838
X2.6472Y-4.6444
X2.6472Y-5.1051
X2.6472Y-5.5657
X2.6472Y-6.0263
X2.6472Y-6.487
X2.6472Y-6.9476
X2.6472Y-7.4082
X2.9189Y-0.9594
X2.9189Y-1.42
X2.9189Y-1.8807
X2.9189Y-2.3413
X2.9189Y-2.8019
X2.9189Y-3.2626
X2.9189Y-3.7232
X2.9189Y-4.1838
X2.9189Y-4.6444
X2.9189Y-5.1051
X2.9189Y-5.5657
X2.9189Y-6.0263
X2.9189Y-6.487
X2.9189Y-6.9476
X2.9189Y-7.4082
X2.9466Y-0.8926
X2.9466Y-1.0262
X2.9466Y-1.3532
X2.9466Y-1.4869
X2.9466Y-1.8139
X2.9466Y-1.9475
X2.9466Y-2.2745
X2.9466Y-2.4081
X2.9466Y-2.7351
X2.9466Y-2.8687
X2.9466Y-3.1957
X2.9466Y-3.3294
X2.9466Y-3.6564
X2.9466Y-3.79
X2.9466Y-4.117
X2.9466Y-4.2506
X2.9466Y-4.5776
X2.9466Y-4.7113
X2.9466Y-5.0383
X2.9466Y-5.1719
X2.9466Y-5.4989
X2.9466Y-5.6325
X2.9466Y-5.9595
X2.9466Y-6.0932
X2.9466Y-6.4202
X2.9466Y-6.5538
X2.9466Y-6.8808
X2.9466Y-7.0144
X2.9466Y-7.3414
X2.9466Y-7.475
X3.0134Y-0.8649
X3.0134Y-1.0539
X3.0134Y-1.3256
X3.0134Y-1.5145
X3.0134Y-1.7862
X3.0134Y-1.9752
X3.0134Y-2.2468
X3.0134Y-2.4358
X3.0134Y-2.7074
X3.0134Y-2.8964
X3.0134Y-3.1681
X3.0134Y-3.357
X3.0134Y-3.6287
X3.0134Y-3.8177
X3.0134Y-4.0893
X3.0134Y-4.2783
X3.0134Y-4.55
X3.0134Y-4.7389
X3.0134Y-5.0106
X3.0134Y-5.1996
X3.0134Y-5.4712
X3.0134Y-5.6602
X3.0134Y-5.9319
X3.0134Y-6.1208
X3.0134Y-6.3925
X3.0134Y-6.5815
X3.0134Y-6.8531
X3.0134Y-7.0421
X3.0134Y-7.3137
X3.0134Y-7.5027
X3.0802Y-0.8926
X3.0802Y-1.0262
X3.0802Y-1.3532
X3.0802Y-1.4869
X3.0802Y-1.8139
X3.0802Y-1.9475
X3.0802Y-2.2745
X3.0802Y-2.4081
X3.0802Y-2.7351
X3.0802Y-2.8687
X3.0802Y-3.1957
X3.0802Y-3.3294
X3.0802Y-3.6564
X3.0802Y-3.79
X3.0802Y-4.117
X3.0802Y-4.2506
X3.0802Y-4.5776
X3.0802Y-4.7113
X3.0802Y-5.0383
X3.0802Y-5.1719
X3.0802Y-5.4989
X3.0802Y-5.6325
X3.0802Y-5.9595
X3.0802Y-6.0932
X3.0802Y-6.4202
X3.0802Y-6.5538
X3.0802Y-6.8808
X3.0802Y-7.0144
X3.0802Y-7.3414
X3.0802Y-7.475
X3.1079Y-0.9594
X3.1079Y-1.42
X3.1079Y-1.8807
X3.1079Y-2.3413
X3.1079Y-2.8019
X3.1079Y-3.2626
X3.1079Y-3.7232
X3.1079Y-4.1838
X3.1079Y-4.6444
X3.1079Y-5.1051
X3.1079Y-5.5657
X3.1079Y-6.0263
X3.1079Y-6.487
X3.1079Y-6.9476
X3.1079Y-7.4082
X4.3362Y-0.9594
X4.3362Y-1.42
X4.3362Y-1.8807
X4.3362Y-2.3413
X4.3362Y-2.8019
X4.3362Y-3.2626
X4.3362Y-3.7232
X4.3362Y-4.1838
X4.3362Y-4.6444
X4.3362Y-5.1051
X4.3362Y-5.5657
X4.3362Y-6.0263
X4.3362Y-6.487
X4.3362Y-6.9476
X4.3362Y-7.4082
X4.3639Y-0.8926
X4.3639Y-1.0262
X4.3639Y-1.3532
X4.3639Y-1.4869
X4.3639Y-1.8139
X4.3639Y-1.9475
X4.3639Y-2.2745
X4.3639Y-2.4081
X4.3639Y-2.7351
X4.3639Y-2.8687
X4.3639Y-3.1957
X4.3639Y-3.3294
X4.3639Y-3.6564
X4.3639Y-3.79
X4.3639Y-4.117
X4.3639Y-4.2506
X4.3639Y-4.5776
X4.3639Y-4.7113
X4.3639Y-5.0383
X4.3639Y-5.1719
X4.3639Y-5.4989
X4.3639Y-5.6325
X4.3639Y-5.9595
X4.3639Y-6.0932
X4.3639Y-6.4202
X4.3639Y-6.5538
X4.3639Y-6.8808
X4.3639Y-7.0144
X4.3639Y-7.3414
X4.3639Y-7.475
X4.4307Y-0.8649
X4.4307Y-1.0539
X4.4307Y-1.3256
X4.4307Y-1.5145
X4.4307Y-1.7862
X4.4307Y-1.9752
X4.4307Y-2.2468
X4.4307Y-2.4358
X4.4307Y-2.7074
X4.4307Y-2.8964
X4.4307Y-3.1681
X4.4307Y-3.357
X4.4307Y-3.6287
X4.4307Y-3.8177
X4.4307Y-4.0893
X4.4307Y-4.2783
X4.4307Y-4.55
X4.4307Y-4.7389
X4.4307Y-5.0106
X4.4307Y-5.1996
X4.4307Y-5.4712
X4.4307Y-5.6602
X4.4307Y-5.9319
X4.4307Y-6.1208
X4.4307Y-6.3925
X4.4307Y-6.5815
X4.4307Y-6.8531
X4.4307Y-7.0421
X4.4307Y-7.3137
X4.4307Y-7.5027
X4.4975Y-0.8926
X4.4975Y-1.0262
X4.4975Y-1.3532
X4.4975Y-1.4869
X4.4975Y-1.8139
X4.4975Y-1.9475
X4.4975Y-2.2745
X4.4975Y-2.4081
X4.4975Y-2.7351
X4.4975Y-2.8687
X4.4975Y-3.1957
X4.4975Y-3.3294
X4.4975Y-3.6564
X4.4975Y-3.79
X4.4975Y-4.117
X4.4975Y-4.2506
X4.4975Y-4.5776
X4.4975Y-4.7113
X4.4975Y-5.0383
X4.4975Y-5.1719
X4.4975Y-5.4989
X4.4975Y-5.6325
X4.4975Y-5.9595
X4.4975Y-6.0932
X4.4975Y-6.4202
X4.4975Y-6.5538
X4.4975Y-6.8808
X4.4975Y-7.0144
X4.4975Y-7.3414
X4.4975Y-7.475
X4.5252Y-0.9594
X4.5252Y-1.42
X4.5252Y-1.8807
X4.5252Y-2.3413
X4.5252Y-2.8019
X4.5252Y-3.2626
X4.5252Y-3.7232
X4.5252Y-4.1838
X4.5252Y-4.6444
X4.5252Y-5.1051
X4.5252Y-5.5657
X4.5252Y-6.0263
X4.5252Y-6.487
X4.5252Y-6.9476
X4.5252Y-7.4082
X4.7969Y-0.9594
X4.7969Y-1.42
X4.7969Y-1.8807
X4.7969Y-2.3413
X4.7969Y-2.8019
X4.7969Y-3.2626
X4.7969Y-3.7232
X4.7969Y-4.1838
X4.7969Y-4.6444
X4.7969Y-5.1051
X4.7969Y-5.5657
X4.7969Y-6.0263
X4.7969Y-6.487
X4.7969Y-6.9476
X4.7969Y-7.4082
X4.8245Y-0.8926
X4.8245Y-1.0262
X4.8245Y-1.3532
X4.8245Y-1.4869
X4.8245Y-1.8139
X4.8245Y-1.9475
X4.8245Y-2.2745
X4.8245Y-2.4081
X4.8245Y-2.7351
X4.8245Y-2.8687
X4.8245Y-3.1957
X4.8245Y-3.3294
X4.8245Y-3.6564
X4.8245Y-3.79
X4.8245Y-4.117
X4.8245Y-4.2506
X4.8245Y-4.5776
X4.8245Y-4.7113
X4.8245Y-5.0383
X4.8245Y-5.1719
X4.8245Y-5.4989
X4.8245Y-5.6325
X4.8245Y-5.9595
X4.8245Y-6.0932
X4.8245Y-6.4202
X4.8245Y-6.5538
X4.8245Y-6.8808
X4.8245Y-7.0144
X4.8245Y-7.3414
X4.8245Y-7.475
X4.8913Y-0.8649
X4.8913Y-1.0539
X4.8913Y-1.3256
X4.8913Y-1.5145
X4.8913Y-1.7862
X4.8913Y-1.9752
X4.8913Y-2.2468
X4.8913Y-2.4358
X4.8913Y-2.7074
X4.8913Y-2.8964
X4.8913Y-3.1681
X4.8913Y-3.357
X4.8913Y-3.6287
X4.8913Y-3.8177
X4.8913Y-4.0893
X4.8913Y-4.2783
X4.8913Y-4.55
X4.8913Y-4.7389
X4.8913Y-5.0106
X4.8913Y-5.1996
X4.8913Y-5.4712
X4.8913Y-5.6602
X4.8913Y-5.9319
X4.8913Y-6.1208
X4.8913Y-6.3925
X4.8913Y-6.5815
X4.8913Y-6.8531
X4.8913Y-7.0421
X4.8913Y-7.3137
X4.8913Y-7.5027
X4.9582Y-0.8926
X4.9582Y-1.0262
X4.9582Y-1.3532
X4.9582Y-1.4869
X4.9582Y-1.8139
X4.9582Y-1.9475
X4.9582Y-2.2745
X4.9582Y-2.4081
X4.9582Y-2.7351
X4.9582Y-2.8687
X4.9582Y-3.1957
X4.9582Y-3.3294
X4.9582Y-3.6564
X4.9582Y-3.79
X4.9582Y-4.117
X4.9582Y-4.2506
X4.9582Y-4.5776
X4.9582Y-4.7113
X4.9582Y-5.0383
X4.9582Y-5.1719
X4.9582Y-5.4989
X4.9582Y-5.6325
X4.9582Y-5.9595
X4.9582Y-6.0932
X4.9582Y-6.4202
X4.9582Y-6.5538
X4.9582Y-6.8808
X4.9582Y-7.0144
X4.9582Y-7.3414
X4.9582Y-7.475
X4.9858Y-0.9594
X4.9858Y-1.42
X4.9858Y-1.8807
X4.9858Y-2.3413
X4.9858Y-2.8019
X4.9858Y-3.2626
X4.9858Y-3.7232
X4.9858Y-4.1838
X4.9858Y-4.6444
X4.9858Y-5.1051
X4.9858Y-5.5657
X4.9858Y-6.0263
X4.9858Y-6.487
X4.9858Y-6.9476
X4.9858Y-7.4082
X6.2142Y-0.9594
X6.2142Y-1.42
X6.2142Y-1.8807
X6.2142Y-2.3413
X6.2142Y-2.8019
X6.2142Y-3.2626
X6.2142Y-3.7232
X6.2142Y-4.1838
X6.2142Y-4.6444
X6.2142Y-5.1051
X6.2142Y-5.5657
X6.2142Y-6.0263
X6.2142Y-6.487
X6.2142Y-6.9476
X6.2142Y-7.4082
X6.2418Y-0.8926
X6.2418Y-1.0262
X6.2418Y-1.3532
X6.2418Y-1.4869
X6.2418Y-1.8139
X6.2418Y-1.9475
X6.2418Y-2.2745
X6.2418Y-2.4081
X6.2418Y-2.7351
X6.2418Y-2.8687
X6.2418Y-3.1957
X6.2418Y-3.3294
X6.2418Y-3.6564
X6.2418Y-3.79
X6.2418Y-4.117
X6.2418Y-4.2506
X6.2418Y-4.5776
X6.2418Y-4.7113
X6.2418Y-5.0383
X6.2418Y-5.1719
X6.2418Y-5.4989
X6.2418Y-5.6325
X6.2418Y-5.9595
X6.2418Y-6.0932
X6.2418Y-6.4202
X6.2418Y-6.5538
X6.2418Y-6.8808
X6.2418Y-7.0144
X6.2418Y-7.3414
X6.2418Y-7.475
X6.3087Y-0.8649
X6.3087Y-1.0539
X6.3087Y-1.3256
X6.3087Y-1.5145
X6.3087Y-1.7862
X6.3087Y-1.9752
X6.3087Y-2.2468
X6.3087Y-2.4358
X6.3087Y-2.7074
X6.3087Y-2.8964
X6.3087Y-3.1681
X6.3087Y-3.357
X6.3087Y-3.6287
X6.3087Y-3.8177
X6.3087Y-4.0893
X6.3087Y-4.2783
X6.3087Y-4.55
X6.3087Y-4.7389
X6.3087Y-5.0106
X6.3087Y-5.1996
X6.3087Y-5.4712
X6.3087Y-5.6602
X6.3087Y-5.9319
X6.3087Y-6.1208
X6.3087Y-6.3925
X6.3087Y-6.5815
X6.3087Y-6.8531
X6.3087Y-7.0421
X6.3087Y-7.3137
X6.3087Y-7.5027
X6.3755Y-0.8926
X6.3755Y-1.0262
X6.3755Y-1.3532
X6.3755Y-1.4869
X6.3755Y-1.8139
X6.3755Y-1.9475
X6.3755Y-2.2745
X6.3755Y-2.4081
X6.3755Y-2.7351
X6.3755Y-2.8687
X6.3755Y-3.1957
X6.3755Y-3.3294
X6.3755Y-3.6564
X6.3755Y-3.79
X6.3755Y-4.117
X6.3755Y-4.2506
X6.3755Y-4.5776
X6.3755Y-4.7113
X6.3755Y-5.0383
X6.3755Y-5.1719
X6.3755Y-5.4989
X6.3755Y-5.6325
X6.3755Y-5.9595
X6.3755Y-6.0932
X6.3755Y-6.4202
X6.3755Y-6.5538
X6.3755Y-6.8808
X6.3755Y-7.0144
X6.3755Y-7.3414
X6.3755Y-7.475
X6.4031Y-0.9594
X6.4031Y-1.42
X6.4031Y-1.8807
X6.4031Y-2.3413
X6.4031Y-2.8019
X6.4031Y-3.2626
X6.4031Y-3.7232
X6.4031Y-4.1838
X6.4031Y-4.6444
X6.4031Y-5.1051
X6.4031Y-5.5657
X6.4031Y-6.0263
X6.4031Y-6.487
X6.4031Y-6.9476
X6.4031Y-7.4082
T4
X1.1354Y-0.9594
X1.1354Y-1.42
X1.1354Y-1.8807
X1.1354Y-2.3413
X1.1354Y-2.8019
X1.1354Y-3.2626
X1.1354Y-3.7232
X1.1354Y-4.1838
X1.1354Y-4.6444
X1.1354Y-5.1051
X1.1354Y-5.5657
X1.1354Y-6.0263
X1.1354Y-6.487
X1.1354Y-6.9476
X1.1354Y-7.4082
X2.5528Y-0.9594
X2.5528Y-1.42
X2.5528Y-1.8807
X2.5528Y-2.3413
X2.5528Y-2.8019
X2.5528Y-3.2626
X2.5528Y-3.7232
X2.5528Y-4.1838
X2.5528Y-4.6444
X2.5528Y-5.1051
X2.5528Y-5.5657
X2.5528Y-6.0263
X2.5528Y-6.487
X2.5528Y-6.9476
X2.5528Y-7.4082
X3.0134Y-0.9594
X3.0134Y-1.42
X3.0134Y-1.8807
X3.0134Y-2.3413
X3.0134Y-2.8019
X3.0134Y-3.2626
X3.0134Y-3.7232
X3.0134Y-4.1838
X3.0134Y-4.6444
X3.0134Y-5.1051
X3.0134Y-5.5657
X3.0134Y-6.0263
X3.0134Y-6.487
X3.0134Y-6.9476
X3.0134Y-7.4082
X4.4307Y-0.9594
X4.4307Y-1.42
X4.4307Y-1.8807
X4.4307Y-2.3413
X4.4307Y-2.8019
X4.4307Y-3.2626
X4.4307Y-3.7232
X4.4307Y-4.1838
X4.4307Y-4.6444
X4.4307Y-5.1051
X4.4307Y-5.5657
X4.4307Y-6.0263
X4.4307Y-6.487
X4.4307Y-6.9476
X4.4307Y-7.4082
X4.8913Y-0.9594
X4.8913Y-1.42
X4.8913Y-1.8807
X4.8913Y-2.3413
X4.8913Y-2.8019
X4.8913Y-3.2626
X4.8913Y-3.7232
X4.8913Y-4.1838
X4.8913Y-4.6444
X4.8913Y-5.1051
X4.8913Y-5.5657
X4.8913Y-6.0263
X4.8913Y-6.487
X4.8913Y-6.9476
X4.8913Y-7.4082
X6.3087Y-0.9594
X6.3087Y-1.42
X6.3087Y-1.8807
X6.3087Y-2.3413
X6.3087Y-2.8019
X6.3087Y-3.2626
X6.3087Y-3.7232
X6.3087Y-4.1838
X6.3087Y-4.6444
X6.3087Y-5.1051
X6.3087Y-5.5657
X6.3087Y-6.0263
X6.3087Y-6.487
X6.3087Y-6.9476
X6.3087Y-7.4082
T3
G00X1.6731Y-0.8517
M15
G01X1.6731Y-0.828
M16
G05
G00X1.6731Y-1.0261
M15
G01X1.6731Y-0.9828
M16
G05
G00X1.6731Y-1.3123
M15
G01X1.6731Y-1.2887
M16
G05
G00X1.6731Y-1.4867
M15
G01X1.6731Y-1.4434
M16
G05
G00X1.6731Y-1.7729
M15
G01X1.6731Y-1.7493
M16
G05
G00X1.6731Y-1.9473
M15
G01X1.6731Y-1.904
M16
G05
G00X1.6731Y-2.2335
M15
G01X1.6731Y-2.2099
M16
G05
G00X1.6731Y-2.408
M15
G01X1.6731Y-2.3646
M16
G05
G00X1.6731Y-2.6942
M15
G01X1.6731Y-2.6706
M16
G05
G00X1.6731Y-2.8686
M15
G01X1.6731Y-2.8253
M16
G05
G00X1.6731Y-3.1548
M15
G01X1.6731Y-3.1312
M16
G05
G00X1.6731Y-3.3292
M15
G01X1.6731Y-3.2859
M16
G05
G00X1.6731Y-3.6154
M15
G01X1.6731Y-3.5918
M16
G05
G00X1.6731Y-3.7898
M15
G01X1.6731Y-3.7465
M16
G05
G00X1.6731Y-4.0761
M15
G01X1.6731Y-4.0524
M16
G05
G00X1.6731Y-4.2505
M15
G01X1.6731Y-4.2072
M16
G05
G00X1.6731Y-4.5367
M15
G01X1.6731Y-4.5131
M16
G05
G00X1.6731Y-4.7111
M15
G01X1.6731Y-4.6678
M16
G05
G00X1.6731Y-4.9973
M15
G01X1.6731Y-4.9737
M16
G05
G00X1.6731Y-5.1717
M15
G01X1.6731Y-5.1284
M16
G05
G00X1.6731Y-5.458
M15
G01X1.6731Y-5.4343
M16
G05
G00X1.6731Y-5.6324
M15
G01X1.6731Y-5.5891
M16
G05
G00X1.6731Y-5.9186
M15
G01X1.6731Y-5.895
M16
G05
G00X1.6731Y-6.093
M15
G01X1.6731Y-6.0497
M16
G05
G00X1.6731Y-6.3792
M15
G01X1.6731Y-6.3556
M16
G05
G00X1.6731Y-6.5536
M15
G01X1.6731Y-6.5103
M16
G05
G00X1.6731Y-6.8398
M15
G01X1.6731Y-6.8162
M16
G05
G00X1.6731Y-7.0143
M15
G01X1.6731Y-6.9709
M16
G05
G00X1.6731Y-7.3005
M15
G01X1.6731Y-7.2769
M16
G05
G00X1.6731Y-7.4749
M15
G01X1.6731Y-7.4316
M16
G05
G00X2.0133Y-0.8517
M15
G01X2.0133Y-0.828
M16
G05
G00X2.0133Y-1.0261
M15
G01X2.0133Y-0.9828
M16
G05
G00X2.0133Y-1.3123
M15
G01X2.0133Y-1.2887
M16
G05
G00X2.0133Y-1.4867
M15
G01X2.0133Y-1.4434
M16
G05
G00X2.0133Y-1.7729
M15
G01X2.0133Y-1.7493
M16
G05
G00X2.0133Y-1.9473
M15
G01X2.0133Y-1.904
M16
G05
G00X2.0133Y-2.2335
M15
G01X2.0133Y-2.2099
M16
G05
G00X2.0133Y-2.408
M15
G01X2.0133Y-2.3646
M16
G05
G00X2.0133Y-2.6942
M15
G01X2.0133Y-2.6706
M16
G05
G00X2.0133Y-2.8686
M15
G01X2.0133Y-2.8253
M16
G05
G00X2.0133Y-3.1548
M15
G01X2.0133Y-3.1312
M16
G05
G00X2.0133Y-3.3292
M15
G01X2.0133Y-3.2859
M16
G05
G00X2.0133Y-3.6154
M15
G01X2.0133Y-3.5918
M16
G05
G00X2.0133Y-3.7898
M15
G01X2.0133Y-3.7465
M16
G05
G00X2.0133Y-4.0761
M15
G01X2.0133Y-4.0524
M16
G05
G00X2.0133Y-4.2505
M15
G01X2.0133Y-4.2072
M16
G05
G00X2.0133Y-4.5367
M15
G01X2.0133Y-4.5131
M16
G05
G00X2.0133Y-4.7111
M15
G01X2.0133Y-4.6678
M16
G05
G00X2.0133Y-4.9973
M15
G01X2.0133Y-4.9737
M16
G05
G00X2.0133Y-5.1717
M15
G01X2.0133Y-5.1284
M16
G05
G00X2.0133Y-5.458
M15
G01X2.0133Y-5.4343
M16
G05
G00X2.0133Y-5.6324
M15
G01X2.0133Y-5.5891
M16
G05
G00X2.0133Y-5.9186
M15
G01X2.0133Y-5.895
M16
G05
G00X2.0133Y-6.093
M15
G01X2.0133Y-6.0497
M16
G05
G00X2.0133Y-6.3792
M15
G01X2.0133Y-6.3556
M16
G05
G00X2.0133Y-6.5536
M15
G01X2.0133Y-6.5103
M16
G05
G00X2.0133Y-6.8398
M15
G01X2.0133Y-6.8162
M16
G05
G00X2.0133Y-7.0143
M15
G01X2.0133Y-6.9709
M16
G05
G00X2.0133Y-7.3005
M15
G01X2.0133Y-7.2769
M16
G05
G00X2.0133Y-7.4749
M15
G01X2.0133Y-7.4316
M16
G05
G00X3.5511Y-0.8517
M15
G01X3.5511Y-0.828
M16
G05
G00X3.5511Y-1.0261
M15
G01X3.5511Y-0.9828
M16
G05
G00X3.5511Y-1.3123
M15
G01X3.5511Y-1.2887
M16
G05
G00X3.5511Y-1.4867
M15
G01X3.5511Y-1.4434
M16
G05
G00X3.5511Y-1.7729
M15
G01X3.5511Y-1.7493
M16
G05
G00X3.5511Y-1.9473
M15
G01X3.5511Y-1.904
M16
G05
G00X3.5511Y-2.2335
M15
G01X3.5511Y-2.2099
M16
G05
G00X3.5511Y-2.408
M15
G01X3.5511Y-2.3646
M16
G05
G00X3.5511Y-2.6942
M15
G01X3.5511Y-2.6706
M16
G05
G00X3.5511Y-2.8686
M15
G01X3.5511Y-2.8253
M16
G05
G00X3.5511Y-3.1548
M15
G01X3.5511Y-3.1312
M16
G05
G00X3.5511Y-3.3292
M15
G01X3.5511Y-3.2859
M16
G05
G00X3.5511Y-3.6154
M15
G01X3.5511Y-3.5918
M16
G05
G00X3.5511Y-3.7898
M15
G01X3.5511Y-3.7465
M16
G05
G00X3.5511Y-4.0761
M15
G01X3.5511Y-4.0524
M16
G05
G00X3.5511Y-4.2505
M15
G01X3.5511Y-4.2072
M16
G05
G00X3.5511Y-4.5367
M15
G01X3.5511Y-4.5131
M16
G05
G00X3.5511Y-4.7111
M15
G01X3.5511Y-4.6678
M16
G05
G00X3.5511Y-4.9973
M15
G01X3.5511Y-4.9737
M16
G05
G00X3.5511Y-5.1717
M15
G01X3.5511Y-5.1284
M16
G05
G00X3.5511Y-5.458
M15
G01X3.5511Y-5.4343
M16
G05
G00X3.5511Y-5.6324
M15
G01X3.5511Y-5.5891
M16
G05
G00X3.5511Y-5.9186
M15
G01X3.5511Y-5.895
M16
G05
G00X3.5511Y-6.093
M15
G01X3.5511Y-6.0497
M16
G05
G00X3.5511Y-6.3792
M15
G01X3.5511Y-6.3556
M16
G05
G00X3.5511Y-6.5536
M15
G01X3.5511Y-6.5103
M16
G05
G00X3.5511Y-6.8398
M15
G01X3.5511Y-6.8162
M16
G05
G00X3.5511Y-7.0143
M15
G01X3.5511Y-6.9709
M16
G05
G00X3.5511Y-7.3005
M15
G01X3.5511Y-7.2769
M16
G05
G00X3.5511Y-7.4749
M15
G01X3.5511Y-7.4316
M16
G05
G00X3.8912Y-0.8517
M15
G01X3.8912Y-0.828
M16
G05
G00X3.8912Y-1.0261
M15
G01X3.8912Y-0.9828
M16
G05
G00X3.8912Y-1.3123
M15
G01X3.8912Y-1.2887
M16
G05
G00X3.8912Y-1.4867
M15
G01X3.8912Y-1.4434
M16
G05
G00X3.8912Y-1.7729
M15
G01X3.8912Y-1.7493
M16
G05
G00X3.8912Y-1.9473
M15
G01X3.8912Y-1.904
M16
G05
G00X3.8912Y-2.2335
M15
G01X3.8912Y-2.2099
M16
G05
G00X3.8912Y-2.408
M15
G01X3.8912Y-2.3646
M16
G05
G00X3.8912Y-2.6942
M15
G01X3.8912Y-2.6706
M16
G05
G00X3.8912Y-2.8686
M15
G01X3.8912Y-2.8253
M16
G05
G00X3.8912Y-3.1548
M15
G01X3.8912Y-3.1312
M16
G05
G00X3.8912Y-3.3292
M15
G01X3.8912Y-3.2859
M16
G05
G00X3.8912Y-3.6154
M15
G01X3.8912Y-3.5918
M16
G05
G00X3.8912Y-3.7898
M15
G01X3.8912Y-3.7465
M16
G05
G00X3.8912Y-4.0761
M15
G01X3.8912Y-4.0524
M16
G05
G00X3.8912Y-4.2505
M15
G01X3.8912Y-4.2072
M16
G05
G00X3.8912Y-4.5367
M15
G01X3.8912Y-4.5131
M16
G05
G00X3.8912Y-4.7111
M15
G01X3.8912Y-4.6678
M16
G05
G00X3.8912Y-4.9973
M15
G01X3.8912Y-4.9737
M16
G05
G00X3.8912Y-5.1717
M15
G01X3.8912Y-5.1284
M16
G05
G00X3.8912Y-5.458
M15
G01X3.8912Y-5.4343
M16
G05
G00X3.8912Y-5.6324
M15
G01X3.8912Y-5.5891
M16
G05
G00X3.8912Y-5.9186
M15
G01X3.8912Y-5.895
M16
G05
G00X3.8912Y-6.093
M15
G01X3.8912Y-6.0497
M16
G05
G00X3.8912Y-6.3792
M15
G01X3.8912Y-6.3556
M16
G05
G00X3.8912Y-6.5536
M15
G01X3.8912Y-6.5103
M16
G05
G00X3.8912Y-6.8398
M15
G01X3.8912Y-6.8162
M16
G05
G00X3.8912Y-7.0143
M15
G01X3.8912Y-6.9709
M16
G05
G00X3.8912Y-7.3005
M15
G01X3.8912Y-7.2769
M16
G05
G00X3.8912Y-7.4749
M15
G01X3.8912Y-7.4316
M16
G05
G00X5.429Y-0.8517
M15
G01X5.429Y-0.828
M16
G05
G00X5.429Y-1.0261
M15
G01X5.429Y-0.9828
M16
G05
G00X5.429Y-1.3123
M15
G01X5.429Y-1.2887
M16
G05
G00X5.429Y-1.4867
M15
G01X5.429Y-1.4434
M16
G05
G00X5.429Y-1.7729
M15
G01X5.429Y-1.7493
M16
G05
G00X5.429Y-1.9473
M15
G01X5.429Y-1.904
M16
G05
G00X5.429Y-2.2335
M15
G01X5.429Y-2.2099
M16
G05
G00X5.429Y-2.408
M15
G01X5.429Y-2.3646
M16
G05
G00X5.429Y-2.6942
M15
G01X5.429Y-2.6706
M16
G05
G00X5.429Y-2.8686
M15
G01X5.429Y-2.8253
M16
G05
G00X5.429Y-3.1548
M15
G01X5.429Y-3.1312
M16
G05
G00X5.429Y-3.3292
M15
G01X5.429Y-3.2859
M16
G05
G00X5.429Y-3.6154
M15
G01X5.429Y-3.5918
M16
G05
G00X5.429Y-3.7898
M15
G01X5.429Y-3.7465
M16
G05
G00X5.429Y-4.0761
M15
G01X5.429Y-4.0524
M16
G05
G00X5.429Y-4.2505
M15
G01X5.429Y-4.2072
M16
G05
G00X5.429Y-4.5367
M15
G01X5.429Y-4.5131
M16
G05
G00X5.429Y-4.7111
M15
G01X5.429Y-4.6678
M16
G05
G00X5.429Y-4.9973
M15
G01X5.429Y-4.9737
M16
G05
G00X5.429Y-5.1717
M15
G01X5.429Y-5.1284
M16
G05
G00X5.429Y-5.458
M15
G01X5.429Y-5.4343
M16
G05
G00X5.429Y-5.6324
M15
G01X5.429Y-5.5891
M16
G05
G00X5.429Y-5.9186
M15
G01X5.429Y-5.895
M16
G05
G00X5.429Y-6.093
M15
G01X5.429Y-6.0497
M16
G05
G00X5.429Y-6.3792
M15
G01X5.429Y-6.3556
M16
G05
G00X5.429Y-6.5536
M15
G01X5.429Y-6.5103
M16
G05
G00X5.429Y-6.8398
M15
G01X5.429Y-6.8162
M16
G05
G00X5.429Y-7.0143
M15
G01X5.429Y-6.9709
M16
G05
G00X5.429Y-7.3005
M15
G01X5.429Y-7.2769
M16
G05
G00X5.429Y-7.4749
M15
G01X5.429Y-7.4316
M16
G05
G00X5.7692Y-0.8517
M15
G01X5.7692Y-0.828
M16
G05
G00X5.7692Y-1.0261
M15
G01X5.7692Y-0.9828
M16
G05
G00X5.7692Y-1.3123
M15
G01X5.7692Y-1.2887
M16
G05
G00X5.7692Y-1.4867
M15
G01X5.7692Y-1.4434
M16
G05
G00X5.7692Y-1.7729
M15
G01X5.7692Y-1.7493
M16
G05
G00X5.7692Y-1.9473
M15
G01X5.7692Y-1.904
M16
G05
G00X5.7692Y-2.2335
M15
G01X5.7692Y-2.2099
M16
G05
G00X5.7692Y-2.408
M15
G01X5.7692Y-2.3646
M16
G05
G00X5.7692Y-2.6942
M15
G01X5.7692Y-2.6706
M16
G05
G00X5.7692Y-2.8686
M15
G01X5.7692Y-2.8253
M16
G05
G00X5.7692Y-3.1548
M15
G01X5.7692Y-3.1312
M16
G05
G00X5.7692Y-3.3292
M15
G01X5.7692Y-3.2859
M16
G05
G00X5.7692Y-3.6154
M15
G01X5.7692Y-3.5918
M16
G05
G00X5.7692Y-3.7898
M15
G01X5.7692Y-3.7465
M16
G05
G00X5.7692Y-4.0761
M15
G01X5.7692Y-4.0524
M16
G05
G00X5.7692Y-4.2505
M15
G01X5.7692Y-4.2072
M16
G05
G00X5.7692Y-4.5367
M15
G01X5.7692Y-4.5131
M16
G05
G00X5.7692Y-4.7111
M15
G01X5.7692Y-4.6678
M16
G05
G00X5.7692Y-4.9973
M15
G01X5.7692Y-4.9737
M16
G05
G00X5.7692Y-5.1717
M15
G01X5.7692Y-5.1284
M16
G05
G00X5.7692Y-5.458
M15
G01X5.7692Y-5.4343
M16
G05
G00X5.7692Y-5.6324
M15
G01X5.7692Y-5.5891
M16
G05
G00X5.7692Y-5.9186
M15
G01X5.7692Y-5.895
M16
G05
G00X5.7692Y-6.093
M15
G01X5.7692Y-6.0497
M16
G05
G00X5.7692Y-6.3792
M15
G01X5.7692Y-6.3556
M16
G05
G00X5.7692Y-6.5536
M15
G01X5.7692Y-6.5103
M16
G05
G00X5.7692Y-6.8398
M15
G01X5.7692Y-6.8162
M16
G05
G00X5.7692Y-7.0143
M15
G01X5.7692Y-6.9709
M16
G05
G00X5.7692Y-7.3005
M15
G01X5.7692Y-7.2769
M16
G05
G00X5.7692Y-7.4749
M15
G01X5.7692Y-7.4316
M16
G05
T0
M30
