M48
; DRILL file {KiCad (6.0.0)} date Sun Aug 14 01:13:06 2022
; FORMAT={-:-/ absolute / inch / decimal}
; #@! TF.CreationDate,2022-08-14T01:13:06-04:00
; #@! TF.GenerationSoftware,Kicad,Pcbnew,(6.0.0)
; #@! TF.FileFunction,NonPlated,1,2,NPTH
FMAT,2
INCH
; #@! TA.AperFunction,NonPlated,NPTH,ComponentDrill
T1C0.0197
; #@! TA.AperFunction,NonPlated,NPTH,ComponentDrill
T2C0.0256
%
G90
G05
T1
X0.9654Y-5.1251
X0.9654Y-5.5858
X0.9654Y-6.0464
X0.9654Y-6.507
X0.9654Y-6.9677
X0.9654Y-7.4283
X0.9654Y-1.9007
X0.9654Y-2.3614
X0.9654Y-2.822
X0.9654Y-3.2826
X0.9654Y-3.7432
X0.9654Y-4.2039
X0.9654Y-4.6645
X0.9654Y-0.9394
X0.9654Y-0.9795
X0.9654Y-1.4
X0.9654Y-1.4401
X0.9654Y-1.8606
X0.9654Y-2.3212
X0.9654Y-2.7819
X0.9654Y-3.2425
X0.9654Y-3.7031
X0.9654Y-4.1638
X0.9654Y-4.6244
X0.9654Y-5.085
X0.9654Y-5.5457
X0.9654Y-6.0063
X0.9654Y-6.4669
X0.9654Y-6.9275
X0.9654Y-7.3882
X0.9748Y-7.4673
X0.9748Y-6.546
X0.9748Y-7.0067
X0.9748Y-5.6248
X0.9748Y-6.0854
X0.9748Y-4.7035
X0.9748Y-5.1641
X0.9748Y-3.7822
X0.9748Y-4.2429
X0.9748Y-3.3216
X0.9748Y-2.4004
X0.9748Y-2.861
X0.9748Y-0.9004
X0.9748Y-1.4791
X0.9748Y-1.9397
X0.9748Y-1.0185
X0.9748Y-1.361
X0.9748Y-1.8216
X0.9748Y-2.2822
X0.9748Y-2.7429
X0.9748Y-3.2035
X0.9748Y-3.6641
X0.9748Y-4.1248
X0.9748Y-4.5854
X0.9748Y-5.046
X0.9748Y-5.5067
X0.9748Y-5.9673
X0.9748Y-6.4279
X0.9748Y-6.8885
X0.9748Y-7.3492
X2.7134Y-7.3492
X2.7134Y-6.4279
X2.7134Y-6.8885
X2.7134Y-5.5067
X2.7134Y-5.9673
X2.7134Y-4.5854
X2.7134Y-5.046
X2.7134Y-3.6641
X2.7134Y-4.1248
X2.7134Y-2.7429
X2.7134Y-3.2035
X2.7134Y-2.2822
X2.7134Y-1.0185
X2.7134Y-1.361
X2.7134Y-1.8216
X2.7134Y-0.9004
X2.7134Y-1.4791
X2.7134Y-1.9397
X2.7134Y-2.4004
X2.7134Y-2.861
X2.7134Y-3.3216
X2.7134Y-3.7822
X2.7134Y-4.2429
X2.7134Y-4.7035
X2.7134Y-5.1641
X2.7134Y-5.6248
X2.7134Y-6.0854
X2.7134Y-6.546
X2.7134Y-7.0067
X2.7134Y-7.4673
X2.7228Y-6.4669
X2.7228Y-6.9275
X2.7228Y-7.3882
X2.7228Y-3.7031
X2.7228Y-4.1638
X2.7228Y-4.6244
X2.7228Y-5.085
X2.7228Y-5.5457
X2.7228Y-6.0063
X2.7228Y-0.9394
X2.7228Y-0.9795
X2.7228Y-1.4
X2.7228Y-1.4401
X2.7228Y-1.8606
X2.7228Y-2.3212
X2.7228Y-2.7819
X2.7228Y-3.2425
X2.7228Y-1.9007
X2.7228Y-2.3614
X2.7228Y-2.822
X2.7228Y-3.2826
X2.7228Y-3.7432
X2.7228Y-4.2039
X2.7228Y-4.6645
X2.7228Y-5.1251
X2.7228Y-5.5858
X2.7228Y-6.0464
X2.7228Y-6.507
X2.7228Y-6.9677
X2.7228Y-7.4283
X2.8434Y-5.1251
X2.8434Y-5.5858
X2.8434Y-6.0464
X2.8434Y-6.507
X2.8434Y-6.9677
X2.8434Y-7.4283
X2.8434Y-1.9007
X2.8434Y-2.3614
X2.8434Y-2.822
X2.8434Y-3.2826
X2.8434Y-3.7432
X2.8434Y-4.2039
X2.8434Y-4.6645
X2.8434Y-0.9394
X2.8434Y-0.9795
X2.8434Y-1.4
X2.8434Y-1.4401
X2.8434Y-1.8606
X2.8434Y-2.3212
X2.8434Y-2.7819
X2.8434Y-3.2425
X2.8434Y-3.7031
X2.8434Y-4.1638
X2.8434Y-4.6244
X2.8434Y-5.085
X2.8434Y-5.5457
X2.8434Y-6.0063
X2.8434Y-6.4669
X2.8434Y-6.9275
X2.8434Y-7.3882
X2.8527Y-7.4673
X2.8527Y-6.546
X2.8527Y-7.0067
X2.8527Y-5.6248
X2.8527Y-6.0854
X2.8527Y-4.7035
X2.8527Y-5.1641
X2.8527Y-3.7822
X2.8527Y-4.2429
X2.8527Y-3.3216
X2.8527Y-2.4004
X2.8527Y-2.861
X2.8527Y-0.9004
X2.8527Y-1.4791
X2.8527Y-1.9397
X2.8527Y-1.0185
X2.8527Y-1.361
X2.8527Y-1.8216
X2.8527Y-2.2822
X2.8527Y-2.7429
X2.8527Y-3.2035
X2.8527Y-3.6641
X2.8527Y-4.1248
X2.8527Y-4.5854
X2.8527Y-5.046
X2.8527Y-5.5067
X2.8527Y-5.9673
X2.8527Y-6.4279
X2.8527Y-6.8885
X2.8527Y-7.3492
X4.5914Y-7.3492
X4.5914Y-6.4279
X4.5914Y-6.8885
X4.5914Y-5.5067
X4.5914Y-5.9673
X4.5914Y-4.5854
X4.5914Y-5.046
X4.5914Y-3.6641
X4.5914Y-4.1248
X4.5914Y-2.7429
X4.5914Y-3.2035
X4.5914Y-2.2822
X4.5914Y-1.0185
X4.5914Y-1.361
X4.5914Y-1.8216
X4.5914Y-0.9004
X4.5914Y-1.4791
X4.5914Y-1.9397
X4.5914Y-2.4004
X4.5914Y-2.861
X4.5914Y-3.3216
X4.5914Y-3.7822
X4.5914Y-4.2429
X4.5914Y-4.7035
X4.5914Y-5.1641
X4.5914Y-5.6248
X4.5914Y-6.0854
X4.5914Y-6.546
X4.5914Y-7.0067
X4.5914Y-7.4673
X4.6007Y-6.4669
X4.6007Y-6.9275
X4.6007Y-7.3882
X4.6007Y-3.7031
X4.6007Y-4.1638
X4.6007Y-4.6244
X4.6007Y-5.085
X4.6007Y-5.5457
X4.6007Y-6.0063
X4.6007Y-0.9394
X4.6007Y-0.9795
X4.6007Y-1.4
X4.6007Y-1.4401
X4.6007Y-1.8606
X4.6007Y-2.3212
X4.6007Y-2.7819
X4.6007Y-3.2425
X4.6007Y-1.9007
X4.6007Y-2.3614
X4.6007Y-2.822
X4.6007Y-3.2826
X4.6007Y-3.7432
X4.6007Y-4.2039
X4.6007Y-4.6645
X4.6007Y-5.1251
X4.6007Y-5.5858
X4.6007Y-6.0464
X4.6007Y-6.507
X4.6007Y-6.9677
X4.6007Y-7.4283
X4.7213Y-5.1251
X4.7213Y-5.5858
X4.7213Y-6.0464
X4.7213Y-6.507
X4.7213Y-6.9677
X4.7213Y-7.4283
X4.7213Y-1.9007
X4.7213Y-2.3614
X4.7213Y-2.822
X4.7213Y-3.2826
X4.7213Y-3.7432
X4.7213Y-4.2039
X4.7213Y-4.6645
X4.7213Y-0.9394
X4.7213Y-0.9795
X4.7213Y-1.4
X4.7213Y-1.4401
X4.7213Y-1.8606
X4.7213Y-2.3212
X4.7213Y-2.7819
X4.7213Y-3.2425
X4.7213Y-3.7031
X4.7213Y-4.1638
X4.7213Y-4.6244
X4.7213Y-5.085
X4.7213Y-5.5457
X4.7213Y-6.0063
X4.7213Y-6.4669
X4.7213Y-6.9275
X4.7213Y-7.3882
X4.7307Y-7.4673
X4.7307Y-6.546
X4.7307Y-7.0067
X4.7307Y-5.6248
X4.7307Y-6.0854
X4.7307Y-4.7035
X4.7307Y-5.1641
X4.7307Y-3.7822
X4.7307Y-4.2429
X4.7307Y-3.3216
X4.7307Y-2.4004
X4.7307Y-2.861
X4.7307Y-0.9004
X4.7307Y-1.4791
X4.7307Y-1.9397
X4.7307Y-1.0185
X4.7307Y-1.361
X4.7307Y-1.8216
X4.7307Y-2.2822
X4.7307Y-2.7429
X4.7307Y-3.2035
X4.7307Y-3.6641
X4.7307Y-4.1248
X4.7307Y-4.5854
X4.7307Y-5.046
X4.7307Y-5.5067
X4.7307Y-5.9673
X4.7307Y-6.4279
X4.7307Y-6.8885
X4.7307Y-7.3492
X6.4693Y-7.3492
X6.4693Y-6.4279
X6.4693Y-6.8885
X6.4693Y-5.5067
X6.4693Y-5.9673
X6.4693Y-4.5854
X6.4693Y-5.046
X6.4693Y-3.6641
X6.4693Y-4.1248
X6.4693Y-2.7429
X6.4693Y-3.2035
X6.4693Y-2.2822
X6.4693Y-1.0185
X6.4693Y-1.361
X6.4693Y-1.8216
X6.4693Y-0.9004
X6.4693Y-1.4791
X6.4693Y-1.9397
X6.4693Y-2.4004
X6.4693Y-2.861
X6.4693Y-3.3216
X6.4693Y-3.7822
X6.4693Y-4.2429
X6.4693Y-4.7035
X6.4693Y-5.1641
X6.4693Y-5.6248
X6.4693Y-6.0854
X6.4693Y-6.546
X6.4693Y-7.0067
X6.4693Y-7.4673
X6.4787Y-6.4669
X6.4787Y-6.9275
X6.4787Y-7.3882
X6.4787Y-3.7031
X6.4787Y-4.1638
X6.4787Y-4.6244
X6.4787Y-5.085
X6.4787Y-5.5457
X6.4787Y-6.0063
X6.4787Y-0.9394
X6.4787Y-0.9795
X6.4787Y-1.4
X6.4787Y-1.4401
X6.4787Y-1.8606
X6.4787Y-2.3212
X6.4787Y-2.7819
X6.4787Y-3.2425
X6.4787Y-1.9007
X6.4787Y-2.3614
X6.4787Y-2.822
X6.4787Y-3.2826
X6.4787Y-3.7432
X6.4787Y-4.2039
X6.4787Y-4.6645
X6.4787Y-5.1251
X6.4787Y-5.5858
X6.4787Y-6.0464
X6.4787Y-6.507
X6.4787Y-6.9677
X6.4787Y-7.4283
T2
X1.7294Y-0.9835
X1.7294Y-1.4442
X1.7294Y-1.9048
X1.7294Y-2.3654
X1.7294Y-2.8261
X1.7294Y-3.2867
X1.7294Y-3.7473
X1.7294Y-4.208
X1.7294Y-4.6686
X1.7294Y-5.1292
X1.7294Y-5.5898
X1.7294Y-6.0505
X1.7294Y-6.5111
X1.7294Y-6.9717
X1.7294Y-7.4324
X1.957Y-0.9835
X1.957Y-1.4442
X1.957Y-1.9048
X1.957Y-2.3654
X1.957Y-2.8261
X1.957Y-3.2867
X1.957Y-3.7473
X1.957Y-4.208
X1.957Y-4.6686
X1.957Y-5.1292
X1.957Y-5.5898
X1.957Y-6.0505
X1.957Y-6.5111
X1.957Y-6.9717
X1.957Y-7.4324
X3.6074Y-0.9835
X3.6074Y-1.4442
X3.6074Y-1.9048
X3.6074Y-2.3654
X3.6074Y-2.8261
X3.6074Y-3.2867
X3.6074Y-3.7473
X3.6074Y-4.208
X3.6074Y-4.6686
X3.6074Y-5.1292
X3.6074Y-5.5898
X3.6074Y-6.0505
X3.6074Y-6.5111
X3.6074Y-6.9717
X3.6074Y-7.4324
X3.8349Y-0.9835
X3.8349Y-1.4442
X3.8349Y-1.9048
X3.8349Y-2.3654
X3.8349Y-2.8261
X3.8349Y-3.2867
X3.8349Y-3.7473
X3.8349Y-4.208
X3.8349Y-4.6686
X3.8349Y-5.1292
X3.8349Y-5.5898
X3.8349Y-6.0505
X3.8349Y-6.5111
X3.8349Y-6.9717
X3.8349Y-7.4324
X5.4853Y-0.9835
X5.4853Y-1.4442
X5.4853Y-1.9048
X5.4853Y-2.3654
X5.4853Y-2.8261
X5.4853Y-3.2867
X5.4853Y-3.7473
X5.4853Y-4.208
X5.4853Y-4.6686
X5.4853Y-5.1292
X5.4853Y-5.5898
X5.4853Y-6.0505
X5.4853Y-6.5111
X5.4853Y-6.9717
X5.4853Y-7.4324
X5.7129Y-0.9835
X5.7129Y-1.4442
X5.7129Y-1.9048
X5.7129Y-2.3654
X5.7129Y-2.8261
X5.7129Y-3.2867
X5.7129Y-3.7473
X5.7129Y-4.208
X5.7129Y-4.6686
X5.7129Y-5.1292
X5.7129Y-5.5898
X5.7129Y-6.0505
X5.7129Y-6.5111
X5.7129Y-6.9717
X5.7129Y-7.4324
T0
M30
