%TF.GenerationSoftware,KiCad,Pcbnew,(6.0.0)*%
%TF.CreationDate,2022-02-04T14:46:28-05:00*%
%TF.ProjectId,Panel v2,50616e65-6c20-4763-922e-6b696361645f,rev?*%
%TF.SameCoordinates,Original*%
%TF.FileFunction,Paste,Top*%
%TF.FilePolarity,Positive*%
%FSLAX46Y46*%
G04 Gerber Fmt 4.6, Leading zero omitted, Abs format (unit mm)*
G04 Created by KiCad (PCBNEW (6.0.0)) date 2022-02-04 14:46:28*
%MOMM*%
%LPD*%
G01*
G04 APERTURE LIST*
G04 Aperture macros list*
%AMRoundRect*
0 Rectangle with rounded corners*
0 $1 Rounding radius*
0 $2 $3 $4 $5 $6 $7 $8 $9 X,Y pos of 4 corners*
0 Add a 4 corners polygon primitive as box body*
4,1,4,$2,$3,$4,$5,$6,$7,$8,$9,$2,$3,0*
0 Add four circle primitives for the rounded corners*
1,1,$1+$1,$2,$3*
1,1,$1+$1,$4,$5*
1,1,$1+$1,$6,$7*
1,1,$1+$1,$8,$9*
0 Add four rect primitives between the rounded corners*
20,1,$1+$1,$2,$3,$4,$5,0*
20,1,$1+$1,$4,$5,$6,$7,0*
20,1,$1+$1,$6,$7,$8,$9,0*
20,1,$1+$1,$8,$9,$2,$3,0*%
G04 Aperture macros list end*
%ADD10R,1.200000X1.800000*%
%ADD11R,0.600000X1.550000*%
%ADD12RoundRect,0.249999X0.450001X-0.262501X0.450001X0.262501X-0.450001X0.262501X-0.450001X-0.262501X0*%
%ADD13RoundRect,0.200000X-0.275000X0.200000X-0.275000X-0.200000X0.275000X-0.200000X0.275000X0.200000X0*%
%ADD14RoundRect,0.225000X0.250000X-0.225000X0.250000X0.225000X-0.250000X0.225000X-0.250000X-0.225000X0*%
%ADD15R,0.600000X1.450000*%
%ADD16R,0.300000X1.450000*%
%ADD17RoundRect,0.250000X-0.375000X-0.625000X0.375000X-0.625000X0.375000X0.625000X-0.375000X0.625000X0*%
G04 APERTURE END LIST*
D10*
%TO.C,J12*%
X90800002Y-98250011D03*
X85200002Y-98250011D03*
D11*
X89500002Y-94375011D03*
X88500002Y-94375011D03*
X87500002Y-94375011D03*
X86500002Y-94375011D03*
%TD*%
D12*
%TO.C,R13*%
X60694999Y-84777508D03*
X60694999Y-86602508D03*
%TD*%
D10*
%TO.C,J8*%
X90800002Y-63150002D03*
X85200002Y-63150002D03*
D11*
X89500002Y-59275002D03*
X88500002Y-59275002D03*
X87500002Y-59275002D03*
X86500002Y-59275002D03*
%TD*%
D13*
%TO.C,R21*%
X105165002Y-75155005D03*
X105165002Y-73505005D03*
%TD*%
D14*
%TO.C,C13*%
X62434999Y-119825017D03*
X62434999Y-121375017D03*
%TD*%
D10*
%TO.C,J9*%
X43099999Y-109950014D03*
X37499999Y-109950014D03*
D11*
X41799999Y-106075014D03*
X40799999Y-106075014D03*
X39799999Y-106075014D03*
X38799999Y-106075014D03*
%TD*%
D13*
%TO.C,R3*%
X57464999Y-63455002D03*
X57464999Y-61805002D03*
%TD*%
D12*
%TO.C,R9*%
X108395002Y-49677499D03*
X108395002Y-51502499D03*
%TD*%
D15*
%TO.C,U14*%
X94475002Y-122245017D03*
X95250002Y-122245017D03*
D16*
X95950002Y-122245017D03*
X96450002Y-122245017D03*
X96950002Y-122245017D03*
X97450002Y-122245017D03*
X97950002Y-122245017D03*
X98450002Y-122245017D03*
X98950002Y-122245017D03*
X99450002Y-122245017D03*
D15*
X100150002Y-122245017D03*
X100925002Y-122245017D03*
%TD*%
D17*
%TO.C,F5*%
X62974999Y-70925005D03*
X60174999Y-70925005D03*
%TD*%
D14*
%TO.C,C5*%
X62434999Y-84725008D03*
X62434999Y-86275008D03*
%TD*%
D13*
%TO.C,R17*%
X57464999Y-75155005D03*
X57464999Y-73505005D03*
%TD*%
D12*
%TO.C,R12*%
X108395002Y-61377502D03*
X108395002Y-63202502D03*
%TD*%
D13*
%TO.C,R30*%
X58954999Y-98010011D03*
X58954999Y-96360011D03*
%TD*%
%TO.C,R32*%
X106655002Y-109710014D03*
X106655002Y-108060014D03*
%TD*%
D12*
%TO.C,R23*%
X108395002Y-73077505D03*
X108395002Y-74902505D03*
%TD*%
D17*
%TO.C,F12*%
X110675002Y-106025014D03*
X107875002Y-106025014D03*
%TD*%
%TO.C,F1*%
X62974999Y-59225002D03*
X60174999Y-59225002D03*
%TD*%
D13*
%TO.C,R28*%
X58954999Y-109710014D03*
X58954999Y-108060014D03*
%TD*%
D17*
%TO.C,F11*%
X110675002Y-94325011D03*
X107875002Y-94325011D03*
%TD*%
D14*
%TO.C,C6*%
X62434999Y-73025005D03*
X62434999Y-74575005D03*
%TD*%
D13*
%TO.C,R31*%
X105165002Y-110255014D03*
X105165002Y-108605014D03*
%TD*%
D12*
%TO.C,R15*%
X60694999Y-73077505D03*
X60694999Y-74902505D03*
%TD*%
D15*
%TO.C,U4*%
X94475002Y-63745002D03*
X95250002Y-63745002D03*
D16*
X95950002Y-63745002D03*
X96450002Y-63745002D03*
X96950002Y-63745002D03*
X97450002Y-63745002D03*
X97950002Y-63745002D03*
X98450002Y-63745002D03*
X98950002Y-63745002D03*
X99450002Y-63745002D03*
D15*
X100150002Y-63745002D03*
X100925002Y-63745002D03*
%TD*%
D12*
%TO.C,R4*%
X60694999Y-61377502D03*
X60694999Y-63202502D03*
%TD*%
D15*
%TO.C,U8*%
X94475002Y-87145008D03*
X95250002Y-87145008D03*
D16*
X95950002Y-87145008D03*
X96450002Y-87145008D03*
X96950002Y-87145008D03*
X97450002Y-87145008D03*
X97950002Y-87145008D03*
X98450002Y-87145008D03*
X98950002Y-87145008D03*
X99450002Y-87145008D03*
D15*
X100150002Y-87145008D03*
X100925002Y-87145008D03*
%TD*%
%TO.C,U2*%
X46774999Y-52044999D03*
X47549999Y-52044999D03*
D16*
X48249999Y-52044999D03*
X48749999Y-52044999D03*
X49249999Y-52044999D03*
X49749999Y-52044999D03*
X50249999Y-52044999D03*
X50749999Y-52044999D03*
X51249999Y-52044999D03*
X51749999Y-52044999D03*
D15*
X52449999Y-52044999D03*
X53224999Y-52044999D03*
%TD*%
D13*
%TO.C,R2*%
X58954999Y-62910002D03*
X58954999Y-61260002D03*
%TD*%
D12*
%TO.C,R36*%
X108395002Y-96477511D03*
X108395002Y-98302511D03*
%TD*%
D17*
%TO.C,F14*%
X110675002Y-117725017D03*
X107875002Y-117725017D03*
%TD*%
%TO.C,F3*%
X110675002Y-47524999D03*
X107875002Y-47524999D03*
%TD*%
D13*
%TO.C,R7*%
X106655002Y-62910002D03*
X106655002Y-61260002D03*
%TD*%
%TO.C,R8*%
X105165002Y-51754999D03*
X105165002Y-50104999D03*
%TD*%
D15*
%TO.C,U6*%
X46774999Y-75445005D03*
X47549999Y-75445005D03*
D16*
X48249999Y-75445005D03*
X48749999Y-75445005D03*
X49249999Y-75445005D03*
X49749999Y-75445005D03*
X50249999Y-75445005D03*
X50749999Y-75445005D03*
X51249999Y-75445005D03*
X51749999Y-75445005D03*
D15*
X52449999Y-75445005D03*
X53224999Y-75445005D03*
%TD*%
D10*
%TO.C,J3*%
X37499999Y-86550008D03*
X43099999Y-86550008D03*
D11*
X41799999Y-82675008D03*
X40799999Y-82675008D03*
X39799999Y-82675008D03*
X38799999Y-82675008D03*
%TD*%
D13*
%TO.C,R5*%
X58954999Y-51209999D03*
X58954999Y-49559999D03*
%TD*%
D10*
%TO.C,J11*%
X90800002Y-109950014D03*
X85200002Y-109950014D03*
D11*
X89500002Y-106075014D03*
X88500002Y-106075014D03*
X87500002Y-106075014D03*
X86500002Y-106075014D03*
%TD*%
D13*
%TO.C,R24*%
X105165002Y-86855008D03*
X105165002Y-85205008D03*
%TD*%
%TO.C,R18*%
X57464999Y-86855008D03*
X57464999Y-85205008D03*
%TD*%
D10*
%TO.C,J5*%
X43099999Y-74850005D03*
X37499999Y-74850005D03*
D11*
X41799999Y-70975005D03*
X40799999Y-70975005D03*
X39799999Y-70975005D03*
X38799999Y-70975005D03*
%TD*%
D17*
%TO.C,F10*%
X62974999Y-106025014D03*
X60174999Y-106025014D03*
%TD*%
D13*
%TO.C,R27*%
X57464999Y-98555011D03*
X57464999Y-96905011D03*
%TD*%
D15*
%TO.C,U7*%
X94475002Y-75445005D03*
X95250002Y-75445005D03*
D16*
X95950002Y-75445005D03*
X96450002Y-75445005D03*
X96950002Y-75445005D03*
X97450002Y-75445005D03*
X97950002Y-75445005D03*
X98450002Y-75445005D03*
X98950002Y-75445005D03*
X99450002Y-75445005D03*
D15*
X100150002Y-75445005D03*
X100925002Y-75445005D03*
%TD*%
D14*
%TO.C,C9*%
X62434999Y-96425011D03*
X62434999Y-97975011D03*
%TD*%
D10*
%TO.C,J13*%
X43099999Y-121650017D03*
X37499999Y-121650017D03*
D11*
X41799999Y-117775017D03*
X40799999Y-117775017D03*
X39799999Y-117775017D03*
X38799999Y-117775017D03*
%TD*%
D10*
%TO.C,J6*%
X90800002Y-86550008D03*
X85200002Y-86550008D03*
D11*
X89500002Y-82675008D03*
X88500002Y-82675008D03*
X87500002Y-82675008D03*
X86500002Y-82675008D03*
%TD*%
D12*
%TO.C,R35*%
X108395002Y-108177514D03*
X108395002Y-110002514D03*
%TD*%
D15*
%TO.C,U9*%
X46774999Y-98845011D03*
X47549999Y-98845011D03*
D16*
X48249999Y-98845011D03*
X48749999Y-98845011D03*
X49249999Y-98845011D03*
X49749999Y-98845011D03*
X50249999Y-98845011D03*
X50749999Y-98845011D03*
X51249999Y-98845011D03*
X51749999Y-98845011D03*
D15*
X52449999Y-98845011D03*
X53224999Y-98845011D03*
%TD*%
D14*
%TO.C,C14*%
X110135002Y-119825017D03*
X110135002Y-121375017D03*
%TD*%
%TO.C,C11*%
X110135002Y-96425011D03*
X110135002Y-97975011D03*
%TD*%
D17*
%TO.C,F8*%
X110675002Y-82625008D03*
X107875002Y-82625008D03*
%TD*%
D14*
%TO.C,C2*%
X62434999Y-61325002D03*
X62434999Y-62875002D03*
%TD*%
D15*
%TO.C,U13*%
X46774999Y-122245017D03*
X47549999Y-122245017D03*
D16*
X48249999Y-122245017D03*
X48749999Y-122245017D03*
X49249999Y-122245017D03*
X49749999Y-122245017D03*
X50249999Y-122245017D03*
X50749999Y-122245017D03*
X51249999Y-122245017D03*
X51749999Y-122245017D03*
D15*
X52449999Y-122245017D03*
X53224999Y-122245017D03*
%TD*%
D14*
%TO.C,C10*%
X62434999Y-108125014D03*
X62434999Y-109675014D03*
%TD*%
D17*
%TO.C,F6*%
X62974999Y-82625008D03*
X60174999Y-82625008D03*
%TD*%
D13*
%TO.C,R34*%
X106655002Y-98010011D03*
X106655002Y-96360011D03*
%TD*%
D14*
%TO.C,C3*%
X110135002Y-49624999D03*
X110135002Y-51174999D03*
%TD*%
D17*
%TO.C,F13*%
X62974999Y-117725017D03*
X60174999Y-117725017D03*
%TD*%
D12*
%TO.C,R25*%
X60694999Y-108177514D03*
X60694999Y-110002514D03*
%TD*%
D13*
%TO.C,R38*%
X57464999Y-121955017D03*
X57464999Y-120305017D03*
%TD*%
D14*
%TO.C,C8*%
X110135002Y-73025005D03*
X110135002Y-74575005D03*
%TD*%
D13*
%TO.C,R33*%
X105165002Y-98555011D03*
X105165002Y-96905011D03*
%TD*%
D10*
%TO.C,J2*%
X90800002Y-51449999D03*
X85200002Y-51449999D03*
D11*
X89500002Y-47574999D03*
X88500002Y-47574999D03*
X87500002Y-47574999D03*
X86500002Y-47574999D03*
%TD*%
D13*
%TO.C,R14*%
X58954999Y-86310008D03*
X58954999Y-84660008D03*
%TD*%
D15*
%TO.C,U11*%
X94475002Y-110545014D03*
X95250002Y-110545014D03*
D16*
X95950002Y-110545014D03*
X96450002Y-110545014D03*
X96950002Y-110545014D03*
X97450002Y-110545014D03*
X97950002Y-110545014D03*
X98450002Y-110545014D03*
X98950002Y-110545014D03*
X99450002Y-110545014D03*
D15*
X100150002Y-110545014D03*
X100925002Y-110545014D03*
%TD*%
%TO.C,U10*%
X46774999Y-110545014D03*
X47549999Y-110545014D03*
D16*
X48249999Y-110545014D03*
X48749999Y-110545014D03*
X49249999Y-110545014D03*
X49749999Y-110545014D03*
X50249999Y-110545014D03*
X50749999Y-110545014D03*
X51249999Y-110545014D03*
X51749999Y-110545014D03*
D15*
X52449999Y-110545014D03*
X53224999Y-110545014D03*
%TD*%
D13*
%TO.C,R41*%
X105165002Y-121955017D03*
X105165002Y-120305017D03*
%TD*%
D10*
%TO.C,J10*%
X43099999Y-98250011D03*
X37499999Y-98250011D03*
D11*
X41799999Y-94375011D03*
X40799999Y-94375011D03*
X39799999Y-94375011D03*
X38799999Y-94375011D03*
%TD*%
D14*
%TO.C,C12*%
X110135002Y-108125014D03*
X110135002Y-109675014D03*
%TD*%
%TO.C,C7*%
X110135002Y-84725008D03*
X110135002Y-86275008D03*
%TD*%
D15*
%TO.C,U12*%
X94475002Y-98845011D03*
X95250002Y-98845011D03*
D16*
X95950002Y-98845011D03*
X96450002Y-98845011D03*
X96950002Y-98845011D03*
X97450002Y-98845011D03*
X97950002Y-98845011D03*
X98450002Y-98845011D03*
X98950002Y-98845011D03*
X99450002Y-98845011D03*
D15*
X100150002Y-98845011D03*
X100925002Y-98845011D03*
%TD*%
D12*
%TO.C,R42*%
X108395002Y-119877517D03*
X108395002Y-121702517D03*
%TD*%
D13*
%TO.C,R19*%
X106655002Y-74610005D03*
X106655002Y-72960005D03*
%TD*%
D12*
%TO.C,R20*%
X108395002Y-84777508D03*
X108395002Y-86602508D03*
%TD*%
D17*
%TO.C,F2*%
X62974999Y-47524999D03*
X60174999Y-47524999D03*
%TD*%
%TO.C,F4*%
X110675002Y-59225002D03*
X107875002Y-59225002D03*
%TD*%
D15*
%TO.C,U5*%
X46774999Y-87145008D03*
X47549999Y-87145008D03*
D16*
X48249999Y-87145008D03*
X48749999Y-87145008D03*
X49249999Y-87145008D03*
X49749999Y-87145008D03*
X50249999Y-87145008D03*
X50749999Y-87145008D03*
X51249999Y-87145008D03*
X51749999Y-87145008D03*
D15*
X52449999Y-87145008D03*
X53224999Y-87145008D03*
%TD*%
D10*
%TO.C,J1*%
X37499999Y-51449999D03*
X43099999Y-51449999D03*
D11*
X41799999Y-47574999D03*
X40799999Y-47574999D03*
X39799999Y-47574999D03*
X38799999Y-47574999D03*
%TD*%
D14*
%TO.C,C1*%
X62434999Y-49624999D03*
X62434999Y-51174999D03*
%TD*%
D10*
%TO.C,J7*%
X85200002Y-74850005D03*
X90800002Y-74850005D03*
D11*
X89500002Y-70975005D03*
X88500002Y-70975005D03*
X87500002Y-70975005D03*
X86500002Y-70975005D03*
%TD*%
D12*
%TO.C,R26*%
X60694999Y-96477511D03*
X60694999Y-98302511D03*
%TD*%
D17*
%TO.C,F9*%
X62974999Y-94325011D03*
X60174999Y-94325011D03*
%TD*%
D13*
%TO.C,R40*%
X106655002Y-121410017D03*
X106655002Y-119760017D03*
%TD*%
D15*
%TO.C,U1*%
X46774999Y-63745002D03*
X47549999Y-63745002D03*
D16*
X48249999Y-63745002D03*
X48749999Y-63745002D03*
X49249999Y-63745002D03*
X49749999Y-63745002D03*
X50249999Y-63745002D03*
X50749999Y-63745002D03*
X51249999Y-63745002D03*
X51749999Y-63745002D03*
D15*
X52449999Y-63745002D03*
X53224999Y-63745002D03*
%TD*%
D13*
%TO.C,R22*%
X106655002Y-86310008D03*
X106655002Y-84660008D03*
%TD*%
%TO.C,R37*%
X58954999Y-121410017D03*
X58954999Y-119760017D03*
%TD*%
%TO.C,R6*%
X57464999Y-51754999D03*
X57464999Y-50104999D03*
%TD*%
D10*
%TO.C,J14*%
X90800002Y-121650017D03*
X85200002Y-121650017D03*
D11*
X89500002Y-117775017D03*
X88500002Y-117775017D03*
X87500002Y-117775017D03*
X86500002Y-117775017D03*
%TD*%
D14*
%TO.C,C4*%
X110135002Y-61325002D03*
X110135002Y-62875002D03*
%TD*%
D13*
%TO.C,R16*%
X58954999Y-74610005D03*
X58954999Y-72960005D03*
%TD*%
D15*
%TO.C,U3*%
X94475002Y-52044999D03*
X95250002Y-52044999D03*
D16*
X95950002Y-52044999D03*
X96450002Y-52044999D03*
X96950002Y-52044999D03*
X97450002Y-52044999D03*
X97950002Y-52044999D03*
X98450002Y-52044999D03*
X98950002Y-52044999D03*
X99450002Y-52044999D03*
D15*
X100150002Y-52044999D03*
X100925002Y-52044999D03*
%TD*%
D13*
%TO.C,R11*%
X106655002Y-51209999D03*
X106655002Y-49559999D03*
%TD*%
%TO.C,R10*%
X105165002Y-63455002D03*
X105165002Y-61805002D03*
%TD*%
D12*
%TO.C,R1*%
X60694999Y-49677499D03*
X60694999Y-51502499D03*
%TD*%
D17*
%TO.C,F7*%
X110675002Y-70925005D03*
X107875002Y-70925005D03*
%TD*%
D10*
%TO.C,J4*%
X43099999Y-63150002D03*
X37499999Y-63150002D03*
D11*
X41799999Y-59275002D03*
X40799999Y-59275002D03*
X39799999Y-59275002D03*
X38799999Y-59275002D03*
%TD*%
D13*
%TO.C,R29*%
X57464999Y-110255014D03*
X57464999Y-108605014D03*
%TD*%
D12*
%TO.C,R39*%
X60694999Y-119877517D03*
X60694999Y-121702517D03*
%TD*%
M02*
