%TF.GenerationSoftware,KiCad,Pcbnew,(6.0.0)*%
%TF.CreationDate,2022-02-04T14:46:28-05:00*%
%TF.ProjectId,Panel v2,50616e65-6c20-4763-922e-6b696361645f,rev?*%
%TF.SameCoordinates,Original*%
%TF.FileFunction,Legend,Bot*%
%TF.FilePolarity,Positive*%
%FSLAX46Y46*%
G04 Gerber Fmt 4.6, Leading zero omitted, Abs format (unit mm)*
G04 Created by KiCad (PCBNEW (6.0.0)) date 2022-02-04 14:46:28*
%MOMM*%
%LPD*%
G01*
G04 APERTURE LIST*
%ADD10C,0.150000*%
G04 APERTURE END LIST*
D10*
X106188484Y-118502397D02*
X106289674Y-119311921D01*
X106253960Y-119407159D01*
X106212293Y-119454778D01*
X106123007Y-119502397D01*
X105932531Y-119502397D01*
X105831341Y-119454778D01*
X105777769Y-119407159D01*
X105718246Y-119311921D01*
X105617055Y-118502397D01*
X105182531Y-118835731D02*
X105265865Y-119502397D01*
X105194436Y-118930969D02*
X105140865Y-118883350D01*
X105039674Y-118835731D01*
X104896817Y-118835731D01*
X104807531Y-118883350D01*
X104771817Y-118978588D01*
X104837293Y-119502397D01*
X104361103Y-119502397D02*
X104277769Y-118835731D01*
X104236103Y-118502397D02*
X104289674Y-118550017D01*
X104248007Y-118597636D01*
X104194436Y-118550017D01*
X104236103Y-118502397D01*
X104248007Y-118597636D01*
X103944436Y-118835731D02*
X103563484Y-118835731D01*
X103884912Y-119502397D02*
X103777769Y-118645255D01*
X103718246Y-118550017D01*
X103617055Y-118502397D01*
X103521817Y-118502397D01*
X103313484Y-119502397D02*
X103230150Y-118835731D01*
X103253960Y-119026207D02*
X103194436Y-118930969D01*
X103140865Y-118883350D01*
X103039674Y-118835731D01*
X102944436Y-118835731D01*
X102694436Y-119502397D02*
X102611103Y-118835731D01*
X102569436Y-118502397D02*
X102623007Y-118550017D01*
X102581341Y-118597636D01*
X102527769Y-118550017D01*
X102569436Y-118502397D01*
X102581341Y-118597636D01*
X101831341Y-119454778D02*
X101932531Y-119502397D01*
X102123007Y-119502397D01*
X102212293Y-119454778D01*
X102248007Y-119359540D01*
X102200388Y-118978588D01*
X102140865Y-118883350D01*
X102039674Y-118835731D01*
X101849198Y-118835731D01*
X101759912Y-118883350D01*
X101724198Y-118978588D01*
X101736103Y-119073826D01*
X102224198Y-119169064D01*
X100932531Y-119502397D02*
X100807531Y-118502397D01*
X100926579Y-119454778D02*
X101027769Y-119502397D01*
X101218246Y-119502397D01*
X101307531Y-119454778D01*
X101349198Y-119407159D01*
X101384912Y-119311921D01*
X101349198Y-119026207D01*
X101289674Y-118930969D01*
X101236103Y-118883350D01*
X101134912Y-118835731D01*
X100944436Y-118835731D01*
X100855150Y-118883350D01*
X99694436Y-119502397D02*
X99569436Y-118502397D01*
X99331341Y-118502397D01*
X99194436Y-118550017D01*
X99111103Y-118645255D01*
X99075388Y-118740493D01*
X99051579Y-118930969D01*
X99069436Y-119073826D01*
X99140865Y-119264302D01*
X99200388Y-119359540D01*
X99307531Y-119454778D01*
X99456341Y-119502397D01*
X99694436Y-119502397D01*
X98265865Y-119502397D02*
X98200388Y-118978588D01*
X98236103Y-118883350D01*
X98325388Y-118835731D01*
X98515865Y-118835731D01*
X98617055Y-118883350D01*
X98259912Y-119454778D02*
X98361103Y-119502397D01*
X98599198Y-119502397D01*
X98688484Y-119454778D01*
X98724198Y-119359540D01*
X98712293Y-119264302D01*
X98652769Y-119169064D01*
X98551579Y-119121445D01*
X98313484Y-119121445D01*
X98212293Y-119073826D01*
X97277769Y-118835731D02*
X97361103Y-119502397D01*
X97706341Y-118835731D02*
X97771817Y-119359540D01*
X97736103Y-119454778D01*
X97646817Y-119502397D01*
X97503960Y-119502397D01*
X97402769Y-119454778D01*
X97349198Y-119407159D01*
X96373007Y-118835731D02*
X96474198Y-119645255D01*
X96533722Y-119740493D01*
X96587293Y-119788112D01*
X96688484Y-119835731D01*
X96831341Y-119835731D01*
X96920627Y-119788112D01*
X96450388Y-119454778D02*
X96551579Y-119502397D01*
X96742055Y-119502397D01*
X96831341Y-119454778D01*
X96873007Y-119407159D01*
X96908722Y-119311921D01*
X96873007Y-119026207D01*
X96813484Y-118930969D01*
X96759912Y-118883350D01*
X96658722Y-118835731D01*
X96468246Y-118835731D01*
X96378960Y-118883350D01*
X95980150Y-119502397D02*
X95855150Y-118502397D01*
X95551579Y-119502397D02*
X95486103Y-118978588D01*
X95521817Y-118883350D01*
X95611103Y-118835731D01*
X95753960Y-118835731D01*
X95855150Y-118883350D01*
X95908722Y-118930969D01*
X95134912Y-118835731D02*
X94753960Y-118835731D01*
X94950388Y-118502397D02*
X95057531Y-119359540D01*
X95021817Y-119454778D01*
X94932531Y-119502397D01*
X94837293Y-119502397D01*
X94117055Y-119454778D02*
X94218246Y-119502397D01*
X94408722Y-119502397D01*
X94498007Y-119454778D01*
X94533722Y-119359540D01*
X94486103Y-118978588D01*
X94426579Y-118883350D01*
X94325388Y-118835731D01*
X94134912Y-118835731D01*
X94045627Y-118883350D01*
X94009912Y-118978588D01*
X94021817Y-119073826D01*
X94509912Y-119169064D01*
X93646817Y-119502397D02*
X93563484Y-118835731D01*
X93587293Y-119026207D02*
X93527769Y-118930969D01*
X93474198Y-118883350D01*
X93373007Y-118835731D01*
X93277769Y-118835731D01*
X93027769Y-119502397D02*
X92902769Y-118502397D01*
X92950388Y-118883350D02*
X92849198Y-118835731D01*
X92658722Y-118835731D01*
X92569436Y-118883350D01*
X92527769Y-118930969D01*
X92492055Y-119026207D01*
X92527769Y-119311921D01*
X92587293Y-119407159D01*
X92640865Y-119454778D01*
X92742055Y-119502397D01*
X92932531Y-119502397D01*
X93021817Y-119454778D01*
X91980150Y-119502397D02*
X92069436Y-119454778D01*
X92111103Y-119407159D01*
X92146817Y-119311921D01*
X92111103Y-119026207D01*
X92051579Y-118930969D01*
X91998007Y-118883350D01*
X91896817Y-118835731D01*
X91753960Y-118835731D01*
X91664674Y-118883350D01*
X91623007Y-118930969D01*
X91587293Y-119026207D01*
X91623007Y-119311921D01*
X91682531Y-119407159D01*
X91736103Y-119454778D01*
X91837293Y-119502397D01*
X91980150Y-119502397D01*
X90789674Y-119502397D02*
X90724198Y-118978588D01*
X90759912Y-118883350D01*
X90849198Y-118835731D01*
X91039674Y-118835731D01*
X91140865Y-118883350D01*
X90783722Y-119454778D02*
X90884912Y-119502397D01*
X91123007Y-119502397D01*
X91212293Y-119454778D01*
X91248007Y-119359540D01*
X91236103Y-119264302D01*
X91176579Y-119169064D01*
X91075388Y-119121445D01*
X90837293Y-119121445D01*
X90736103Y-119073826D01*
X90313484Y-119502397D02*
X90230150Y-118835731D01*
X90253960Y-119026207D02*
X90194436Y-118930969D01*
X90140865Y-118883350D01*
X90039674Y-118835731D01*
X89944436Y-118835731D01*
X89265865Y-119502397D02*
X89140865Y-118502397D01*
X89259912Y-119454778D02*
X89361103Y-119502397D01*
X89551579Y-119502397D01*
X89640865Y-119454778D01*
X89682531Y-119407159D01*
X89718246Y-119311921D01*
X89682531Y-119026207D01*
X89623007Y-118930969D01*
X89569436Y-118883350D01*
X89468246Y-118835731D01*
X89277769Y-118835731D01*
X89188484Y-118883350D01*
X106188484Y-60002382D02*
X106289674Y-60811906D01*
X106253960Y-60907144D01*
X106212293Y-60954763D01*
X106123007Y-61002382D01*
X105932531Y-61002382D01*
X105831341Y-60954763D01*
X105777769Y-60907144D01*
X105718246Y-60811906D01*
X105617055Y-60002382D01*
X105182531Y-60335716D02*
X105265865Y-61002382D01*
X105194436Y-60430954D02*
X105140865Y-60383335D01*
X105039674Y-60335716D01*
X104896817Y-60335716D01*
X104807531Y-60383335D01*
X104771817Y-60478573D01*
X104837293Y-61002382D01*
X104361103Y-61002382D02*
X104277769Y-60335716D01*
X104236103Y-60002382D02*
X104289674Y-60050002D01*
X104248007Y-60097621D01*
X104194436Y-60050002D01*
X104236103Y-60002382D01*
X104248007Y-60097621D01*
X103944436Y-60335716D02*
X103563484Y-60335716D01*
X103884912Y-61002382D02*
X103777769Y-60145240D01*
X103718246Y-60050002D01*
X103617055Y-60002382D01*
X103521817Y-60002382D01*
X103313484Y-61002382D02*
X103230150Y-60335716D01*
X103253960Y-60526192D02*
X103194436Y-60430954D01*
X103140865Y-60383335D01*
X103039674Y-60335716D01*
X102944436Y-60335716D01*
X102694436Y-61002382D02*
X102611103Y-60335716D01*
X102569436Y-60002382D02*
X102623007Y-60050002D01*
X102581341Y-60097621D01*
X102527769Y-60050002D01*
X102569436Y-60002382D01*
X102581341Y-60097621D01*
X101831341Y-60954763D02*
X101932531Y-61002382D01*
X102123007Y-61002382D01*
X102212293Y-60954763D01*
X102248007Y-60859525D01*
X102200388Y-60478573D01*
X102140865Y-60383335D01*
X102039674Y-60335716D01*
X101849198Y-60335716D01*
X101759912Y-60383335D01*
X101724198Y-60478573D01*
X101736103Y-60573811D01*
X102224198Y-60669049D01*
X100932531Y-61002382D02*
X100807531Y-60002382D01*
X100926579Y-60954763D02*
X101027769Y-61002382D01*
X101218246Y-61002382D01*
X101307531Y-60954763D01*
X101349198Y-60907144D01*
X101384912Y-60811906D01*
X101349198Y-60526192D01*
X101289674Y-60430954D01*
X101236103Y-60383335D01*
X101134912Y-60335716D01*
X100944436Y-60335716D01*
X100855150Y-60383335D01*
X99694436Y-61002382D02*
X99569436Y-60002382D01*
X99331341Y-60002382D01*
X99194436Y-60050002D01*
X99111103Y-60145240D01*
X99075388Y-60240478D01*
X99051579Y-60430954D01*
X99069436Y-60573811D01*
X99140865Y-60764287D01*
X99200388Y-60859525D01*
X99307531Y-60954763D01*
X99456341Y-61002382D01*
X99694436Y-61002382D01*
X98265865Y-61002382D02*
X98200388Y-60478573D01*
X98236103Y-60383335D01*
X98325388Y-60335716D01*
X98515865Y-60335716D01*
X98617055Y-60383335D01*
X98259912Y-60954763D02*
X98361103Y-61002382D01*
X98599198Y-61002382D01*
X98688484Y-60954763D01*
X98724198Y-60859525D01*
X98712293Y-60764287D01*
X98652769Y-60669049D01*
X98551579Y-60621430D01*
X98313484Y-60621430D01*
X98212293Y-60573811D01*
X97277769Y-60335716D02*
X97361103Y-61002382D01*
X97706341Y-60335716D02*
X97771817Y-60859525D01*
X97736103Y-60954763D01*
X97646817Y-61002382D01*
X97503960Y-61002382D01*
X97402769Y-60954763D01*
X97349198Y-60907144D01*
X96373007Y-60335716D02*
X96474198Y-61145240D01*
X96533722Y-61240478D01*
X96587293Y-61288097D01*
X96688484Y-61335716D01*
X96831341Y-61335716D01*
X96920627Y-61288097D01*
X96450388Y-60954763D02*
X96551579Y-61002382D01*
X96742055Y-61002382D01*
X96831341Y-60954763D01*
X96873007Y-60907144D01*
X96908722Y-60811906D01*
X96873007Y-60526192D01*
X96813484Y-60430954D01*
X96759912Y-60383335D01*
X96658722Y-60335716D01*
X96468246Y-60335716D01*
X96378960Y-60383335D01*
X95980150Y-61002382D02*
X95855150Y-60002382D01*
X95551579Y-61002382D02*
X95486103Y-60478573D01*
X95521817Y-60383335D01*
X95611103Y-60335716D01*
X95753960Y-60335716D01*
X95855150Y-60383335D01*
X95908722Y-60430954D01*
X95134912Y-60335716D02*
X94753960Y-60335716D01*
X94950388Y-60002382D02*
X95057531Y-60859525D01*
X95021817Y-60954763D01*
X94932531Y-61002382D01*
X94837293Y-61002382D01*
X94117055Y-60954763D02*
X94218246Y-61002382D01*
X94408722Y-61002382D01*
X94498007Y-60954763D01*
X94533722Y-60859525D01*
X94486103Y-60478573D01*
X94426579Y-60383335D01*
X94325388Y-60335716D01*
X94134912Y-60335716D01*
X94045627Y-60383335D01*
X94009912Y-60478573D01*
X94021817Y-60573811D01*
X94509912Y-60669049D01*
X93646817Y-61002382D02*
X93563484Y-60335716D01*
X93587293Y-60526192D02*
X93527769Y-60430954D01*
X93474198Y-60383335D01*
X93373007Y-60335716D01*
X93277769Y-60335716D01*
X93027769Y-61002382D02*
X92902769Y-60002382D01*
X92950388Y-60383335D02*
X92849198Y-60335716D01*
X92658722Y-60335716D01*
X92569436Y-60383335D01*
X92527769Y-60430954D01*
X92492055Y-60526192D01*
X92527769Y-60811906D01*
X92587293Y-60907144D01*
X92640865Y-60954763D01*
X92742055Y-61002382D01*
X92932531Y-61002382D01*
X93021817Y-60954763D01*
X91980150Y-61002382D02*
X92069436Y-60954763D01*
X92111103Y-60907144D01*
X92146817Y-60811906D01*
X92111103Y-60526192D01*
X92051579Y-60430954D01*
X91998007Y-60383335D01*
X91896817Y-60335716D01*
X91753960Y-60335716D01*
X91664674Y-60383335D01*
X91623007Y-60430954D01*
X91587293Y-60526192D01*
X91623007Y-60811906D01*
X91682531Y-60907144D01*
X91736103Y-60954763D01*
X91837293Y-61002382D01*
X91980150Y-61002382D01*
X90789674Y-61002382D02*
X90724198Y-60478573D01*
X90759912Y-60383335D01*
X90849198Y-60335716D01*
X91039674Y-60335716D01*
X91140865Y-60383335D01*
X90783722Y-60954763D02*
X90884912Y-61002382D01*
X91123007Y-61002382D01*
X91212293Y-60954763D01*
X91248007Y-60859525D01*
X91236103Y-60764287D01*
X91176579Y-60669049D01*
X91075388Y-60621430D01*
X90837293Y-60621430D01*
X90736103Y-60573811D01*
X90313484Y-61002382D02*
X90230150Y-60335716D01*
X90253960Y-60526192D02*
X90194436Y-60430954D01*
X90140865Y-60383335D01*
X90039674Y-60335716D01*
X89944436Y-60335716D01*
X89265865Y-61002382D02*
X89140865Y-60002382D01*
X89259912Y-60954763D02*
X89361103Y-61002382D01*
X89551579Y-61002382D01*
X89640865Y-60954763D01*
X89682531Y-60907144D01*
X89718246Y-60811906D01*
X89682531Y-60526192D01*
X89623007Y-60430954D01*
X89569436Y-60383335D01*
X89468246Y-60335716D01*
X89277769Y-60335716D01*
X89188484Y-60383335D01*
X58488481Y-106802394D02*
X58589671Y-107611918D01*
X58553957Y-107707156D01*
X58512290Y-107754775D01*
X58423004Y-107802394D01*
X58232528Y-107802394D01*
X58131338Y-107754775D01*
X58077766Y-107707156D01*
X58018243Y-107611918D01*
X57917052Y-106802394D01*
X57482528Y-107135728D02*
X57565862Y-107802394D01*
X57494433Y-107230966D02*
X57440862Y-107183347D01*
X57339671Y-107135728D01*
X57196814Y-107135728D01*
X57107528Y-107183347D01*
X57071814Y-107278585D01*
X57137290Y-107802394D01*
X56661100Y-107802394D02*
X56577766Y-107135728D01*
X56536100Y-106802394D02*
X56589671Y-106850014D01*
X56548004Y-106897633D01*
X56494433Y-106850014D01*
X56536100Y-106802394D01*
X56548004Y-106897633D01*
X56244433Y-107135728D02*
X55863481Y-107135728D01*
X56184909Y-107802394D02*
X56077766Y-106945252D01*
X56018243Y-106850014D01*
X55917052Y-106802394D01*
X55821814Y-106802394D01*
X55613481Y-107802394D02*
X55530147Y-107135728D01*
X55553957Y-107326204D02*
X55494433Y-107230966D01*
X55440862Y-107183347D01*
X55339671Y-107135728D01*
X55244433Y-107135728D01*
X54994433Y-107802394D02*
X54911100Y-107135728D01*
X54869433Y-106802394D02*
X54923004Y-106850014D01*
X54881338Y-106897633D01*
X54827766Y-106850014D01*
X54869433Y-106802394D01*
X54881338Y-106897633D01*
X54131338Y-107754775D02*
X54232528Y-107802394D01*
X54423004Y-107802394D01*
X54512290Y-107754775D01*
X54548004Y-107659537D01*
X54500385Y-107278585D01*
X54440862Y-107183347D01*
X54339671Y-107135728D01*
X54149195Y-107135728D01*
X54059909Y-107183347D01*
X54024195Y-107278585D01*
X54036100Y-107373823D01*
X54524195Y-107469061D01*
X53232528Y-107802394D02*
X53107528Y-106802394D01*
X53226576Y-107754775D02*
X53327766Y-107802394D01*
X53518243Y-107802394D01*
X53607528Y-107754775D01*
X53649195Y-107707156D01*
X53684909Y-107611918D01*
X53649195Y-107326204D01*
X53589671Y-107230966D01*
X53536100Y-107183347D01*
X53434909Y-107135728D01*
X53244433Y-107135728D01*
X53155147Y-107183347D01*
X51994433Y-107802394D02*
X51869433Y-106802394D01*
X51631338Y-106802394D01*
X51494433Y-106850014D01*
X51411100Y-106945252D01*
X51375385Y-107040490D01*
X51351576Y-107230966D01*
X51369433Y-107373823D01*
X51440862Y-107564299D01*
X51500385Y-107659537D01*
X51607528Y-107754775D01*
X51756338Y-107802394D01*
X51994433Y-107802394D01*
X50565862Y-107802394D02*
X50500385Y-107278585D01*
X50536100Y-107183347D01*
X50625385Y-107135728D01*
X50815862Y-107135728D01*
X50917052Y-107183347D01*
X50559909Y-107754775D02*
X50661100Y-107802394D01*
X50899195Y-107802394D01*
X50988481Y-107754775D01*
X51024195Y-107659537D01*
X51012290Y-107564299D01*
X50952766Y-107469061D01*
X50851576Y-107421442D01*
X50613481Y-107421442D01*
X50512290Y-107373823D01*
X49577766Y-107135728D02*
X49661100Y-107802394D01*
X50006338Y-107135728D02*
X50071814Y-107659537D01*
X50036100Y-107754775D01*
X49946814Y-107802394D01*
X49803957Y-107802394D01*
X49702766Y-107754775D01*
X49649195Y-107707156D01*
X48673004Y-107135728D02*
X48774195Y-107945252D01*
X48833719Y-108040490D01*
X48887290Y-108088109D01*
X48988481Y-108135728D01*
X49131338Y-108135728D01*
X49220624Y-108088109D01*
X48750385Y-107754775D02*
X48851576Y-107802394D01*
X49042052Y-107802394D01*
X49131338Y-107754775D01*
X49173004Y-107707156D01*
X49208719Y-107611918D01*
X49173004Y-107326204D01*
X49113481Y-107230966D01*
X49059909Y-107183347D01*
X48958719Y-107135728D01*
X48768243Y-107135728D01*
X48678957Y-107183347D01*
X48280147Y-107802394D02*
X48155147Y-106802394D01*
X47851576Y-107802394D02*
X47786100Y-107278585D01*
X47821814Y-107183347D01*
X47911100Y-107135728D01*
X48053957Y-107135728D01*
X48155147Y-107183347D01*
X48208719Y-107230966D01*
X47434909Y-107135728D02*
X47053957Y-107135728D01*
X47250385Y-106802394D02*
X47357528Y-107659537D01*
X47321814Y-107754775D01*
X47232528Y-107802394D01*
X47137290Y-107802394D01*
X46417052Y-107754775D02*
X46518243Y-107802394D01*
X46708719Y-107802394D01*
X46798004Y-107754775D01*
X46833719Y-107659537D01*
X46786100Y-107278585D01*
X46726576Y-107183347D01*
X46625385Y-107135728D01*
X46434909Y-107135728D01*
X46345624Y-107183347D01*
X46309909Y-107278585D01*
X46321814Y-107373823D01*
X46809909Y-107469061D01*
X45946814Y-107802394D02*
X45863481Y-107135728D01*
X45887290Y-107326204D02*
X45827766Y-107230966D01*
X45774195Y-107183347D01*
X45673004Y-107135728D01*
X45577766Y-107135728D01*
X45327766Y-107802394D02*
X45202766Y-106802394D01*
X45250385Y-107183347D02*
X45149195Y-107135728D01*
X44958719Y-107135728D01*
X44869433Y-107183347D01*
X44827766Y-107230966D01*
X44792052Y-107326204D01*
X44827766Y-107611918D01*
X44887290Y-107707156D01*
X44940862Y-107754775D01*
X45042052Y-107802394D01*
X45232528Y-107802394D01*
X45321814Y-107754775D01*
X44280147Y-107802394D02*
X44369433Y-107754775D01*
X44411100Y-107707156D01*
X44446814Y-107611918D01*
X44411100Y-107326204D01*
X44351576Y-107230966D01*
X44298004Y-107183347D01*
X44196814Y-107135728D01*
X44053957Y-107135728D01*
X43964671Y-107183347D01*
X43923004Y-107230966D01*
X43887290Y-107326204D01*
X43923004Y-107611918D01*
X43982528Y-107707156D01*
X44036100Y-107754775D01*
X44137290Y-107802394D01*
X44280147Y-107802394D01*
X43089671Y-107802394D02*
X43024195Y-107278585D01*
X43059909Y-107183347D01*
X43149195Y-107135728D01*
X43339671Y-107135728D01*
X43440862Y-107183347D01*
X43083719Y-107754775D02*
X43184909Y-107802394D01*
X43423004Y-107802394D01*
X43512290Y-107754775D01*
X43548004Y-107659537D01*
X43536100Y-107564299D01*
X43476576Y-107469061D01*
X43375385Y-107421442D01*
X43137290Y-107421442D01*
X43036100Y-107373823D01*
X42613481Y-107802394D02*
X42530147Y-107135728D01*
X42553957Y-107326204D02*
X42494433Y-107230966D01*
X42440862Y-107183347D01*
X42339671Y-107135728D01*
X42244433Y-107135728D01*
X41565862Y-107802394D02*
X41440862Y-106802394D01*
X41559909Y-107754775D02*
X41661100Y-107802394D01*
X41851576Y-107802394D01*
X41940862Y-107754775D01*
X41982528Y-107707156D01*
X42018243Y-107611918D01*
X41982528Y-107326204D01*
X41923004Y-107230966D01*
X41869433Y-107183347D01*
X41768243Y-107135728D01*
X41577766Y-107135728D01*
X41488481Y-107183347D01*
X106188484Y-48302379D02*
X106289674Y-49111903D01*
X106253960Y-49207141D01*
X106212293Y-49254760D01*
X106123007Y-49302379D01*
X105932531Y-49302379D01*
X105831341Y-49254760D01*
X105777769Y-49207141D01*
X105718246Y-49111903D01*
X105617055Y-48302379D01*
X105182531Y-48635713D02*
X105265865Y-49302379D01*
X105194436Y-48730951D02*
X105140865Y-48683332D01*
X105039674Y-48635713D01*
X104896817Y-48635713D01*
X104807531Y-48683332D01*
X104771817Y-48778570D01*
X104837293Y-49302379D01*
X104361103Y-49302379D02*
X104277769Y-48635713D01*
X104236103Y-48302379D02*
X104289674Y-48349999D01*
X104248007Y-48397618D01*
X104194436Y-48349999D01*
X104236103Y-48302379D01*
X104248007Y-48397618D01*
X103944436Y-48635713D02*
X103563484Y-48635713D01*
X103884912Y-49302379D02*
X103777769Y-48445237D01*
X103718246Y-48349999D01*
X103617055Y-48302379D01*
X103521817Y-48302379D01*
X103313484Y-49302379D02*
X103230150Y-48635713D01*
X103253960Y-48826189D02*
X103194436Y-48730951D01*
X103140865Y-48683332D01*
X103039674Y-48635713D01*
X102944436Y-48635713D01*
X102694436Y-49302379D02*
X102611103Y-48635713D01*
X102569436Y-48302379D02*
X102623007Y-48349999D01*
X102581341Y-48397618D01*
X102527769Y-48349999D01*
X102569436Y-48302379D01*
X102581341Y-48397618D01*
X101831341Y-49254760D02*
X101932531Y-49302379D01*
X102123007Y-49302379D01*
X102212293Y-49254760D01*
X102248007Y-49159522D01*
X102200388Y-48778570D01*
X102140865Y-48683332D01*
X102039674Y-48635713D01*
X101849198Y-48635713D01*
X101759912Y-48683332D01*
X101724198Y-48778570D01*
X101736103Y-48873808D01*
X102224198Y-48969046D01*
X100932531Y-49302379D02*
X100807531Y-48302379D01*
X100926579Y-49254760D02*
X101027769Y-49302379D01*
X101218246Y-49302379D01*
X101307531Y-49254760D01*
X101349198Y-49207141D01*
X101384912Y-49111903D01*
X101349198Y-48826189D01*
X101289674Y-48730951D01*
X101236103Y-48683332D01*
X101134912Y-48635713D01*
X100944436Y-48635713D01*
X100855150Y-48683332D01*
X99694436Y-49302379D02*
X99569436Y-48302379D01*
X99331341Y-48302379D01*
X99194436Y-48349999D01*
X99111103Y-48445237D01*
X99075388Y-48540475D01*
X99051579Y-48730951D01*
X99069436Y-48873808D01*
X99140865Y-49064284D01*
X99200388Y-49159522D01*
X99307531Y-49254760D01*
X99456341Y-49302379D01*
X99694436Y-49302379D01*
X98265865Y-49302379D02*
X98200388Y-48778570D01*
X98236103Y-48683332D01*
X98325388Y-48635713D01*
X98515865Y-48635713D01*
X98617055Y-48683332D01*
X98259912Y-49254760D02*
X98361103Y-49302379D01*
X98599198Y-49302379D01*
X98688484Y-49254760D01*
X98724198Y-49159522D01*
X98712293Y-49064284D01*
X98652769Y-48969046D01*
X98551579Y-48921427D01*
X98313484Y-48921427D01*
X98212293Y-48873808D01*
X97277769Y-48635713D02*
X97361103Y-49302379D01*
X97706341Y-48635713D02*
X97771817Y-49159522D01*
X97736103Y-49254760D01*
X97646817Y-49302379D01*
X97503960Y-49302379D01*
X97402769Y-49254760D01*
X97349198Y-49207141D01*
X96373007Y-48635713D02*
X96474198Y-49445237D01*
X96533722Y-49540475D01*
X96587293Y-49588094D01*
X96688484Y-49635713D01*
X96831341Y-49635713D01*
X96920627Y-49588094D01*
X96450388Y-49254760D02*
X96551579Y-49302379D01*
X96742055Y-49302379D01*
X96831341Y-49254760D01*
X96873007Y-49207141D01*
X96908722Y-49111903D01*
X96873007Y-48826189D01*
X96813484Y-48730951D01*
X96759912Y-48683332D01*
X96658722Y-48635713D01*
X96468246Y-48635713D01*
X96378960Y-48683332D01*
X95980150Y-49302379D02*
X95855150Y-48302379D01*
X95551579Y-49302379D02*
X95486103Y-48778570D01*
X95521817Y-48683332D01*
X95611103Y-48635713D01*
X95753960Y-48635713D01*
X95855150Y-48683332D01*
X95908722Y-48730951D01*
X95134912Y-48635713D02*
X94753960Y-48635713D01*
X94950388Y-48302379D02*
X95057531Y-49159522D01*
X95021817Y-49254760D01*
X94932531Y-49302379D01*
X94837293Y-49302379D01*
X94117055Y-49254760D02*
X94218246Y-49302379D01*
X94408722Y-49302379D01*
X94498007Y-49254760D01*
X94533722Y-49159522D01*
X94486103Y-48778570D01*
X94426579Y-48683332D01*
X94325388Y-48635713D01*
X94134912Y-48635713D01*
X94045627Y-48683332D01*
X94009912Y-48778570D01*
X94021817Y-48873808D01*
X94509912Y-48969046D01*
X93646817Y-49302379D02*
X93563484Y-48635713D01*
X93587293Y-48826189D02*
X93527769Y-48730951D01*
X93474198Y-48683332D01*
X93373007Y-48635713D01*
X93277769Y-48635713D01*
X93027769Y-49302379D02*
X92902769Y-48302379D01*
X92950388Y-48683332D02*
X92849198Y-48635713D01*
X92658722Y-48635713D01*
X92569436Y-48683332D01*
X92527769Y-48730951D01*
X92492055Y-48826189D01*
X92527769Y-49111903D01*
X92587293Y-49207141D01*
X92640865Y-49254760D01*
X92742055Y-49302379D01*
X92932531Y-49302379D01*
X93021817Y-49254760D01*
X91980150Y-49302379D02*
X92069436Y-49254760D01*
X92111103Y-49207141D01*
X92146817Y-49111903D01*
X92111103Y-48826189D01*
X92051579Y-48730951D01*
X91998007Y-48683332D01*
X91896817Y-48635713D01*
X91753960Y-48635713D01*
X91664674Y-48683332D01*
X91623007Y-48730951D01*
X91587293Y-48826189D01*
X91623007Y-49111903D01*
X91682531Y-49207141D01*
X91736103Y-49254760D01*
X91837293Y-49302379D01*
X91980150Y-49302379D01*
X90789674Y-49302379D02*
X90724198Y-48778570D01*
X90759912Y-48683332D01*
X90849198Y-48635713D01*
X91039674Y-48635713D01*
X91140865Y-48683332D01*
X90783722Y-49254760D02*
X90884912Y-49302379D01*
X91123007Y-49302379D01*
X91212293Y-49254760D01*
X91248007Y-49159522D01*
X91236103Y-49064284D01*
X91176579Y-48969046D01*
X91075388Y-48921427D01*
X90837293Y-48921427D01*
X90736103Y-48873808D01*
X90313484Y-49302379D02*
X90230150Y-48635713D01*
X90253960Y-48826189D02*
X90194436Y-48730951D01*
X90140865Y-48683332D01*
X90039674Y-48635713D01*
X89944436Y-48635713D01*
X89265865Y-49302379D02*
X89140865Y-48302379D01*
X89259912Y-49254760D02*
X89361103Y-49302379D01*
X89551579Y-49302379D01*
X89640865Y-49254760D01*
X89682531Y-49207141D01*
X89718246Y-49111903D01*
X89682531Y-48826189D01*
X89623007Y-48730951D01*
X89569436Y-48683332D01*
X89468246Y-48635713D01*
X89277769Y-48635713D01*
X89188484Y-48683332D01*
X58488481Y-83402388D02*
X58589671Y-84211912D01*
X58553957Y-84307150D01*
X58512290Y-84354769D01*
X58423004Y-84402388D01*
X58232528Y-84402388D01*
X58131338Y-84354769D01*
X58077766Y-84307150D01*
X58018243Y-84211912D01*
X57917052Y-83402388D01*
X57482528Y-83735722D02*
X57565862Y-84402388D01*
X57494433Y-83830960D02*
X57440862Y-83783341D01*
X57339671Y-83735722D01*
X57196814Y-83735722D01*
X57107528Y-83783341D01*
X57071814Y-83878579D01*
X57137290Y-84402388D01*
X56661100Y-84402388D02*
X56577766Y-83735722D01*
X56536100Y-83402388D02*
X56589671Y-83450008D01*
X56548004Y-83497627D01*
X56494433Y-83450008D01*
X56536100Y-83402388D01*
X56548004Y-83497627D01*
X56244433Y-83735722D02*
X55863481Y-83735722D01*
X56184909Y-84402388D02*
X56077766Y-83545246D01*
X56018243Y-83450008D01*
X55917052Y-83402388D01*
X55821814Y-83402388D01*
X55613481Y-84402388D02*
X55530147Y-83735722D01*
X55553957Y-83926198D02*
X55494433Y-83830960D01*
X55440862Y-83783341D01*
X55339671Y-83735722D01*
X55244433Y-83735722D01*
X54994433Y-84402388D02*
X54911100Y-83735722D01*
X54869433Y-83402388D02*
X54923004Y-83450008D01*
X54881338Y-83497627D01*
X54827766Y-83450008D01*
X54869433Y-83402388D01*
X54881338Y-83497627D01*
X54131338Y-84354769D02*
X54232528Y-84402388D01*
X54423004Y-84402388D01*
X54512290Y-84354769D01*
X54548004Y-84259531D01*
X54500385Y-83878579D01*
X54440862Y-83783341D01*
X54339671Y-83735722D01*
X54149195Y-83735722D01*
X54059909Y-83783341D01*
X54024195Y-83878579D01*
X54036100Y-83973817D01*
X54524195Y-84069055D01*
X53232528Y-84402388D02*
X53107528Y-83402388D01*
X53226576Y-84354769D02*
X53327766Y-84402388D01*
X53518243Y-84402388D01*
X53607528Y-84354769D01*
X53649195Y-84307150D01*
X53684909Y-84211912D01*
X53649195Y-83926198D01*
X53589671Y-83830960D01*
X53536100Y-83783341D01*
X53434909Y-83735722D01*
X53244433Y-83735722D01*
X53155147Y-83783341D01*
X51994433Y-84402388D02*
X51869433Y-83402388D01*
X51631338Y-83402388D01*
X51494433Y-83450008D01*
X51411100Y-83545246D01*
X51375385Y-83640484D01*
X51351576Y-83830960D01*
X51369433Y-83973817D01*
X51440862Y-84164293D01*
X51500385Y-84259531D01*
X51607528Y-84354769D01*
X51756338Y-84402388D01*
X51994433Y-84402388D01*
X50565862Y-84402388D02*
X50500385Y-83878579D01*
X50536100Y-83783341D01*
X50625385Y-83735722D01*
X50815862Y-83735722D01*
X50917052Y-83783341D01*
X50559909Y-84354769D02*
X50661100Y-84402388D01*
X50899195Y-84402388D01*
X50988481Y-84354769D01*
X51024195Y-84259531D01*
X51012290Y-84164293D01*
X50952766Y-84069055D01*
X50851576Y-84021436D01*
X50613481Y-84021436D01*
X50512290Y-83973817D01*
X49577766Y-83735722D02*
X49661100Y-84402388D01*
X50006338Y-83735722D02*
X50071814Y-84259531D01*
X50036100Y-84354769D01*
X49946814Y-84402388D01*
X49803957Y-84402388D01*
X49702766Y-84354769D01*
X49649195Y-84307150D01*
X48673004Y-83735722D02*
X48774195Y-84545246D01*
X48833719Y-84640484D01*
X48887290Y-84688103D01*
X48988481Y-84735722D01*
X49131338Y-84735722D01*
X49220624Y-84688103D01*
X48750385Y-84354769D02*
X48851576Y-84402388D01*
X49042052Y-84402388D01*
X49131338Y-84354769D01*
X49173004Y-84307150D01*
X49208719Y-84211912D01*
X49173004Y-83926198D01*
X49113481Y-83830960D01*
X49059909Y-83783341D01*
X48958719Y-83735722D01*
X48768243Y-83735722D01*
X48678957Y-83783341D01*
X48280147Y-84402388D02*
X48155147Y-83402388D01*
X47851576Y-84402388D02*
X47786100Y-83878579D01*
X47821814Y-83783341D01*
X47911100Y-83735722D01*
X48053957Y-83735722D01*
X48155147Y-83783341D01*
X48208719Y-83830960D01*
X47434909Y-83735722D02*
X47053957Y-83735722D01*
X47250385Y-83402388D02*
X47357528Y-84259531D01*
X47321814Y-84354769D01*
X47232528Y-84402388D01*
X47137290Y-84402388D01*
X46417052Y-84354769D02*
X46518243Y-84402388D01*
X46708719Y-84402388D01*
X46798004Y-84354769D01*
X46833719Y-84259531D01*
X46786100Y-83878579D01*
X46726576Y-83783341D01*
X46625385Y-83735722D01*
X46434909Y-83735722D01*
X46345624Y-83783341D01*
X46309909Y-83878579D01*
X46321814Y-83973817D01*
X46809909Y-84069055D01*
X45946814Y-84402388D02*
X45863481Y-83735722D01*
X45887290Y-83926198D02*
X45827766Y-83830960D01*
X45774195Y-83783341D01*
X45673004Y-83735722D01*
X45577766Y-83735722D01*
X45327766Y-84402388D02*
X45202766Y-83402388D01*
X45250385Y-83783341D02*
X45149195Y-83735722D01*
X44958719Y-83735722D01*
X44869433Y-83783341D01*
X44827766Y-83830960D01*
X44792052Y-83926198D01*
X44827766Y-84211912D01*
X44887290Y-84307150D01*
X44940862Y-84354769D01*
X45042052Y-84402388D01*
X45232528Y-84402388D01*
X45321814Y-84354769D01*
X44280147Y-84402388D02*
X44369433Y-84354769D01*
X44411100Y-84307150D01*
X44446814Y-84211912D01*
X44411100Y-83926198D01*
X44351576Y-83830960D01*
X44298004Y-83783341D01*
X44196814Y-83735722D01*
X44053957Y-83735722D01*
X43964671Y-83783341D01*
X43923004Y-83830960D01*
X43887290Y-83926198D01*
X43923004Y-84211912D01*
X43982528Y-84307150D01*
X44036100Y-84354769D01*
X44137290Y-84402388D01*
X44280147Y-84402388D01*
X43089671Y-84402388D02*
X43024195Y-83878579D01*
X43059909Y-83783341D01*
X43149195Y-83735722D01*
X43339671Y-83735722D01*
X43440862Y-83783341D01*
X43083719Y-84354769D02*
X43184909Y-84402388D01*
X43423004Y-84402388D01*
X43512290Y-84354769D01*
X43548004Y-84259531D01*
X43536100Y-84164293D01*
X43476576Y-84069055D01*
X43375385Y-84021436D01*
X43137290Y-84021436D01*
X43036100Y-83973817D01*
X42613481Y-84402388D02*
X42530147Y-83735722D01*
X42553957Y-83926198D02*
X42494433Y-83830960D01*
X42440862Y-83783341D01*
X42339671Y-83735722D01*
X42244433Y-83735722D01*
X41565862Y-84402388D02*
X41440862Y-83402388D01*
X41559909Y-84354769D02*
X41661100Y-84402388D01*
X41851576Y-84402388D01*
X41940862Y-84354769D01*
X41982528Y-84307150D01*
X42018243Y-84211912D01*
X41982528Y-83926198D01*
X41923004Y-83830960D01*
X41869433Y-83783341D01*
X41768243Y-83735722D01*
X41577766Y-83735722D01*
X41488481Y-83783341D01*
X106188484Y-95102391D02*
X106289674Y-95911915D01*
X106253960Y-96007153D01*
X106212293Y-96054772D01*
X106123007Y-96102391D01*
X105932531Y-96102391D01*
X105831341Y-96054772D01*
X105777769Y-96007153D01*
X105718246Y-95911915D01*
X105617055Y-95102391D01*
X105182531Y-95435725D02*
X105265865Y-96102391D01*
X105194436Y-95530963D02*
X105140865Y-95483344D01*
X105039674Y-95435725D01*
X104896817Y-95435725D01*
X104807531Y-95483344D01*
X104771817Y-95578582D01*
X104837293Y-96102391D01*
X104361103Y-96102391D02*
X104277769Y-95435725D01*
X104236103Y-95102391D02*
X104289674Y-95150011D01*
X104248007Y-95197630D01*
X104194436Y-95150011D01*
X104236103Y-95102391D01*
X104248007Y-95197630D01*
X103944436Y-95435725D02*
X103563484Y-95435725D01*
X103884912Y-96102391D02*
X103777769Y-95245249D01*
X103718246Y-95150011D01*
X103617055Y-95102391D01*
X103521817Y-95102391D01*
X103313484Y-96102391D02*
X103230150Y-95435725D01*
X103253960Y-95626201D02*
X103194436Y-95530963D01*
X103140865Y-95483344D01*
X103039674Y-95435725D01*
X102944436Y-95435725D01*
X102694436Y-96102391D02*
X102611103Y-95435725D01*
X102569436Y-95102391D02*
X102623007Y-95150011D01*
X102581341Y-95197630D01*
X102527769Y-95150011D01*
X102569436Y-95102391D01*
X102581341Y-95197630D01*
X101831341Y-96054772D02*
X101932531Y-96102391D01*
X102123007Y-96102391D01*
X102212293Y-96054772D01*
X102248007Y-95959534D01*
X102200388Y-95578582D01*
X102140865Y-95483344D01*
X102039674Y-95435725D01*
X101849198Y-95435725D01*
X101759912Y-95483344D01*
X101724198Y-95578582D01*
X101736103Y-95673820D01*
X102224198Y-95769058D01*
X100932531Y-96102391D02*
X100807531Y-95102391D01*
X100926579Y-96054772D02*
X101027769Y-96102391D01*
X101218246Y-96102391D01*
X101307531Y-96054772D01*
X101349198Y-96007153D01*
X101384912Y-95911915D01*
X101349198Y-95626201D01*
X101289674Y-95530963D01*
X101236103Y-95483344D01*
X101134912Y-95435725D01*
X100944436Y-95435725D01*
X100855150Y-95483344D01*
X99694436Y-96102391D02*
X99569436Y-95102391D01*
X99331341Y-95102391D01*
X99194436Y-95150011D01*
X99111103Y-95245249D01*
X99075388Y-95340487D01*
X99051579Y-95530963D01*
X99069436Y-95673820D01*
X99140865Y-95864296D01*
X99200388Y-95959534D01*
X99307531Y-96054772D01*
X99456341Y-96102391D01*
X99694436Y-96102391D01*
X98265865Y-96102391D02*
X98200388Y-95578582D01*
X98236103Y-95483344D01*
X98325388Y-95435725D01*
X98515865Y-95435725D01*
X98617055Y-95483344D01*
X98259912Y-96054772D02*
X98361103Y-96102391D01*
X98599198Y-96102391D01*
X98688484Y-96054772D01*
X98724198Y-95959534D01*
X98712293Y-95864296D01*
X98652769Y-95769058D01*
X98551579Y-95721439D01*
X98313484Y-95721439D01*
X98212293Y-95673820D01*
X97277769Y-95435725D02*
X97361103Y-96102391D01*
X97706341Y-95435725D02*
X97771817Y-95959534D01*
X97736103Y-96054772D01*
X97646817Y-96102391D01*
X97503960Y-96102391D01*
X97402769Y-96054772D01*
X97349198Y-96007153D01*
X96373007Y-95435725D02*
X96474198Y-96245249D01*
X96533722Y-96340487D01*
X96587293Y-96388106D01*
X96688484Y-96435725D01*
X96831341Y-96435725D01*
X96920627Y-96388106D01*
X96450388Y-96054772D02*
X96551579Y-96102391D01*
X96742055Y-96102391D01*
X96831341Y-96054772D01*
X96873007Y-96007153D01*
X96908722Y-95911915D01*
X96873007Y-95626201D01*
X96813484Y-95530963D01*
X96759912Y-95483344D01*
X96658722Y-95435725D01*
X96468246Y-95435725D01*
X96378960Y-95483344D01*
X95980150Y-96102391D02*
X95855150Y-95102391D01*
X95551579Y-96102391D02*
X95486103Y-95578582D01*
X95521817Y-95483344D01*
X95611103Y-95435725D01*
X95753960Y-95435725D01*
X95855150Y-95483344D01*
X95908722Y-95530963D01*
X95134912Y-95435725D02*
X94753960Y-95435725D01*
X94950388Y-95102391D02*
X95057531Y-95959534D01*
X95021817Y-96054772D01*
X94932531Y-96102391D01*
X94837293Y-96102391D01*
X94117055Y-96054772D02*
X94218246Y-96102391D01*
X94408722Y-96102391D01*
X94498007Y-96054772D01*
X94533722Y-95959534D01*
X94486103Y-95578582D01*
X94426579Y-95483344D01*
X94325388Y-95435725D01*
X94134912Y-95435725D01*
X94045627Y-95483344D01*
X94009912Y-95578582D01*
X94021817Y-95673820D01*
X94509912Y-95769058D01*
X93646817Y-96102391D02*
X93563484Y-95435725D01*
X93587293Y-95626201D02*
X93527769Y-95530963D01*
X93474198Y-95483344D01*
X93373007Y-95435725D01*
X93277769Y-95435725D01*
X93027769Y-96102391D02*
X92902769Y-95102391D01*
X92950388Y-95483344D02*
X92849198Y-95435725D01*
X92658722Y-95435725D01*
X92569436Y-95483344D01*
X92527769Y-95530963D01*
X92492055Y-95626201D01*
X92527769Y-95911915D01*
X92587293Y-96007153D01*
X92640865Y-96054772D01*
X92742055Y-96102391D01*
X92932531Y-96102391D01*
X93021817Y-96054772D01*
X91980150Y-96102391D02*
X92069436Y-96054772D01*
X92111103Y-96007153D01*
X92146817Y-95911915D01*
X92111103Y-95626201D01*
X92051579Y-95530963D01*
X91998007Y-95483344D01*
X91896817Y-95435725D01*
X91753960Y-95435725D01*
X91664674Y-95483344D01*
X91623007Y-95530963D01*
X91587293Y-95626201D01*
X91623007Y-95911915D01*
X91682531Y-96007153D01*
X91736103Y-96054772D01*
X91837293Y-96102391D01*
X91980150Y-96102391D01*
X90789674Y-96102391D02*
X90724198Y-95578582D01*
X90759912Y-95483344D01*
X90849198Y-95435725D01*
X91039674Y-95435725D01*
X91140865Y-95483344D01*
X90783722Y-96054772D02*
X90884912Y-96102391D01*
X91123007Y-96102391D01*
X91212293Y-96054772D01*
X91248007Y-95959534D01*
X91236103Y-95864296D01*
X91176579Y-95769058D01*
X91075388Y-95721439D01*
X90837293Y-95721439D01*
X90736103Y-95673820D01*
X90313484Y-96102391D02*
X90230150Y-95435725D01*
X90253960Y-95626201D02*
X90194436Y-95530963D01*
X90140865Y-95483344D01*
X90039674Y-95435725D01*
X89944436Y-95435725D01*
X89265865Y-96102391D02*
X89140865Y-95102391D01*
X89259912Y-96054772D02*
X89361103Y-96102391D01*
X89551579Y-96102391D01*
X89640865Y-96054772D01*
X89682531Y-96007153D01*
X89718246Y-95911915D01*
X89682531Y-95626201D01*
X89623007Y-95530963D01*
X89569436Y-95483344D01*
X89468246Y-95435725D01*
X89277769Y-95435725D01*
X89188484Y-95483344D01*
X106188484Y-83402388D02*
X106289674Y-84211912D01*
X106253960Y-84307150D01*
X106212293Y-84354769D01*
X106123007Y-84402388D01*
X105932531Y-84402388D01*
X105831341Y-84354769D01*
X105777769Y-84307150D01*
X105718246Y-84211912D01*
X105617055Y-83402388D01*
X105182531Y-83735722D02*
X105265865Y-84402388D01*
X105194436Y-83830960D02*
X105140865Y-83783341D01*
X105039674Y-83735722D01*
X104896817Y-83735722D01*
X104807531Y-83783341D01*
X104771817Y-83878579D01*
X104837293Y-84402388D01*
X104361103Y-84402388D02*
X104277769Y-83735722D01*
X104236103Y-83402388D02*
X104289674Y-83450008D01*
X104248007Y-83497627D01*
X104194436Y-83450008D01*
X104236103Y-83402388D01*
X104248007Y-83497627D01*
X103944436Y-83735722D02*
X103563484Y-83735722D01*
X103884912Y-84402388D02*
X103777769Y-83545246D01*
X103718246Y-83450008D01*
X103617055Y-83402388D01*
X103521817Y-83402388D01*
X103313484Y-84402388D02*
X103230150Y-83735722D01*
X103253960Y-83926198D02*
X103194436Y-83830960D01*
X103140865Y-83783341D01*
X103039674Y-83735722D01*
X102944436Y-83735722D01*
X102694436Y-84402388D02*
X102611103Y-83735722D01*
X102569436Y-83402388D02*
X102623007Y-83450008D01*
X102581341Y-83497627D01*
X102527769Y-83450008D01*
X102569436Y-83402388D01*
X102581341Y-83497627D01*
X101831341Y-84354769D02*
X101932531Y-84402388D01*
X102123007Y-84402388D01*
X102212293Y-84354769D01*
X102248007Y-84259531D01*
X102200388Y-83878579D01*
X102140865Y-83783341D01*
X102039674Y-83735722D01*
X101849198Y-83735722D01*
X101759912Y-83783341D01*
X101724198Y-83878579D01*
X101736103Y-83973817D01*
X102224198Y-84069055D01*
X100932531Y-84402388D02*
X100807531Y-83402388D01*
X100926579Y-84354769D02*
X101027769Y-84402388D01*
X101218246Y-84402388D01*
X101307531Y-84354769D01*
X101349198Y-84307150D01*
X101384912Y-84211912D01*
X101349198Y-83926198D01*
X101289674Y-83830960D01*
X101236103Y-83783341D01*
X101134912Y-83735722D01*
X100944436Y-83735722D01*
X100855150Y-83783341D01*
X99694436Y-84402388D02*
X99569436Y-83402388D01*
X99331341Y-83402388D01*
X99194436Y-83450008D01*
X99111103Y-83545246D01*
X99075388Y-83640484D01*
X99051579Y-83830960D01*
X99069436Y-83973817D01*
X99140865Y-84164293D01*
X99200388Y-84259531D01*
X99307531Y-84354769D01*
X99456341Y-84402388D01*
X99694436Y-84402388D01*
X98265865Y-84402388D02*
X98200388Y-83878579D01*
X98236103Y-83783341D01*
X98325388Y-83735722D01*
X98515865Y-83735722D01*
X98617055Y-83783341D01*
X98259912Y-84354769D02*
X98361103Y-84402388D01*
X98599198Y-84402388D01*
X98688484Y-84354769D01*
X98724198Y-84259531D01*
X98712293Y-84164293D01*
X98652769Y-84069055D01*
X98551579Y-84021436D01*
X98313484Y-84021436D01*
X98212293Y-83973817D01*
X97277769Y-83735722D02*
X97361103Y-84402388D01*
X97706341Y-83735722D02*
X97771817Y-84259531D01*
X97736103Y-84354769D01*
X97646817Y-84402388D01*
X97503960Y-84402388D01*
X97402769Y-84354769D01*
X97349198Y-84307150D01*
X96373007Y-83735722D02*
X96474198Y-84545246D01*
X96533722Y-84640484D01*
X96587293Y-84688103D01*
X96688484Y-84735722D01*
X96831341Y-84735722D01*
X96920627Y-84688103D01*
X96450388Y-84354769D02*
X96551579Y-84402388D01*
X96742055Y-84402388D01*
X96831341Y-84354769D01*
X96873007Y-84307150D01*
X96908722Y-84211912D01*
X96873007Y-83926198D01*
X96813484Y-83830960D01*
X96759912Y-83783341D01*
X96658722Y-83735722D01*
X96468246Y-83735722D01*
X96378960Y-83783341D01*
X95980150Y-84402388D02*
X95855150Y-83402388D01*
X95551579Y-84402388D02*
X95486103Y-83878579D01*
X95521817Y-83783341D01*
X95611103Y-83735722D01*
X95753960Y-83735722D01*
X95855150Y-83783341D01*
X95908722Y-83830960D01*
X95134912Y-83735722D02*
X94753960Y-83735722D01*
X94950388Y-83402388D02*
X95057531Y-84259531D01*
X95021817Y-84354769D01*
X94932531Y-84402388D01*
X94837293Y-84402388D01*
X94117055Y-84354769D02*
X94218246Y-84402388D01*
X94408722Y-84402388D01*
X94498007Y-84354769D01*
X94533722Y-84259531D01*
X94486103Y-83878579D01*
X94426579Y-83783341D01*
X94325388Y-83735722D01*
X94134912Y-83735722D01*
X94045627Y-83783341D01*
X94009912Y-83878579D01*
X94021817Y-83973817D01*
X94509912Y-84069055D01*
X93646817Y-84402388D02*
X93563484Y-83735722D01*
X93587293Y-83926198D02*
X93527769Y-83830960D01*
X93474198Y-83783341D01*
X93373007Y-83735722D01*
X93277769Y-83735722D01*
X93027769Y-84402388D02*
X92902769Y-83402388D01*
X92950388Y-83783341D02*
X92849198Y-83735722D01*
X92658722Y-83735722D01*
X92569436Y-83783341D01*
X92527769Y-83830960D01*
X92492055Y-83926198D01*
X92527769Y-84211912D01*
X92587293Y-84307150D01*
X92640865Y-84354769D01*
X92742055Y-84402388D01*
X92932531Y-84402388D01*
X93021817Y-84354769D01*
X91980150Y-84402388D02*
X92069436Y-84354769D01*
X92111103Y-84307150D01*
X92146817Y-84211912D01*
X92111103Y-83926198D01*
X92051579Y-83830960D01*
X91998007Y-83783341D01*
X91896817Y-83735722D01*
X91753960Y-83735722D01*
X91664674Y-83783341D01*
X91623007Y-83830960D01*
X91587293Y-83926198D01*
X91623007Y-84211912D01*
X91682531Y-84307150D01*
X91736103Y-84354769D01*
X91837293Y-84402388D01*
X91980150Y-84402388D01*
X90789674Y-84402388D02*
X90724198Y-83878579D01*
X90759912Y-83783341D01*
X90849198Y-83735722D01*
X91039674Y-83735722D01*
X91140865Y-83783341D01*
X90783722Y-84354769D02*
X90884912Y-84402388D01*
X91123007Y-84402388D01*
X91212293Y-84354769D01*
X91248007Y-84259531D01*
X91236103Y-84164293D01*
X91176579Y-84069055D01*
X91075388Y-84021436D01*
X90837293Y-84021436D01*
X90736103Y-83973817D01*
X90313484Y-84402388D02*
X90230150Y-83735722D01*
X90253960Y-83926198D02*
X90194436Y-83830960D01*
X90140865Y-83783341D01*
X90039674Y-83735722D01*
X89944436Y-83735722D01*
X89265865Y-84402388D02*
X89140865Y-83402388D01*
X89259912Y-84354769D02*
X89361103Y-84402388D01*
X89551579Y-84402388D01*
X89640865Y-84354769D01*
X89682531Y-84307150D01*
X89718246Y-84211912D01*
X89682531Y-83926198D01*
X89623007Y-83830960D01*
X89569436Y-83783341D01*
X89468246Y-83735722D01*
X89277769Y-83735722D01*
X89188484Y-83783341D01*
X106188484Y-71702385D02*
X106289674Y-72511909D01*
X106253960Y-72607147D01*
X106212293Y-72654766D01*
X106123007Y-72702385D01*
X105932531Y-72702385D01*
X105831341Y-72654766D01*
X105777769Y-72607147D01*
X105718246Y-72511909D01*
X105617055Y-71702385D01*
X105182531Y-72035719D02*
X105265865Y-72702385D01*
X105194436Y-72130957D02*
X105140865Y-72083338D01*
X105039674Y-72035719D01*
X104896817Y-72035719D01*
X104807531Y-72083338D01*
X104771817Y-72178576D01*
X104837293Y-72702385D01*
X104361103Y-72702385D02*
X104277769Y-72035719D01*
X104236103Y-71702385D02*
X104289674Y-71750005D01*
X104248007Y-71797624D01*
X104194436Y-71750005D01*
X104236103Y-71702385D01*
X104248007Y-71797624D01*
X103944436Y-72035719D02*
X103563484Y-72035719D01*
X103884912Y-72702385D02*
X103777769Y-71845243D01*
X103718246Y-71750005D01*
X103617055Y-71702385D01*
X103521817Y-71702385D01*
X103313484Y-72702385D02*
X103230150Y-72035719D01*
X103253960Y-72226195D02*
X103194436Y-72130957D01*
X103140865Y-72083338D01*
X103039674Y-72035719D01*
X102944436Y-72035719D01*
X102694436Y-72702385D02*
X102611103Y-72035719D01*
X102569436Y-71702385D02*
X102623007Y-71750005D01*
X102581341Y-71797624D01*
X102527769Y-71750005D01*
X102569436Y-71702385D01*
X102581341Y-71797624D01*
X101831341Y-72654766D02*
X101932531Y-72702385D01*
X102123007Y-72702385D01*
X102212293Y-72654766D01*
X102248007Y-72559528D01*
X102200388Y-72178576D01*
X102140865Y-72083338D01*
X102039674Y-72035719D01*
X101849198Y-72035719D01*
X101759912Y-72083338D01*
X101724198Y-72178576D01*
X101736103Y-72273814D01*
X102224198Y-72369052D01*
X100932531Y-72702385D02*
X100807531Y-71702385D01*
X100926579Y-72654766D02*
X101027769Y-72702385D01*
X101218246Y-72702385D01*
X101307531Y-72654766D01*
X101349198Y-72607147D01*
X101384912Y-72511909D01*
X101349198Y-72226195D01*
X101289674Y-72130957D01*
X101236103Y-72083338D01*
X101134912Y-72035719D01*
X100944436Y-72035719D01*
X100855150Y-72083338D01*
X99694436Y-72702385D02*
X99569436Y-71702385D01*
X99331341Y-71702385D01*
X99194436Y-71750005D01*
X99111103Y-71845243D01*
X99075388Y-71940481D01*
X99051579Y-72130957D01*
X99069436Y-72273814D01*
X99140865Y-72464290D01*
X99200388Y-72559528D01*
X99307531Y-72654766D01*
X99456341Y-72702385D01*
X99694436Y-72702385D01*
X98265865Y-72702385D02*
X98200388Y-72178576D01*
X98236103Y-72083338D01*
X98325388Y-72035719D01*
X98515865Y-72035719D01*
X98617055Y-72083338D01*
X98259912Y-72654766D02*
X98361103Y-72702385D01*
X98599198Y-72702385D01*
X98688484Y-72654766D01*
X98724198Y-72559528D01*
X98712293Y-72464290D01*
X98652769Y-72369052D01*
X98551579Y-72321433D01*
X98313484Y-72321433D01*
X98212293Y-72273814D01*
X97277769Y-72035719D02*
X97361103Y-72702385D01*
X97706341Y-72035719D02*
X97771817Y-72559528D01*
X97736103Y-72654766D01*
X97646817Y-72702385D01*
X97503960Y-72702385D01*
X97402769Y-72654766D01*
X97349198Y-72607147D01*
X96373007Y-72035719D02*
X96474198Y-72845243D01*
X96533722Y-72940481D01*
X96587293Y-72988100D01*
X96688484Y-73035719D01*
X96831341Y-73035719D01*
X96920627Y-72988100D01*
X96450388Y-72654766D02*
X96551579Y-72702385D01*
X96742055Y-72702385D01*
X96831341Y-72654766D01*
X96873007Y-72607147D01*
X96908722Y-72511909D01*
X96873007Y-72226195D01*
X96813484Y-72130957D01*
X96759912Y-72083338D01*
X96658722Y-72035719D01*
X96468246Y-72035719D01*
X96378960Y-72083338D01*
X95980150Y-72702385D02*
X95855150Y-71702385D01*
X95551579Y-72702385D02*
X95486103Y-72178576D01*
X95521817Y-72083338D01*
X95611103Y-72035719D01*
X95753960Y-72035719D01*
X95855150Y-72083338D01*
X95908722Y-72130957D01*
X95134912Y-72035719D02*
X94753960Y-72035719D01*
X94950388Y-71702385D02*
X95057531Y-72559528D01*
X95021817Y-72654766D01*
X94932531Y-72702385D01*
X94837293Y-72702385D01*
X94117055Y-72654766D02*
X94218246Y-72702385D01*
X94408722Y-72702385D01*
X94498007Y-72654766D01*
X94533722Y-72559528D01*
X94486103Y-72178576D01*
X94426579Y-72083338D01*
X94325388Y-72035719D01*
X94134912Y-72035719D01*
X94045627Y-72083338D01*
X94009912Y-72178576D01*
X94021817Y-72273814D01*
X94509912Y-72369052D01*
X93646817Y-72702385D02*
X93563484Y-72035719D01*
X93587293Y-72226195D02*
X93527769Y-72130957D01*
X93474198Y-72083338D01*
X93373007Y-72035719D01*
X93277769Y-72035719D01*
X93027769Y-72702385D02*
X92902769Y-71702385D01*
X92950388Y-72083338D02*
X92849198Y-72035719D01*
X92658722Y-72035719D01*
X92569436Y-72083338D01*
X92527769Y-72130957D01*
X92492055Y-72226195D01*
X92527769Y-72511909D01*
X92587293Y-72607147D01*
X92640865Y-72654766D01*
X92742055Y-72702385D01*
X92932531Y-72702385D01*
X93021817Y-72654766D01*
X91980150Y-72702385D02*
X92069436Y-72654766D01*
X92111103Y-72607147D01*
X92146817Y-72511909D01*
X92111103Y-72226195D01*
X92051579Y-72130957D01*
X91998007Y-72083338D01*
X91896817Y-72035719D01*
X91753960Y-72035719D01*
X91664674Y-72083338D01*
X91623007Y-72130957D01*
X91587293Y-72226195D01*
X91623007Y-72511909D01*
X91682531Y-72607147D01*
X91736103Y-72654766D01*
X91837293Y-72702385D01*
X91980150Y-72702385D01*
X90789674Y-72702385D02*
X90724198Y-72178576D01*
X90759912Y-72083338D01*
X90849198Y-72035719D01*
X91039674Y-72035719D01*
X91140865Y-72083338D01*
X90783722Y-72654766D02*
X90884912Y-72702385D01*
X91123007Y-72702385D01*
X91212293Y-72654766D01*
X91248007Y-72559528D01*
X91236103Y-72464290D01*
X91176579Y-72369052D01*
X91075388Y-72321433D01*
X90837293Y-72321433D01*
X90736103Y-72273814D01*
X90313484Y-72702385D02*
X90230150Y-72035719D01*
X90253960Y-72226195D02*
X90194436Y-72130957D01*
X90140865Y-72083338D01*
X90039674Y-72035719D01*
X89944436Y-72035719D01*
X89265865Y-72702385D02*
X89140865Y-71702385D01*
X89259912Y-72654766D02*
X89361103Y-72702385D01*
X89551579Y-72702385D01*
X89640865Y-72654766D01*
X89682531Y-72607147D01*
X89718246Y-72511909D01*
X89682531Y-72226195D01*
X89623007Y-72130957D01*
X89569436Y-72083338D01*
X89468246Y-72035719D01*
X89277769Y-72035719D01*
X89188484Y-72083338D01*
X58488481Y-60002382D02*
X58589671Y-60811906D01*
X58553957Y-60907144D01*
X58512290Y-60954763D01*
X58423004Y-61002382D01*
X58232528Y-61002382D01*
X58131338Y-60954763D01*
X58077766Y-60907144D01*
X58018243Y-60811906D01*
X57917052Y-60002382D01*
X57482528Y-60335716D02*
X57565862Y-61002382D01*
X57494433Y-60430954D02*
X57440862Y-60383335D01*
X57339671Y-60335716D01*
X57196814Y-60335716D01*
X57107528Y-60383335D01*
X57071814Y-60478573D01*
X57137290Y-61002382D01*
X56661100Y-61002382D02*
X56577766Y-60335716D01*
X56536100Y-60002382D02*
X56589671Y-60050002D01*
X56548004Y-60097621D01*
X56494433Y-60050002D01*
X56536100Y-60002382D01*
X56548004Y-60097621D01*
X56244433Y-60335716D02*
X55863481Y-60335716D01*
X56184909Y-61002382D02*
X56077766Y-60145240D01*
X56018243Y-60050002D01*
X55917052Y-60002382D01*
X55821814Y-60002382D01*
X55613481Y-61002382D02*
X55530147Y-60335716D01*
X55553957Y-60526192D02*
X55494433Y-60430954D01*
X55440862Y-60383335D01*
X55339671Y-60335716D01*
X55244433Y-60335716D01*
X54994433Y-61002382D02*
X54911100Y-60335716D01*
X54869433Y-60002382D02*
X54923004Y-60050002D01*
X54881338Y-60097621D01*
X54827766Y-60050002D01*
X54869433Y-60002382D01*
X54881338Y-60097621D01*
X54131338Y-60954763D02*
X54232528Y-61002382D01*
X54423004Y-61002382D01*
X54512290Y-60954763D01*
X54548004Y-60859525D01*
X54500385Y-60478573D01*
X54440862Y-60383335D01*
X54339671Y-60335716D01*
X54149195Y-60335716D01*
X54059909Y-60383335D01*
X54024195Y-60478573D01*
X54036100Y-60573811D01*
X54524195Y-60669049D01*
X53232528Y-61002382D02*
X53107528Y-60002382D01*
X53226576Y-60954763D02*
X53327766Y-61002382D01*
X53518243Y-61002382D01*
X53607528Y-60954763D01*
X53649195Y-60907144D01*
X53684909Y-60811906D01*
X53649195Y-60526192D01*
X53589671Y-60430954D01*
X53536100Y-60383335D01*
X53434909Y-60335716D01*
X53244433Y-60335716D01*
X53155147Y-60383335D01*
X51994433Y-61002382D02*
X51869433Y-60002382D01*
X51631338Y-60002382D01*
X51494433Y-60050002D01*
X51411100Y-60145240D01*
X51375385Y-60240478D01*
X51351576Y-60430954D01*
X51369433Y-60573811D01*
X51440862Y-60764287D01*
X51500385Y-60859525D01*
X51607528Y-60954763D01*
X51756338Y-61002382D01*
X51994433Y-61002382D01*
X50565862Y-61002382D02*
X50500385Y-60478573D01*
X50536100Y-60383335D01*
X50625385Y-60335716D01*
X50815862Y-60335716D01*
X50917052Y-60383335D01*
X50559909Y-60954763D02*
X50661100Y-61002382D01*
X50899195Y-61002382D01*
X50988481Y-60954763D01*
X51024195Y-60859525D01*
X51012290Y-60764287D01*
X50952766Y-60669049D01*
X50851576Y-60621430D01*
X50613481Y-60621430D01*
X50512290Y-60573811D01*
X49577766Y-60335716D02*
X49661100Y-61002382D01*
X50006338Y-60335716D02*
X50071814Y-60859525D01*
X50036100Y-60954763D01*
X49946814Y-61002382D01*
X49803957Y-61002382D01*
X49702766Y-60954763D01*
X49649195Y-60907144D01*
X48673004Y-60335716D02*
X48774195Y-61145240D01*
X48833719Y-61240478D01*
X48887290Y-61288097D01*
X48988481Y-61335716D01*
X49131338Y-61335716D01*
X49220624Y-61288097D01*
X48750385Y-60954763D02*
X48851576Y-61002382D01*
X49042052Y-61002382D01*
X49131338Y-60954763D01*
X49173004Y-60907144D01*
X49208719Y-60811906D01*
X49173004Y-60526192D01*
X49113481Y-60430954D01*
X49059909Y-60383335D01*
X48958719Y-60335716D01*
X48768243Y-60335716D01*
X48678957Y-60383335D01*
X48280147Y-61002382D02*
X48155147Y-60002382D01*
X47851576Y-61002382D02*
X47786100Y-60478573D01*
X47821814Y-60383335D01*
X47911100Y-60335716D01*
X48053957Y-60335716D01*
X48155147Y-60383335D01*
X48208719Y-60430954D01*
X47434909Y-60335716D02*
X47053957Y-60335716D01*
X47250385Y-60002382D02*
X47357528Y-60859525D01*
X47321814Y-60954763D01*
X47232528Y-61002382D01*
X47137290Y-61002382D01*
X46417052Y-60954763D02*
X46518243Y-61002382D01*
X46708719Y-61002382D01*
X46798004Y-60954763D01*
X46833719Y-60859525D01*
X46786100Y-60478573D01*
X46726576Y-60383335D01*
X46625385Y-60335716D01*
X46434909Y-60335716D01*
X46345624Y-60383335D01*
X46309909Y-60478573D01*
X46321814Y-60573811D01*
X46809909Y-60669049D01*
X45946814Y-61002382D02*
X45863481Y-60335716D01*
X45887290Y-60526192D02*
X45827766Y-60430954D01*
X45774195Y-60383335D01*
X45673004Y-60335716D01*
X45577766Y-60335716D01*
X45327766Y-61002382D02*
X45202766Y-60002382D01*
X45250385Y-60383335D02*
X45149195Y-60335716D01*
X44958719Y-60335716D01*
X44869433Y-60383335D01*
X44827766Y-60430954D01*
X44792052Y-60526192D01*
X44827766Y-60811906D01*
X44887290Y-60907144D01*
X44940862Y-60954763D01*
X45042052Y-61002382D01*
X45232528Y-61002382D01*
X45321814Y-60954763D01*
X44280147Y-61002382D02*
X44369433Y-60954763D01*
X44411100Y-60907144D01*
X44446814Y-60811906D01*
X44411100Y-60526192D01*
X44351576Y-60430954D01*
X44298004Y-60383335D01*
X44196814Y-60335716D01*
X44053957Y-60335716D01*
X43964671Y-60383335D01*
X43923004Y-60430954D01*
X43887290Y-60526192D01*
X43923004Y-60811906D01*
X43982528Y-60907144D01*
X44036100Y-60954763D01*
X44137290Y-61002382D01*
X44280147Y-61002382D01*
X43089671Y-61002382D02*
X43024195Y-60478573D01*
X43059909Y-60383335D01*
X43149195Y-60335716D01*
X43339671Y-60335716D01*
X43440862Y-60383335D01*
X43083719Y-60954763D02*
X43184909Y-61002382D01*
X43423004Y-61002382D01*
X43512290Y-60954763D01*
X43548004Y-60859525D01*
X43536100Y-60764287D01*
X43476576Y-60669049D01*
X43375385Y-60621430D01*
X43137290Y-60621430D01*
X43036100Y-60573811D01*
X42613481Y-61002382D02*
X42530147Y-60335716D01*
X42553957Y-60526192D02*
X42494433Y-60430954D01*
X42440862Y-60383335D01*
X42339671Y-60335716D01*
X42244433Y-60335716D01*
X41565862Y-61002382D02*
X41440862Y-60002382D01*
X41559909Y-60954763D02*
X41661100Y-61002382D01*
X41851576Y-61002382D01*
X41940862Y-60954763D01*
X41982528Y-60907144D01*
X42018243Y-60811906D01*
X41982528Y-60526192D01*
X41923004Y-60430954D01*
X41869433Y-60383335D01*
X41768243Y-60335716D01*
X41577766Y-60335716D01*
X41488481Y-60383335D01*
X58488481Y-118502397D02*
X58589671Y-119311921D01*
X58553957Y-119407159D01*
X58512290Y-119454778D01*
X58423004Y-119502397D01*
X58232528Y-119502397D01*
X58131338Y-119454778D01*
X58077766Y-119407159D01*
X58018243Y-119311921D01*
X57917052Y-118502397D01*
X57482528Y-118835731D02*
X57565862Y-119502397D01*
X57494433Y-118930969D02*
X57440862Y-118883350D01*
X57339671Y-118835731D01*
X57196814Y-118835731D01*
X57107528Y-118883350D01*
X57071814Y-118978588D01*
X57137290Y-119502397D01*
X56661100Y-119502397D02*
X56577766Y-118835731D01*
X56536100Y-118502397D02*
X56589671Y-118550017D01*
X56548004Y-118597636D01*
X56494433Y-118550017D01*
X56536100Y-118502397D01*
X56548004Y-118597636D01*
X56244433Y-118835731D02*
X55863481Y-118835731D01*
X56184909Y-119502397D02*
X56077766Y-118645255D01*
X56018243Y-118550017D01*
X55917052Y-118502397D01*
X55821814Y-118502397D01*
X55613481Y-119502397D02*
X55530147Y-118835731D01*
X55553957Y-119026207D02*
X55494433Y-118930969D01*
X55440862Y-118883350D01*
X55339671Y-118835731D01*
X55244433Y-118835731D01*
X54994433Y-119502397D02*
X54911100Y-118835731D01*
X54869433Y-118502397D02*
X54923004Y-118550017D01*
X54881338Y-118597636D01*
X54827766Y-118550017D01*
X54869433Y-118502397D01*
X54881338Y-118597636D01*
X54131338Y-119454778D02*
X54232528Y-119502397D01*
X54423004Y-119502397D01*
X54512290Y-119454778D01*
X54548004Y-119359540D01*
X54500385Y-118978588D01*
X54440862Y-118883350D01*
X54339671Y-118835731D01*
X54149195Y-118835731D01*
X54059909Y-118883350D01*
X54024195Y-118978588D01*
X54036100Y-119073826D01*
X54524195Y-119169064D01*
X53232528Y-119502397D02*
X53107528Y-118502397D01*
X53226576Y-119454778D02*
X53327766Y-119502397D01*
X53518243Y-119502397D01*
X53607528Y-119454778D01*
X53649195Y-119407159D01*
X53684909Y-119311921D01*
X53649195Y-119026207D01*
X53589671Y-118930969D01*
X53536100Y-118883350D01*
X53434909Y-118835731D01*
X53244433Y-118835731D01*
X53155147Y-118883350D01*
X51994433Y-119502397D02*
X51869433Y-118502397D01*
X51631338Y-118502397D01*
X51494433Y-118550017D01*
X51411100Y-118645255D01*
X51375385Y-118740493D01*
X51351576Y-118930969D01*
X51369433Y-119073826D01*
X51440862Y-119264302D01*
X51500385Y-119359540D01*
X51607528Y-119454778D01*
X51756338Y-119502397D01*
X51994433Y-119502397D01*
X50565862Y-119502397D02*
X50500385Y-118978588D01*
X50536100Y-118883350D01*
X50625385Y-118835731D01*
X50815862Y-118835731D01*
X50917052Y-118883350D01*
X50559909Y-119454778D02*
X50661100Y-119502397D01*
X50899195Y-119502397D01*
X50988481Y-119454778D01*
X51024195Y-119359540D01*
X51012290Y-119264302D01*
X50952766Y-119169064D01*
X50851576Y-119121445D01*
X50613481Y-119121445D01*
X50512290Y-119073826D01*
X49577766Y-118835731D02*
X49661100Y-119502397D01*
X50006338Y-118835731D02*
X50071814Y-119359540D01*
X50036100Y-119454778D01*
X49946814Y-119502397D01*
X49803957Y-119502397D01*
X49702766Y-119454778D01*
X49649195Y-119407159D01*
X48673004Y-118835731D02*
X48774195Y-119645255D01*
X48833719Y-119740493D01*
X48887290Y-119788112D01*
X48988481Y-119835731D01*
X49131338Y-119835731D01*
X49220624Y-119788112D01*
X48750385Y-119454778D02*
X48851576Y-119502397D01*
X49042052Y-119502397D01*
X49131338Y-119454778D01*
X49173004Y-119407159D01*
X49208719Y-119311921D01*
X49173004Y-119026207D01*
X49113481Y-118930969D01*
X49059909Y-118883350D01*
X48958719Y-118835731D01*
X48768243Y-118835731D01*
X48678957Y-118883350D01*
X48280147Y-119502397D02*
X48155147Y-118502397D01*
X47851576Y-119502397D02*
X47786100Y-118978588D01*
X47821814Y-118883350D01*
X47911100Y-118835731D01*
X48053957Y-118835731D01*
X48155147Y-118883350D01*
X48208719Y-118930969D01*
X47434909Y-118835731D02*
X47053957Y-118835731D01*
X47250385Y-118502397D02*
X47357528Y-119359540D01*
X47321814Y-119454778D01*
X47232528Y-119502397D01*
X47137290Y-119502397D01*
X46417052Y-119454778D02*
X46518243Y-119502397D01*
X46708719Y-119502397D01*
X46798004Y-119454778D01*
X46833719Y-119359540D01*
X46786100Y-118978588D01*
X46726576Y-118883350D01*
X46625385Y-118835731D01*
X46434909Y-118835731D01*
X46345624Y-118883350D01*
X46309909Y-118978588D01*
X46321814Y-119073826D01*
X46809909Y-119169064D01*
X45946814Y-119502397D02*
X45863481Y-118835731D01*
X45887290Y-119026207D02*
X45827766Y-118930969D01*
X45774195Y-118883350D01*
X45673004Y-118835731D01*
X45577766Y-118835731D01*
X45327766Y-119502397D02*
X45202766Y-118502397D01*
X45250385Y-118883350D02*
X45149195Y-118835731D01*
X44958719Y-118835731D01*
X44869433Y-118883350D01*
X44827766Y-118930969D01*
X44792052Y-119026207D01*
X44827766Y-119311921D01*
X44887290Y-119407159D01*
X44940862Y-119454778D01*
X45042052Y-119502397D01*
X45232528Y-119502397D01*
X45321814Y-119454778D01*
X44280147Y-119502397D02*
X44369433Y-119454778D01*
X44411100Y-119407159D01*
X44446814Y-119311921D01*
X44411100Y-119026207D01*
X44351576Y-118930969D01*
X44298004Y-118883350D01*
X44196814Y-118835731D01*
X44053957Y-118835731D01*
X43964671Y-118883350D01*
X43923004Y-118930969D01*
X43887290Y-119026207D01*
X43923004Y-119311921D01*
X43982528Y-119407159D01*
X44036100Y-119454778D01*
X44137290Y-119502397D01*
X44280147Y-119502397D01*
X43089671Y-119502397D02*
X43024195Y-118978588D01*
X43059909Y-118883350D01*
X43149195Y-118835731D01*
X43339671Y-118835731D01*
X43440862Y-118883350D01*
X43083719Y-119454778D02*
X43184909Y-119502397D01*
X43423004Y-119502397D01*
X43512290Y-119454778D01*
X43548004Y-119359540D01*
X43536100Y-119264302D01*
X43476576Y-119169064D01*
X43375385Y-119121445D01*
X43137290Y-119121445D01*
X43036100Y-119073826D01*
X42613481Y-119502397D02*
X42530147Y-118835731D01*
X42553957Y-119026207D02*
X42494433Y-118930969D01*
X42440862Y-118883350D01*
X42339671Y-118835731D01*
X42244433Y-118835731D01*
X41565862Y-119502397D02*
X41440862Y-118502397D01*
X41559909Y-119454778D02*
X41661100Y-119502397D01*
X41851576Y-119502397D01*
X41940862Y-119454778D01*
X41982528Y-119407159D01*
X42018243Y-119311921D01*
X41982528Y-119026207D01*
X41923004Y-118930969D01*
X41869433Y-118883350D01*
X41768243Y-118835731D01*
X41577766Y-118835731D01*
X41488481Y-118883350D01*
X58488481Y-71702385D02*
X58589671Y-72511909D01*
X58553957Y-72607147D01*
X58512290Y-72654766D01*
X58423004Y-72702385D01*
X58232528Y-72702385D01*
X58131338Y-72654766D01*
X58077766Y-72607147D01*
X58018243Y-72511909D01*
X57917052Y-71702385D01*
X57482528Y-72035719D02*
X57565862Y-72702385D01*
X57494433Y-72130957D02*
X57440862Y-72083338D01*
X57339671Y-72035719D01*
X57196814Y-72035719D01*
X57107528Y-72083338D01*
X57071814Y-72178576D01*
X57137290Y-72702385D01*
X56661100Y-72702385D02*
X56577766Y-72035719D01*
X56536100Y-71702385D02*
X56589671Y-71750005D01*
X56548004Y-71797624D01*
X56494433Y-71750005D01*
X56536100Y-71702385D01*
X56548004Y-71797624D01*
X56244433Y-72035719D02*
X55863481Y-72035719D01*
X56184909Y-72702385D02*
X56077766Y-71845243D01*
X56018243Y-71750005D01*
X55917052Y-71702385D01*
X55821814Y-71702385D01*
X55613481Y-72702385D02*
X55530147Y-72035719D01*
X55553957Y-72226195D02*
X55494433Y-72130957D01*
X55440862Y-72083338D01*
X55339671Y-72035719D01*
X55244433Y-72035719D01*
X54994433Y-72702385D02*
X54911100Y-72035719D01*
X54869433Y-71702385D02*
X54923004Y-71750005D01*
X54881338Y-71797624D01*
X54827766Y-71750005D01*
X54869433Y-71702385D01*
X54881338Y-71797624D01*
X54131338Y-72654766D02*
X54232528Y-72702385D01*
X54423004Y-72702385D01*
X54512290Y-72654766D01*
X54548004Y-72559528D01*
X54500385Y-72178576D01*
X54440862Y-72083338D01*
X54339671Y-72035719D01*
X54149195Y-72035719D01*
X54059909Y-72083338D01*
X54024195Y-72178576D01*
X54036100Y-72273814D01*
X54524195Y-72369052D01*
X53232528Y-72702385D02*
X53107528Y-71702385D01*
X53226576Y-72654766D02*
X53327766Y-72702385D01*
X53518243Y-72702385D01*
X53607528Y-72654766D01*
X53649195Y-72607147D01*
X53684909Y-72511909D01*
X53649195Y-72226195D01*
X53589671Y-72130957D01*
X53536100Y-72083338D01*
X53434909Y-72035719D01*
X53244433Y-72035719D01*
X53155147Y-72083338D01*
X51994433Y-72702385D02*
X51869433Y-71702385D01*
X51631338Y-71702385D01*
X51494433Y-71750005D01*
X51411100Y-71845243D01*
X51375385Y-71940481D01*
X51351576Y-72130957D01*
X51369433Y-72273814D01*
X51440862Y-72464290D01*
X51500385Y-72559528D01*
X51607528Y-72654766D01*
X51756338Y-72702385D01*
X51994433Y-72702385D01*
X50565862Y-72702385D02*
X50500385Y-72178576D01*
X50536100Y-72083338D01*
X50625385Y-72035719D01*
X50815862Y-72035719D01*
X50917052Y-72083338D01*
X50559909Y-72654766D02*
X50661100Y-72702385D01*
X50899195Y-72702385D01*
X50988481Y-72654766D01*
X51024195Y-72559528D01*
X51012290Y-72464290D01*
X50952766Y-72369052D01*
X50851576Y-72321433D01*
X50613481Y-72321433D01*
X50512290Y-72273814D01*
X49577766Y-72035719D02*
X49661100Y-72702385D01*
X50006338Y-72035719D02*
X50071814Y-72559528D01*
X50036100Y-72654766D01*
X49946814Y-72702385D01*
X49803957Y-72702385D01*
X49702766Y-72654766D01*
X49649195Y-72607147D01*
X48673004Y-72035719D02*
X48774195Y-72845243D01*
X48833719Y-72940481D01*
X48887290Y-72988100D01*
X48988481Y-73035719D01*
X49131338Y-73035719D01*
X49220624Y-72988100D01*
X48750385Y-72654766D02*
X48851576Y-72702385D01*
X49042052Y-72702385D01*
X49131338Y-72654766D01*
X49173004Y-72607147D01*
X49208719Y-72511909D01*
X49173004Y-72226195D01*
X49113481Y-72130957D01*
X49059909Y-72083338D01*
X48958719Y-72035719D01*
X48768243Y-72035719D01*
X48678957Y-72083338D01*
X48280147Y-72702385D02*
X48155147Y-71702385D01*
X47851576Y-72702385D02*
X47786100Y-72178576D01*
X47821814Y-72083338D01*
X47911100Y-72035719D01*
X48053957Y-72035719D01*
X48155147Y-72083338D01*
X48208719Y-72130957D01*
X47434909Y-72035719D02*
X47053957Y-72035719D01*
X47250385Y-71702385D02*
X47357528Y-72559528D01*
X47321814Y-72654766D01*
X47232528Y-72702385D01*
X47137290Y-72702385D01*
X46417052Y-72654766D02*
X46518243Y-72702385D01*
X46708719Y-72702385D01*
X46798004Y-72654766D01*
X46833719Y-72559528D01*
X46786100Y-72178576D01*
X46726576Y-72083338D01*
X46625385Y-72035719D01*
X46434909Y-72035719D01*
X46345624Y-72083338D01*
X46309909Y-72178576D01*
X46321814Y-72273814D01*
X46809909Y-72369052D01*
X45946814Y-72702385D02*
X45863481Y-72035719D01*
X45887290Y-72226195D02*
X45827766Y-72130957D01*
X45774195Y-72083338D01*
X45673004Y-72035719D01*
X45577766Y-72035719D01*
X45327766Y-72702385D02*
X45202766Y-71702385D01*
X45250385Y-72083338D02*
X45149195Y-72035719D01*
X44958719Y-72035719D01*
X44869433Y-72083338D01*
X44827766Y-72130957D01*
X44792052Y-72226195D01*
X44827766Y-72511909D01*
X44887290Y-72607147D01*
X44940862Y-72654766D01*
X45042052Y-72702385D01*
X45232528Y-72702385D01*
X45321814Y-72654766D01*
X44280147Y-72702385D02*
X44369433Y-72654766D01*
X44411100Y-72607147D01*
X44446814Y-72511909D01*
X44411100Y-72226195D01*
X44351576Y-72130957D01*
X44298004Y-72083338D01*
X44196814Y-72035719D01*
X44053957Y-72035719D01*
X43964671Y-72083338D01*
X43923004Y-72130957D01*
X43887290Y-72226195D01*
X43923004Y-72511909D01*
X43982528Y-72607147D01*
X44036100Y-72654766D01*
X44137290Y-72702385D01*
X44280147Y-72702385D01*
X43089671Y-72702385D02*
X43024195Y-72178576D01*
X43059909Y-72083338D01*
X43149195Y-72035719D01*
X43339671Y-72035719D01*
X43440862Y-72083338D01*
X43083719Y-72654766D02*
X43184909Y-72702385D01*
X43423004Y-72702385D01*
X43512290Y-72654766D01*
X43548004Y-72559528D01*
X43536100Y-72464290D01*
X43476576Y-72369052D01*
X43375385Y-72321433D01*
X43137290Y-72321433D01*
X43036100Y-72273814D01*
X42613481Y-72702385D02*
X42530147Y-72035719D01*
X42553957Y-72226195D02*
X42494433Y-72130957D01*
X42440862Y-72083338D01*
X42339671Y-72035719D01*
X42244433Y-72035719D01*
X41565862Y-72702385D02*
X41440862Y-71702385D01*
X41559909Y-72654766D02*
X41661100Y-72702385D01*
X41851576Y-72702385D01*
X41940862Y-72654766D01*
X41982528Y-72607147D01*
X42018243Y-72511909D01*
X41982528Y-72226195D01*
X41923004Y-72130957D01*
X41869433Y-72083338D01*
X41768243Y-72035719D01*
X41577766Y-72035719D01*
X41488481Y-72083338D01*
X58488481Y-48302379D02*
X58589671Y-49111903D01*
X58553957Y-49207141D01*
X58512290Y-49254760D01*
X58423004Y-49302379D01*
X58232528Y-49302379D01*
X58131338Y-49254760D01*
X58077766Y-49207141D01*
X58018243Y-49111903D01*
X57917052Y-48302379D01*
X57482528Y-48635713D02*
X57565862Y-49302379D01*
X57494433Y-48730951D02*
X57440862Y-48683332D01*
X57339671Y-48635713D01*
X57196814Y-48635713D01*
X57107528Y-48683332D01*
X57071814Y-48778570D01*
X57137290Y-49302379D01*
X56661100Y-49302379D02*
X56577766Y-48635713D01*
X56536100Y-48302379D02*
X56589671Y-48349999D01*
X56548004Y-48397618D01*
X56494433Y-48349999D01*
X56536100Y-48302379D01*
X56548004Y-48397618D01*
X56244433Y-48635713D02*
X55863481Y-48635713D01*
X56184909Y-49302379D02*
X56077766Y-48445237D01*
X56018243Y-48349999D01*
X55917052Y-48302379D01*
X55821814Y-48302379D01*
X55613481Y-49302379D02*
X55530147Y-48635713D01*
X55553957Y-48826189D02*
X55494433Y-48730951D01*
X55440862Y-48683332D01*
X55339671Y-48635713D01*
X55244433Y-48635713D01*
X54994433Y-49302379D02*
X54911100Y-48635713D01*
X54869433Y-48302379D02*
X54923004Y-48349999D01*
X54881338Y-48397618D01*
X54827766Y-48349999D01*
X54869433Y-48302379D01*
X54881338Y-48397618D01*
X54131338Y-49254760D02*
X54232528Y-49302379D01*
X54423004Y-49302379D01*
X54512290Y-49254760D01*
X54548004Y-49159522D01*
X54500385Y-48778570D01*
X54440862Y-48683332D01*
X54339671Y-48635713D01*
X54149195Y-48635713D01*
X54059909Y-48683332D01*
X54024195Y-48778570D01*
X54036100Y-48873808D01*
X54524195Y-48969046D01*
X53232528Y-49302379D02*
X53107528Y-48302379D01*
X53226576Y-49254760D02*
X53327766Y-49302379D01*
X53518243Y-49302379D01*
X53607528Y-49254760D01*
X53649195Y-49207141D01*
X53684909Y-49111903D01*
X53649195Y-48826189D01*
X53589671Y-48730951D01*
X53536100Y-48683332D01*
X53434909Y-48635713D01*
X53244433Y-48635713D01*
X53155147Y-48683332D01*
X51994433Y-49302379D02*
X51869433Y-48302379D01*
X51631338Y-48302379D01*
X51494433Y-48349999D01*
X51411100Y-48445237D01*
X51375385Y-48540475D01*
X51351576Y-48730951D01*
X51369433Y-48873808D01*
X51440862Y-49064284D01*
X51500385Y-49159522D01*
X51607528Y-49254760D01*
X51756338Y-49302379D01*
X51994433Y-49302379D01*
X50565862Y-49302379D02*
X50500385Y-48778570D01*
X50536100Y-48683332D01*
X50625385Y-48635713D01*
X50815862Y-48635713D01*
X50917052Y-48683332D01*
X50559909Y-49254760D02*
X50661100Y-49302379D01*
X50899195Y-49302379D01*
X50988481Y-49254760D01*
X51024195Y-49159522D01*
X51012290Y-49064284D01*
X50952766Y-48969046D01*
X50851576Y-48921427D01*
X50613481Y-48921427D01*
X50512290Y-48873808D01*
X49577766Y-48635713D02*
X49661100Y-49302379D01*
X50006338Y-48635713D02*
X50071814Y-49159522D01*
X50036100Y-49254760D01*
X49946814Y-49302379D01*
X49803957Y-49302379D01*
X49702766Y-49254760D01*
X49649195Y-49207141D01*
X48673004Y-48635713D02*
X48774195Y-49445237D01*
X48833719Y-49540475D01*
X48887290Y-49588094D01*
X48988481Y-49635713D01*
X49131338Y-49635713D01*
X49220624Y-49588094D01*
X48750385Y-49254760D02*
X48851576Y-49302379D01*
X49042052Y-49302379D01*
X49131338Y-49254760D01*
X49173004Y-49207141D01*
X49208719Y-49111903D01*
X49173004Y-48826189D01*
X49113481Y-48730951D01*
X49059909Y-48683332D01*
X48958719Y-48635713D01*
X48768243Y-48635713D01*
X48678957Y-48683332D01*
X48280147Y-49302379D02*
X48155147Y-48302379D01*
X47851576Y-49302379D02*
X47786100Y-48778570D01*
X47821814Y-48683332D01*
X47911100Y-48635713D01*
X48053957Y-48635713D01*
X48155147Y-48683332D01*
X48208719Y-48730951D01*
X47434909Y-48635713D02*
X47053957Y-48635713D01*
X47250385Y-48302379D02*
X47357528Y-49159522D01*
X47321814Y-49254760D01*
X47232528Y-49302379D01*
X47137290Y-49302379D01*
X46417052Y-49254760D02*
X46518243Y-49302379D01*
X46708719Y-49302379D01*
X46798004Y-49254760D01*
X46833719Y-49159522D01*
X46786100Y-48778570D01*
X46726576Y-48683332D01*
X46625385Y-48635713D01*
X46434909Y-48635713D01*
X46345624Y-48683332D01*
X46309909Y-48778570D01*
X46321814Y-48873808D01*
X46809909Y-48969046D01*
X45946814Y-49302379D02*
X45863481Y-48635713D01*
X45887290Y-48826189D02*
X45827766Y-48730951D01*
X45774195Y-48683332D01*
X45673004Y-48635713D01*
X45577766Y-48635713D01*
X45327766Y-49302379D02*
X45202766Y-48302379D01*
X45250385Y-48683332D02*
X45149195Y-48635713D01*
X44958719Y-48635713D01*
X44869433Y-48683332D01*
X44827766Y-48730951D01*
X44792052Y-48826189D01*
X44827766Y-49111903D01*
X44887290Y-49207141D01*
X44940862Y-49254760D01*
X45042052Y-49302379D01*
X45232528Y-49302379D01*
X45321814Y-49254760D01*
X44280147Y-49302379D02*
X44369433Y-49254760D01*
X44411100Y-49207141D01*
X44446814Y-49111903D01*
X44411100Y-48826189D01*
X44351576Y-48730951D01*
X44298004Y-48683332D01*
X44196814Y-48635713D01*
X44053957Y-48635713D01*
X43964671Y-48683332D01*
X43923004Y-48730951D01*
X43887290Y-48826189D01*
X43923004Y-49111903D01*
X43982528Y-49207141D01*
X44036100Y-49254760D01*
X44137290Y-49302379D01*
X44280147Y-49302379D01*
X43089671Y-49302379D02*
X43024195Y-48778570D01*
X43059909Y-48683332D01*
X43149195Y-48635713D01*
X43339671Y-48635713D01*
X43440862Y-48683332D01*
X43083719Y-49254760D02*
X43184909Y-49302379D01*
X43423004Y-49302379D01*
X43512290Y-49254760D01*
X43548004Y-49159522D01*
X43536100Y-49064284D01*
X43476576Y-48969046D01*
X43375385Y-48921427D01*
X43137290Y-48921427D01*
X43036100Y-48873808D01*
X42613481Y-49302379D02*
X42530147Y-48635713D01*
X42553957Y-48826189D02*
X42494433Y-48730951D01*
X42440862Y-48683332D01*
X42339671Y-48635713D01*
X42244433Y-48635713D01*
X41565862Y-49302379D02*
X41440862Y-48302379D01*
X41559909Y-49254760D02*
X41661100Y-49302379D01*
X41851576Y-49302379D01*
X41940862Y-49254760D01*
X41982528Y-49207141D01*
X42018243Y-49111903D01*
X41982528Y-48826189D01*
X41923004Y-48730951D01*
X41869433Y-48683332D01*
X41768243Y-48635713D01*
X41577766Y-48635713D01*
X41488481Y-48683332D01*
X58488481Y-95102391D02*
X58589671Y-95911915D01*
X58553957Y-96007153D01*
X58512290Y-96054772D01*
X58423004Y-96102391D01*
X58232528Y-96102391D01*
X58131338Y-96054772D01*
X58077766Y-96007153D01*
X58018243Y-95911915D01*
X57917052Y-95102391D01*
X57482528Y-95435725D02*
X57565862Y-96102391D01*
X57494433Y-95530963D02*
X57440862Y-95483344D01*
X57339671Y-95435725D01*
X57196814Y-95435725D01*
X57107528Y-95483344D01*
X57071814Y-95578582D01*
X57137290Y-96102391D01*
X56661100Y-96102391D02*
X56577766Y-95435725D01*
X56536100Y-95102391D02*
X56589671Y-95150011D01*
X56548004Y-95197630D01*
X56494433Y-95150011D01*
X56536100Y-95102391D01*
X56548004Y-95197630D01*
X56244433Y-95435725D02*
X55863481Y-95435725D01*
X56184909Y-96102391D02*
X56077766Y-95245249D01*
X56018243Y-95150011D01*
X55917052Y-95102391D01*
X55821814Y-95102391D01*
X55613481Y-96102391D02*
X55530147Y-95435725D01*
X55553957Y-95626201D02*
X55494433Y-95530963D01*
X55440862Y-95483344D01*
X55339671Y-95435725D01*
X55244433Y-95435725D01*
X54994433Y-96102391D02*
X54911100Y-95435725D01*
X54869433Y-95102391D02*
X54923004Y-95150011D01*
X54881338Y-95197630D01*
X54827766Y-95150011D01*
X54869433Y-95102391D01*
X54881338Y-95197630D01*
X54131338Y-96054772D02*
X54232528Y-96102391D01*
X54423004Y-96102391D01*
X54512290Y-96054772D01*
X54548004Y-95959534D01*
X54500385Y-95578582D01*
X54440862Y-95483344D01*
X54339671Y-95435725D01*
X54149195Y-95435725D01*
X54059909Y-95483344D01*
X54024195Y-95578582D01*
X54036100Y-95673820D01*
X54524195Y-95769058D01*
X53232528Y-96102391D02*
X53107528Y-95102391D01*
X53226576Y-96054772D02*
X53327766Y-96102391D01*
X53518243Y-96102391D01*
X53607528Y-96054772D01*
X53649195Y-96007153D01*
X53684909Y-95911915D01*
X53649195Y-95626201D01*
X53589671Y-95530963D01*
X53536100Y-95483344D01*
X53434909Y-95435725D01*
X53244433Y-95435725D01*
X53155147Y-95483344D01*
X51994433Y-96102391D02*
X51869433Y-95102391D01*
X51631338Y-95102391D01*
X51494433Y-95150011D01*
X51411100Y-95245249D01*
X51375385Y-95340487D01*
X51351576Y-95530963D01*
X51369433Y-95673820D01*
X51440862Y-95864296D01*
X51500385Y-95959534D01*
X51607528Y-96054772D01*
X51756338Y-96102391D01*
X51994433Y-96102391D01*
X50565862Y-96102391D02*
X50500385Y-95578582D01*
X50536100Y-95483344D01*
X50625385Y-95435725D01*
X50815862Y-95435725D01*
X50917052Y-95483344D01*
X50559909Y-96054772D02*
X50661100Y-96102391D01*
X50899195Y-96102391D01*
X50988481Y-96054772D01*
X51024195Y-95959534D01*
X51012290Y-95864296D01*
X50952766Y-95769058D01*
X50851576Y-95721439D01*
X50613481Y-95721439D01*
X50512290Y-95673820D01*
X49577766Y-95435725D02*
X49661100Y-96102391D01*
X50006338Y-95435725D02*
X50071814Y-95959534D01*
X50036100Y-96054772D01*
X49946814Y-96102391D01*
X49803957Y-96102391D01*
X49702766Y-96054772D01*
X49649195Y-96007153D01*
X48673004Y-95435725D02*
X48774195Y-96245249D01*
X48833719Y-96340487D01*
X48887290Y-96388106D01*
X48988481Y-96435725D01*
X49131338Y-96435725D01*
X49220624Y-96388106D01*
X48750385Y-96054772D02*
X48851576Y-96102391D01*
X49042052Y-96102391D01*
X49131338Y-96054772D01*
X49173004Y-96007153D01*
X49208719Y-95911915D01*
X49173004Y-95626201D01*
X49113481Y-95530963D01*
X49059909Y-95483344D01*
X48958719Y-95435725D01*
X48768243Y-95435725D01*
X48678957Y-95483344D01*
X48280147Y-96102391D02*
X48155147Y-95102391D01*
X47851576Y-96102391D02*
X47786100Y-95578582D01*
X47821814Y-95483344D01*
X47911100Y-95435725D01*
X48053957Y-95435725D01*
X48155147Y-95483344D01*
X48208719Y-95530963D01*
X47434909Y-95435725D02*
X47053957Y-95435725D01*
X47250385Y-95102391D02*
X47357528Y-95959534D01*
X47321814Y-96054772D01*
X47232528Y-96102391D01*
X47137290Y-96102391D01*
X46417052Y-96054772D02*
X46518243Y-96102391D01*
X46708719Y-96102391D01*
X46798004Y-96054772D01*
X46833719Y-95959534D01*
X46786100Y-95578582D01*
X46726576Y-95483344D01*
X46625385Y-95435725D01*
X46434909Y-95435725D01*
X46345624Y-95483344D01*
X46309909Y-95578582D01*
X46321814Y-95673820D01*
X46809909Y-95769058D01*
X45946814Y-96102391D02*
X45863481Y-95435725D01*
X45887290Y-95626201D02*
X45827766Y-95530963D01*
X45774195Y-95483344D01*
X45673004Y-95435725D01*
X45577766Y-95435725D01*
X45327766Y-96102391D02*
X45202766Y-95102391D01*
X45250385Y-95483344D02*
X45149195Y-95435725D01*
X44958719Y-95435725D01*
X44869433Y-95483344D01*
X44827766Y-95530963D01*
X44792052Y-95626201D01*
X44827766Y-95911915D01*
X44887290Y-96007153D01*
X44940862Y-96054772D01*
X45042052Y-96102391D01*
X45232528Y-96102391D01*
X45321814Y-96054772D01*
X44280147Y-96102391D02*
X44369433Y-96054772D01*
X44411100Y-96007153D01*
X44446814Y-95911915D01*
X44411100Y-95626201D01*
X44351576Y-95530963D01*
X44298004Y-95483344D01*
X44196814Y-95435725D01*
X44053957Y-95435725D01*
X43964671Y-95483344D01*
X43923004Y-95530963D01*
X43887290Y-95626201D01*
X43923004Y-95911915D01*
X43982528Y-96007153D01*
X44036100Y-96054772D01*
X44137290Y-96102391D01*
X44280147Y-96102391D01*
X43089671Y-96102391D02*
X43024195Y-95578582D01*
X43059909Y-95483344D01*
X43149195Y-95435725D01*
X43339671Y-95435725D01*
X43440862Y-95483344D01*
X43083719Y-96054772D02*
X43184909Y-96102391D01*
X43423004Y-96102391D01*
X43512290Y-96054772D01*
X43548004Y-95959534D01*
X43536100Y-95864296D01*
X43476576Y-95769058D01*
X43375385Y-95721439D01*
X43137290Y-95721439D01*
X43036100Y-95673820D01*
X42613481Y-96102391D02*
X42530147Y-95435725D01*
X42553957Y-95626201D02*
X42494433Y-95530963D01*
X42440862Y-95483344D01*
X42339671Y-95435725D01*
X42244433Y-95435725D01*
X41565862Y-96102391D02*
X41440862Y-95102391D01*
X41559909Y-96054772D02*
X41661100Y-96102391D01*
X41851576Y-96102391D01*
X41940862Y-96054772D01*
X41982528Y-96007153D01*
X42018243Y-95911915D01*
X41982528Y-95626201D01*
X41923004Y-95530963D01*
X41869433Y-95483344D01*
X41768243Y-95435725D01*
X41577766Y-95435725D01*
X41488481Y-95483344D01*
X106188484Y-106802394D02*
X106289674Y-107611918D01*
X106253960Y-107707156D01*
X106212293Y-107754775D01*
X106123007Y-107802394D01*
X105932531Y-107802394D01*
X105831341Y-107754775D01*
X105777769Y-107707156D01*
X105718246Y-107611918D01*
X105617055Y-106802394D01*
X105182531Y-107135728D02*
X105265865Y-107802394D01*
X105194436Y-107230966D02*
X105140865Y-107183347D01*
X105039674Y-107135728D01*
X104896817Y-107135728D01*
X104807531Y-107183347D01*
X104771817Y-107278585D01*
X104837293Y-107802394D01*
X104361103Y-107802394D02*
X104277769Y-107135728D01*
X104236103Y-106802394D02*
X104289674Y-106850014D01*
X104248007Y-106897633D01*
X104194436Y-106850014D01*
X104236103Y-106802394D01*
X104248007Y-106897633D01*
X103944436Y-107135728D02*
X103563484Y-107135728D01*
X103884912Y-107802394D02*
X103777769Y-106945252D01*
X103718246Y-106850014D01*
X103617055Y-106802394D01*
X103521817Y-106802394D01*
X103313484Y-107802394D02*
X103230150Y-107135728D01*
X103253960Y-107326204D02*
X103194436Y-107230966D01*
X103140865Y-107183347D01*
X103039674Y-107135728D01*
X102944436Y-107135728D01*
X102694436Y-107802394D02*
X102611103Y-107135728D01*
X102569436Y-106802394D02*
X102623007Y-106850014D01*
X102581341Y-106897633D01*
X102527769Y-106850014D01*
X102569436Y-106802394D01*
X102581341Y-106897633D01*
X101831341Y-107754775D02*
X101932531Y-107802394D01*
X102123007Y-107802394D01*
X102212293Y-107754775D01*
X102248007Y-107659537D01*
X102200388Y-107278585D01*
X102140865Y-107183347D01*
X102039674Y-107135728D01*
X101849198Y-107135728D01*
X101759912Y-107183347D01*
X101724198Y-107278585D01*
X101736103Y-107373823D01*
X102224198Y-107469061D01*
X100932531Y-107802394D02*
X100807531Y-106802394D01*
X100926579Y-107754775D02*
X101027769Y-107802394D01*
X101218246Y-107802394D01*
X101307531Y-107754775D01*
X101349198Y-107707156D01*
X101384912Y-107611918D01*
X101349198Y-107326204D01*
X101289674Y-107230966D01*
X101236103Y-107183347D01*
X101134912Y-107135728D01*
X100944436Y-107135728D01*
X100855150Y-107183347D01*
X99694436Y-107802394D02*
X99569436Y-106802394D01*
X99331341Y-106802394D01*
X99194436Y-106850014D01*
X99111103Y-106945252D01*
X99075388Y-107040490D01*
X99051579Y-107230966D01*
X99069436Y-107373823D01*
X99140865Y-107564299D01*
X99200388Y-107659537D01*
X99307531Y-107754775D01*
X99456341Y-107802394D01*
X99694436Y-107802394D01*
X98265865Y-107802394D02*
X98200388Y-107278585D01*
X98236103Y-107183347D01*
X98325388Y-107135728D01*
X98515865Y-107135728D01*
X98617055Y-107183347D01*
X98259912Y-107754775D02*
X98361103Y-107802394D01*
X98599198Y-107802394D01*
X98688484Y-107754775D01*
X98724198Y-107659537D01*
X98712293Y-107564299D01*
X98652769Y-107469061D01*
X98551579Y-107421442D01*
X98313484Y-107421442D01*
X98212293Y-107373823D01*
X97277769Y-107135728D02*
X97361103Y-107802394D01*
X97706341Y-107135728D02*
X97771817Y-107659537D01*
X97736103Y-107754775D01*
X97646817Y-107802394D01*
X97503960Y-107802394D01*
X97402769Y-107754775D01*
X97349198Y-107707156D01*
X96373007Y-107135728D02*
X96474198Y-107945252D01*
X96533722Y-108040490D01*
X96587293Y-108088109D01*
X96688484Y-108135728D01*
X96831341Y-108135728D01*
X96920627Y-108088109D01*
X96450388Y-107754775D02*
X96551579Y-107802394D01*
X96742055Y-107802394D01*
X96831341Y-107754775D01*
X96873007Y-107707156D01*
X96908722Y-107611918D01*
X96873007Y-107326204D01*
X96813484Y-107230966D01*
X96759912Y-107183347D01*
X96658722Y-107135728D01*
X96468246Y-107135728D01*
X96378960Y-107183347D01*
X95980150Y-107802394D02*
X95855150Y-106802394D01*
X95551579Y-107802394D02*
X95486103Y-107278585D01*
X95521817Y-107183347D01*
X95611103Y-107135728D01*
X95753960Y-107135728D01*
X95855150Y-107183347D01*
X95908722Y-107230966D01*
X95134912Y-107135728D02*
X94753960Y-107135728D01*
X94950388Y-106802394D02*
X95057531Y-107659537D01*
X95021817Y-107754775D01*
X94932531Y-107802394D01*
X94837293Y-107802394D01*
X94117055Y-107754775D02*
X94218246Y-107802394D01*
X94408722Y-107802394D01*
X94498007Y-107754775D01*
X94533722Y-107659537D01*
X94486103Y-107278585D01*
X94426579Y-107183347D01*
X94325388Y-107135728D01*
X94134912Y-107135728D01*
X94045627Y-107183347D01*
X94009912Y-107278585D01*
X94021817Y-107373823D01*
X94509912Y-107469061D01*
X93646817Y-107802394D02*
X93563484Y-107135728D01*
X93587293Y-107326204D02*
X93527769Y-107230966D01*
X93474198Y-107183347D01*
X93373007Y-107135728D01*
X93277769Y-107135728D01*
X93027769Y-107802394D02*
X92902769Y-106802394D01*
X92950388Y-107183347D02*
X92849198Y-107135728D01*
X92658722Y-107135728D01*
X92569436Y-107183347D01*
X92527769Y-107230966D01*
X92492055Y-107326204D01*
X92527769Y-107611918D01*
X92587293Y-107707156D01*
X92640865Y-107754775D01*
X92742055Y-107802394D01*
X92932531Y-107802394D01*
X93021817Y-107754775D01*
X91980150Y-107802394D02*
X92069436Y-107754775D01*
X92111103Y-107707156D01*
X92146817Y-107611918D01*
X92111103Y-107326204D01*
X92051579Y-107230966D01*
X91998007Y-107183347D01*
X91896817Y-107135728D01*
X91753960Y-107135728D01*
X91664674Y-107183347D01*
X91623007Y-107230966D01*
X91587293Y-107326204D01*
X91623007Y-107611918D01*
X91682531Y-107707156D01*
X91736103Y-107754775D01*
X91837293Y-107802394D01*
X91980150Y-107802394D01*
X90789674Y-107802394D02*
X90724198Y-107278585D01*
X90759912Y-107183347D01*
X90849198Y-107135728D01*
X91039674Y-107135728D01*
X91140865Y-107183347D01*
X90783722Y-107754775D02*
X90884912Y-107802394D01*
X91123007Y-107802394D01*
X91212293Y-107754775D01*
X91248007Y-107659537D01*
X91236103Y-107564299D01*
X91176579Y-107469061D01*
X91075388Y-107421442D01*
X90837293Y-107421442D01*
X90736103Y-107373823D01*
X90313484Y-107802394D02*
X90230150Y-107135728D01*
X90253960Y-107326204D02*
X90194436Y-107230966D01*
X90140865Y-107183347D01*
X90039674Y-107135728D01*
X89944436Y-107135728D01*
X89265865Y-107802394D02*
X89140865Y-106802394D01*
X89259912Y-107754775D02*
X89361103Y-107802394D01*
X89551579Y-107802394D01*
X89640865Y-107754775D01*
X89682531Y-107707156D01*
X89718246Y-107611918D01*
X89682531Y-107326204D01*
X89623007Y-107230966D01*
X89569436Y-107183347D01*
X89468246Y-107135728D01*
X89277769Y-107135728D01*
X89188484Y-107183347D01*
M02*
