M48
; DRILL file {KiCad (6.0.0)} date Fri Feb  4 14:46:28 2022
; FORMAT={-:-/ absolute / inch / decimal}
; #@! TF.CreationDate,2022-02-04T14:46:28-05:00
; #@! TF.GenerationSoftware,Kicad,Pcbnew,(6.0.0)
; #@! TF.FileFunction,Plated,1,2,PTH
FMAT,2
INCH
; #@! TA.AperFunction,Plated,PTH,ViaDrill
T1C0.0157
; #@! TA.AperFunction,Plated,PTH,ComponentDrill
T2C0.0197
; #@! TA.AperFunction,Plated,PTH,ComponentDrill
T3C0.0236
; #@! TA.AperFunction,Plated,PTH,ComponentDrill
T4C0.1260
%
G90
G05
T1
X1.5354Y-1.9508
X1.5354Y-2.4114
X1.5354Y-2.872
X1.5354Y-3.3327
X1.5354Y-3.7933
X1.5354Y-4.2539
X1.5354Y-4.7146
X1.5512Y-2.0925
X1.5512Y-2.5531
X1.5512Y-3.0138
X1.5512Y-3.4744
X1.5512Y-3.935
X1.5512Y-4.3957
X1.5512Y-4.8563
X1.7087Y-1.935
X1.7087Y-2.3957
X1.7087Y-2.8563
X1.7087Y-3.3169
X1.7087Y-3.7776
X1.7087Y-4.2382
X1.7087Y-4.6988
X1.748Y-2.0659
X1.748Y-2.5266
X1.748Y-2.9872
X1.748Y-3.4478
X1.748Y-3.9085
X1.748Y-4.3691
X1.748Y-4.8297
X1.9134Y-1.9852
X1.9134Y-2.4459
X1.9134Y-2.9065
X1.9134Y-3.3671
X1.9134Y-3.8278
X1.9134Y-4.2884
X1.9134Y-4.749
X1.9722Y-1.9234
X1.9722Y-2.3841
X1.9722Y-2.8447
X1.9722Y-3.3053
X1.9722Y-3.7659
X1.9722Y-4.2266
X1.9722Y-4.6872
X2.0157Y-1.9902
X2.0157Y-2.4508
X2.0157Y-2.9114
X2.0157Y-3.372
X2.0157Y-3.8327
X2.0157Y-4.2933
X2.0157Y-4.7539
X2.0639Y-1.942
X2.0639Y-2.4027
X2.0639Y-2.8633
X2.0639Y-3.3239
X2.0639Y-3.7845
X2.0639Y-4.2452
X2.0639Y-4.7058
X2.1461Y-2.0996
X2.1461Y-2.5602
X2.1461Y-3.0209
X2.1461Y-3.4815
X2.1461Y-3.9421
X2.1461Y-4.4028
X2.1461Y-4.8634
X2.2006Y-2.003
X2.2006Y-2.4636
X2.2006Y-2.9242
X2.2006Y-3.3848
X2.2006Y-3.8455
X2.2006Y-4.3061
X2.2006Y-4.7667
X2.2537Y-1.8606
X2.2537Y-2.3213
X2.2537Y-2.7819
X2.2537Y-3.2425
X2.2537Y-3.7032
X2.2537Y-4.1638
X2.2537Y-4.6244
X3.4134Y-1.9508
X3.4134Y-2.4114
X3.4134Y-2.872
X3.4134Y-3.3327
X3.4134Y-3.7933
X3.4134Y-4.2539
X3.4134Y-4.7146
X3.4291Y-2.0925
X3.4291Y-2.5531
X3.4291Y-3.0138
X3.4291Y-3.4744
X3.4291Y-3.935
X3.4291Y-4.3957
X3.4291Y-4.8563
X3.5866Y-1.935
X3.5866Y-2.3957
X3.5866Y-2.8563
X3.5866Y-3.3169
X3.5866Y-3.7776
X3.5866Y-4.2382
X3.5866Y-4.6988
X3.626Y-2.0659
X3.626Y-2.5266
X3.626Y-2.9872
X3.626Y-3.4478
X3.626Y-3.9085
X3.626Y-4.3691
X3.626Y-4.8297
X3.7913Y-1.9852
X3.7913Y-2.4459
X3.7913Y-2.9065
X3.7913Y-3.3671
X3.7913Y-3.8278
X3.7913Y-4.2884
X3.7913Y-4.749
X3.8502Y-1.9234
X3.8502Y-2.3841
X3.8502Y-2.8447
X3.8502Y-3.3053
X3.8502Y-3.7659
X3.8502Y-4.2266
X3.8502Y-4.6872
X3.8937Y-1.9902
X3.8937Y-2.4508
X3.8937Y-2.9114
X3.8937Y-3.372
X3.8937Y-3.8327
X3.8937Y-4.2933
X3.8937Y-4.7539
X3.9418Y-1.942
X3.9418Y-2.4027
X3.9418Y-2.8633
X3.9418Y-3.3239
X3.9418Y-3.7845
X3.9418Y-4.2452
X3.9418Y-4.7058
X4.024Y-2.0996
X4.024Y-2.5602
X4.024Y-3.0209
X4.024Y-3.4815
X4.024Y-3.9421
X4.024Y-4.4028
X4.024Y-4.8634
X4.0785Y-2.003
X4.0785Y-2.4636
X4.0785Y-2.9242
X4.0785Y-3.3848
X4.0785Y-3.8455
X4.0785Y-4.3061
X4.0785Y-4.7667
X4.1317Y-1.8606
X4.1317Y-2.3213
X4.1317Y-2.7819
X4.1317Y-3.2425
X4.1317Y-3.7032
X4.1317Y-4.1638
X4.1317Y-4.6244
T2
X1.1654Y-1.9685
X1.1654Y-2.4291
X1.1654Y-2.8898
X1.1654Y-3.3504
X1.1654Y-3.811
X1.1654Y-4.2717
X1.1654Y-4.7323
X1.193Y-1.9017
X1.193Y-2.0353
X1.193Y-2.3623
X1.193Y-2.4959
X1.193Y-2.823
X1.193Y-2.9566
X1.193Y-3.2836
X1.193Y-3.4172
X1.193Y-3.7442
X1.193Y-3.8778
X1.193Y-4.2048
X1.193Y-4.3385
X1.193Y-4.6655
X1.193Y-4.7991
X1.2598Y-1.874
X1.2598Y-2.063
X1.2598Y-2.3346
X1.2598Y-2.5236
X1.2598Y-2.7953
X1.2598Y-2.9843
X1.2598Y-3.2559
X1.2598Y-3.4449
X1.2598Y-3.7165
X1.2598Y-3.9055
X1.2598Y-4.1772
X1.2598Y-4.3661
X1.2598Y-4.6378
X1.2598Y-4.8268
X1.3267Y-1.9017
X1.3267Y-2.0353
X1.3267Y-2.3623
X1.3267Y-2.4959
X1.3267Y-2.823
X1.3267Y-2.9566
X1.3267Y-3.2836
X1.3267Y-3.4172
X1.3267Y-3.7442
X1.3267Y-3.8778
X1.3267Y-4.2048
X1.3267Y-4.3385
X1.3267Y-4.6655
X1.3267Y-4.7991
X1.3543Y-1.9685
X1.3543Y-2.4291
X1.3543Y-2.8898
X1.3543Y-3.3504
X1.3543Y-3.811
X1.3543Y-4.2717
X1.3543Y-4.7323
X2.5827Y-1.9685
X2.5827Y-2.4291
X2.5827Y-2.8898
X2.5827Y-3.3504
X2.5827Y-3.811
X2.5827Y-4.2717
X2.5827Y-4.7323
X2.6104Y-1.9017
X2.6104Y-2.0353
X2.6104Y-2.3623
X2.6104Y-2.4959
X2.6104Y-2.823
X2.6104Y-2.9566
X2.6104Y-3.2836
X2.6104Y-3.4172
X2.6104Y-3.7442
X2.6104Y-3.8778
X2.6104Y-4.2048
X2.6104Y-4.3385
X2.6104Y-4.6655
X2.6104Y-4.7991
X2.6772Y-1.874
X2.6772Y-2.063
X2.6772Y-2.3346
X2.6772Y-2.5236
X2.6772Y-2.7953
X2.6772Y-2.9843
X2.6772Y-3.2559
X2.6772Y-3.4449
X2.6772Y-3.7165
X2.6772Y-3.9055
X2.6772Y-4.1772
X2.6772Y-4.3661
X2.6772Y-4.6378
X2.6772Y-4.8268
X2.744Y-1.9017
X2.744Y-2.0353
X2.744Y-2.3623
X2.744Y-2.4959
X2.744Y-2.823
X2.744Y-2.9566
X2.744Y-3.2836
X2.744Y-3.4172
X2.744Y-3.7442
X2.744Y-3.8778
X2.744Y-4.2048
X2.744Y-4.3385
X2.744Y-4.6655
X2.744Y-4.7991
X2.7717Y-1.9685
X2.7717Y-2.4291
X2.7717Y-2.8898
X2.7717Y-3.3504
X2.7717Y-3.811
X2.7717Y-4.2717
X2.7717Y-4.7323
X3.0433Y-1.9685
X3.0433Y-2.4291
X3.0433Y-2.8898
X3.0433Y-3.3504
X3.0433Y-3.811
X3.0433Y-4.2717
X3.0433Y-4.7323
X3.071Y-1.9017
X3.071Y-2.0353
X3.071Y-2.3623
X3.071Y-2.4959
X3.071Y-2.823
X3.071Y-2.9566
X3.071Y-3.2836
X3.071Y-3.4172
X3.071Y-3.7442
X3.071Y-3.8778
X3.071Y-4.2048
X3.071Y-4.3385
X3.071Y-4.6655
X3.071Y-4.7991
X3.1378Y-1.874
X3.1378Y-2.063
X3.1378Y-2.3346
X3.1378Y-2.5236
X3.1378Y-2.7953
X3.1378Y-2.9843
X3.1378Y-3.2559
X3.1378Y-3.4449
X3.1378Y-3.7165
X3.1378Y-3.9055
X3.1378Y-4.1772
X3.1378Y-4.3661
X3.1378Y-4.6378
X3.1378Y-4.8268
X3.2046Y-1.9017
X3.2046Y-2.0353
X3.2046Y-2.3623
X3.2046Y-2.4959
X3.2046Y-2.823
X3.2046Y-2.9566
X3.2046Y-3.2836
X3.2046Y-3.4172
X3.2046Y-3.7442
X3.2046Y-3.8778
X3.2046Y-4.2048
X3.2046Y-4.3385
X3.2046Y-4.6655
X3.2046Y-4.7991
X3.2323Y-1.9685
X3.2323Y-2.4291
X3.2323Y-2.8898
X3.2323Y-3.3504
X3.2323Y-3.811
X3.2323Y-4.2717
X3.2323Y-4.7323
X4.4606Y-1.9685
X4.4606Y-2.4291
X4.4606Y-2.8898
X4.4606Y-3.3504
X4.4606Y-3.811
X4.4606Y-4.2717
X4.4606Y-4.7323
X4.4883Y-1.9017
X4.4883Y-2.0353
X4.4883Y-2.3623
X4.4883Y-2.4959
X4.4883Y-2.823
X4.4883Y-2.9566
X4.4883Y-3.2836
X4.4883Y-3.4172
X4.4883Y-3.7442
X4.4883Y-3.8778
X4.4883Y-4.2048
X4.4883Y-4.3385
X4.4883Y-4.6655
X4.4883Y-4.7991
X4.5551Y-1.874
X4.5551Y-2.063
X4.5551Y-2.3346
X4.5551Y-2.5236
X4.5551Y-2.7953
X4.5551Y-2.9843
X4.5551Y-3.2559
X4.5551Y-3.4449
X4.5551Y-3.7165
X4.5551Y-3.9055
X4.5551Y-4.1772
X4.5551Y-4.3661
X4.5551Y-4.6378
X4.5551Y-4.8268
X4.6219Y-1.9017
X4.6219Y-2.0353
X4.6219Y-2.3623
X4.6219Y-2.4959
X4.6219Y-2.823
X4.6219Y-2.9566
X4.6219Y-3.2836
X4.6219Y-3.4172
X4.6219Y-3.7442
X4.6219Y-3.8778
X4.6219Y-4.2048
X4.6219Y-4.3385
X4.6219Y-4.6655
X4.6219Y-4.7991
X4.6496Y-1.9685
X4.6496Y-2.4291
X4.6496Y-2.8898
X4.6496Y-3.3504
X4.6496Y-3.811
X4.6496Y-4.2717
X4.6496Y-4.7323
T4
X1.2598Y-1.9685
X1.2598Y-2.4291
X1.2598Y-2.8898
X1.2598Y-3.3504
X1.2598Y-3.811
X1.2598Y-4.2717
X1.2598Y-4.7323
X2.6772Y-1.9685
X2.6772Y-2.4291
X2.6772Y-2.8898
X2.6772Y-3.3504
X2.6772Y-3.811
X2.6772Y-4.2717
X2.6772Y-4.7323
X3.1378Y-1.9685
X3.1378Y-2.4291
X3.1378Y-2.8898
X3.1378Y-3.3504
X3.1378Y-3.811
X3.1378Y-4.2717
X3.1378Y-4.7323
X4.5551Y-1.9685
X4.5551Y-2.4291
X4.5551Y-2.8898
X4.5551Y-3.3504
X4.5551Y-3.811
X4.5551Y-4.2717
X4.5551Y-4.7323
T3
G00X1.7984Y-1.8602
M15
G01X1.7984Y-1.8366
M16
G05
G00X1.7984Y-2.0346
M15
G01X1.7984Y-1.9913
M16
G05
G00X1.7984Y-2.3209
M15
G01X1.7984Y-2.2972
M16
G05
G00X1.7984Y-2.4953
M15
G01X1.7984Y-2.452
M16
G05
G00X1.7984Y-2.7815
M15
G01X1.7984Y-2.7579
M16
G05
G00X1.7984Y-2.9559
M15
G01X1.7984Y-2.9126
M16
G05
G00X1.7984Y-3.2421
M15
G01X1.7984Y-3.2185
M16
G05
G00X1.7984Y-3.4165
M15
G01X1.7984Y-3.3732
M16
G05
G00X1.7984Y-3.7028
M15
G01X1.7984Y-3.6791
M16
G05
G00X1.7984Y-3.8772
M15
G01X1.7984Y-3.8339
M16
G05
G00X1.7984Y-4.1634
M15
G01X1.7984Y-4.1398
M16
G05
G00X1.7984Y-4.3378
M15
G01X1.7984Y-4.2945
M16
G05
G00X1.7984Y-4.624
M15
G01X1.7984Y-4.6004
M16
G05
G00X1.7984Y-4.7984
M15
G01X1.7984Y-4.7551
M16
G05
G00X2.1386Y-1.8602
M15
G01X2.1386Y-1.8366
M16
G05
G00X2.1386Y-2.0346
M15
G01X2.1386Y-1.9913
M16
G05
G00X2.1386Y-2.3209
M15
G01X2.1386Y-2.2972
M16
G05
G00X2.1386Y-2.4953
M15
G01X2.1386Y-2.452
M16
G05
G00X2.1386Y-2.7815
M15
G01X2.1386Y-2.7579
M16
G05
G00X2.1386Y-2.9559
M15
G01X2.1386Y-2.9126
M16
G05
G00X2.1386Y-3.2421
M15
G01X2.1386Y-3.2185
M16
G05
G00X2.1386Y-3.4165
M15
G01X2.1386Y-3.3732
M16
G05
G00X2.1386Y-3.7028
M15
G01X2.1386Y-3.6791
M16
G05
G00X2.1386Y-3.8772
M15
G01X2.1386Y-3.8339
M16
G05
G00X2.1386Y-4.1634
M15
G01X2.1386Y-4.1398
M16
G05
G00X2.1386Y-4.3378
M15
G01X2.1386Y-4.2945
M16
G05
G00X2.1386Y-4.624
M15
G01X2.1386Y-4.6004
M16
G05
G00X2.1386Y-4.7984
M15
G01X2.1386Y-4.7551
M16
G05
G00X3.6764Y-1.8602
M15
G01X3.6764Y-1.8366
M16
G05
G00X3.6764Y-2.0346
M15
G01X3.6764Y-1.9913
M16
G05
G00X3.6764Y-2.3209
M15
G01X3.6764Y-2.2972
M16
G05
G00X3.6764Y-2.4953
M15
G01X3.6764Y-2.452
M16
G05
G00X3.6764Y-2.7815
M15
G01X3.6764Y-2.7579
M16
G05
G00X3.6764Y-2.9559
M15
G01X3.6764Y-2.9126
M16
G05
G00X3.6764Y-3.2421
M15
G01X3.6764Y-3.2185
M16
G05
G00X3.6764Y-3.4165
M15
G01X3.6764Y-3.3732
M16
G05
G00X3.6764Y-3.7028
M15
G01X3.6764Y-3.6791
M16
G05
G00X3.6764Y-3.8772
M15
G01X3.6764Y-3.8339
M16
G05
G00X3.6764Y-4.1634
M15
G01X3.6764Y-4.1398
M16
G05
G00X3.6764Y-4.3378
M15
G01X3.6764Y-4.2945
M16
G05
G00X3.6764Y-4.624
M15
G01X3.6764Y-4.6004
M16
G05
G00X3.6764Y-4.7984
M15
G01X3.6764Y-4.7551
M16
G05
G00X4.0165Y-1.8602
M15
G01X4.0165Y-1.8366
M16
G05
G00X4.0165Y-2.0346
M15
G01X4.0165Y-1.9913
M16
G05
G00X4.0165Y-2.3209
M15
G01X4.0165Y-2.2972
M16
G05
G00X4.0165Y-2.4953
M15
G01X4.0165Y-2.452
M16
G05
G00X4.0165Y-2.7815
M15
G01X4.0165Y-2.7579
M16
G05
G00X4.0165Y-2.9559
M15
G01X4.0165Y-2.9126
M16
G05
G00X4.0165Y-3.2421
M15
G01X4.0165Y-3.2185
M16
G05
G00X4.0165Y-3.4165
M15
G01X4.0165Y-3.3732
M16
G05
G00X4.0165Y-3.7028
M15
G01X4.0165Y-3.6791
M16
G05
G00X4.0165Y-3.8772
M15
G01X4.0165Y-3.8339
M16
G05
G00X4.0165Y-4.1634
M15
G01X4.0165Y-4.1398
M16
G05
G00X4.0165Y-4.3378
M15
G01X4.0165Y-4.2945
M16
G05
G00X4.0165Y-4.624
M15
G01X4.0165Y-4.6004
M16
G05
G00X4.0165Y-4.7984
M15
G01X4.0165Y-4.7551
M16
G05
T0
M30
